<?xml version="1.0" encoding="utf-8"?>
<!-- Generator: Adobe Illustrator 25.0.1, SVG Export Plug-In . SVG Version: 6.00 Build 0)  -->
<svg version="1.1" id="Livello_1" xmlns="http://www.w3.org/2000/svg" xmlns:xlink="http://www.w3.org/1999/xlink" x="0px" y="0px"
	 viewBox="0 0 16.6 1080" style="enable-background:new 0 0 16.6 1080;" xml:space="preserve">
<style type="text/css">
	.st0{fill:#C2152F;}
</style>
<g>
	<polygon class="st0" points="0,349.3 16.6,359.3 16.6,358.7 0,348.7 	"/>
	<polygon class="st0" points="0,343.7 16.6,353.7 16.6,353.1 0,343.1 	"/>
	<polygon class="st0" points="0,394.2 16.6,404.2 16.6,403.7 0,393.7 	"/>
	<polygon class="st0" points="0,338.1 16.6,348.1 16.6,347.5 0,337.5 	"/>
	<polygon class="st0" points="0,360.5 16.6,370.5 16.6,370 0,360 	"/>
	<polygon class="st0" points="0,332.5 16.6,342.5 16.6,341.9 0,331.9 	"/>
	<polygon class="st0" points="0,377.4 16.6,387.4 16.6,386.8 0,376.8 	"/>
	<polygon class="st0" points="0,388.6 16.6,398.6 16.6,398 0,388 	"/>
	<polygon class="st0" points="0,366.2 16.6,376.2 16.6,375.6 0,365.6 	"/>
	<polygon class="st0" points="0,383 16.6,393 16.6,392.4 0,382.4 	"/>
	<polygon class="st0" points="0,326.8 16.6,336.8 16.6,336.3 0,326.3 	"/>
	<polygon class="st0" points="0,371.8 16.6,381.8 16.6,381.2 0,371.2 	"/>
	<polygon class="st0" points="0,354.9 16.6,364.9 16.6,364.3 0,354.3 	"/>
	<polygon class="st0" points="0,287.5 16.6,297.5 16.6,296.9 0,286.9 	"/>
	<polygon class="st0" points="0,281.9 16.6,291.9 16.6,291.3 0,281.3 	"/>
	<polygon class="st0" points="0,276.3 16.6,286.3 16.6,285.7 0,275.7 	"/>
	<polygon class="st0" points="0,270.7 16.6,280.7 16.6,280.1 0,270.1 	"/>
	<polygon class="st0" points="0,321.2 16.6,331.2 16.6,330.6 0,320.6 	"/>
	<polygon class="st0" points="0,265.1 16.6,275.1 16.6,274.5 0,264.5 	"/>
	<polygon class="st0" points="0,315.6 16.6,325.6 16.6,325 0,315 	"/>
	<polygon class="st0" points="0,293.1 16.6,303.1 16.6,302.6 0,292.6 	"/>
	<polygon class="st0" points="0,310 16.6,320 16.6,319.4 0,309.4 	"/>
	<polygon class="st0" points="0,304.4 16.6,314.4 16.6,313.8 0,303.8 	"/>
	<polygon class="st0" points="0,298.8 16.6,308.8 16.6,308.2 0,298.2 	"/>
	<polygon class="st0" points="0,416.7 16.6,426.7 16.6,426.1 0,416.1 	"/>
	<polygon class="st0" points="0,1075 8.3,1080 9.2,1080 0,1074.5 	"/>
	<polygon class="st0" points="0,495.3 16.6,505.3 16.6,504.8 0,494.8 	"/>
	<polygon class="st0" points="0,489.7 16.6,499.7 16.6,499.1 0,489.1 	"/>
	<polygon class="st0" points="0,478.5 16.6,488.5 16.6,487.9 0,477.9 	"/>
	<polygon class="st0" points="0,472.9 16.6,482.9 16.6,482.3 0,472.3 	"/>
	<polygon class="st0" points="0,523.4 16.6,533.4 16.6,532.8 0,522.8 	"/>
	<polygon class="st0" points="0,467.3 16.6,477.3 16.6,476.7 0,466.7 	"/>
	<polygon class="st0" points="0,501 16.6,511 16.6,510.4 0,500.4 	"/>
	<polygon class="st0" points="0,517.8 16.6,527.8 16.6,527.2 0,517.2 	"/>
	<polygon class="st0" points="0,506.6 16.6,516.6 16.6,516 0,506 	"/>
	<polygon class="st0" points="0,399.9 16.6,409.9 16.6,409.3 0,399.3 	"/>
	<polygon class="st0" points="0,512.2 16.6,522.2 16.6,521.6 0,511.6 	"/>
	<polygon class="st0" points="0,422.3 16.6,432.3 16.6,431.7 0,421.7 	"/>
	<polygon class="st0" points="0,427.9 16.6,437.9 16.6,437.4 0,427.4 	"/>
	<polygon class="st0" points="0,259.4 16.6,269.4 16.6,268.9 0,258.9 	"/>
	<polygon class="st0" points="0,411.1 16.6,421.1 16.6,420.5 0,410.5 	"/>
	<polygon class="st0" points="0,405.5 16.6,415.5 16.6,414.9 0,404.9 	"/>
	<polygon class="st0" points="0,461.6 16.6,471.6 16.6,471.1 0,461.1 	"/>
	<polygon class="st0" points="0,450.4 16.6,460.4 16.6,459.8 0,449.8 	"/>
	<polygon class="st0" points="0,433.6 16.6,443.6 16.6,443 0,433 	"/>
	<polygon class="st0" points="0,456 16.6,466 16.6,465.4 0,455.4 	"/>
	<polygon class="st0" points="0,439.2 16.6,449.2 16.6,448.6 0,438.6 	"/>
	<polygon class="st0" points="0,444.8 16.6,454.8 16.6,454.2 0,444.2 	"/>
	<polygon class="st0" points="0,231.4 16.6,241.4 16.6,240.8 0,230.8 	"/>
	<polygon class="st0" points="0,74.1 16.6,84.1 16.6,83.5 0,73.5 	"/>
	<polygon class="st0" points="0,79.7 16.6,89.7 16.6,89.1 0,79.1 	"/>
	<polygon class="st0" points="0,68.5 16.6,78.5 16.6,77.9 0,67.9 	"/>
	<polygon class="st0" points="0,62.9 16.6,72.9 16.6,72.3 0,62.3 	"/>
	<polygon class="st0" points="0,57.2 16.6,67.2 16.6,66.7 0,56.7 	"/>
	<polygon class="st0" points="0,85.3 16.6,95.3 16.6,94.7 0,84.7 	"/>
	<polygon class="st0" points="0,113.4 16.6,123.4 16.6,122.8 0,112.8 	"/>
	<polygon class="st0" points="0,107.8 16.6,117.8 16.6,117.2 0,107.2 	"/>
	<polygon class="st0" points="0,90.9 16.6,100.9 16.6,100.4 0,90.4 	"/>
	<polygon class="st0" points="0,96.6 16.6,106.6 16.6,106 0,96 	"/>
	<polygon class="st0" points="0,102.2 16.6,112.2 16.6,111.6 0,101.6 	"/>
	<polygon class="st0" points="0,29.2 16.6,39.2 16.6,38.6 0,28.6 	"/>
	<polygon class="st0" points="0,51.6 16.6,61.6 16.6,61 0,51 	"/>
	<polygon class="st0" points="0,12.3 16.6,22.3 16.6,21.7 0,11.7 	"/>
	<polygon class="st0" points="0,1.1 16.6,11.1 16.6,10.5 0,0.5 	"/>
	<polygon class="st0" points="0,17.9 16.6,27.9 16.6,27.3 0,17.3 	"/>
	<polygon class="st0" points="0,253.8 16.6,263.8 16.6,263.2 0,253.2 	"/>
	<polygon class="st0" points="0,6.7 16.6,16.7 16.6,16.1 0,6.1 	"/>
	<polygon class="st0" points="0,40.4 16.6,50.4 16.6,49.8 0,39.8 	"/>
	<polygon class="st0" points="0,46 16.6,56 16.6,55.4 0,45.4 	"/>
	<polygon class="st0" points="0,119 16.6,129 16.6,128.4 0,118.4 	"/>
	<polygon class="st0" points="0,23.5 16.6,33.5 16.6,33 0,23 	"/>
	<polygon class="st0" points="0,34.8 16.6,44.8 16.6,44.2 0,34.2 	"/>
	<polygon class="st0" points="8.5,0 7.5,0 16.6,5.5 16.6,4.9 	"/>
	<polygon class="st0" points="0,214.5 16.6,224.5 16.6,223.9 0,213.9 	"/>
	<polygon class="st0" points="0,192 16.6,202 16.6,201.5 0,191.5 	"/>
	<polygon class="st0" points="0,203.3 16.6,213.3 16.6,212.7 0,202.7 	"/>
	<polygon class="st0" points="0,197.7 16.6,207.7 16.6,207.1 0,197.1 	"/>
	<polygon class="st0" points="0,220.1 16.6,230.1 16.6,229.5 0,219.5 	"/>
	<polygon class="st0" points="0,208.9 16.6,218.9 16.6,218.3 0,208.3 	"/>
	<polygon class="st0" points="0,225.7 16.6,235.7 16.6,235.2 0,225.2 	"/>
	<polygon class="st0" points="0,242.6 16.6,252.6 16.6,252 0,242 	"/>
	<polygon class="st0" points="0,248.2 16.6,258.2 16.6,257.6 0,247.6 	"/>
	<polygon class="st0" points="0,237 16.6,247 16.6,246.4 0,236.4 	"/>
	<polygon class="st0" points="0,529 16.6,539 16.6,538.5 0,528.5 	"/>
	<polygon class="st0" points="0,135.9 16.6,145.9 16.6,145.3 0,135.3 	"/>
	<polygon class="st0" points="0,141.5 16.6,151.5 16.6,150.9 0,140.9 	"/>
	<polygon class="st0" points="0,147.1 16.6,157.1 16.6,156.5 0,146.5 	"/>
	<polygon class="st0" points="0,152.7 16.6,162.7 16.6,162.1 0,152.1 	"/>
	<polygon class="st0" points="0,130.3 16.6,140.3 16.6,139.7 0,129.7 	"/>
	<polygon class="st0" points="0,124.6 16.6,134.6 16.6,134.1 0,124.1 	"/>
	<polygon class="st0" points="0,186.4 16.6,196.4 16.6,195.8 0,185.8 	"/>
	<polygon class="st0" points="0,180.8 16.6,190.8 16.6,190.2 0,180.2 	"/>
	<polygon class="st0" points="0,175.2 16.6,185.2 16.6,184.6 0,174.6 	"/>
	<polygon class="st0" points="0,164 16.6,174 16.6,173.4 0,163.4 	"/>
	<polygon class="st0" points="0,158.3 16.6,168.3 16.6,167.8 0,157.8 	"/>
	<polygon class="st0" points="0,169.6 16.6,179.6 16.6,179 0,169 	"/>
	<polygon class="st0" points="0,484.1 16.6,494.1 16.6,493.5 0,483.5 	"/>
	<polygon class="st0" points="0,894.1 16.6,904.1 16.6,903.5 0,893.5 	"/>
	<polygon class="st0" points="0,888.5 16.6,898.5 16.6,897.9 0,887.9 	"/>
	<polygon class="st0" points="0,905.4 16.6,915.4 16.6,914.8 0,904.8 	"/>
	<polygon class="st0" points="0,899.7 16.6,909.7 16.6,909.2 0,899.2 	"/>
	<polygon class="st0" points="0,882.9 16.6,892.9 16.6,892.3 0,882.3 	"/>
	<polygon class="st0" points="0,877.3 16.6,887.3 16.6,886.7 0,876.7 	"/>
	<polygon class="st0" points="0,933.4 16.6,943.4 16.6,942.9 0,932.9 	"/>
	<polygon class="st0" points="0,911 16.6,921 16.6,920.4 0,910.4 	"/>
	<polygon class="st0" points="0,927.8 16.6,937.8 16.6,937.2 0,927.2 	"/>
	<polygon class="st0" points="0,871.7 16.6,881.7 16.6,881.1 0,871.1 	"/>
	<polygon class="st0" points="0,916.6 16.6,926.6 16.6,926 0,916 	"/>
	<polygon class="st0" points="0,922.2 16.6,932.2 16.6,931.6 0,921.6 	"/>
	<polygon class="st0" points="0,843.6 16.6,853.6 16.6,853 0,843 	"/>
	<polygon class="st0" points="0,821.1 16.6,831.1 16.6,830.5 0,820.5 	"/>
	<polygon class="st0" points="0,832.3 16.6,842.3 16.6,841.8 0,831.8 	"/>
	<polygon class="st0" points="0,826.7 16.6,836.7 16.6,836.1 0,826.1 	"/>
	<polygon class="st0" points="0,815.5 16.6,825.5 16.6,824.9 0,814.9 	"/>
	<polygon class="st0" points="0,809.9 16.6,819.9 16.6,819.3 0,809.3 	"/>
	<polygon class="st0" points="0,866 16.6,876 16.6,875.5 0,865.5 	"/>
	<polygon class="st0" points="0,854.8 16.6,864.8 16.6,864.2 0,854.2 	"/>
	<polygon class="st0" points="0,860.4 16.6,870.4 16.6,869.8 0,859.8 	"/>
	<polygon class="st0" points="0,849.2 16.6,859.2 16.6,858.6 0,848.6 	"/>
	<polygon class="st0" points="0,838 16.6,848 16.6,847.4 0,837.4 	"/>
	<polygon class="st0" points="0,939.1 16.6,949.1 16.6,948.5 0,938.5 	"/>
	<polygon class="st0" points="0,961.5 16.6,971.5 16.6,970.9 0,960.9 	"/>
	<polygon class="st0" points="0,1028.9 16.6,1038.9 16.6,1038.3 0,1028.3 	"/>
	<polygon class="st0" points="0,1012.1 16.6,1022.1 16.6,1021.5 0,1011.5 	"/>
	<polygon class="st0" points="0,1023.3 16.6,1033.3 16.6,1032.7 0,1022.7 	"/>
	<polygon class="st0" points="0,1040.2 16.6,1050.2 16.6,1049.6 0,1039.6 	"/>
	<polygon class="st0" points="0,1017.7 16.6,1027.7 16.6,1027.1 0,1017.1 	"/>
	<polygon class="st0" points="0,1034.5 16.6,1044.5 16.6,1044 0,1034 	"/>
	<polygon class="st0" points="0,1068.2 16.6,1078.2 16.6,1077.7 0,1067.7 	"/>
	<polygon class="st0" points="0,1045.8 16.6,1055.8 16.6,1055.2 0,1045.2 	"/>
	<polygon class="st0" points="0,1062.6 16.6,1072.6 16.6,1072 0,1062 	"/>
	<polygon class="st0" points="0,1057 16.6,1067 16.6,1066.4 0,1056.4 	"/>
	<polygon class="st0" points="0,1051.4 16.6,1061.4 16.6,1060.8 0,1050.8 	"/>
	<polygon class="st0" points="0,950.3 16.6,960.3 16.6,959.7 0,949.7 	"/>
	<polygon class="st0" points="0,1006.5 16.6,1016.5 16.6,1015.9 0,1005.9 	"/>
	<polygon class="st0" points="0,972.8 16.6,982.8 16.6,982.2 0,972.2 	"/>
	<polygon class="st0" points="0,967.1 16.6,977.1 16.6,976.6 0,966.6 	"/>
	<polygon class="st0" points="0,944.7 16.6,954.7 16.6,954.1 0,944.1 	"/>
	<polygon class="st0" points="0,955.9 16.6,965.9 16.6,965.3 0,955.3 	"/>
	<polygon class="st0" points="0,804.3 16.6,814.3 16.6,813.7 0,803.7 	"/>
	<polygon class="st0" points="0,995.2 16.6,1005.2 16.6,1004.6 0,994.6 	"/>
	<polygon class="st0" points="0,1000.8 16.6,1010.8 16.6,1010.3 0,1000.3 	"/>
	<polygon class="st0" points="0,984 16.6,994 16.6,993.4 0,983.4 	"/>
	<polygon class="st0" points="0,989.6 16.6,999.6 16.6,999 0,989 	"/>
	<polygon class="st0" points="0,978.4 16.6,988.4 16.6,987.8 0,977.8 	"/>
	<polygon class="st0" points="0,647 16.6,657 16.6,656.4 0,646.4 	"/>
	<polygon class="st0" points="0,624.5 16.6,634.5 16.6,633.9 0,623.9 	"/>
	<polygon class="st0" points="0,618.9 16.6,628.9 16.6,628.3 0,618.3 	"/>
	<polygon class="st0" points="0,613.3 16.6,623.3 16.6,622.7 0,612.7 	"/>
	<polygon class="st0" points="0,630.1 16.6,640.1 16.6,639.6 0,629.6 	"/>
	<polygon class="st0" points="0,602.1 16.6,612.1 16.6,611.5 0,601.5 	"/>
	<polygon class="st0" points="0,607.7 16.6,617.7 16.6,617.1 0,607.1 	"/>
	<polygon class="st0" points="0,652.6 16.6,662.6 16.6,662 0,652 	"/>
	<polygon class="st0" points="0,658.2 16.6,668.2 16.6,667.6 0,657.6 	"/>
	<polygon class="st0" points="0,635.8 16.6,645.8 16.6,645.2 0,635.2 	"/>
	<polygon class="st0" points="0,534.7 16.6,544.7 16.6,544.1 0,534.1 	"/>
	<polygon class="st0" points="0,641.4 16.6,651.4 16.6,650.8 0,640.8 	"/>
	<polygon class="st0" points="0,663.8 16.6,673.8 16.6,673.3 0,663.3 	"/>
	<polygon class="st0" points="0,551.5 16.6,561.5 16.6,560.9 0,550.9 	"/>
	<polygon class="st0" points="0,557.1 16.6,567.1 16.6,566.5 0,556.5 	"/>
	<polygon class="st0" points="0,545.9 16.6,555.9 16.6,555.3 0,545.3 	"/>
	<polygon class="st0" points="0,540.3 16.6,550.3 16.6,549.7 0,539.7 	"/>
	<polygon class="st0" points="0,562.7 16.6,572.7 16.6,572.2 0,562.2 	"/>
	<polygon class="st0" points="0,596.4 16.6,606.4 16.6,605.9 0,595.9 	"/>
	<polygon class="st0" points="0,590.8 16.6,600.8 16.6,600.2 0,590.2 	"/>
	<polygon class="st0" points="0,585.2 16.6,595.2 16.6,594.6 0,584.6 	"/>
	<polygon class="st0" points="0,574 16.6,584 16.6,583.4 0,573.4 	"/>
	<polygon class="st0" points="0,568.4 16.6,578.4 16.6,577.8 0,567.8 	"/>
	<polygon class="st0" points="0,579.6 16.6,589.6 16.6,589 0,579 	"/>
	<polygon class="st0" points="0,720 16.6,730 16.6,729.4 0,719.4 	"/>
	<polygon class="st0" points="0,764.9 16.6,774.9 16.6,774.4 0,764.4 	"/>
	<polygon class="st0" points="0,759.3 16.6,769.3 16.6,768.7 0,758.7 	"/>
	<polygon class="st0" points="0,753.7 16.6,763.7 16.6,763.1 0,753.1 	"/>
	<polygon class="st0" points="0,748.1 16.6,758.1 16.6,757.5 0,747.5 	"/>
	<polygon class="st0" points="0,742.5 16.6,752.5 16.6,751.9 0,741.9 	"/>
	<polygon class="st0" points="0,736.9 16.6,746.9 16.6,746.3 0,736.3 	"/>
	<polygon class="st0" points="0,787.4 16.6,797.4 16.6,796.8 0,786.8 	"/>
	<polygon class="st0" points="0,793 16.6,803 16.6,802.4 0,792.4 	"/>
	<polygon class="st0" points="0,776.2 16.6,786.2 16.6,785.6 0,775.6 	"/>
	<polygon class="st0" points="0,770.6 16.6,780.6 16.6,780 0,770 	"/>
	<polygon class="st0" points="0,781.8 16.6,791.8 16.6,791.2 0,781.2 	"/>
	<polygon class="st0" points="0,675.1 16.6,685.1 16.6,684.5 0,674.5 	"/>
	<polygon class="st0" points="0,691.9 16.6,701.9 16.6,701.3 0,691.3 	"/>
	<polygon class="st0" points="0,731.2 16.6,741.2 16.6,740.7 0,730.7 	"/>
	<polygon class="st0" points="0,680.7 16.6,690.7 16.6,690.1 0,680.1 	"/>
	<polygon class="st0" points="0,669.5 16.6,679.5 16.6,678.9 0,668.9 	"/>
	<polygon class="st0" points="0,697.5 16.6,707.5 16.6,707 0,697 	"/>
	<polygon class="st0" points="0,686.3 16.6,696.3 16.6,695.7 0,685.7 	"/>
	<polygon class="st0" points="0,798.6 16.6,808.6 16.6,808.1 0,798.1 	"/>
	<polygon class="st0" points="0,725.6 16.6,735.6 16.6,735 0,725 	"/>
	<polygon class="st0" points="0,703.2 16.6,713.2 16.6,712.6 0,702.6 	"/>
	<polygon class="st0" points="0,708.8 16.6,718.8 16.6,718.2 0,708.2 	"/>
	<polygon class="st0" points="0,714.4 16.6,724.4 16.6,723.8 0,713.8 	"/>
</g>
</svg>
