<?xml version="1.0" encoding="utf-8"?>
<!-- Generator: Adobe Illustrator 25.0.1, SVG Export Plug-In . SVG Version: 6.00 Build 0)  -->
<svg version="1.1" baseProfile="tiny" id="Livello_1"
	 xmlns="http://www.w3.org/2000/svg" xmlns:xlink="http://www.w3.org/1999/xlink" x="0px" y="0px" viewBox="0 0 1080 16.6"
	 overflow="visible" xml:space="preserve">
<g>
	<polygon fill="#C2152F" points="349.3,16.6 359.3,0 358.7,0 348.7,16.6 	"/>
	<polygon fill="#C2152F" points="343.7,16.6 353.7,0 353.1,0 343.1,16.6 	"/>
	<polygon fill="#C2152F" points="394.2,16.6 404.2,0 403.7,0 393.7,16.6 	"/>
	<polygon fill="#C2152F" points="338.1,16.6 348.1,0 347.5,0 337.5,16.6 	"/>
	<polygon fill="#C2152F" points="360.5,16.6 370.5,0 370,0 360,16.6 	"/>
	<polygon fill="#C2152F" points="332.5,16.6 342.5,0 341.9,0 331.9,16.6 	"/>
	<polygon fill="#C2152F" points="377.4,16.6 387.4,0 386.8,0 376.8,16.6 	"/>
	<polygon fill="#C2152F" points="388.6,16.6 398.6,0 398,0 388,16.6 	"/>
	<polygon fill="#C2152F" points="366.2,16.6 376.2,0 375.6,0 365.6,16.6 	"/>
	<polygon fill="#C2152F" points="383,16.6 393,0 392.4,0 382.4,16.6 	"/>
	<polygon fill="#C2152F" points="326.8,16.6 336.8,0 336.3,0 326.3,16.6 	"/>
	<polygon fill="#C2152F" points="371.8,16.6 381.8,0 381.2,0 371.2,16.6 	"/>
	<polygon fill="#C2152F" points="354.9,16.6 364.9,0 364.3,0 354.3,16.6 	"/>
	<polygon fill="#C2152F" points="287.5,16.6 297.5,0 296.9,0 286.9,16.6 	"/>
	<polygon fill="#C2152F" points="281.9,16.6 291.9,0 291.3,0 281.3,16.6 	"/>
	<polygon fill="#C2152F" points="276.3,16.6 286.3,0 285.7,0 275.7,16.6 	"/>
	<polygon fill="#C2152F" points="270.7,16.6 280.7,0 280.1,0 270.1,16.6 	"/>
	<polygon fill="#C2152F" points="321.2,16.6 331.2,0 330.6,0 320.6,16.6 	"/>
	<polygon fill="#C2152F" points="265.1,16.6 275.1,0 274.5,0 264.5,16.6 	"/>
	<polygon fill="#C2152F" points="315.6,16.6 325.6,0 325,0 315,16.6 	"/>
	<polygon fill="#C2152F" points="293.1,16.6 303.1,0 302.6,0 292.6,16.6 	"/>
	<polygon fill="#C2152F" points="310,16.6 320,0 319.4,0 309.4,16.6 	"/>
	<polygon fill="#C2152F" points="304.4,16.6 314.4,0 313.8,0 303.8,16.6 	"/>
	<polygon fill="#C2152F" points="298.8,16.6 308.8,0 308.2,0 298.2,16.6 	"/>
	<polygon fill="#C2152F" points="416.7,16.6 426.7,0 426.1,0 416.1,16.6 	"/>
	<polygon fill="#C2152F" points="1075,16.6 1080,8.3 1080,7.4 1074.5,16.6 	"/>
	<polygon fill="#C2152F" points="495.3,16.6 505.3,0 504.8,0 494.8,16.6 	"/>
	<polygon fill="#C2152F" points="489.7,16.6 499.7,0 499.1,0 489.1,16.6 	"/>
	<polygon fill="#C2152F" points="478.5,16.6 488.5,0 487.9,0 477.9,16.6 	"/>
	<polygon fill="#C2152F" points="472.9,16.6 482.9,0 482.3,0 472.3,16.6 	"/>
	<polygon fill="#C2152F" points="523.4,16.6 533.4,0 532.8,0 522.8,16.6 	"/>
	<polygon fill="#C2152F" points="467.3,16.6 477.3,0 476.7,0 466.7,16.6 	"/>
	<polygon fill="#C2152F" points="501,16.6 511,0 510.4,0 500.4,16.6 	"/>
	<polygon fill="#C2152F" points="517.8,16.6 527.8,0 527.2,0 517.2,16.6 	"/>
	<polygon fill="#C2152F" points="506.6,16.6 516.6,0 516,0 506,16.6 	"/>
	<polygon fill="#C2152F" points="399.9,16.6 409.9,0 409.3,0 399.3,16.6 	"/>
	<polygon fill="#C2152F" points="512.2,16.6 522.2,0 521.6,0 511.6,16.6 	"/>
	<polygon fill="#C2152F" points="422.3,16.6 432.3,0 431.7,0 421.7,16.6 	"/>
	<polygon fill="#C2152F" points="427.9,16.6 437.9,0 437.4,0 427.4,16.6 	"/>
	<polygon fill="#C2152F" points="259.4,16.6 269.4,0 268.9,0 258.9,16.6 	"/>
	<polygon fill="#C2152F" points="411.1,16.6 421.1,0 420.5,0 410.5,16.6 	"/>
	<polygon fill="#C2152F" points="405.5,16.6 415.5,0 414.9,0 404.9,16.6 	"/>
	<polygon fill="#C2152F" points="461.6,16.6 471.6,0 471.1,0 461.1,16.6 	"/>
	<polygon fill="#C2152F" points="450.4,16.6 460.4,0 459.8,0 449.8,16.6 	"/>
	<polygon fill="#C2152F" points="433.6,16.6 443.6,0 443,0 433,16.6 	"/>
	<polygon fill="#C2152F" points="456,16.6 466,0 465.4,0 455.4,16.6 	"/>
	<polygon fill="#C2152F" points="439.2,16.6 449.2,0 448.6,0 438.6,16.6 	"/>
	<polygon fill="#C2152F" points="444.8,16.6 454.8,0 454.2,0 444.2,16.6 	"/>
	<polygon fill="#C2152F" points="231.4,16.6 241.4,0 240.8,0 230.8,16.6 	"/>
	<polygon fill="#C2152F" points="74.1,16.6 84.1,0 83.5,0 73.5,16.6 	"/>
	<polygon fill="#C2152F" points="79.7,16.6 89.7,0 89.1,0 79.1,16.6 	"/>
	<polygon fill="#C2152F" points="68.5,16.6 78.5,0 77.9,0 67.9,16.6 	"/>
	<polygon fill="#C2152F" points="62.9,16.6 72.9,0 72.3,0 62.3,16.6 	"/>
	<polygon fill="#C2152F" points="57.2,16.6 67.2,0 66.7,0 56.7,16.6 	"/>
	<polygon fill="#C2152F" points="85.3,16.6 95.3,0 94.7,0 84.7,16.6 	"/>
	<polygon fill="#C2152F" points="113.4,16.6 123.4,0 122.8,0 112.8,16.6 	"/>
	<polygon fill="#C2152F" points="107.8,16.6 117.8,0 117.2,0 107.2,16.6 	"/>
	<polygon fill="#C2152F" points="90.9,16.6 100.9,0 100.4,0 90.4,16.6 	"/>
	<polygon fill="#C2152F" points="96.6,16.6 106.6,0 106,0 96,16.6 	"/>
	<polygon fill="#C2152F" points="102.2,16.6 112.2,0 111.6,0 101.6,16.6 	"/>
	<polygon fill="#C2152F" points="29.2,16.6 39.2,0 38.6,0 28.6,16.6 	"/>
	<polygon fill="#C2152F" points="51.6,16.6 61.6,0 61,0 51,16.6 	"/>
	<polygon fill="#C2152F" points="12.3,16.6 22.3,0 21.7,0 11.7,16.6 	"/>
	<polygon fill="#C2152F" points="1.1,16.6 11.1,0 10.5,0 0.5,16.6 	"/>
	<polygon fill="#C2152F" points="17.9,16.6 27.9,0 27.3,0 17.3,16.6 	"/>
	<polygon fill="#C2152F" points="253.8,16.6 263.8,0 263.2,0 253.2,16.6 	"/>
	<polygon fill="#C2152F" points="6.7,16.6 16.7,0 16.1,0 6.1,16.6 	"/>
	<polygon fill="#C2152F" points="40.4,16.6 50.4,0 49.8,0 39.8,16.6 	"/>
	<polygon fill="#C2152F" points="46,16.6 56,0 55.4,0 45.4,16.6 	"/>
	<polygon fill="#C2152F" points="119,16.6 129,0 128.4,0 118.4,16.6 	"/>
	<polygon fill="#C2152F" points="23.5,16.6 33.5,0 33,0 23,16.6 	"/>
	<polygon fill="#C2152F" points="34.8,16.6 44.8,0 44.2,0 34.2,16.6 	"/>
	<polygon fill="#C2152F" points="0,8.1 0,9.1 5.5,0 4.9,0 	"/>
	<polygon fill="#C2152F" points="214.5,16.6 224.5,0 223.9,0 213.9,16.6 	"/>
	<polygon fill="#C2152F" points="192,16.6 202,0 201.5,0 191.5,16.6 	"/>
	<polygon fill="#C2152F" points="203.3,16.6 213.3,0 212.7,0 202.7,16.6 	"/>
	<polygon fill="#C2152F" points="197.7,16.6 207.7,0 207.1,0 197.1,16.6 	"/>
	<polygon fill="#C2152F" points="220.1,16.6 230.1,0 229.5,0 219.5,16.6 	"/>
	<polygon fill="#C2152F" points="208.9,16.6 218.9,0 218.3,0 208.3,16.6 	"/>
	<polygon fill="#C2152F" points="225.7,16.6 235.7,0 235.2,0 225.2,16.6 	"/>
	<polygon fill="#C2152F" points="242.6,16.6 252.6,0 252,0 242,16.6 	"/>
	<polygon fill="#C2152F" points="248.2,16.6 258.2,0 257.6,0 247.6,16.6 	"/>
	<polygon fill="#C2152F" points="237,16.6 247,0 246.4,0 236.4,16.6 	"/>
	<polygon fill="#C2152F" points="529,16.6 539,0 538.5,0 528.5,16.6 	"/>
	<polygon fill="#C2152F" points="135.9,16.6 145.9,0 145.3,0 135.3,16.6 	"/>
	<polygon fill="#C2152F" points="141.5,16.6 151.5,0 150.9,0 140.9,16.6 	"/>
	<polygon fill="#C2152F" points="147.1,16.6 157.1,0 156.5,0 146.5,16.6 	"/>
	<polygon fill="#C2152F" points="152.7,16.6 162.7,0 162.1,0 152.1,16.6 	"/>
	<polygon fill="#C2152F" points="130.3,16.6 140.3,0 139.7,0 129.7,16.6 	"/>
	<polygon fill="#C2152F" points="124.6,16.6 134.6,0 134.1,0 124.1,16.6 	"/>
	<polygon fill="#C2152F" points="186.4,16.6 196.4,0 195.8,0 185.8,16.6 	"/>
	<polygon fill="#C2152F" points="180.8,16.6 190.8,0 190.2,0 180.2,16.6 	"/>
	<polygon fill="#C2152F" points="175.2,16.6 185.2,0 184.6,0 174.6,16.6 	"/>
	<polygon fill="#C2152F" points="164,16.6 174,0 173.4,0 163.4,16.6 	"/>
	<polygon fill="#C2152F" points="158.3,16.6 168.3,0 167.8,0 157.8,16.6 	"/>
	<polygon fill="#C2152F" points="169.6,16.6 179.6,0 179,0 169,16.6 	"/>
	<polygon fill="#C2152F" points="484.1,16.6 494.1,0 493.5,0 483.5,16.6 	"/>
	<polygon fill="#C2152F" points="894.1,16.6 904.1,0 903.5,0 893.5,16.6 	"/>
	<polygon fill="#C2152F" points="888.5,16.6 898.5,0 897.9,0 887.9,16.6 	"/>
	<polygon fill="#C2152F" points="905.4,16.6 915.4,0 914.8,0 904.8,16.6 	"/>
	<polygon fill="#C2152F" points="899.7,16.6 909.7,0 909.2,0 899.2,16.6 	"/>
	<polygon fill="#C2152F" points="882.9,16.6 892.9,0 892.3,0 882.3,16.6 	"/>
	<polygon fill="#C2152F" points="877.3,16.6 887.3,0 886.7,0 876.7,16.6 	"/>
	<polygon fill="#C2152F" points="933.4,16.6 943.4,0 942.9,0 932.9,16.6 	"/>
	<polygon fill="#C2152F" points="911,16.6 921,0 920.4,0 910.4,16.6 	"/>
	<polygon fill="#C2152F" points="927.8,16.6 937.8,0 937.2,0 927.2,16.6 	"/>
	<polygon fill="#C2152F" points="871.7,16.6 881.7,0 881.1,0 871.1,16.6 	"/>
	<polygon fill="#C2152F" points="916.6,16.6 926.6,0 926,0 916,16.6 	"/>
	<polygon fill="#C2152F" points="922.2,16.6 932.2,0 931.6,0 921.6,16.6 	"/>
	<polygon fill="#C2152F" points="843.6,16.6 853.6,0 853,0 843,16.6 	"/>
	<polygon fill="#C2152F" points="821.1,16.6 831.1,0 830.5,0 820.5,16.6 	"/>
	<polygon fill="#C2152F" points="832.3,16.6 842.3,0 841.8,0 831.8,16.6 	"/>
	<polygon fill="#C2152F" points="826.7,16.6 836.7,0 836.1,0 826.1,16.6 	"/>
	<polygon fill="#C2152F" points="815.5,16.6 825.5,0 824.9,0 814.9,16.6 	"/>
	<polygon fill="#C2152F" points="809.9,16.6 819.9,0 819.3,0 809.3,16.6 	"/>
	<polygon fill="#C2152F" points="866,16.6 876,0 875.5,0 865.5,16.6 	"/>
	<polygon fill="#C2152F" points="854.8,16.6 864.8,0 864.2,0 854.2,16.6 	"/>
	<polygon fill="#C2152F" points="860.4,16.6 870.4,0 869.8,0 859.8,16.6 	"/>
	<polygon fill="#C2152F" points="849.2,16.6 859.2,0 858.6,0 848.6,16.6 	"/>
	<polygon fill="#C2152F" points="838,16.6 848,0 847.4,0 837.4,16.6 	"/>
	<polygon fill="#C2152F" points="939.1,16.6 949.1,0 948.5,0 938.5,16.6 	"/>
	<polygon fill="#C2152F" points="961.5,16.6 971.5,0 970.9,0 960.9,16.6 	"/>
	<polygon fill="#C2152F" points="1028.9,16.6 1038.9,0 1038.3,0 1028.3,16.6 	"/>
	<polygon fill="#C2152F" points="1012.1,16.6 1022.1,0 1021.5,0 1011.5,16.6 	"/>
	<polygon fill="#C2152F" points="1023.3,16.6 1033.3,0 1032.7,0 1022.7,16.6 	"/>
	<polygon fill="#C2152F" points="1040.2,16.6 1050.2,0 1049.6,0 1039.6,16.6 	"/>
	<polygon fill="#C2152F" points="1017.7,16.6 1027.7,0 1027.1,0 1017.1,16.6 	"/>
	<polygon fill="#C2152F" points="1034.5,16.6 1044.5,0 1044,0 1034,16.6 	"/>
	<polygon fill="#C2152F" points="1068.2,16.6 1078.2,0 1077.7,0 1067.7,16.6 	"/>
	<polygon fill="#C2152F" points="1045.8,16.6 1055.8,0 1055.2,0 1045.2,16.6 	"/>
	<polygon fill="#C2152F" points="1062.6,16.6 1072.6,0 1072,0 1062,16.6 	"/>
	<polygon fill="#C2152F" points="1057,16.6 1067,0 1066.4,0 1056.4,16.6 	"/>
	<polygon fill="#C2152F" points="1051.4,16.6 1061.4,0 1060.8,0 1050.8,16.6 	"/>
	<polygon fill="#C2152F" points="950.3,16.6 960.3,0 959.7,0 949.7,16.6 	"/>
	<polygon fill="#C2152F" points="1006.5,16.6 1016.5,0 1015.9,0 1005.9,16.6 	"/>
	<polygon fill="#C2152F" points="972.8,16.6 982.8,0 982.2,0 972.2,16.6 	"/>
	<polygon fill="#C2152F" points="967.1,16.6 977.1,0 976.6,0 966.6,16.6 	"/>
	<polygon fill="#C2152F" points="944.7,16.6 954.7,0 954.1,0 944.1,16.6 	"/>
	<polygon fill="#C2152F" points="955.9,16.6 965.9,0 965.3,0 955.3,16.6 	"/>
	<polygon fill="#C2152F" points="804.3,16.6 814.3,0 813.7,0 803.7,16.6 	"/>
	<polygon fill="#C2152F" points="995.2,16.6 1005.2,0 1004.6,0 994.6,16.6 	"/>
	<polygon fill="#C2152F" points="1000.8,16.6 1010.8,0 1010.3,0 1000.3,16.6 	"/>
	<polygon fill="#C2152F" points="984,16.6 994,0 993.4,0 983.4,16.6 	"/>
	<polygon fill="#C2152F" points="989.6,16.6 999.6,0 999,0 989,16.6 	"/>
	<polygon fill="#C2152F" points="978.4,16.6 988.4,0 987.8,0 977.8,16.6 	"/>
	<polygon fill="#C2152F" points="647,16.6 657,0 656.4,0 646.4,16.6 	"/>
	<polygon fill="#C2152F" points="624.5,16.6 634.5,0 633.9,0 623.9,16.6 	"/>
	<polygon fill="#C2152F" points="618.9,16.6 628.9,0 628.3,0 618.3,16.6 	"/>
	<polygon fill="#C2152F" points="613.3,16.6 623.3,0 622.7,0 612.7,16.6 	"/>
	<polygon fill="#C2152F" points="630.1,16.6 640.1,0 639.6,0 629.6,16.6 	"/>
	<polygon fill="#C2152F" points="602.1,16.6 612.1,0 611.5,0 601.5,16.6 	"/>
	<polygon fill="#C2152F" points="607.7,16.6 617.7,0 617.1,0 607.1,16.6 	"/>
	<polygon fill="#C2152F" points="652.6,16.6 662.6,0 662,0 652,16.6 	"/>
	<polygon fill="#C2152F" points="658.2,16.6 668.2,0 667.6,0 657.6,16.6 	"/>
	<polygon fill="#C2152F" points="635.8,16.6 645.8,0 645.2,0 635.2,16.6 	"/>
	<polygon fill="#C2152F" points="534.7,16.6 544.7,0 544.1,0 534.1,16.6 	"/>
	<polygon fill="#C2152F" points="641.4,16.6 651.4,0 650.8,0 640.8,16.6 	"/>
	<polygon fill="#C2152F" points="663.8,16.6 673.8,0 673.3,0 663.3,16.6 	"/>
	<polygon fill="#C2152F" points="551.5,16.6 561.5,0 560.9,0 550.9,16.6 	"/>
	<polygon fill="#C2152F" points="557.1,16.6 567.1,0 566.5,0 556.5,16.6 	"/>
	<polygon fill="#C2152F" points="545.9,16.6 555.9,0 555.3,0 545.3,16.6 	"/>
	<polygon fill="#C2152F" points="540.3,16.6 550.3,0 549.7,0 539.7,16.6 	"/>
	<polygon fill="#C2152F" points="562.7,16.6 572.7,0 572.2,0 562.2,16.6 	"/>
	<polygon fill="#C2152F" points="596.4,16.6 606.4,0 605.9,0 595.9,16.6 	"/>
	<polygon fill="#C2152F" points="590.8,16.6 600.8,0 600.2,0 590.2,16.6 	"/>
	<polygon fill="#C2152F" points="585.2,16.6 595.2,0 594.6,0 584.6,16.6 	"/>
	<polygon fill="#C2152F" points="574,16.6 584,0 583.4,0 573.4,16.6 	"/>
	<polygon fill="#C2152F" points="568.4,16.6 578.4,0 577.8,0 567.8,16.6 	"/>
	<polygon fill="#C2152F" points="579.6,16.6 589.6,0 589,0 579,16.6 	"/>
	<polygon fill="#C2152F" points="720,16.6 730,0 729.4,0 719.4,16.6 	"/>
	<polygon fill="#C2152F" points="764.9,16.6 774.9,0 774.4,0 764.4,16.6 	"/>
	<polygon fill="#C2152F" points="759.3,16.6 769.3,0 768.7,0 758.7,16.6 	"/>
	<polygon fill="#C2152F" points="753.7,16.6 763.7,0 763.1,0 753.1,16.6 	"/>
	<polygon fill="#C2152F" points="748.1,16.6 758.1,0 757.5,0 747.5,16.6 	"/>
	<polygon fill="#C2152F" points="742.5,16.6 752.5,0 751.9,0 741.9,16.6 	"/>
	<polygon fill="#C2152F" points="736.9,16.6 746.9,0 746.3,0 736.3,16.6 	"/>
	<polygon fill="#C2152F" points="787.4,16.6 797.4,0 796.8,0 786.8,16.6 	"/>
	<polygon fill="#C2152F" points="793,16.6 803,0 802.4,0 792.4,16.6 	"/>
	<polygon fill="#C2152F" points="776.2,16.6 786.2,0 785.6,0 775.6,16.6 	"/>
	<polygon fill="#C2152F" points="770.6,16.6 780.6,0 780,0 770,16.6 	"/>
	<polygon fill="#C2152F" points="781.8,16.6 791.8,0 791.2,0 781.2,16.6 	"/>
	<polygon fill="#C2152F" points="675.1,16.6 685.1,0 684.5,0 674.5,16.6 	"/>
	<polygon fill="#C2152F" points="691.9,16.6 701.9,0 701.3,0 691.3,16.6 	"/>
	<polygon fill="#C2152F" points="731.2,16.6 741.2,0 740.7,0 730.7,16.6 	"/>
	<polygon fill="#C2152F" points="680.7,16.6 690.7,0 690.1,0 680.1,16.6 	"/>
	<polygon fill="#C2152F" points="669.5,16.6 679.5,0 678.9,0 668.9,16.6 	"/>
	<polygon fill="#C2152F" points="697.5,16.6 707.5,0 707,0 697,16.6 	"/>
	<polygon fill="#C2152F" points="686.3,16.6 696.3,0 695.7,0 685.7,16.6 	"/>
	<polygon fill="#C2152F" points="798.6,16.6 808.6,0 808.1,0 798.1,16.6 	"/>
	<polygon fill="#C2152F" points="725.6,16.6 735.6,0 735,0 725,16.6 	"/>
	<polygon fill="#C2152F" points="703.2,16.6 713.2,0 712.6,0 702.6,16.6 	"/>
	<polygon fill="#C2152F" points="708.8,16.6 718.8,0 718.2,0 708.2,16.6 	"/>
	<polygon fill="#C2152F" points="714.4,16.6 724.4,0 723.8,0 713.8,16.6 	"/>
</g>
</svg>
