<svg version="1.1" baseProfile="tiny" xmlns="http://www.w3.org/2000/svg" xmlns:xlink="http://www.w3.org/1999/xlink" x="0px" y="0px" viewBox="0 0 766.2 791" overflow="visible" xml:space="preserve" width="766.2" height="791">
<g>
	<path fill="#FEF7EC" d="M471.9,721.8c-2.9,0.8-4.6,3.7-3.8,6.6s3.7,4.6,6.6,3.8c2.9-0.8,4.6-3.7,3.8-6.6S474.8,721.1,471.9,721.8z"
		/>
	<path fill="#FEF7EC" d="M763.2,372.2l-20.9,0l0.1,0.6c2.1,0.7,2.3,1.3,2.3,9.6l0,12.3c0,8.4-0.1,8.9-2.3,9.6l0,0.5l22,0
		c0.9,0,1.1,0,1.3-1.4l0.6-5.1l-0.8,0c-1.3,4.9-3.1,5.8-8.4,5.8l-7.3,0l0-17.3l2.1,0c4.5,0,4.7,1.5,5.1,3.5l0.6,0l0-7.7l-0.6,0
		c-0.4,2-0.6,3.5-5.1,3.5l-2.1,0l0-13.4l6.7,0c4.7,0,6.5,1,8,5.2l0.8,0l-0.8-4.6C764.1,372.3,763.9,372.3,763.2,372.2z"/>
	<path fill="#FEF7EC" d="M625.8,633.6c-2.1,2.1-2.1,5.5,0,7.6c2.1,2.1,5.5,2.1,7.7,0s2.1-5.5,0-7.6
		C631.4,631.5,628,631.5,625.8,633.6z"/>
	<path fill="#FEF7EC" d="M294.3,721.8c-2.9-0.8-5.9,0.9-6.6,3.8c-0.8,2.9,0.9,5.9,3.8,6.6c2.9,0.8,5.9-0.9,6.6-3.8
		C298.9,725.5,297.2,722.6,294.3,721.8z"/>
	<path fill="#FEF7EC" d="M392.7,754.7c-2,0-3.9-1.9-8.7-1.9c-6.2,0-10.8,3.6-10.8,9.6c0,5.4,3.5,8.2,9.6,10.9
		c7.1,3.1,9.7,4.8,9.7,9.8c0,4.3-2.5,7.1-8.1,7.1c-6.4,0.1-10-4-11-10.4l-0.8,0l0,9.5l0.7,0c0.1-0.7,0.6-1,1.2-1
		c2.3,0,4.1,2.6,9.9,2.6c6.4-0.1,12.5-4.1,12.5-11.2c0-6.4-5-9.5-11.9-12.3c-5.7-2.4-8-4.6-8-8.1c0-3.7,2.4-5.6,7-5.6
		c5.1,0,8.7,2.5,9.9,7.5l0.8,0l0-7.3l-0.7,0C393.9,754.4,393.6,754.7,392.7,754.7z"/>
	<path fill="#FEF7EC" d="M721.3,476.8c-2.9-0.8-5.9,0.9-6.6,3.8c-0.8,2.9,0.9,5.9,3.8,6.6c2.9,0.8,5.9-0.9,6.6-3.8
		C725.9,480.6,724.2,477.6,721.3,476.8z"/>
	<path fill="#FEF7EC" d="M721.3,307.9c2.9-0.8,4.6-3.7,3.8-6.6c-0.8-2.9-3.7-4.6-6.6-3.8s-4.6,3.7-3.8,6.6
		C715.4,307,718.4,308.7,721.3,307.9z"/>
	<path fill="#FEF7EC" d="M132.7,633.5c-2.1,2.1-2.1,5.5,0,7.6c2.1,2.1,5.5,2.1,7.7,0s2.1-5.5,0-7.6
		C138.3,631.4,134.8,631.4,132.7,633.5z"/>
	<path fill="#FEF7EC" d="M380.9,74.6c-85.4,0-165.8,33-226.2,93.1C94.3,227.7,61,307.6,61,392.5c0,84.9,33.3,164.7,93.7,224.8
		c60.4,60,140.8,93.1,226.2,93.1s165.8-33,226.2-93.1c60.4-60.1,93.7-139.8,93.7-224.8c0-84.9-33.3-164.7-93.7-224.8
		S466.4,74.6,380.9,74.6z M381.6,75.9c56.3,0.1,110.2,14.6,157.7,41.7L520,150.7c-41.7-23.8-89.1-36.5-138.5-36.6L381.6,75.9z
		 M578.2,196.5c52.6,52.4,81.7,121.9,81.7,195.9s-29,143.6-81.7,196c-52.7,52.3-122.8,81.1-197.2,81.2
		c-74.5,0-144.6-28.9-197.2-81.2c-52.6-52.4-81.7-121.9-81.7-195.9c0-74,29-143.6,81.7-196c52.7-52.3,122.8-81.1,197.2-81.2
		C455.4,115.3,525.4,144.2,578.2,196.5z M380.3,75.8l0,38.2c-51.6,0.1-101.2,14.1-144.3,40l-19.9-32.7
		C265.1,91.8,321.4,76,380.3,75.8z M155.6,168.7c18.1-18.1,38.1-33.6,59.4-46.6l19.9,32.7c-18.7,11.4-36.3,25-52.2,40.9
		c-18.7,18.6-34.6,39.5-47.1,61.9l-33.7-18.4C116.3,213.6,134.2,189.8,155.6,168.7z M62.2,392.5c0-54.1,13.6-106.1,39.2-152.3
		l33.7,18.4c-22.5,40.6-34.4,86.4-34.4,133.9c0,1.5,0,2.9,0,4.3l-38.4,0.7C62.3,395.8,62.3,394.2,62.2,392.5z M62.4,398.8l38.4-0.7
		c1,48.9,14.6,95.9,39.3,136.9l-33,19.6C78.9,508,63.4,454.6,62.4,398.8z M155.6,616.4c-18.6-18.5-34.6-38.9-47.8-60.7l33-19.6
		c11.6,19.1,25.7,37,42,53.2c18.4,18.3,38.8,33.6,60.9,45.9l-18.8,33.4C199.8,654.7,176.4,637.1,155.6,616.4z M380.9,709.1
		c-55.2,0-108.2-13.9-155-39.8l18.8-33.4c41.2,22.8,87.7,35,136.2,34.9c0.9,0,1.8-0.1,2.7,0l0.5,38.2
		C383,709.1,382,709.2,380.9,709.1z M385.4,709.1l-0.5-38.2c49.3-0.7,96.6-14,138-38.2l19.6,33C495.3,693.2,441.5,708.3,385.4,709.1
		z M606.3,616.4c-19,19-40.1,35.2-62.7,48.5l-19.6-33c19.8-11.7,38.3-26,55.1-42.6c18-17.9,33.2-37.7,45.4-59l33.5,18.9
		C644,573.5,626.7,596.1,606.3,616.4z M699.6,392.5c0,55.5-14.3,108.7-41,155.7l-33.5-18.9c23.5-41.3,36-88.1,36-136.8
		c0-0.3,0-0.7,0-1l38.4-0.3C699.6,391.6,699.6,392.1,699.6,392.5z M699.6,390l-38.4,0.3c-0.4-49.1-13.4-96.1-37.6-137.3l33.2-19.3
		C684.3,280.6,699.1,334.2,699.6,390z M622.8,251.8c-11.9-20.2-26.6-39-43.7-56.1c-17.5-17.5-37-32.2-57.9-44.3l19.2-33.2
		c23.8,13.7,46,30.5,65.9,50.5c19.5,19.4,36.2,40.8,49.8,63.9L622.8,251.8z"/>
	<path fill="#FEF7EC" d="M472,62.9c2.9,0.8,5.9-0.9,6.6-3.8c0.8-2.9-0.9-5.9-3.8-6.6c-2.9-0.8-5.9,0.9-6.6,3.8S469.1,62.1,472,62.9z
		"/>
	<path fill="#FEF7EC" d="M42.6,365.4l-5.8,0l0,0.6c2.8,0.7,2.3,2.5,1.4,5.3l-7.7,23L25,378.2l2.6-6.9c1.5-4.3,1.9-4.6,3.1-5.3l0-0.6
		l-4.8,0l0,0.6c2.1,0.8,1.6,2.7,0.7,5.3l-2.1,5.6l-2.3-6.8c-1.2-3.2-1-3.8,0.6-4.1l0-0.6l-8.8,0l0,0.6c1.5,0.6,2,2,3.2,5.4l4,11.2
		l-4.2,11.6L8.3,370c-1.1-3-0.8-3.6,0.6-4l0-0.6l-8.9,0l0.1,0.6c1.8,0.8,1.9,1.9,3.2,5.4L14,401.1l1.3,0l6.2-17.3l6.3,17.4l1.3,0
		l9.9-29.8c1.4-4.3,2.1-4.7,3.4-5.4L42.6,365.4z"/>
	<path fill="#FEF7EC" d="M633.5,151.2c2.1-2.1,2.1-5.5,0-7.6c-2.1-2.1-5.5-2.1-7.7,0c-2.1,2.1-2.1,5.5,0,7.6
		C628,153.3,631.4,153.3,633.5,151.2z"/>
	<path fill="#FEF7EC" d="M294.2,62.9c2.9-0.8,4.6-3.7,3.8-6.6s-3.7-4.6-6.6-3.8c-2.9,0.8-4.6,3.7-3.8,6.6
		C288.4,62,291.3,63.6,294.2,62.9z"/>
	<path fill="#FEF7EC" d="M375.2,31.8c-2.8-1-3-1.8-2.9-10l-0.1-20.7l20.6,31.3l1.4,0l0-22c0-8.3,0.1-8.9,2.3-9.9l0-0.5l-6,0l0,0.5
		c2.8,1,2.9,1.7,2.9,10l0,14L378.4,1.5c-0.9-1.4-1-1.5-2.2-1.5l-7,0l0,0.5c2.1,0.7,2.2,1.3,2.2,9.5l0,11.7c0,8.3-0.1,8.9-2.3,10
		l0,0.5l6,0L375.2,31.8z"/>
	<path fill="#FEF7EC" d="M44.9,476.8c-2.9,0.8-4.6,3.7-3.8,6.6c0.8,2.9,3.7,4.6,6.6,3.8s4.6-3.7,3.8-6.6
		C50.7,477.7,47.8,476,44.9,476.8z"/>
	<path fill="#FEF7EC" d="M140.3,151.2c2.1-2.1,2.1-5.5,0-7.6c-2.1-2.1-5.5-2.1-7.7,0c-2.1,2.1-2.1,5.5,0,7.6
		C134.8,153.3,138.2,153.3,140.3,151.2z"/>
	<path fill="#FEF7EC" d="M44.8,307.9c2.9,0.8,5.9-0.9,6.6-3.8c0.8-2.9-0.9-5.9-3.8-6.6c-2.9-0.8-5.9,0.9-6.6,3.8
		C40.2,304.2,41.9,307.1,44.8,307.9z"/>
</g>
</svg>
