<svg version="1.1" baseProfile="tiny" xmlns="http://www.w3.org/2000/svg" xmlns:xlink="http://www.w3.org/1999/xlink" x="0px" y="0px" viewBox="0 0 1285 19" overflow="visible" xml:space="preserve" width="1285" height="19"><g><rect x="286" y="10" fill="none" width="142" height="8"/><rect x="429" y="1" fill="none" width="142" height="8"/><rect x="144" y="1" fill="none" width="142" height="8"/><rect x="1" y="10" fill="none" width="142" height="8"/><rect x="572" y="10" fill="none" width="142" height="8"/><rect x="1142" y="10" fill="none" width="142" height="8"/><rect x="714" y="1" fill="none" width="142" height="8"/><rect x="999" y="1" fill="none" width="142" height="8"/><rect x="857" y="10" fill="none" width="142" height="8"/><path fill="#FEF7EC" d="M0,0v19h1285V0H0z M143,18H1v-8h142V18z M144,1h142v8H144V1z M428,18H286v-8h142V18z M571,9H429V1h142V9z
M714,18H572v-8h142V18z M856,9H714V1h142V9z M999,18H857v-8h142V18z M1141,9H999V1h142V9z M1284,18h-142v-8h142V18z"/></g></svg>