<?xml version="1.0" encoding="utf-8"?>
<!-- Generator: Adobe Illustrator 25.2.3, SVG Export Plug-In . SVG Version: 6.00 Build 0)  -->
<svg version="1.1" id="Livello_1" xmlns="http://www.w3.org/2000/svg" xmlns:xlink="http://www.w3.org/1999/xlink" x="0px" y="0px"
	 viewBox="0 0 1563 1308" style="enable-background:new 0 0 1563 1308;" xml:space="preserve">
<style type="text/css">
	.st0{fill:none;}
	.st1{fill:#C21830;}
	.st2{fill:#706F6F;}
	.st3{fill:#FEF7EC;}
	.st4{fill:url(#SVGID_3_);stroke:#C21830;stroke-width:2;}
	.st5{fill:url(#SVGID_5_);stroke:#706F6F;}
	.st6{fill:url(#SVGID_6_);stroke:#706F6F;}
	.st7{enable-background:new    ;}
	.st8{fill-rule:evenodd;clip-rule:evenodd;fill:#C21830;}
	.st9{fill:#7A7770;}
	.st10{fill-rule:evenodd;clip-rule:evenodd;fill:#7A7770;}
	.st11{fill:none;stroke:#706F6F;}
</style>
<pattern  y="1308" width="34.8" height="34.8" patternUnits="userSpaceOnUse" id="SVGID_1_" viewBox="0 -34.8 34.8 34.8" style="overflow:visible;">
	<g>
		<rect y="-34.8" class="st0" width="34.8" height="34.8"/>
		<g>
			<rect y="-34.8" class="st0" width="34.8" height="34.8"/>
			<polygon class="st1" points="34.8,0 33.9,0 0,-33.9 0,-34.8 0.9,-34.8 34.8,-0.9 			"/>
			<polygon class="st1" points="0,0 0.9,0 0,-0.9 			"/>
			<polygon class="st1" points="34.8,-34.8 33.9,-34.8 34.8,-33.9 			"/>
		</g>
	</g>
</pattern>
<pattern  y="1308" width="34.8" height="34.8" patternUnits="userSpaceOnUse" id="SVGID_2_" viewBox="0 -34.8 34.8 34.8" style="overflow:visible;">
	<g>
		<rect y="-34.8" class="st0" width="34.8" height="34.8"/>
		<g>
			<rect y="-34.8" class="st0" width="34.8" height="34.8"/>
			<polygon class="st2" points="34.8,0 33.9,0 0,-33.9 0,-34.8 0.9,-34.8 34.8,-0.9 			"/>
			<polygon class="st2" points="0,0 0.9,0 0,-0.9 			"/>
			<polygon class="st2" points="34.8,-34.8 33.9,-34.8 34.8,-33.9 			"/>
		</g>
	</g>
</pattern>
<pattern  y="1308" width="34.8" height="34.8" patternUnits="userSpaceOnUse" id="SVGID_4_" viewBox="0 -34.8 34.8 34.8" style="overflow:visible;">
	<g>
		<rect y="-34.8" class="st0" width="34.8" height="34.8"/>
		<g>
			<rect y="-34.8" class="st0" width="34.8" height="34.8"/>
			<polygon class="st2" points="34.8,0 33.9,0 0,-33.9 0,-34.8 0.9,-34.8 34.8,-0.9 			"/>
			<polygon class="st2" points="0,0 0.9,0 0,-0.9 			"/>
			<polygon class="st2" points="34.8,-34.8 33.9,-34.8 34.8,-33.9 			"/>
		</g>
	</g>
</pattern>
<g id="Livello_2_1_">
	<rect x="-38.3" y="-11.7" class="st3" width="1627.2" height="1344.3"/>
</g>
<pattern  id="SVGID_3_" xlink:href="#SVGID_1_" patternTransform="matrix(0.1496 0 0 -0.1496 -12623.79 -3147.8018)">
</pattern>
<polygon class="st4" points="883.4,450.4 881.8,455.6 884.1,460.2 886.6,464 890.2,465.4 894.1,464.7 896,467.2 899,465.8 
	902,463.4 906.5,460.9 912,460.7 916.4,461 918.8,462.5 918.8,458.8 917.4,453.7 918.1,447.3 915.3,437.5 911.5,436.5 908,437.3 
	902.7,435.7 898.4,440.8 895.4,443.8 890.2,443.3 886.9,445 884.9,447.3 "/>
<pattern  id="SVGID_5_" xlink:href="#SVGID_2_" patternTransform="matrix(0.1496 0 0 -0.1496 -12623.79 -3147.8018)">
</pattern>
<path class="st5" d="M924.2,469v-3l-1.7-2.3l0.9-6.3l-0.9-4v-6.1l-3.2-10.1l1-3l4.6,1.5l2.7,1.3l3.8-0.7l1,2.4l1.2,3.1l1.3,1.5v2.2
	l-2.8,3.6l0.2,2.3l-1.7,4.1l-0.8,3l-0.7,2.7l0.3,1.5l2,1l-0.8,2.2c0,0,0.9,1.3,0.8,1.3c-0.1,0.1-0.9,1.8-0.9,1.8l-1.6-1.5l-2.5,1.5
	H924.2z"/>
<pattern  id="SVGID_6_" xlink:href="#SVGID_4_" patternTransform="matrix(0.1496 0 0 -0.1496 -12623.79 -3147.8018)">
</pattern>
<path class="st6" d="M961.9,447.9l-2.7-1.7l-1.3,4.7l2.3,8.1l-0.2,3.6l3.2,7.8l-3.3,6.8l1.8,4l0.8,1.7l-2.8,2h-5.8l-5-4.1l-7.2,1.2
	l-6-1.4l-3.2,1.4l1.3,5.1l-0.7,2.8l-2.8,3.3l1.3,4.3l2.3-1l3.1,2h3.5l3.1-2.7l-0.3-2l3.3-0.5h3.4l1.1-3l4.3,1.2l2.3-0.5l1.5,0.7
	l2.5-0.8l3.5,2l2.8,3.3c0,0,0.7,3.6,0.7,4.1s1.2,1,1.2,1l2.7-1.7l0.8-1.8l4-0.8l3.6-3.1l2.7-0.3l1-2.3l1.8-5.5l-2.8-0.4l-0.3-1.9
	l1.9-1.4l0.4-0.9l-1.8-3.8l1.2-0.9l-0.4-1.7l-1-1.5l1.2-2.3l-0.9-4.2l-2.8-1.9l-4.6-1.9l-2.3-4.9l-6.7-9.4l0.6-3.2l-3,1.5
	L961.9,447.9z"/>
<g>
	<g>
		<g class="st7">
			<path class="st1" d="M894.8,453.8h1.1l1.2,2.1c0.1,0.1,0.1,0.3,0.2,0.4c0.1,0.1,0.1,0.3,0.2,0.4l0.2,0.4l0,0c0-0.2,0-0.3,0-0.5
				c0-0.1,0-0.3,0-0.5s0-0.3,0-0.4v-1.9h1v4.7h-1.1l-1.2-2c-0.1-0.1-0.1-0.3-0.2-0.4s-0.1-0.3-0.2-0.4c-0.1-0.1-0.2-0.3-0.2-0.5l0,0
				c0,0.2,0,0.3,0,0.5c0,0.1,0,0.3,0,0.5s0,0.3,0,0.4v1.9h-1V453.8z"/>
		</g>
		<g class="st7">
			<path class="st1" d="M900.8,458.6c-0.3,0-0.5,0-0.7-0.1s-0.4-0.2-0.6-0.4c-0.2-0.2-0.3-0.4-0.4-0.6s-0.1-0.5-0.1-0.7
				s0-0.5,0.1-0.7s0.2-0.4,0.4-0.6s0.3-0.3,0.6-0.4s0.5-0.1,0.7-0.1c0.3,0,0.5,0,0.7,0.1s0.4,0.2,0.6,0.4s0.3,0.4,0.4,0.6
				s0.1,0.5,0.1,0.7s0,0.5-0.1,0.7s-0.2,0.4-0.4,0.6s-0.3,0.3-0.6,0.4C901.4,458.6,901.1,458.6,900.8,458.6z M900.8,457.9
				c0.3,0,0.4-0.1,0.6-0.3s0.2-0.5,0.2-0.8s-0.1-0.6-0.2-0.8s-0.3-0.3-0.6-0.3s-0.4,0.1-0.6,0.3s-0.2,0.5-0.2,0.8s0.1,0.6,0.2,0.8
				S900.6,457.9,900.8,457.9z"/>
		</g>
		<g class="st7">
			<path class="st1" d="M902.4,455.1h1l0.4,1.4c0,0.1,0.1,0.2,0.1,0.4c0,0.1,0.1,0.3,0.1,0.4s0.1,0.3,0.1,0.4l0,0
				c0-0.1,0.1-0.3,0.1-0.4s0.1-0.3,0.1-0.4s0.1-0.3,0.1-0.4l0.4-1.4h1l-1.2,3.4h-1.1L902.4,455.1z"/>
		</g>
		<g class="st7">
			<path class="st1" d="M908,458.5c0,0,0-0.1-0.1-0.2c0-0.1,0-0.2,0-0.3l0,0c-0.1,0.2-0.2,0.3-0.4,0.4s-0.4,0.1-0.6,0.1
				c-0.2,0-0.3,0-0.5-0.1c-0.1,0-0.3-0.1-0.4-0.2c-0.1-0.1-0.2-0.2-0.2-0.3c-0.1-0.1-0.1-0.3-0.1-0.4c0-0.2,0-0.3,0.1-0.5
				s0.2-0.2,0.3-0.3c0.1-0.1,0.3-0.1,0.4-0.2s0.3-0.1,0.5-0.1c0.3,0,0.5-0.1,0.7-0.2s0.2-0.2,0.2-0.3c0-0.1,0-0.2-0.1-0.3
				s-0.2-0.1-0.4-0.1s-0.3,0-0.4,0.1c-0.1,0.1-0.1,0.2-0.2,0.3h-0.9c0-0.1,0-0.3,0.1-0.4s0.2-0.3,0.3-0.4s0.3-0.2,0.5-0.2
				c0.2-0.1,0.4-0.1,0.7-0.1c0.2,0,0.4,0,0.6,0c0.2,0,0.3,0.1,0.4,0.2c0.2,0.1,0.3,0.2,0.4,0.4s0.1,0.4,0.1,0.6v1.7
				c0,0.3,0,0.4,0.1,0.5v0.1H908V458.5z M907.2,458c0.2,0,0.4-0.1,0.5-0.2s0.2-0.3,0.2-0.5v-0.4c-0.1,0-0.2,0.1-0.3,0.1
				s-0.2,0.1-0.3,0.1c-0.2,0-0.4,0.1-0.5,0.2s-0.2,0.2-0.2,0.3c0,0.1,0,0.3,0.1,0.3C906.9,457.9,907,458,907.2,458z"/>
		</g>
		<g class="st7">
			<path class="st1" d="M910.2,455.7L910.2,455.7c0.1-0.2,0.3-0.4,0.4-0.5c0.2-0.1,0.3-0.2,0.5-0.2c0.1,0,0.2,0,0.2,0v0.9l0,0
				c-0.1,0-0.1,0-0.2,0c-0.3,0-0.5,0.1-0.7,0.2c-0.2,0.2-0.2,0.4-0.2,0.7v1.6h-1V455h1V455.7z"/>
		</g>
		<g class="st7">
			<path class="st1" d="M913.2,458.6c-0.3,0-0.5,0-0.7-0.1s-0.4-0.2-0.6-0.4c-0.2-0.2-0.3-0.4-0.4-0.6c-0.1-0.2-0.1-0.5-0.1-0.7
				s0-0.5,0.1-0.7s0.2-0.4,0.4-0.6s0.3-0.3,0.5-0.4s0.4-0.1,0.7-0.1c0.2,0,0.5,0,0.7,0.1s0.4,0.2,0.5,0.3c0.2,0.2,0.3,0.4,0.4,0.7
				c0.1,0.3,0.1,0.6,0.1,0.9h-2.5c0,0.3,0.1,0.5,0.3,0.6c0.1,0.1,0.3,0.2,0.6,0.2c0.2,0,0.3,0,0.4-0.1c0.1-0.1,0.2-0.1,0.2-0.2h1
				c0,0.1-0.1,0.3-0.2,0.4c-0.1,0.1-0.2,0.2-0.3,0.3c-0.1,0.1-0.3,0.2-0.5,0.2C913.6,458.6,913.4,458.6,913.2,458.6z M913.1,455.8
				c-0.2,0-0.4,0.1-0.5,0.2s-0.2,0.3-0.2,0.6h1.4c0-0.2-0.1-0.4-0.2-0.6C913.5,455.8,913.3,455.8,913.1,455.8z"/>
		</g>
	</g>
	<g id="Oval-Copy_1_">
		<circle class="st8" cx="905" cy="450.4" r="2.1"/>
	</g>
</g>
<g>
	<g>
		<g class="st7">
			<path class="st9" d="M902.5,487.3h1.1l0.7,2.3c0,0.1,0.1,0.3,0.1,0.4s0.1,0.3,0.1,0.5s0.1,0.3,0.1,0.5l0,0c0-0.2,0.1-0.3,0.1-0.5
				c0-0.1,0.1-0.3,0.1-0.5s0.1-0.3,0.1-0.4l0.7-2.3h1.1l-1.6,4.7H904L902.5,487.3z"/>
		</g>
		<g class="st7">
			<path class="st9" d="M908.1,492.2c-0.3,0-0.5,0-0.7-0.1s-0.4-0.2-0.6-0.4c-0.2-0.2-0.3-0.4-0.4-0.6c-0.1-0.2-0.1-0.5-0.1-0.7
				s0-0.5,0.1-0.7s0.2-0.4,0.4-0.6s0.3-0.3,0.5-0.4s0.4-0.1,0.7-0.1c0.2,0,0.5,0,0.7,0.1s0.4,0.2,0.5,0.3c0.2,0.2,0.3,0.4,0.4,0.7
				c0.1,0.3,0.1,0.6,0.1,0.9h-2.5c0,0.3,0.1,0.5,0.3,0.6c0.1,0.1,0.3,0.2,0.6,0.2c0.2,0,0.3,0,0.4-0.1c0.1-0.1,0.2-0.1,0.2-0.2h1
				c0,0.1-0.1,0.3-0.2,0.4c-0.1,0.1-0.2,0.2-0.3,0.3c-0.1,0.1-0.3,0.2-0.5,0.2C908.5,492.1,908.3,492.2,908.1,492.2z M908,489.3
				c-0.2,0-0.4,0.1-0.5,0.2s-0.2,0.3-0.2,0.6h1.4c0-0.2-0.1-0.4-0.2-0.6C908.4,489.4,908.2,489.3,908,489.3z"/>
		</g>
		<g class="st7">
			<path class="st9" d="M910.9,489.3L910.9,489.3c0.1-0.2,0.3-0.4,0.4-0.5c0.2-0.1,0.3-0.2,0.5-0.2c0.1,0,0.2,0,0.2,0v0.9l0,0
				c-0.1,0-0.1,0-0.2,0c-0.3,0-0.5,0.1-0.7,0.2c-0.2,0.2-0.2,0.4-0.2,0.7v1.6h-1v-3.4h1V489.3z"/>
		</g>
		<g class="st7">
			<path class="st9" d="M913.9,492.2c-0.3,0-0.5,0-0.7-0.1s-0.4-0.2-0.6-0.4c-0.2-0.2-0.3-0.4-0.4-0.6s-0.1-0.5-0.1-0.7
				s0-0.5,0.1-0.7s0.2-0.4,0.4-0.6s0.3-0.3,0.6-0.4s0.5-0.1,0.7-0.1c0.3,0,0.5,0,0.7,0.1s0.4,0.2,0.6,0.4s0.3,0.4,0.4,0.6
				s0.1,0.5,0.1,0.7s0,0.5-0.1,0.7s-0.2,0.4-0.4,0.6s-0.3,0.3-0.6,0.4C914.4,492.1,914.1,492.2,913.9,492.2z M913.9,491.4
				c0.3,0,0.4-0.1,0.6-0.3s0.2-0.5,0.2-0.8s-0.1-0.6-0.2-0.8s-0.3-0.3-0.6-0.3s-0.4,0.1-0.6,0.3s-0.2,0.5-0.2,0.8s0.1,0.6,0.2,0.8
				S913.6,491.4,913.9,491.4z"/>
		</g>
		<g class="st7">
			<path class="st9" d="M916.8,489.2L916.8,489.2c0.1-0.2,0.3-0.4,0.4-0.5c0.2-0.1,0.4-0.2,0.6-0.2c0.4,0,0.7,0.1,0.9,0.3
				c0.2,0.2,0.3,0.5,0.3,0.9v2.2h-1v-2c0-0.2,0-0.3-0.1-0.4s-0.2-0.2-0.4-0.2s-0.4,0.1-0.5,0.2s-0.2,0.3-0.2,0.5v1.9h-1v-3.4h1
				V489.2z"/>
		</g>
		<g class="st7">
			<path class="st9" d="M921.6,492.1c0,0,0-0.1-0.1-0.2c0-0.1,0-0.2,0-0.3l0,0c-0.1,0.2-0.2,0.3-0.4,0.4s-0.4,0.1-0.6,0.1
				c-0.2,0-0.3,0-0.5-0.1c-0.1,0-0.3-0.1-0.4-0.2c-0.1-0.1-0.2-0.2-0.2-0.3c-0.1-0.1-0.1-0.3-0.1-0.4c0-0.2,0-0.3,0.1-0.5
				s0.2-0.2,0.3-0.3c0.1-0.1,0.3-0.1,0.4-0.2s0.3-0.1,0.5-0.1c0.3,0,0.5-0.1,0.7-0.2s0.2-0.2,0.2-0.3c0-0.1,0-0.2-0.1-0.3
				s-0.2-0.1-0.4-0.1s-0.3,0-0.4,0.1c-0.1,0.1-0.1,0.2-0.2,0.3h-0.9c0-0.1,0-0.3,0.1-0.4s0.2-0.3,0.3-0.4s0.3-0.2,0.5-0.2
				c0.2-0.1,0.4-0.1,0.7-0.1c0.2,0,0.4,0,0.6,0c0.2,0,0.3,0.1,0.4,0.2c0.2,0.1,0.3,0.2,0.4,0.4s0.1,0.4,0.1,0.6v1.7
				c0,0.3,0,0.4,0.1,0.5v0.1h-1.1V492.1z M920.8,491.5c0.2,0,0.4-0.1,0.5-0.2s0.2-0.3,0.2-0.5v-0.4c-0.1,0-0.2,0.1-0.3,0.1
				s-0.2,0.1-0.3,0.1c-0.2,0-0.4,0.1-0.5,0.2s-0.2,0.2-0.2,0.3c0,0.1,0,0.3,0.1,0.3C920.5,491.5,920.6,491.5,920.8,491.5z"/>
		</g>
	</g>
	<g id="Oval_1_">
		<circle class="st10" cx="913" cy="483.9" r="2.1"/>
	</g>
</g>
<g>
	<g>
		<g class="st7">
			<path class="st9" d="M912.7,423.6L912.7,423.6c-0.2,0.3-0.3,0.5-0.6,0.6c-0.2,0.1-0.5,0.2-0.8,0.2s-0.6-0.1-0.9-0.2
				c-0.3-0.1-0.5-0.3-0.7-0.5s-0.4-0.5-0.5-0.8s-0.2-0.6-0.2-1s0.1-0.8,0.2-1.1c0.1-0.3,0.3-0.6,0.6-0.8c0.2-0.2,0.4-0.3,0.7-0.4
				c0.2-0.1,0.5-0.1,0.8-0.1s0.6,0,0.8,0.1s0.4,0.2,0.6,0.3c0.2,0.1,0.3,0.3,0.4,0.5c0.1,0.2,0.2,0.4,0.2,0.6h-1.1
				c-0.1-0.2-0.2-0.3-0.3-0.5s-0.4-0.2-0.6-0.2c-0.2,0-0.4,0-0.6,0.1c-0.2,0.1-0.3,0.2-0.4,0.3c-0.1,0.1-0.2,0.3-0.2,0.5
				c-0.1,0.2-0.1,0.4-0.1,0.6s0,0.4,0.1,0.6s0.1,0.4,0.3,0.5c0.1,0.1,0.2,0.2,0.4,0.3c0.2,0.1,0.3,0.1,0.5,0.1s0.3,0,0.4-0.1
				c0.1-0.1,0.2-0.1,0.3-0.2s0.2-0.2,0.2-0.3c0.1-0.1,0.1-0.2,0.1-0.3l0,0h-1v-0.8h2v2.5h-0.8L912.7,423.6z"/>
		</g>
		<g class="st7">
			<path class="st9" d="M914.9,421.5L914.9,421.5c0.1-0.2,0.3-0.4,0.4-0.5c0.2-0.1,0.3-0.2,0.5-0.2c0.1,0,0.2,0,0.2,0v0.9l0,0
				c-0.1,0-0.1,0-0.2,0c-0.3,0-0.5,0.1-0.7,0.2c-0.2,0.2-0.2,0.4-0.2,0.7v1.6h-1v-3.4h1V421.5z"/>
		</g>
		<g class="st7">
			<path class="st9" d="M917.8,424.4c-0.3,0-0.5,0-0.7-0.1s-0.4-0.2-0.6-0.4c-0.2-0.2-0.3-0.4-0.4-0.6c-0.1-0.2-0.1-0.5-0.1-0.7
				s0-0.5,0.1-0.7s0.2-0.4,0.4-0.6s0.3-0.3,0.5-0.4s0.4-0.1,0.7-0.1c0.2,0,0.5,0,0.7,0.1s0.4,0.2,0.5,0.3c0.2,0.2,0.3,0.4,0.4,0.7
				c0.1,0.3,0.1,0.6,0.1,0.9H917c0,0.3,0.1,0.5,0.3,0.6c0.1,0.1,0.3,0.2,0.6,0.2c0.2,0,0.3,0,0.4-0.1c0.1-0.1,0.2-0.1,0.2-0.2h1
				c0,0.1-0.1,0.3-0.2,0.4c-0.1,0.1-0.2,0.2-0.3,0.3c-0.1,0.1-0.3,0.2-0.5,0.2C918.2,424.3,918,424.4,917.8,424.4z M917.8,421.5
				c-0.2,0-0.4,0.1-0.5,0.2s-0.2,0.3-0.2,0.6h1.4c0-0.2-0.1-0.4-0.2-0.6C918.1,421.6,918,421.5,917.8,421.5z"/>
		</g>
		<g class="st7">
			<path class="st9" d="M919.5,423.5l1.2-1.4c0.1-0.1,0.1-0.1,0.2-0.2c0.1-0.1,0.1-0.1,0.2-0.2c0.1-0.1,0.1-0.1,0.2-0.2l0,0
				c-0.1,0-0.2,0-0.3,0s-0.2,0-0.2,0h-0.2h-0.9v-0.8h2.8v0.7l-1.2,1.3c-0.1,0.1-0.1,0.1-0.2,0.2c-0.1,0.1-0.1,0.1-0.2,0.2
				c-0.1,0.1-0.2,0.1-0.2,0.2l0,0c0.1,0,0.2,0,0.3,0s0.2,0,0.3,0s0.2,0,0.3,0h1.1v0.8h-3v-0.6H919.5z"/>
		</g>
		<g class="st7">
			<path class="st9" d="M922.7,423.5l1.2-1.4c0.1-0.1,0.1-0.1,0.2-0.2c0.1-0.1,0.1-0.1,0.2-0.2c0.1-0.1,0.1-0.1,0.2-0.2l0,0
				c-0.1,0-0.2,0-0.3,0s-0.2,0-0.2,0h-0.2h-0.9v-0.8h2.8v0.7l-1.2,1.3c-0.1,0.1-0.1,0.1-0.2,0.2c-0.1,0.1-0.1,0.1-0.2,0.2
				c-0.1,0.1-0.2,0.1-0.2,0.2l0,0c0.1,0,0.2,0,0.3,0s0.2,0,0.3,0s0.2,0,0.3,0h1.1v0.8h-3v-0.6H922.7z"/>
		</g>
		<g class="st7">
			<path class="st9" d="M928.1,424.3c0,0,0-0.1-0.1-0.2c0-0.1,0-0.2,0-0.3l0,0c-0.1,0.2-0.2,0.3-0.4,0.4s-0.4,0.1-0.6,0.1
				c-0.2,0-0.3,0-0.5-0.1c-0.1,0-0.3-0.1-0.4-0.2c-0.1-0.1-0.2-0.2-0.2-0.3c-0.1-0.1-0.1-0.3-0.1-0.4c0-0.2,0-0.3,0.1-0.5
				s0.2-0.2,0.3-0.3c0.1-0.1,0.3-0.1,0.4-0.2s0.3-0.1,0.5-0.1c0.3,0,0.5-0.1,0.7-0.2s0.2-0.2,0.2-0.3c0-0.1,0-0.2-0.1-0.3
				s-0.2-0.1-0.4-0.1s-0.3,0-0.4,0.1c-0.1,0.1-0.1,0.2-0.2,0.3H926c0-0.1,0-0.3,0.1-0.4s0.2-0.3,0.3-0.4s0.3-0.2,0.5-0.2
				c0.2-0.1,0.4-0.1,0.7-0.1c0.2,0,0.4,0,0.6,0c0.2,0,0.3,0.1,0.4,0.2c0.2,0.1,0.3,0.2,0.4,0.4s0.1,0.4,0.1,0.6v1.7
				c0,0.3,0,0.4,0.1,0.5v0.1h-1.1V424.3z M927.3,423.7c0.2,0,0.4-0.1,0.5-0.2s0.2-0.3,0.2-0.5v-0.4c-0.1,0-0.2,0.1-0.3,0.1
				s-0.2,0.1-0.3,0.1c-0.2,0-0.4,0.1-0.5,0.2s-0.2,0.2-0.2,0.3c0,0.1,0,0.3,0.1,0.3C927,423.7,927.1,423.7,927.3,423.7z"/>
		</g>
		<g class="st7">
			<path class="st9" d="M930.3,421.4L930.3,421.4c0.1-0.2,0.3-0.4,0.4-0.5c0.2-0.1,0.4-0.2,0.6-0.2c0.4,0,0.7,0.1,0.9,0.3
				c0.2,0.2,0.3,0.5,0.3,0.9v2.2h-1v-2c0-0.2,0-0.3-0.1-0.4s-0.2-0.2-0.4-0.2s-0.4,0.1-0.5,0.2s-0.2,0.3-0.2,0.5v1.9h-1v-3.4h1
				V421.4z"/>
		</g>
		<g class="st7">
			<path class="st9" d="M935.1,424.3c0,0,0-0.1-0.1-0.2c0-0.1,0-0.2,0-0.3l0,0c-0.1,0.2-0.2,0.3-0.4,0.4s-0.4,0.1-0.6,0.1
				c-0.2,0-0.3,0-0.5-0.1c-0.1,0-0.3-0.1-0.4-0.2c-0.1-0.1-0.2-0.2-0.2-0.3c-0.1-0.1-0.1-0.3-0.1-0.4c0-0.2,0-0.3,0.1-0.5
				s0.2-0.2,0.3-0.3c0.1-0.1,0.3-0.1,0.4-0.2s0.3-0.1,0.5-0.1c0.3,0,0.5-0.1,0.7-0.2s0.2-0.2,0.2-0.3c0-0.1,0-0.2-0.1-0.3
				s-0.2-0.1-0.4-0.1s-0.3,0-0.4,0.1c-0.1,0.1-0.1,0.2-0.2,0.3H933c0-0.1,0-0.3,0.1-0.4s0.2-0.3,0.3-0.4s0.3-0.2,0.5-0.2
				c0.2-0.1,0.4-0.1,0.7-0.1c0.2,0,0.4,0,0.6,0c0.2,0,0.3,0.1,0.4,0.2c0.2,0.1,0.3,0.2,0.4,0.4s0.1,0.4,0.1,0.6v1.7
				c0,0.3,0,0.4,0.1,0.5v0.1h-1.1V424.3z M934.3,423.7c0.2,0,0.4-0.1,0.5-0.2s0.2-0.3,0.2-0.5v-0.4c-0.1,0-0.2,0.1-0.3,0.1
				s-0.2,0.1-0.3,0.1c-0.2,0-0.4,0.1-0.5,0.2s-0.2,0.2-0.2,0.3c0,0.1,0,0.3,0.1,0.3C934,423.7,934.1,423.7,934.3,423.7z"/>
		</g>
	</g>
	<g id="Oval-Copy-2_1_">
		<ellipse class="st10" cx="922" cy="428.1" rx="2.4" ry="2.3"/>
	</g>
</g>
<g>
	<g class="st7">
		<path class="st9" d="M835.1,448.6h1.1v3.8h2.2v0.9h-3.3V448.6z"/>
	</g>
	<g class="st7">
		<path class="st9" d="M840.8,453.3c0,0,0-0.1-0.1-0.2c0-0.1,0-0.2,0-0.3l0,0c-0.1,0.2-0.2,0.3-0.4,0.4s-0.4,0.1-0.6,0.1
			c-0.2,0-0.3,0-0.5-0.1c-0.1,0-0.3-0.1-0.4-0.2c-0.1-0.1-0.2-0.2-0.2-0.3c-0.1-0.1-0.1-0.3-0.1-0.4c0-0.2,0-0.3,0.1-0.5
			s0.2-0.2,0.3-0.3c0.1-0.1,0.3-0.1,0.4-0.2s0.3-0.1,0.5-0.1c0.3,0,0.5-0.1,0.7-0.2s0.2-0.2,0.2-0.3c0-0.1,0-0.2-0.1-0.3
			s-0.2-0.1-0.4-0.1s-0.3,0-0.4,0.1c-0.1,0.1-0.1,0.2-0.2,0.3h-0.9c0-0.1,0-0.3,0.1-0.4s0.2-0.3,0.3-0.4s0.3-0.2,0.5-0.2
			c0.2-0.1,0.4-0.1,0.7-0.1c0.2,0,0.4,0,0.6,0c0.2,0,0.3,0.1,0.4,0.2c0.2,0.1,0.3,0.2,0.4,0.4s0.1,0.4,0.1,0.6v1.7
			c0,0.3,0,0.4,0.1,0.5v0.1h-1.1V453.3z M840,452.7c0.2,0,0.4-0.1,0.5-0.2s0.2-0.3,0.2-0.5v-0.4c-0.1,0-0.2,0.1-0.3,0.1
			s-0.2,0.1-0.3,0.1c-0.2,0-0.4,0.1-0.5,0.2s-0.2,0.2-0.2,0.3c0,0.1,0,0.3,0.1,0.3C839.8,452.7,839.9,452.7,840,452.7z"/>
	</g>
	<g class="st7">
		<path class="st9" d="M843.4,451.8l-0.3,0.3v1.1h-1v-4.7h1v1.5c0,0.3,0,0.5,0,0.6c0,0.2,0,0.3,0,0.4l1.1-1.2h1.2l-1.2,1.3l1.4,2.1
			h-1.2L843.4,451.8z"/>
	</g>
	<g class="st7">
		<path class="st9" d="M847,453.4c-0.3,0-0.5,0-0.7-0.1s-0.4-0.2-0.6-0.4c-0.2-0.2-0.3-0.4-0.4-0.6c-0.1-0.2-0.1-0.5-0.1-0.7
			s0-0.5,0.1-0.7s0.2-0.4,0.4-0.6s0.3-0.3,0.5-0.4s0.4-0.1,0.7-0.1c0.2,0,0.5,0,0.7,0.1s0.4,0.2,0.5,0.3c0.2,0.2,0.3,0.4,0.4,0.7
			c0.1,0.3,0.1,0.6,0.1,0.9h-2.5c0,0.3,0.1,0.5,0.3,0.6c0.1,0.1,0.3,0.2,0.6,0.2c0.2,0,0.3,0,0.4-0.1c0.1-0.1,0.2-0.1,0.2-0.2h1
			c0,0.1-0.1,0.3-0.2,0.4c-0.1,0.1-0.2,0.2-0.3,0.3c-0.1,0.1-0.3,0.2-0.5,0.2C847.4,453.4,847.2,453.4,847,453.4z M846.9,450.5
			c-0.2,0-0.4,0.1-0.5,0.2s-0.2,0.3-0.2,0.6h1.4c0-0.2-0.1-0.4-0.2-0.6C847.3,450.6,847.1,450.5,846.9,450.5z"/>
	</g>
</g>
<g>
	<g class="st7">
		<path class="st9" d="M836.7,459L836.7,459c-0.2,0.3-0.3,0.5-0.6,0.6c-0.2,0.1-0.5,0.2-0.8,0.2s-0.6-0.1-0.9-0.2
			c-0.3-0.1-0.5-0.3-0.7-0.5s-0.4-0.5-0.5-0.8s-0.2-0.6-0.2-1s0.1-0.8,0.2-1.1c0.1-0.3,0.3-0.6,0.6-0.8c0.2-0.2,0.4-0.3,0.7-0.4
			c0.2-0.1,0.5-0.1,0.8-0.1s0.6,0,0.8,0.1s0.4,0.2,0.6,0.3c0.2,0.1,0.3,0.3,0.4,0.5c0.1,0.2,0.2,0.4,0.2,0.6h-1.1
			c-0.1-0.2-0.2-0.3-0.3-0.5s-0.4-0.2-0.6-0.2c-0.2,0-0.4,0-0.6,0.1c-0.2,0.1-0.3,0.2-0.4,0.3c-0.1,0.1-0.2,0.3-0.2,0.5
			c-0.1,0.2-0.1,0.4-0.1,0.6s0,0.4,0.1,0.6s0.1,0.4,0.3,0.5c0.1,0.1,0.2,0.2,0.4,0.3c0.2,0.1,0.3,0.1,0.5,0.1s0.3,0,0.4-0.1
			c0.1-0.1,0.2-0.1,0.3-0.2s0.2-0.2,0.2-0.3c0.1-0.1,0.1-0.2,0.1-0.3l0,0h-1V457h2v2.5h-0.8L836.7,459z"/>
	</g>
	<g class="st7">
		<path class="st9" d="M840.1,459.7c0,0,0-0.1-0.1-0.2c0-0.1,0-0.2,0-0.3l0,0c-0.1,0.2-0.2,0.3-0.4,0.4s-0.4,0.1-0.6,0.1
			c-0.2,0-0.3,0-0.5-0.1c-0.1,0-0.3-0.1-0.4-0.2c-0.1-0.1-0.2-0.2-0.2-0.3c-0.1-0.1-0.1-0.3-0.1-0.4c0-0.2,0-0.3,0.1-0.5
			s0.2-0.2,0.3-0.3c0.1-0.1,0.3-0.1,0.4-0.2s0.3-0.1,0.5-0.1c0.3,0,0.5-0.1,0.7-0.2s0.2-0.2,0.2-0.3c0-0.1,0-0.2-0.1-0.3
			s-0.2-0.1-0.4-0.1s-0.3,0-0.4,0.1c-0.1,0.1-0.1,0.2-0.2,0.3H838c0-0.1,0-0.3,0.1-0.4s0.2-0.3,0.3-0.4s0.3-0.2,0.5-0.2
			c0.2-0.1,0.4-0.1,0.7-0.1c0.2,0,0.4,0,0.6,0c0.2,0,0.3,0.1,0.4,0.2c0.2,0.1,0.3,0.2,0.4,0.4s0.1,0.4,0.1,0.6v1.7
			c0,0.3,0,0.4,0.1,0.5v0.1h-1.1V459.7z M839.2,459.1c0.2,0,0.4-0.1,0.5-0.2s0.2-0.3,0.2-0.5V458c-0.1,0-0.2,0.1-0.3,0.1
			s-0.2,0.1-0.3,0.1c-0.2,0-0.4,0.1-0.5,0.2s-0.2,0.2-0.2,0.3c0,0.1,0,0.3,0.1,0.3C839,459.1,839.1,459.1,839.2,459.1z"/>
	</g>
	<g class="st7">
		<path class="st9" d="M842.3,456.9L842.3,456.9c0.1-0.2,0.3-0.4,0.4-0.5c0.2-0.1,0.3-0.2,0.5-0.2c0.1,0,0.2,0,0.2,0v0.9l0,0
			c-0.1,0-0.1,0-0.2,0c-0.3,0-0.5,0.1-0.7,0.2c-0.2,0.2-0.2,0.4-0.2,0.7v1.6h-1v-3.4h1V456.9z"/>
	</g>
	<g class="st7">
		<path class="st9" d="M844.9,459.8c-0.2,0-0.4,0-0.6-0.1c-0.2-0.1-0.3-0.2-0.5-0.4c-0.1-0.2-0.2-0.3-0.3-0.6
			c-0.1-0.2-0.1-0.5-0.1-0.8s0-0.5,0.1-0.7s0.2-0.4,0.3-0.6s0.3-0.3,0.5-0.4s0.4-0.1,0.6-0.1c0.2,0,0.4,0,0.6,0.1s0.3,0.2,0.4,0.4
			l0,0c0-0.1,0-0.2,0-0.4c0-0.1,0-0.3,0-0.4v-1h1v4.7h-1V459l0,0c-0.1,0.2-0.2,0.4-0.4,0.5S845.1,459.8,844.9,459.8z M845.2,459
			c0.2,0,0.4-0.1,0.6-0.3s0.2-0.4,0.2-0.7c0-0.1,0-0.3,0-0.4s-0.1-0.2-0.1-0.3c-0.1-0.1-0.1-0.2-0.2-0.2s-0.2-0.1-0.3-0.1
			c-0.2,0-0.4,0.1-0.5,0.3c-0.1,0.2-0.2,0.4-0.2,0.7s0.1,0.6,0.2,0.7C844.8,458.9,844.9,459,845.2,459z"/>
	</g>
	<g class="st7">
		<path class="st9" d="M849.5,459.7c0,0,0-0.1-0.1-0.2c0-0.1,0-0.2,0-0.3l0,0c-0.1,0.2-0.2,0.3-0.4,0.4s-0.4,0.1-0.6,0.1
			c-0.2,0-0.3,0-0.5-0.1c-0.1,0-0.3-0.1-0.4-0.2c-0.1-0.1-0.2-0.2-0.2-0.3c-0.1-0.1-0.1-0.3-0.1-0.4c0-0.2,0-0.3,0.1-0.5
			s0.2-0.2,0.3-0.3c0.1-0.1,0.3-0.1,0.4-0.2s0.3-0.1,0.5-0.1c0.3,0,0.5-0.1,0.7-0.2s0.2-0.2,0.2-0.3c0-0.1,0-0.2-0.1-0.3
			s-0.2-0.1-0.4-0.1s-0.3,0-0.4,0.1c-0.1,0.1-0.1,0.2-0.2,0.3h-0.9c0-0.1,0-0.3,0.1-0.4s0.2-0.3,0.3-0.4s0.3-0.2,0.5-0.2
			c0.2-0.1,0.4-0.1,0.7-0.1c0.2,0,0.4,0,0.6,0c0.2,0,0.3,0.1,0.4,0.2c0.2,0.1,0.3,0.2,0.4,0.4s0.1,0.4,0.1,0.6v1.7
			c0,0.3,0,0.4,0.1,0.5v0.1h-1.1V459.7z M848.6,459.1c0.2,0,0.4-0.1,0.5-0.2s0.2-0.3,0.2-0.5V458c-0.1,0-0.2,0.1-0.3,0.1
			s-0.2,0.1-0.3,0.1c-0.2,0-0.4,0.1-0.5,0.2s-0.2,0.2-0.2,0.3c0,0.1,0,0.3,0.1,0.3C848.4,459.1,848.5,459.1,848.6,459.1z"/>
	</g>
</g>
<path class="st11" d="M924.8,401l-1.1,0.3l-2.4-0.4l-1.6-0.4l-1.3-0.6l0,0l-2.2,0.7l-2.8,4l-0.6,0.7L912,406l-0.8,0.5l-0.9,0.2
	l-3.4-1l-1,0.3l-0.7,0.5l-1.2,1.6l-0.7,0.7l-0.8,0.6l-1,0.2l-1.1-0.1l-1.4-1.2l-1.6-2l-2.8-4.7l-1.7-1.7l-1.4-0.8l-2.1,0.3l-0.9-0.6
	l-0.4-1.3l0.1-2.6l1.1-5.7V389l0.1-1.1l0.3-1l0.3-1l0.5-1l0.5-0.8l2.7-2.8l0.6-0.8l0.3-1.2l-0.1-1.7l-0.8-2.9l-0.3-1.9l-1-2
	l-0.8-1.2l-4.6-3"/>
<path class="st11" d="M840.2,475.2c-0.1,0-0.2,0-0.3,0l-0.2,0.4l-0.1,1.6l0.4,2l0.9,3.2l2.4,3.3l5.3-1.3l3.1,0.4l0.3,6.1l-0.6,5.8
	l0.6,2.6l2.6,1.9v1.9l-2.3,2.1l-0.3,7.1l-1.9,2.7l4.3,1.5l2.2-0.6h1.1l1.2,0.6l1,1.5l0.6,1.2l0.7,2.1l0.4,0.9l0.6,0.6l0.9,0.3
	l1.2-0.5l0.9-0.6l0.7-0.8l1.1-1.6l0.7-0.6l0.9-0.3l1.6,0.6l2,1.3l6.3,6.6l0.9,1.7l1.1,2.8l0.5,0.8l19.8,16.1l6.9,2.9l1.6,0.9l1.2,1
	l1.5,2l0.6,1l0.3,1.1l-0.1,0.9l-0.2,0.8l-0.8,1.9l-0.2,0.7l-0.1,1l0.1,0.9l0.2,0.7l0.3,0.6l0.9,0.5l1.3,0.4l2.6,0.1l2.9-0.5h1.1
	l1,0.6l1,1.4l0.2,1.3l-0.3,1.1l-0.9,1.8l-0.4,1l-0.2,1.1l0.2,1l0.3,1l0.5,0.9l2.5,3.3l1,0.9l1.6,1l1.4,0.4l1.4-0.2l1.5-1.1l0.9-1
	l0.8-0.8l0.8-0.4l6-0.6l1.5-0.6l1.2-0.7l0.8-0.6l1.5-0.2l2.3,0.3l6.3,2l0.4,0.8l5,0.5l0.3,4.1l1.1,3.4l3.1,1.8l4.2-2.6l9.3,0.3
	l5.6,1.3l0.8,2l5.9,2.9l1.1,0.8l0.5,2.6l1.4,0.1l3.3,0.2l3.4,1.2l1.4,0.1l3.3-3.3l4.2-1.6l1-1.6l-0.7-3.2l-0.2-2.1
	c0,0-0.4-1.6-0.5-1.7c-0.1-0.2-4-6-4-6l-1.1-2.1l3.2-5.8v-1.4l-1.9-1.2c0,0-0.3-1-0.2-1.2s0.7-1.8,0.6-2.3c-0.1-0.5-1.1-1-1.1-1
	s-1.6-0.8-2.1-1.3s0-1.5,0-1.5l0.5-2.4l-0.2-2.8l-1-5.5l-0.1-3.7l0.7-5l-1.5-2.4l-0.9-1l0.2-1l2-1.2l2.9,1.7l2.3,1.3l1.7-0.9
	l2.4-1.4l3.5,0.3c0,0,2.4,0,2.6,0c0.2,0,1.1-0.7,1.1-0.7l1-3.7l0.1-2.7l-2.8-2.1l-3.4-1.8l-1.6-1.7l-3.3-2.7l-0.3-1.6l1.3-0.5
	l1.8-0.4v-1l-0.7-1.9c0,0-4-2.2-4.3-2.3c-0.2-0.1-6.5-2.9-6.5-2.9l-8.4-1.2c0,0-0.3-0.4-0.4-0.7c-0.1-0.3,0.3-3.2,0.3-3.2l0.1-2.3
	l-4.2-4.9l-0.4-1.3l0.8-1.4l2.2-0.3l0.2-1.2l-0.4-2.9l-1.8-5.5l-2.8-0.4l-0.3-1.9l1.9-1.4l0.4-0.9l-1.8-3.8l1.2-0.9l-0.4-1.7l-1-1.5
	l1.2-2.3l-0.9-4.2l-2.8-1.9l-4.6-1.9l-2.3-4.9l-6.7-9.4l1.6-8.4l-3.4-1.6l-1.1-3.7L962,433l-2.5-4.6l-3.8,1.8l-5-6l-2.5-4.8l1.1-5.3
	l-1.1-3.2l-2.7-5l-3.8-1l-0.1,0.1l-3.6-0.3l-10.1-3.8l-1.1-0.2l-1,0.1l-2.1,0.5l-1.4-0.1l-1.6-0.4l-2.3-0.9l-1.2,0.2l-1,0.5l-2.8,4
	l-0.6,0.7l-0.7,0.6l-0.8,0.5l-0.9,0.2l-3.4-1l-1,0.3l-0.7,0.5l-1.2,1.6l-0.7,0.7l-0.8,0.6l-1,0.2l-1.1-0.1l-1.4-1.2l-1.6-2l-2.8-4.7
	l-1.7-1.7l-1.4-0.8l-2.1,0.3l-0.9-0.6l-0.4-1.3l0.1-2.6l1.1-5.7V389l0.1-1.1l0.3-1l0.3-1l0.5-1l0.5-0.8l2.7-2.8l0.6-0.8l0.3-1.2
	l-0.1-1.7l-0.8-2.9l-0.3-1.9l-1-2l-0.8-1.2l-4.6-3"/>
<g id="blue_11_">
	<g>
		<path class="st11" d="M888.6,353.6c-0.8-0.5-1.5-1-1.5-1c-0.7-1.5-2.2-3.2-2.7-2s-1.2,4.2-1.2,5.2s-0.3,3.5-0.5,4.2
			s-1.2,1.5-1.2,2.5s0.8,3.2-0.3,3.8c-1.2,0.7-6.3,3.3-6.5,3.8s-1.7,4.7-2.3,5.8c-0.7,1.2-0.3,4.3-1.5,5.3s-5,5.2-5.2,6.2
			s-0.8,2.8-1.5,3.5s-2,3.7-3.2,4.3c-1.2,0.7-4.5,3.5-4.7,4.2s-1,2-1.7,2.3s-8.7,8.3-9,9.2s-2.7,7.3-4,8s-4.5,2.5-4.5,3.5
			s-0.2,2.2-1,2.2s-2.7,0.2-3.7,0.7s-5,2.7-5.7,3.3c-0.7,0.7-3.3,2.3-4.2,2.7s-4.8,1.2-4.7,2c0.2,0.8,0.8,1.2,1.5,1.2s5.8-1,6.3-0.2
			s3.5,2.7,2.5,3.5s-3.7,3.8-4.7,4.2c-1,0.3-1.3,2.3-0.2,2.3c1.2,0,4.7-0.2,4.8,0.5c0.2,0.7,1,4.3,0,5s-2.7,1.2-2.8,2.2
			c-0.2,1-0.3,3.5-1,3.8s-4.8,3-5.3,3.5s-2.8,4.2-2.8,4.8s1.8,3.5,2.3,4.5s4.2,5.3,5,5.5s5.5,1.2,7,0.5s2.5-2,2.8-2.8
			s1.2-5.2,1.7-3.7s-0.3,3.8,0.7,4.8s3.8,2.2,4.3,2s0.8-0.2,1.7,0.3c0.8,0.5,4.5,2.3,5.3,2.3s2.7,1,3.2,1.8s2,3.2,2.5,1
			s0.5-3.3,1.5-4.2c1-0.8,3-3,3.5-4.2s3-6.5,2.8-8.5c0,0-0.8-4-0.8-5s-0.3-5-0.3-5.8s-2-3.7-2.7-4.2s-0.8-5.7-0.8-6.5s-2-1.2-3-1.2
			s-3,0.8-3.8,1.3s-0.5-3.7-0.3-4.5s1.8-3,2-4.7s0.8-2.5,1.3-3.2s0.8-2.8,1.5-4s3.2-4.8,3.8-5.8c0.7-1,4.8-9.2,6.2-10.8
			c1.3-1.7,6.2-11.8,6.5-12.3s1-2.2,2.5-3.2s2-4.2,2.2-4.7s0.7-1.2,1.3-1.3c0.7-0.2,1-2.2,1.3-3s1.5-4.8,2-5.5s1.7-2.5,3.3-3.8
			c1.7-1.3,3.7-6,3.8-7.2c0.2-1.2,1.8-7.8,2.2-8.8c0.3-1,1.2-2,2-3.2C891.8,355.1,889.4,354.1,888.6,353.6z"/>
	</g>
</g>
</svg>
