<svg version="1.1" baseProfile="tiny" xmlns="http://www.w3.org/2000/svg" xmlns:xlink="http://www.w3.org/1999/xlink" x="0px" y="0px" viewBox="0 0 293 38.6"
	 overflow="visible" xml:space="preserve" width="293" height="38.6">
<g>
	<path fill="#615F63" d="M48.4,27.8h-3.2v-8.6c3,0,4.2,0.5,4.3,3.5h0.7v-7.2h-0.7c-0.4,3-1.3,3-4.3,3v-8.1h3.5
		c2.8,0,4.6,0.9,5.2,4.2h0.7V9.7H39.2v0.6h2.7v17.4h-2.7v0.6h15.8l0.4-5.2h-0.8C53.8,27.3,52.4,27.8,48.4,27.8z"/>
	<polygon fill="#615F63" points="128.6,10.4 131.1,10.4 131.1,27.8 128.6,27.8 128.6,28.4 136.4,28.4 136.4,27.8 133.9,27.8 
		133.9,10.4 136.4,10.4 136.4,9.7 128.6,9.7 	"/>
	<polygon fill="#615F63" points="227.8,10.4 230.3,10.4 230.3,27.8 227.8,27.8 227.8,28.4 235.7,28.4 235.7,27.8 233.2,27.8 
		233.2,10.4 235.7,10.4 235.7,9.7 227.8,9.7 	"/>
	<path fill="#615F63" d="M154.7,9.7h-8.4v0.6h2.4v17.4h-2.4v0.6h8.4c1.6,0,4.6-0.2,6.6-2c1.9-1.8,3.3-4.2,3.3-7.5
		C164.6,13.3,160.7,9.7,154.7,9.7z M160.4,24.8c-0.7,1.2-1.8,2.9-5.5,2.9h-3.1V10.4h2.4c6.5,0,7,4.1,7,8
		C161.1,21.1,161,23.6,160.4,24.8z"/>
	<path fill="#615F63" d="M176.4,9.3c-5.4,0-9,4.8-9,9.7c0,4.9,3.6,9.8,9,9.8c5.4,0,9-4.8,9-9.8C185.4,14.1,181.8,9.3,176.4,9.3z
		 M176.4,28.2c-4.3,0-5.5-3.4-5.5-9.1c0-5.8,1.1-9.1,5.5-9.1c4.4,0,5.5,3.3,5.5,9.1C181.8,24.8,180.7,28.2,176.4,28.2z"/>
	<path fill="#615F63" d="M261.1,13.4c0-2.1,1.7-3.1,3.7-3.1c2.7,0,4.5,1.5,5.1,3.8l0,0.3h0.6V9.7h-0.4l-1.1,0.8
		c-0.6-0.4-2.6-1.2-3.9-1.2c-2.3,0-3.8,0.9-4.7,2c-0.9,1.1-1.2,2-1.2,3.2c0,1.6,0.7,3.5,2.4,4.5c0.5,0.3,5.1,1.5,6.2,1.9
		c2.3,0.9,2.4,1.6,2.4,3.3c0,2.5-2.1,3.9-4.7,3.9c-2.9,0-5-2.1-5.8-4.6l0-0.7l-0.6,0v5.7h0.4l1.3-1.2c1.2,1.1,2.9,1.6,4.6,1.6
		c3.9,0,6.5-2.4,6.5-6.2C272,15,261.1,18,261.1,13.4z"/>
	<polygon fill="#615F63" points="251.5,10.4 253.9,10.4 253.9,22.7 253.8,22.7 244.4,9.7 238.3,9.7 238.3,10.4 240.7,10.4 
		240.7,27.8 238.3,27.8 238.3,28.4 244.1,28.4 244.1,27.8 241.7,27.8 241.7,10.9 241.7,10.9 254,28.8 254.8,28.8 254.8,10.4 
		257.1,10.4 257.1,9.7 251.5,9.7 	"/>
	<path fill="#615F63" d="M218.4,9.5h-1.2l-6.9,18.3h-1.9v0H206V10.4h2.4V9.7h-6.3l-4.6,13.8h-0.1L193,9.7h-6.3v0.6h2.4v17.4h-2.4
		v0.6h5.7v-0.6H190V10.7h0.1l5.9,17.7h0.8l6.1-17.7h0.1v17.1h-2.4v0.6h7.9v0h5.6v-0.6h-2.7l1.9-5.1h6.8l1.8,5.1h-2.6v0.6h8v-0.6H225
		L218.4,9.5z M213.4,22l0.1-0.4l0.3-0.8l2.8-7.6h0.1l2.6,7.6l0.3,0.8l0.1,0.4H213.4z"/>
	<path fill="#615F63" d="M72.9,27.7c-0.7-0.3-0.9-1.5-0.8-2.9c0.3-4.4-1.7-5.6-5.2-6.4v-0.1c2.9-0.2,5.9-0.9,5.9-4.6
		c0-1.3-1.1-4.1-7-4.1h-9v0.6h2.4v17.4h-2.4v0.6h8.3v-0.6h-2.4v-9.1H64c3.9,0,4.1,2.1,4.3,3.4c0.2,1.7,0.4,3.9,0.6,4.4
		c0.4,1.3,1.6,2.4,3.8,2.3c0.8,0,1.7-0.2,2.7-0.5v-0.7C74.3,27.9,73.5,28.1,72.9,27.7z M63.8,18h-1.1v-7.6h2.4
		c2.9,0,4.2,0.8,4.2,3.6C69.3,17.8,67.2,18,63.8,18z"/>
	<path fill="#615F63" d="M31.2,18.6L31.2,18.6c2.5-0.3,5.4-1.6,5.4-4.4c0-1.7-1.2-4.5-7.4-4.5H21v0.6h2.4v17.4H21v0.6h8.1
		c6.8,0,8.2-3,8.2-5.1C37.3,21.5,35.4,19,31.2,18.6z M26.5,10.4h2.5c3.1,0,4.2,1.2,4.2,3.8c0,3-0.8,4.1-4,4.1h-2.7V10.4z M29.1,27.8
		h-2.6v-8.8H28c3.8,0,5.7,0.7,5.7,4.2C33.7,26.7,32.8,27.8,29.1,27.8z"/>
	<path fill="#615F63" d="M85.4,10.4h1.4c3.4,0,4.4,2.1,4.8,4.8h0.8l-0.2-5.4H75.6l-0.4,5.4h0.8c0.6-2.8,0.9-4.8,4-4.8h2.2v17.4h-2.7
		v0.6h8.5v-0.6h-2.7V10.4z"/>
	<path fill="#615F63" d="M99.8,9.5h-1.2l-6.9,18.3h-2.5v0.6h6.2v-0.6h-2.7l1.9-5.1h6.8l1.8,5.1h-2.6v0.6h8v-0.6h-2.2L99.8,9.5z
		 M94.8,22l0.1-0.4l0.3-0.8l2.8-7.6H98l2.6,7.6l0.3,0.8l0.1,0.4H94.8z"/>
	<polygon fill="#615F63" points="121.7,10.4 124.1,10.4 124.1,22.7 124.1,22.7 114.6,9.7 108.5,9.7 108.5,10.4 111,10.4 111,27.8 
		108.5,27.8 108.5,28.4 114.3,28.4 114.3,27.8 111.9,27.8 111.9,10.9 112,10.9 124.3,28.8 125.1,28.8 125.1,10.4 127.4,10.4 
		127.4,9.7 121.7,9.7 	"/>
	<path fill="#BF2A40" d="M6,0c0,0-6,9.9-6,19.1c0,11.4,6.1,19.5,6.1,19.5L6.9,38c0,0-4-8.1-4-19c0-10.8,4-18.4,4-18.4L6,0z"/>
	<path fill="#BF2A40" d="M287,0l-0.9,0.7c0,0,4,7.6,4,18.4c0,10.8-4,19-4,19l0.7,0.6c0,0,6.1-8.1,6.1-19.5C293,9.9,287,0,287,0z"/>
</g>
</svg>
