<svg version="1.1" baseProfile="tiny" xmlns="http://www.w3.org/2000/svg" xmlns:xlink="http://www.w3.org/1999/xlink" x="0px" y="0px" viewBox="0 0 164 80" overflow="visible" xml:space="preserve" width="164" height="80"><g><path fill="#FEF7EC" d="M39.4,53.5V20.4h-1.5v33.2c-2.6-5.8-8.5-9.9-15.3-9.9v1.5c8.4,0,15.3,6.9,15.3,15.3h0v0h1.5c0-8.4,6.9-15.3,15.3-15.3v-1.5C47.9,43.6,42.1,47.7,39.4,53.5z"/><path fill="#FEF7EC" d="M38.7,2C17.5,2,0.2,19.2,0.2,40.4c0,21.2,17.2,38.4,38.4,38.4s38.4-17.2,38.4-38.4C77.1,19.2,59.8,2,38.7,2z M38.7,77.3c-20.4,0-36.9-16.6-36.9-36.9C1.8,20,18.3,3.5,38.7,3.5S75.6,20,75.6,40.4C75.6,60.7,59,77.3,38.7,77.3z"/><path fill="#FEF7EC" d="M136.8,23.7h-1.5c0,7.3,4.6,13.4,11.1,15.8H138h-27h-7.4c6.5-2.3,11.1-8.5,11.1-15.8h-1.5c0,8.4-6.8,15.2-15.2,15.2v0.5v1V41h3.8c6.6,1.7,11.4,7.7,11.4,14.8h1.5c0-6.4-3.6-11.9-8.8-14.8h5.1h27h6.1c-5.2,2.8-8.8,8.4-8.8,14.8h1.5c0-7.1,4.9-13.1,11.4-14.8h2.8v-0.4c0.3,0,0.7-0.1,1-0.1V39C143.6,39,136.8,32.1,136.8,23.7z"/><path fill="#FEF7EC" d="M125,1c-21.4,0-38.8,17.4-38.8,38.7c0,21.4,17.4,38.8,38.8,38.8s38.8-17.4,38.8-38.8C163.8,18.4,146.4,1,125,1z M125,77c-20.5,0-37.2-16.7-37.2-37.3c0-20.5,16.7-37.2,37.2-37.2s37.2,16.7,37.2,37.2C162.2,60.3,145.5,77,125,77z"/></g></svg>