<?xml version="1.0" standalone="no"?>
<!DOCTYPE svg PUBLIC "-//W3C//DTD SVG 1.1//EN" "http://www.w3.org/Graphics/SVG/1.1/DTD/svg11.dtd" >
<svg xmlns="http://www.w3.org/2000/svg" xmlns:xlink="http://www.w3.org/1999/xlink" version="1.1">
<metadata>
Created by FontForge 20170731 at Wed Feb 10 12:54:34 2021
 By Aleksey,,,
Copyright (c) 2018 Commercial Type, Inc. All rights reserved.
</metadata>
<defs>
<font id="SchnyderS-Demi" horiz-adv-x="1359" >
  <font-face 
    font-family="Schnyder S"
    font-weight="600"
    font-stretch="normal"
    units-per-em="2048"
    panose-1="0 0 0 0 0 0 0 0 0 0"
    ascent="1638"
    descent="-410"
    x-height="973"
    cap-height="1536"
    bbox="-207 -610 2290 2202"
    underline-thickness="32"
    underline-position="-192"
    unicode-range="U+000D-FB04"
  />
<missing-glyph horiz-adv-x="399" 
 />
    <glyph glyph-name="f_f" unicode="ff" horiz-adv-x="1105" 
d="M580 0v27q21 7 34 13.5t23 21.5t14.5 27.5t7 46t3 63t0.5 90.5v645h-310v-645q0 -45 0.5 -70t2.5 -54t5 -43t10 -31t16 -24t24 -16t32 -14t43 -10v-27h-424v27q21 7 34 13.5t23 21.5t14.5 27.5t7 46t3 63t0.5 90.5v645h-118v29q73 13 97.5 41t24.5 92v63
q0 108 33.5 189.5t89 127t118 67.5t130.5 22q88 0 142.5 -29t72.5 -78q47 60 113.5 89.5t134.5 29.5q98 0 158.5 -35t60.5 -94q0 -28 -19 -49t-57 -21q-46 0 -65 17.5t-27 60.5q-11 56 -22.5 72t-40.5 16q-49 0 -75 -52t-26 -189v-330h213v-39h-213v-645q0 -45 0.5 -70
t2.5 -54t5 -43t10 -31t16 -24t24 -16t32 -14t43 -10v-27h-421zM352 973h310v239q0 80 22 148h-10q-42 0 -59.5 17.5t-28.5 62.5q-13 59 -25 75.5t-51 16.5q-158 0 -158 -307v-252z" />
    <glyph glyph-name="f_i" unicode="fi" horiz-adv-x="1011" 
d="M61 0v27q21 7 34 13.5t23 21.5t14.5 27.5t7 46t3 63t0.5 90.5v645h-118v29q74 13 98 41.5t24 101.5v111q0 77 19.5 140t51.5 103t74 67t84.5 38.5t86.5 11.5q87 0 141.5 -33t54.5 -88q0 -70 -73 -70q-39 0 -56.5 17.5t-25.5 58.5q-11 53 -20 67.5t-33 14.5
q-32 0 -52.5 -19t-33.5 -74t-13 -148v-330h213l303 24v-708v-70t1.5 -54t3.5 -43.5t7 -30.5t11 -24.5t16.5 -16t23 -14t30.5 -9.5v-27h-392v27q24 8 38 14.5t26 21t16.5 27.5t8 45.5t4 62.5t0.5 91v428q0 137 -9 166q-10 31 -44 42q-15 4 -44 9h-213v-645q0 -45 0.5 -70
t2.5 -54t5 -43t10 -31t16 -24t24 -16t32 -14t43 -10v-27h-424zM768 1126q-50 0 -84.5 35t-34.5 86q0 49 34.5 83t84.5 34q51 0 85 -33.5t34 -81.5q0 -51 -34 -87t-85 -36z" />
    <glyph glyph-name="f_l" unicode="fl" horiz-adv-x="1015" 
d="M61 0v27q21 7 34 13.5t23 21.5t14.5 27.5t7 46t3 63t0.5 90.5v645h-118v29q74 13 98 41.5t24 101.5v82q0 102 31.5 179t83.5 119t110.5 62.5t121.5 20.5q94 0 151 -34t57 -93q0 -28 -17.5 -50t-51.5 -22q-40 0 -57.5 18t-28.5 64q-10 53 -23 68.5t-43 15.5
q-59 0 -94 -57.5t-35 -184.5v-321h191v-39h-191v-645q0 -45 0.5 -70t2.5 -54t5 -43t10 -31t16 -24t24 -16t32 -14t43 -10v-27h-424zM569 0v27q23 7 37.5 14t25.5 21t16.5 28.5t9 46t4 63t0.5 89.5v925v63t-2 46.5t-3.5 36t-8 23t-11.5 16.5t-19 8.5t-25 6.5t-34 3v31
l309 154v-1313q0 -52 0.5 -79t2 -58t6 -45t11 -30t18 -23t25.5 -14t36 -13v-27h-398z" />
    <glyph glyph-name="f_f_i" unicode="ffi" horiz-adv-x="1529" 
d="M61 0v27q21 7 34 13.5t23 21.5t14.5 27.5t7 46t3 63t0.5 90.5v645h-118v29q73 13 97.5 41t24.5 92v63q0 108 33.5 189.5t89 127t118 67.5t130.5 22q87 0 143 -30t74 -79q44 62 110 91.5t134 29.5q87 0 143 -33t56 -88q0 -31 -18.5 -50.5t-55.5 -19.5q-41 0 -58.5 17.5
t-23.5 58.5q-11 53 -20 67.5t-35 14.5q-32 0 -52.5 -19t-33.5 -74t-13 -148v-330h213l305 24v-708v-70t1.5 -54t3.5 -43.5t7 -30.5t11 -24.5t16.5 -16t23 -14t30.5 -9.5v-27h-392v27q23 7 37 13.5t25.5 21t16.5 28t8 46.5t3.5 63t0.5 90v428q0 137 -9 166q-10 31 -44 42
q-15 4 -44 9h-213v-645q0 -45 0.5 -70t2.5 -54t5 -43t10 -31t16 -24t24 -16t32 -14t43 -10v-27h-421v27q21 7 34 13.5t23 21.5t14.5 27.5t7 46t3 63t0.5 90.5v645h-310v-645q0 -45 0.5 -70t2.5 -54t5 -43t10 -31t16 -24t24 -16t32 -14t43 -10v-27h-424zM352 973h310v235
q0 81 22 152h-10q-42 0 -59.5 17.5t-28.5 62.5q-13 59 -25 75.5t-51 16.5q-158 0 -158 -307v-252zM1284 1126q-49 0 -83 35t-34 86q0 49 33.5 83t83.5 34q51 0 86 -33.5t35 -81.5q0 -51 -35 -87t-86 -36z" />
    <glyph glyph-name="f_f_l" unicode="ffl" horiz-adv-x="1531" 
d="M580 0v27q21 7 34 13.5t23 21.5t14.5 27.5t7 46t3 63t0.5 90.5v645h-310v-645q0 -45 0.5 -70t2.5 -54t5 -43t10 -31t16 -24t24 -16t32 -14t43 -10v-27h-424v27q21 7 34 13.5t23 21.5t14.5 27.5t7 46t3 63t0.5 90.5v645h-118v29q73 13 97.5 41t24.5 92v61q0 86 22.5 156.5
t59.5 115.5t86.5 75.5t100.5 43.5t104 13q93 0 150.5 -31.5t68.5 -85.5q100 125 271 125q94 0 152.5 -34t58.5 -93q0 -28 -18 -50t-52 -22q-41 0 -58 17.5t-28 64.5q-12 53 -24 68.5t-42 15.5q-131 0 -131 -242v-321h193v-39h-193v-645q0 -45 0.5 -70t2.5 -54t5 -43t10 -31
t16 -24t24 -16t32 -14t43 -10v-27h-421zM352 973h310v211q0 95 28 174q-2 -2 -14 -2q-42 0 -59.5 17.5t-28.5 62.5q-13 59 -25 75.5t-51 16.5q-36 0 -63.5 -14t-50 -47t-34.5 -94.5t-12 -149.5v-250zM1087 0v27q23 7 37.5 14t25.5 21t16.5 28.5t9 46t4 63t0.5 89.5v925v63
t-2 46.5t-3.5 36t-8 23t-11.5 16.5t-19 8.5t-25 6.5t-34 3v31l309 154v-1313q0 -52 0.5 -79t2 -58t6 -45t11 -30t18 -23t25.5 -14t36 -13v-27h-398z" />
    <glyph glyph-name="f_b" unicode="fb" horiz-adv-x="1642" 
d="M61 0v27q21 7 34 13.5t23 21.5t14.5 27.5t7 46t3 63t0.5 90.5v645h-118v29q74 13 98 41.5t24 101.5v82q0 102 31.5 179t83.5 119t110.5 62.5t121.5 20.5q94 0 151 -34t57 -93q0 -28 -17.5 -50t-51.5 -22q-40 0 -57.5 18t-28.5 64q-10 53 -23 68.5t-43 15.5
q-59 0 -94 -57.5t-35 -184.5v-321h191v-39h-191v-645q0 -45 0.5 -70t2.5 -54t5 -43t10 -31t16 -24t24 -16t32 -14t43 -10v-27h-424zM1085 -18q-73 0 -140.5 23t-117 46t-79.5 23q-40 0 -56 -47h-30v1187v6q0 131 -9 158q-10 29 -46 35q-13 2 -42 4v31l305 156v-816l33 37
q76 81 145 124.5t158 43.5q69 0 133.5 -29t118.5 -85t86.5 -151t32.5 -216q0 -244 -139.5 -387t-352.5 -143zM932 57q35 -23 67.5 -32t81.5 -9q126 0 202.5 113.5t76.5 347.5q0 457 -215 457q-57 0 -114.5 -39.5t-127.5 -116.5l-33 -37v-514q0 -129 62 -170z" />
    <glyph glyph-name="f_f_b" unicode="ffb" horiz-adv-x="2160" 
d="M580 0v27q21 7 34 13.5t23 21.5t14.5 27.5t7 46t3 63t0.5 90.5v645h-310v-645q0 -45 0.5 -70t2.5 -54t5 -43t10 -31t16 -24t24 -16t32 -14t43 -10v-27h-424v27q21 7 34 13.5t23 21.5t14.5 27.5t7 46t3 63t0.5 90.5v645h-118v29q73 13 97.5 41t24.5 92v61q0 86 22.5 156.5
t59.5 115.5t86.5 75.5t100.5 43.5t104 13q93 0 150.5 -32t68.5 -87q99 127 271 127q94 0 152.5 -34t58.5 -93q0 -28 -18 -50t-52 -22q-41 0 -58 17.5t-28 64.5q-12 53 -24 68.5t-42 15.5q-131 0 -131 -242v-321h193v-39h-193v-645q0 -45 0.5 -70t2.5 -54t5 -43t10 -31
t16 -24t24 -16t32 -14t43 -10v-27h-421zM352 973h310v211q0 95 28 174q-2 -2 -14 -2q-42 0 -59.5 17.5t-28.5 62.5q-13 59 -25 75.5t-51 16.5q-36 0 -63.5 -14t-50 -47t-34.5 -94.5t-12 -149.5v-250zM1602 -18q-58 0 -113.5 14.5t-90.5 31.5t-72 31.5t-62 14.5
q-40 0 -56 -47h-30v1187q0 135 -9 163q-9 29 -43 35q-14 3 -45 5v31l305 156v-816l33 37q76 81 145 124.5t158 43.5q69 0 133.5 -29t118.5 -85t86.5 -151t32.5 -216q0 -244 -139 -387t-352 -143zM1448 57q35 -23 67.5 -32t81.5 -9q126 0 202.5 113.5t76.5 347.5
q0 457 -215 457q-57 0 -114.5 -39.5t-127.5 -116.5l-33 -37v-514q0 -129 62 -170z" />
    <glyph glyph-name="f_f_h" unicode="ffh" horiz-adv-x="2142" 
d="M580 0v27q21 7 34 13.5t23 21.5t14.5 27.5t7 46t3 63t0.5 90.5v645h-310v-645q0 -45 0.5 -70t2.5 -54t5 -43t10 -31t16 -24t24 -16t32 -14t43 -10v-27h-424v27q21 7 34 13.5t23 21.5t14.5 27.5t7 46t3 63t0.5 90.5v645h-118v29q73 13 97.5 41t24.5 92v61q0 86 22.5 156.5
t59.5 115.5t86.5 75.5t100.5 43.5t104 13q93 0 150.5 -32t68.5 -87q99 127 271 127q94 0 152.5 -34t58.5 -93q0 -28 -18 -50t-52 -22q-41 0 -58 17.5t-28 64.5q-12 53 -24 68.5t-42 15.5q-131 0 -131 -242v-321h193v-39h-193v-645q0 -45 0.5 -70t2.5 -54t5 -43t10 -31
t16 -24t24 -16t32 -14t43 -10v-27h-421zM352 973h310v211q0 95 28 174q-2 -2 -14 -2q-42 0 -59.5 17.5t-28.5 62.5q-13 59 -25 75.5t-51 16.5q-36 0 -63.5 -14t-50 -47t-34.5 -94.5t-12 -149.5v-250zM1096 0v27q21 7 34 13.5t23 21.5t14.5 27.5t7 46t3 63t0.5 90.5v925
q0 134 -9 161q-9 28 -43 36q-13 3 -45 6v31l305 154v-846l78 71q87 82 159.5 123t152.5 41q235 0 235 -258v-444q0 -162 11.5 -202t70.5 -60v-27h-381v27q27 9 41.5 18.5t26 25t16 45.5t6.5 68t2 105v497q0 134 -108 134q-48 0 -101 -32t-131 -104l-78 -71v-424
q0 -60 0.5 -90t3.5 -63t8 -46.5t16.5 -28t25.5 -21t37 -13.5v-27h-381z" />
    <glyph glyph-name="f_f_j" unicode="ffj" horiz-adv-x="1523" 
d="M580 0v27q21 7 34 13.5t23 21.5t14.5 27.5t7 46t3 63t0.5 90.5v645h-310v-645q0 -45 0.5 -70t2.5 -54t5 -43t10 -31t16 -24t24 -16t32 -14t43 -10v-27h-424v27q21 7 34 13.5t23 21.5t14.5 27.5t7 46t3 63t0.5 90.5v645h-118v29q73 13 97.5 41t24.5 92v63
q0 108 33.5 189.5t89 127t118 67.5t130.5 22q87 0 143 -30t74 -79q44 62 110 91.5t134 29.5q87 0 143 -33t56 -88q0 -31 -18.5 -50.5t-55.5 -19.5q-41 0 -58.5 17.5t-23.5 58.5q-11 53 -20 67.5t-35 14.5q-32 0 -52.5 -19t-33.5 -74t-13 -148v-330h213l305 24v-864
q0 -238 -192 -369q-64 -45 -108.5 -61t-92.5 -16q-38 0 -66 22.5t-28 61.5t22 58t56 19q29 0 56.5 -21t48.5 -42t36 -21q14 0 23 9q19 13 28 54t9 144v746q0 137 -9 166q-10 31 -44 42q-15 4 -44 9h-213v-645q0 -45 0.5 -70t2.5 -54t5 -43t10 -31t16 -24t24 -16t32 -14
t43 -10v-27h-421zM352 973h310v235q0 81 22 152h-10q-42 0 -59.5 17.5t-28.5 62.5q-13 59 -25 75.5t-51 16.5q-158 0 -158 -307v-252zM1284 1126q-49 0 -83 35t-34 86q0 49 33.5 83t83.5 34q51 0 86 -33.5t35 -81.5q0 -51 -35 -87t-86 -36z" />
    <glyph glyph-name="f_f_k" unicode="ffk" horiz-adv-x="2052" 
d="M580 0v27q21 7 34 13.5t23 21.5t14.5 27.5t7 46t3 63t0.5 90.5v645h-310v-645q0 -45 0.5 -70t2.5 -54t5 -43t10 -31t16 -24t24 -16t32 -14t43 -10v-27h-424v27q21 7 34 13.5t23 21.5t14.5 27.5t7 46t3 63t0.5 90.5v645h-118v29q73 13 97.5 41t24.5 92v61q0 86 22.5 156.5
t59.5 115.5t86.5 75.5t100.5 43.5t104 13q93 0 150.5 -32t68.5 -87q99 127 271 127q94 0 152.5 -34t58.5 -93q0 -28 -18 -50t-52 -22q-41 0 -58 17.5t-28 64.5q-12 53 -24 68.5t-42 15.5q-131 0 -131 -242v-321h193v-39h-193v-645q0 -45 0.5 -70t2.5 -54t5 -43t10 -31
t16 -24t24 -16t32 -14t43 -10v-27h-421zM352 973h310v211q0 95 28 174q-2 -2 -14 -2q-42 0 -59.5 17.5t-28.5 62.5q-13 59 -25 75.5t-51 16.5q-36 0 -63.5 -14t-50 -47t-34.5 -94.5t-12 -149.5v-250zM1096 0v27q21 7 34 13.5t23 21.5t14.5 27.5t7 46t3 63t0.5 90.5v925
q0 134 -9 161q-9 28 -43 36q-13 3 -45 6v31l305 154v-1313q0 -60 0.5 -90t3.5 -63t8 -46.5t16.5 -28t25.5 -21t37 -13.5v-27h-381zM1667 0v27q87 10 23 96l-277 387v25l334 282q45 37 54.5 65.5t-8 43.5t-52.5 20v27h258v-27q-40 -12 -84 -42t-143 -111l-203 -170l366 -504
q40 -54 59.5 -70.5t43.5 -21.5v-27h-371z" />
    <glyph glyph-name="f_h" unicode="fh" horiz-adv-x="1626" 
d="M61 0v27q21 7 34 13.5t23 21.5t14.5 27.5t7 46t3 63t0.5 90.5v645h-118v29q74 13 98 41.5t24 101.5v82q0 102 31.5 179t83.5 119t110.5 62.5t121.5 20.5q94 0 151 -34t57 -93q0 -28 -17.5 -50t-51.5 -22q-40 0 -57.5 18t-28.5 64q-10 53 -23 68.5t-43 15.5
q-59 0 -94 -57.5t-35 -184.5v-321h191v-39h-191v-645q0 -45 0.5 -70t2.5 -54t5 -43t10 -31t16 -24t24 -16t32 -14t43 -10v-27h-424zM580 0v27q21 7 34 13.5t23 21.5t14.5 27.5t7 46t3 63t0.5 90.5v925v6q0 130 -9 157q-10 27 -45 34q-12 3 -43 6v31l305 154v-846l78 71
q87 82 159.5 123t152.5 41q235 0 235 -258v-444q0 -162 11.5 -202t70.5 -60v-27h-381v27q27 9 41.5 18.5t26 25t16 45.5t6.5 68t2 105v497q0 134 -108 134q-48 0 -101 -32t-131 -104l-78 -71v-424q0 -60 0.5 -90t3.5 -63t8 -46.5t16.5 -28t25.5 -21t37 -13.5v-27h-381z" />
    <glyph glyph-name="f_j" unicode="fj" horiz-adv-x="1005" 
d="M61 0v27q21 7 34 13.5t23 21.5t14.5 27.5t7 46t3 63t0.5 90.5v645h-118v29q74 13 98 41.5t24 101.5v111q0 77 19.5 140t51.5 103t74 67t84.5 38.5t86.5 11.5q87 0 141.5 -33t54.5 -88q0 -70 -73 -70q-39 0 -56.5 17.5t-25.5 58.5q-11 53 -20 67.5t-33 14.5
q-32 0 -52.5 -19t-33.5 -74t-13 -148v-330h213l303 24v-864q0 -239 -190 -369q-64 -45 -109.5 -61t-91.5 -16q-39 0 -66.5 22.5t-27.5 61.5t22 58t54 19q29 0 56.5 -21t48.5 -42t36 -21q16 0 25 9q37 26 37 198v746q0 137 -9 166q-10 31 -44 42q-15 4 -44 9h-213v-645
q0 -45 0.5 -70t2.5 -54t5 -43t10 -31t16 -24t24 -16t32 -14t43 -10v-27h-424zM768 1126q-50 0 -84.5 35t-34.5 86q0 49 34.5 83t84.5 34q51 0 85 -33.5t34 -81.5q0 -51 -34 -87t-85 -36z" />
    <glyph glyph-name="f_k" unicode="fk" horiz-adv-x="1533" 
d="M61 0v27q21 7 34 13.5t23 21.5t14.5 27.5t7 46t3 63t0.5 90.5v645h-118v29q74 13 98 41.5t24 101.5v82q0 102 31.5 179t83.5 119t110.5 62.5t121.5 20.5q94 0 151 -34t57 -93q0 -28 -17.5 -50t-51.5 -22q-40 0 -57.5 18t-28.5 64q-10 53 -23 68.5t-43 15.5
q-59 0 -94 -57.5t-35 -184.5v-321h191v-39h-191v-645q0 -45 0.5 -70t2.5 -54t5 -43t10 -31t16 -24t24 -16t32 -14t43 -10v-27h-424zM580 0v27q21 7 34 13.5t23 21.5t14.5 27.5t7 46t3 63t0.5 90.5v925v6q0 130 -9 157q-10 27 -45 34q-12 3 -43 6v31l305 154v-1313
q0 -60 0.5 -90t3.5 -63t8 -46.5t16.5 -28t25.5 -21t37 -13.5v-27h-381zM1151 0v27q87 10 23 96l-277 387v25l334 282q45 37 54.5 65.5t-8 43.5t-52.5 20v27h258v-27q-40 -12 -85 -42t-143 -111l-202 -170l366 -504q40 -54 59.5 -70.5t43.5 -21.5v-27h-371z" />
    <glyph glyph-name="g_j" unicode="gj" horiz-adv-x="1466" 
d="M1221 1141q-49 0 -84 36t-35 87q0 49 34.5 83.5t84.5 34.5q51 0 85.5 -33.5t34.5 -82.5q0 -51 -34.5 -88t-85.5 -37zM922 -309q-45 0 -72 21t-27 59q0 39 20 58t52 19q28 0 58.5 -21.5t57 -43t44.5 -21.5q10 0 28 11q20 20 28.5 58t8.5 140v619v12q0 133 -9 162
q-10 31 -46 41q-14 4 -41 8v31l303 153v-864q0 -237 -190 -369q-109 -73 -215 -73zM451 -344q-75 0 -145 11t-132.5 33.5t-100.5 64t-38 96.5q0 65 52.5 111t137.5 81q-137 36 -137 150q0 57 30.5 99.5t82.5 82.5l30 23q-74 39 -117 104.5t-42 153.5q0 77 34.5 141t90 104
t121.5 62t133 22q101 0 192 -45q51 44 109.5 72.5t99.5 28.5q86 0 86 -76q0 -31 -18 -49.5t-43 -18.5q-30 0 -71.5 29t-62.5 29q-33 0 -77 -29q76 -43 119.5 -111.5t43.5 -158.5q0 -76 -34.5 -137.5t-90 -99t-121 -57.5t-132.5 -20q-102 0 -187 39l-33 -24
q-26 -21 -38.5 -38t-12.5 -38q0 -44 78 -55l367 -46q143 -18 212.5 -72t69.5 -163q0 -133 -126.5 -216t-329.5 -83zM451 385q83 0 133.5 66t50.5 215q0 152 -50.5 224.5t-133.5 72.5q-85 0 -135 -72.5t-50 -224.5q0 -281 185 -281zM164 -123q0 -90 78 -139t209 -49
q169 0 261.5 56t92.5 132q0 60 -47.5 86t-153.5 39l-315 39l-15 2q-58 -27 -84 -65.5t-26 -100.5z" />
    <glyph glyph-name=".notdef" horiz-adv-x="399" 
 />
    <glyph glyph-name=".null" horiz-adv-x="0" 
 />
    <glyph glyph-name="nonmarkingreturn" horiz-adv-x="682" 
 />
    <glyph glyph-name="NULL" horiz-adv-x="0" 
 />
    <glyph glyph-name="NULL" horiz-adv-x="0" 
 />
    <glyph glyph-name="CR" unicode="&#xd;" horiz-adv-x="399" 
 />
    <glyph glyph-name="space" unicode=" " horiz-adv-x="399" 
 />
    <glyph glyph-name="exclam" unicode="!" horiz-adv-x="524" 
d="M283 424h-39q-12 238 -42 454t-53.5 345t-23.5 178q0 72 37 112.5t100 40.5q64 0 101.5 -40t37.5 -113q0 -43 -15.5 -135t-35 -197t-39.5 -282t-28 -363zM264 -27q-57 0 -95 36t-38 95q0 57 38.5 95.5t94.5 38.5q57 0 94 -38.5t37 -95.5q0 -59 -36.5 -95t-94.5 -36z" />
    <glyph glyph-name="quotedbl" unicode="&#x22;" horiz-adv-x="704" 
d="M522 1085h-33q-7 36 -49.5 180.5t-42.5 196.5q0 55 28 86t81 31t80.5 -31t27.5 -86q0 -52 -42.5 -196.5t-49.5 -180.5zM215 1085h-33q-7 51 -49.5 190t-42.5 187q0 55 28 86t81 31q54 0 82 -31t28 -86q0 -52 -43.5 -196.5t-50.5 -180.5z" />
    <glyph glyph-name="numbersign" unicode="#" horiz-adv-x="1011" 
d="M37 541v41h244l81 475h-235v41h244l75 438h48l-76 -438h268l76 438h47l-76 -438h242v-41h-250l-82 -475h242v-41h-248l-94 -539h-47l94 539h-268l-95 -539h-47l94 539h-237zM328 582h268l82 475h-268z" />
    <glyph glyph-name="dollar" unicode="$" horiz-adv-x="1067" 
d="M410 1710h45v-162q36 4 59 4q51 0 76 -2v160h45v-166q156 -20 249 -84.5t93 -144.5q0 -42 -22.5 -67t-63.5 -25q-52 0 -80 29.5t-41 88.5q-14 72 -41 111t-94 55v-604q89 -44 152 -87.5t116.5 -99.5t80 -127t26.5 -157q0 -168 -103 -289t-272 -149v-189h-45v183
q-18 -2 -58 -2q-27 0 -77 4v-185h-45v189q-169 24 -273 104.5t-104 177.5q0 46 27.5 73.5t70.5 27.5q100 0 109 -107q8 -110 43.5 -166t126.5 -75v712q-171 83 -253.5 179.5t-82.5 242.5q0 150 93.5 249t242.5 130v168zM852 317q0 105 -48 175t-169 139v-602q217 47 217 288
zM532 18q40 0 58 2v635q-21 12 -131 64l-4 2v-698q57 -5 77 -5zM569 934l21 -10v592q-46 4 -76 4q-23 0 -59 -4v-529q7 -3 48 -22.5t66 -30.5zM221 1276q0 -96 44 -154t145 -112v497q-91 -23 -140 -83t-49 -148z" />
    <glyph glyph-name="percent" unicode="%" horiz-adv-x="1558" 
d="M408 776q-62 0 -123 27.5t-110.5 76t-80.5 123t-31 160.5t31 160t80.5 122.5t110.5 75.5t123 27q63 0 124.5 -27t111.5 -75.5t81 -122.5t31 -160t-31 -160.5t-81 -123t-111.5 -76t-124.5 -27.5zM289 -4l-41 27l1020 1523l41 -26zM408 809q76 0 129 84.5t53 269.5
q0 97 -15.5 168.5t-42.5 110t-58 56.5t-66 18q-33 0 -63 -18t-57 -56.5t-43 -110t-16 -168.5q0 -184 53.5 -269t125.5 -85zM1147 -12q-62 0 -123 27.5t-110.5 76t-80 123t-30.5 160.5t30.5 160t80 122.5t110.5 75.5t123 27q63 0 124.5 -27t111.5 -75.5t81 -122.5t31 -160
t-31 -160.5t-81 -123t-111.5 -76t-124.5 -27.5zM1147 20q76 0 129 85t53 270q0 97 -15.5 168t-42.5 109.5t-58 56.5t-66 18q-33 0 -63 -18t-56.5 -56t-42.5 -109.5t-16 -168.5q0 -184 53 -269.5t125 -85.5z" />
    <glyph glyph-name="ampersand" unicode="&#x26;" horiz-adv-x="1570" 
d="M342 1223q0 95 53 174t137.5 121.5t178.5 42.5q135 0 232 -77t97 -198q0 -39 -12.5 -76.5t-30 -66t-48 -57.5t-55.5 -48.5t-63 -42t-60 -34t-58 -29.5l37 -43l340 -420l12 -14l104 219q63 139 71 175q11 53 -30 76q-21 12 -57 21v27h323v-27q-39 -9 -62 -18t-50 -26.5
t-48.5 -47t-48 -75.5t-59.5 -117l-115 -242q187 -230 263.5 -304t138.5 -89v-27h-324l-184 227q-88 -125 -191.5 -186t-236.5 -61q-235 0 -381.5 115t-146.5 306q0 60 15.5 114t39 95.5t61 80t71.5 64.5t81.5 53t79.5 42.5t76 34.5q-77 107 -113.5 187.5t-36.5 150.5z
M303 410q0 -194 74.5 -296t220.5 -102q125 0 222.5 61t176.5 185l-415 510l-74 92q-45 -27 -78.5 -61t-64 -86t-46.5 -128.5t-16 -174.5zM522 1319q0 -98 44 -179.5t128 -183.5q35 23 53 36t51.5 45t51.5 61.5t32.5 77.5t14.5 102q0 131 -54 190.5t-132 59.5
q-85 0 -137 -58.5t-52 -150.5z" />
    <glyph glyph-name="quotesingle" unicode="'" horiz-adv-x="399" 
d="M215 1085h-33q-7 51 -49.5 190t-42.5 187q0 55 28 86t81 31q54 0 82 -31t28 -86q0 -52 -43.5 -196.5t-50.5 -180.5z" />
    <glyph glyph-name="parenleft" unicode="(" horiz-adv-x="657" 
d="M623 -195l-21 -22q-65 49 -124.5 103t-133.5 144t-127 185.5t-90 226t-37 267.5t36.5 267t90 226t127.5 184.5t134 142.5t124 101l21 -22q-39 -35 -77.5 -82t-84.5 -128t-80 -175t-57 -229t-23 -285q0 -149 23 -284.5t57 -230.5t80 -177t84.5 -129.5t77.5 -82.5z" />
    <glyph glyph-name="parenright" unicode=")" horiz-adv-x="657" 
d="M55 -217l-20 22q39 35 77.5 82.5t84 129.5t79.5 177t57 230.5t23 284.5q0 150 -23 285t-57 229t-80 175t-84 128t-77 82l20 22q64 -47 124 -101t134 -142.5t127.5 -184.5t90 -226t36.5 -267t-37 -267.5t-90 -226t-127 -185.5t-133.5 -144t-124.5 -103z" />
    <glyph glyph-name="asterisk" unicode="*" horiz-adv-x="739" 
d="M428 1004q0 -74 -59 -74q-58 0 -58 74q0 35 24 110t30 117q-27 -37 -63.5 -106.5t-61.5 -94.5q-24 -28 -51.5 -29.5t-45.5 19.5q-44 44 13 96q26 24 95.5 59t104.5 62q-44 -6 -120 -28.5t-109 -22.5q-74 0 -74 57t74 57q34 0 110.5 -23.5t118.5 -29.5q-36 28 -105 63.5
t-95 61.5q-29 25 -31.5 51.5t20.5 46.5q41 42 95 -12q21 -24 59.5 -96t65.5 -109q-7 47 -30.5 123t-23.5 109q0 74 58 74q59 0 59 -74q0 -33 -22.5 -110.5t-28.5 -121.5q25 37 61.5 108.5t59.5 96.5q52 54 98 8q20 -16 17 -43t-31 -51q-26 -25 -93.5 -60.5t-103.5 -64.5
q45 7 118.5 30t106.5 23q76 0 76 -57t-76 -57q-33 0 -106.5 22t-118.5 29q35 -26 102.5 -60t94.5 -59q57 -55 12 -100q-18 -19 -45 -16.5t-51 28.5q-21 23 -56 92.5t-65 108.5q7 -46 29 -119t22 -108z" />
    <glyph glyph-name="plus" unicode="+" horiz-adv-x="993" 
d="M520 313h-45v385h-379v41h379v387h45v-387h377v-41h-377v-385z" />
    <glyph glyph-name="comma" unicode="," horiz-adv-x="526" 
d="M313 33q-27 -39 -84 -39q-46 0 -78 32.5t-32 84.5q0 55 37 91t88 36q63 0 110 -48.5t47 -146.5q0 -109 -68.5 -191t-182.5 -122l-15 22q93 38 144 98t51 132q0 34 -17 51z" />
    <glyph glyph-name="hyphen" unicode="-" horiz-adv-x="622" 
d="M90 477l41 152h401l-40 -152h-402z" />
    <glyph glyph-name="period" unicode="." horiz-adv-x="499" 
d="M252 -27q-58 0 -95.5 36t-37.5 95q0 57 38 95.5t95 38.5t94 -38.5t37 -95.5q0 -59 -36.5 -95t-94.5 -36z" />
    <glyph glyph-name="slash" unicode="/" horiz-adv-x="907" 
d="M825 1649l47 -21l-858 -1968l-47 21z" />
    <glyph glyph-name="zero" unicode="0" horiz-adv-x="1368" 
d="M686 1559q112 0 220 -57.5t192.5 -158t136 -251t51.5 -322.5t-52 -323t-136.5 -252.5t-192.5 -159.5t-219 -58q-113 0 -221.5 58t-193.5 159.5t-137 252.5t-52 323t52 322.5t137 251t193.5 158t221.5 57.5zM686 1526q-72 0 -134 -43t-111.5 -131t-78 -237t-28.5 -345
q0 -197 26 -345t74 -237.5t111 -133.5t141 -44q161 0 255.5 186.5t94.5 573.5q0 196 -28 345t-77.5 237t-111 131t-133.5 43z" />
    <glyph glyph-name="one" unicode="1" horiz-adv-x="634" 
d="M584 0h-523v27q28 5 45.5 9.5t35.5 15t27 22.5t18 38t13 53.5t7 76.5t3.5 101t0.5 132v524v68.5t-1.5 55t-3.5 45.5t-6.5 33.5t-10 25.5t-15.5 15.5t-20.5 10t-27 3t-34 -0.5t-43.5 -6v29l393 289v-1092q0 -86 0.5 -132.5t3 -100t5.5 -77.5t11 -52.5t16.5 -38.5t25.5 -22
t34.5 -16t45.5 -9v-27z" />
    <glyph glyph-name="two" unicode="2" horiz-adv-x="1095" 
d="M223 190h309q105 0 171 1.5t119.5 7.5t82 13.5t51 24t33 34t23.5 48.5h37l-64 -225q-18 -64 -30 -79t-48 -15h-895l408 465q174 198 247.5 359t73.5 337q0 183 -62.5 273t-195.5 90q-60 0 -99 -13.5t-58.5 -45.5t-26 -54t-13.5 -70l-3 -18q-16 -113 -113 -113
q-46 0 -76.5 32t-30.5 77q0 89 110.5 163t311.5 74q67 0 133.5 -12.5t134 -42.5t119 -74t83.5 -114t32 -156q0 -95 -35 -188t-103.5 -182.5t-146 -167t-184.5 -166.5z" />
    <glyph glyph-name="three" unicode="3" horiz-adv-x="1153" 
d="M473 14q77 0 138 25.5t102.5 70.5t69 108t39.5 135t12 155q0 96 -10 165.5t-35.5 126.5t-72.5 86t-116 29q-67 0 -121 -19t-82 -40.5t-78 -67.5l-22 23l510 535h-266q-95 0 -156.5 -1.5t-108.5 -9t-71.5 -14t-43.5 -25t-27 -34t-21 -48.5h-37l61 242q20 63 26 71
q10 9 34 9h813v-29l-566 -589q68 30 156 30q99 0 183.5 -27t150.5 -80t103.5 -139t37.5 -196q0 -107 -40.5 -202t-115.5 -167t-190 -113.5t-256 -41.5q-188 0 -308 84t-120 186q0 43 27 72.5t73 29.5q105 0 117 -102q2 -11 5.5 -35.5t5.5 -40t8.5 -39t15 -38.5t24 -33
t35.5 -28t50 -17t67 -7z" />
    <glyph glyph-name="four" unicode="4" horiz-adv-x="1284" 
d="M1159 379h-184q0 -94 2.5 -150t8.5 -96.5t19.5 -60t29.5 -29t46 -16.5v-27h-444v27q49 12 69 37.5t28.5 93t8.5 221.5h-694v29l834 1146h92v-1024h260zM184 530h559v770z" />
    <glyph glyph-name="five" unicode="5" horiz-adv-x="1142" 
d="M926 1350h-619l-117 -459q125 98 322 98q86 0 163.5 -16.5t146 -53t119 -90t79.5 -131.5t29 -174q0 -161 -77 -285t-212 -190.5t-305 -66.5q-187 0 -309.5 76.5t-122.5 183.5q0 41 29.5 68.5t72.5 27.5q48 0 75 -25.5t33 -70.5q18 -101 23 -117q21 -72 85 -95
q44 -16 114 -16q116 0 196.5 67t118 180t37.5 265q0 203 -73.5 316.5t-221.5 113.5q-217 0 -342 -118l-23 16l172 682h705l-45 -135q-12 -35 -20 -43t-33 -8z" />
    <glyph glyph-name="six" unicode="6" horiz-adv-x="1294" 
d="M756 1524q-182 0 -288.5 -154t-131.5 -450q66 64 155 102.5t185 38.5q112 0 210.5 -34.5t174.5 -98.5t120 -163.5t44 -221.5q0 -104 -34 -197t-90.5 -158.5t-127.5 -113t-145 -71t-144 -23.5q-80 0 -161.5 28.5t-161 90.5t-141 150t-99 218t-37.5 283q0 142 39.5 271
t106 224.5t152.5 167t182.5 107.5t191.5 36q191 0 296 -61.5t105 -144.5q0 -42 -26 -67.5t-68 -25.5q-95 0 -115 103q-18 95 -56.5 129.5t-135.5 34.5zM330 750q0 -158 20 -285t53.5 -210t79.5 -139t96 -80t105 -24q156 0 227.5 133.5t71.5 397.5q0 135 -26 233t-71.5 151
t-98.5 77t-115 24q-194 0 -338 -154q-4 -78 -4 -124z" />
    <glyph glyph-name="seven" unicode="7" horiz-adv-x="1077" 
d="M1020 1507l-604 -1507h-39l538 1346h-475q-80 0 -130.5 -1.5t-91.5 -7t-62 -12.5t-38.5 -23t-26 -32t-19.5 -45h-35l67 237q12 49 22 61.5t40 12.5h854v-29z" />
    <glyph glyph-name="eight" unicode="8" horiz-adv-x="1181" 
d="M1104 420q0 -122 -71.5 -224t-188 -159t-248.5 -57q-221 0 -372.5 111t-151.5 261q0 77 28.5 142.5t81.5 115.5t114 87.5t140 70.5q-113 64 -175.5 118t-96 124t-33.5 164q0 91 41.5 165.5t108.5 120.5t147.5 71t163.5 25q201 0 323.5 -96t122.5 -235q0 -113 -94 -210
t-215 -141q97 -54 159.5 -97.5t115 -98t76.5 -117.5t24 -141zM596 12q163 0 246.5 75.5t83.5 207.5q0 48 -10.5 89t-36 77t-52 63.5t-75.5 60t-87.5 55t-105.5 58.5l-94 52q-105 -58 -158 -147.5t-53 -237.5q0 -165 84 -259t258 -94zM627 932q38 -20 73 -41q83 43 135 124.5
t52 205.5q0 147 -76 225t-219 78q-138 0 -217.5 -61.5t-79.5 -176.5q0 -59 20 -106t67.5 -90t100 -76t144.5 -82z" />
    <glyph glyph-name="nine" unicode="9" horiz-adv-x="1300" 
d="M545 12q200 0 299.5 149t118.5 455q-150 -143 -351 -143q-108 0 -204.5 34.5t-171 98.5t-118.5 164t-44 223q0 104 34 195.5t90 155.5t127 110.5t145 69t144 22.5q85 0 169 -29.5t162 -92t137 -150.5t94.5 -214.5t35.5 -273.5q0 -178 -53 -330t-143.5 -255.5t-212.5 -162
t-258 -58.5q-189 0 -302.5 64t-113.5 149q0 42 25 68t67 26q95 0 115 -105q7 -43 17 -70.5t31.5 -52t61 -36t99.5 -11.5zM315 1004q0 -253 79 -375.5t224 -122.5q104 0 193 44t154 116q2 39 2 120q0 159 -21 286.5t-55.5 208t-81.5 134.5t-95 76t-100 22q-135 0 -217 -129
t-82 -380z" />
    <glyph glyph-name="colon" unicode=":" horiz-adv-x="516" 
d="M260 637q-58 0 -95.5 36t-37.5 95q0 57 38 95t95 38t94 -38t37 -95q0 -59 -36.5 -95t-94.5 -36zM260 -27q-58 0 -95.5 36t-37.5 95q0 57 38 95.5t95 38.5t94 -38.5t37 -95.5q0 -59 -36.5 -95t-94.5 -36z" />
    <glyph glyph-name="semicolon" unicode=";" horiz-adv-x="540" 
d="M268 637q-58 0 -95.5 36t-37.5 95q0 57 38 95t95 38t94 -38t37 -95q0 -59 -36.5 -95t-94.5 -36zM319 33q-24 -39 -81 -39q-46 0 -79.5 32.5t-33.5 84.5q0 55 38 91t89 36q63 0 110.5 -48.5t47.5 -146.5q0 -109 -70 -191t-184 -122l-13 22q92 38 142.5 98t50.5 132
q0 37 -17 51z" />
    <glyph glyph-name="less" unicode="&#x3c;" horiz-adv-x="948" 
d="M115 692v51l719 318v-49l-666 -293l666 -295v-49z" />
    <glyph glyph-name="equal" unicode="=" horiz-adv-x="993" 
d="M96 829v41h801v-41h-801zM96 545v41h801v-41h-801z" />
    <glyph glyph-name="greater" unicode="&#x3e;" horiz-adv-x="948" 
d="M834 692l-719 -317v49l665 295l-665 293v49l719 -318v-51z" />
    <glyph glyph-name="question" unicode="?" horiz-adv-x="888" 
d="M350 408h-31q-4 105 21 203.5t64 174.5t79 148.5t68.5 155.5t28.5 165q0 144 -50.5 204.5t-158.5 60.5q-43 0 -65 -16.5t-36 -53.5q-5 -13 -14.5 -39t-15.5 -38t-17.5 -27.5t-28.5 -22t-42 -6.5q-42 0 -69.5 26t-27.5 62q0 63 83 105t235 42q198 0 317 -84.5t119 -234.5
q0 -68 -25 -131.5t-65 -115.5t-88 -103t-97 -103.5t-89.5 -106.5t-66.5 -122.5t-28 -142.5zM358 -27q-57 0 -95 36t-38 95q0 57 38.5 95.5t94.5 38.5q57 0 94 -38.5t37 -95.5q0 -59 -36.5 -95t-94.5 -36z" />
    <glyph glyph-name="at" unicode="@" horiz-adv-x="1781" 
d="M1489 -98l18 -23q-251 -213 -630 -213q-131 0 -247.5 26t-219.5 82.5t-177.5 140t-117.5 205t-43 269.5q0 154 49 294.5t136 250t201.5 191t251.5 124.5t281 43q209 0 374.5 -76t261 -221.5t95.5 -337.5q0 -139 -53.5 -259t-150 -206.5t-239.5 -134t-314 -41.5l24 144
q-84 -84 -135 -116t-129 -32q-114 0 -194 92t-80 261q0 127 47 239.5t122 187t167 117.5t182 43q53 0 98.5 -18t81.5 -35.5t65 -17.5q45 0 84 51h29l-106 -629q-27 -148 -12 -190.5t87 -16.5q154 52 246 186.5t92 342.5q0 192 -88.5 334.5t-243 216t-354.5 73.5
q-124 0 -239 -35t-213 -104t-171 -165t-114 -226t-41 -279q0 -177 53.5 -318t149.5 -232.5t227 -140t287 -48.5q203 0 357 59.5t245 141.5zM668 354q0 -157 27.5 -225t88.5 -68q41 0 85 30.5t120 109.5l8 8l88 528q14 79 -12 131t-104 52q-52 0 -105 -42t-97 -114
t-71.5 -180.5t-27.5 -229.5z" />
    <glyph glyph-name="A" unicode="A" horiz-adv-x="1441" 
d="M33 0v27q47 16 82 66.5t86 189.5l391 1079l-8 20q-26 68 -52.5 93.5t-66.5 33.5v27h280q23 0 30 -7.5t18 -37.5l464 -1231q52 -132 74 -166q29 -46 78 -63v-31h-399v31q54 10 61 46t-24 109l-107 275h-637l-63 -178q-20 -54 -28 -91t-4 -71.5t28 -57t69 -36.5v-27h-272z
M315 494h613l-316 817z" />
    <glyph glyph-name="B" unicode="B" horiz-adv-x="1269" 
d="M51 0v27q21 7 33.5 12.5t25 17.5t19 23.5t13 38.5t9 53.5t4.5 76.5t2.5 99.5t0.5 130.5v578q0 81 -0.5 130.5t-2.5 99.5t-4.5 76.5t-9 53.5t-13 38.5t-19 23.5t-25 17.5t-33.5 12.5v27h514q276 0 417.5 -91.5t141.5 -256.5q0 -62 -21.5 -115.5t-68 -101.5t-128.5 -81.5
t-195 -47.5v-6q254 -31 373.5 -135.5t119.5 -254.5q0 -112 -50 -198t-139.5 -139.5t-208.5 -81t-263 -27.5h-492zM563 1503h-170v-649h158q141 0 222 35t113 103.5t32 185.5q0 167 -81 246t-274 79zM555 821h-162v-788h139q224 0 329.5 88t105.5 303q0 81 -10 139.5
t-36.5 109.5t-72 82t-118.5 48.5t-175 17.5z" />
    <glyph glyph-name="C" unicode="C" horiz-adv-x="1368" 
d="M801 -27q-150 0 -281 56t-227 157.5t-151.5 252t-55.5 331.5q0 130 29.5 244t81.5 199t120.5 152.5t148 109.5t163 64t166.5 22q74 0 137.5 -12.5t98 -27.5t71.5 -27.5t65 -12.5q53 0 68 55h33v-356h-33q-58 178 -172 263t-268 85q-99 0 -179.5 -41.5t-143.5 -126.5
t-97.5 -227.5t-34.5 -331.5q0 -206 40.5 -358t112.5 -239t161 -128t196 -41q258 0 416 190l24 -22q-28 -39 -67.5 -75.5t-99 -73.5t-143 -59t-179.5 -22z" />
    <glyph glyph-name="D" unicode="D" horiz-adv-x="1476" 
d="M51 0v27q21 7 33.5 12.5t25 17.5t19 23.5t13 38.5t9 53.5t4.5 76.5t2.5 99.5t0.5 130.5v578q0 81 -0.5 130.5t-2.5 99.5t-4.5 76.5t-9 53.5t-13 38.5t-19 23.5t-25 17.5t-33.5 12.5v27h422q212 0 380.5 -47t288.5 -139t184.5 -234.5t64.5 -327.5q0 -367 -237 -577.5
t-681 -210.5h-422zM473 1503h-80v-1472h80q173 0 294 39.5t204.5 128.5t122.5 235t39 357q0 172 -32 298.5t-87 205.5t-141 126t-180.5 64.5t-219.5 17.5z" />
    <glyph glyph-name="E" unicode="E" horiz-adv-x="1208" 
d="M51 0v27q21 7 33.5 12.5t25 17.5t19 23.5t13 38.5t9 53.5t4.5 76.5t2.5 99.5t0.5 130.5v578q0 81 -0.5 130.5t-2.5 99.5t-4.5 76.5t-9 53.5t-13 38.5t-19 23.5t-25 17.5t-33.5 12.5v27h975q25 0 34.5 -9.5t16.5 -51.5l39 -215h-37q-53 146 -129.5 194.5t-242.5 48.5h-314
v-626h99q59 0 100 8t64.5 21t38 34t21 42.5t12.5 50.5q0 5 1 7h31v-360h-31q-1 4 -3 13q-17 70 -39 96q-49 55 -195 55h-99v-811h338q98 0 157.5 10t107 40t76 81.5t50.5 138.5h37l-26 -240q-2 -24 -5.5 -36.5t-12 -18.5t-16.5 -7t-28 -1h-1020z" />
    <glyph glyph-name="F" unicode="F" horiz-adv-x="1193" 
d="M51 0v27q21 6 33.5 11t25 17t19.5 23.5t13 38.5t8.5 53.5t4.5 76.5t2.5 100t0.5 132v578q0 82 -0.5 132t-2.5 100t-4.5 76.5t-8.5 53.5t-13 38.5t-19.5 23.5t-25 17t-33.5 11v27h1026q25 0 34 -9.5t15 -49.5l33 -222h-37q-23 63 -44.5 102t-52 70t-75 46t-104.5 22.5
t-150 7.5h-303v-629h139q60 0 102 9.5t64.5 22t37.5 38.5t19.5 43t10.5 53h31v-362h-31q-4 22 -6.5 32.5t-8 29.5t-12.5 29t-19 24t-28.5 21t-38.5 14.5t-52.5 10.5t-68.5 3h-139v-363q0 -82 0.5 -132t2.5 -100t4.5 -76.5t8.5 -53.5t13 -38.5t19.5 -23.5t25 -17t33.5 -11
v-27h-449z" />
    <glyph glyph-name="G" unicode="G" horiz-adv-x="1497" 
d="M799 -29q-154 0 -288 61t-229.5 167.5t-150.5 257t-55 323.5q0 154 44.5 284.5t117.5 220t167 153t193 92.5t197 29q76 0 139.5 -12t99 -26t75.5 -26t73 -12q49 0 61 53h33v-354h-33q-47 166 -162.5 255t-285.5 89q-81 0 -149 -22.5t-127.5 -76t-101 -135.5t-65.5 -207
t-24 -284q0 -795 471 -795q163 0 243 80.5t80 265.5v31q0 122 -9.5 180.5t-33 84.5t-73.5 34v29h452v-29q-47 -9 -69 -38t-32.5 -112t-10.5 -256v-61q-95 -104 -245 -174t-302 -70z" />
    <glyph glyph-name="H" unicode="H" horiz-adv-x="1484" 
d="M51 0v27q21 6 33.5 11t25 17t19.5 23.5t13 38.5t8.5 53.5t4.5 76.5t2.5 100t0.5 132v578q0 82 -0.5 132t-2.5 100t-4.5 76.5t-8.5 53.5t-13 38.5t-19.5 23.5t-25 17t-33.5 11v27h445v-27q-21 -6 -33.5 -11t-25 -17t-19.5 -23.5t-13 -38.5t-8.5 -53.5t-4.5 -76.5
t-2.5 -100t-0.5 -132v-199h707v199q0 82 -0.5 132t-2.5 100t-4.5 76.5t-8.5 53.5t-13 38.5t-19.5 23.5t-25 17t-33.5 11v27h445v-27q-21 -6 -33.5 -11t-25 -17t-19.5 -23.5t-13 -38.5t-8.5 -53.5t-4.5 -76.5t-2.5 -100t-0.5 -132v-578q0 -82 0.5 -132t2.5 -100t4.5 -76.5
t8.5 -53.5t13 -38.5t19.5 -23.5t25 -17t33.5 -11v-27h-445v27q21 6 33.5 11t25 17t19.5 23.5t13 38.5t8.5 53.5t4.5 76.5t2.5 100t0.5 132v346h-707v-346q0 -82 0.5 -132t2.5 -100t4.5 -76.5t8.5 -53.5t13 -38.5t19.5 -23.5t25 -17t33.5 -11v-27h-445z" />
    <glyph glyph-name="I" unicode="I" horiz-adv-x="546" 
d="M51 0v27q21 7 33.5 12.5t25 17.5t19 23.5t13 38.5t9 53.5t4.5 76.5t2.5 99.5t0.5 130.5v578q0 82 -0.5 132t-2.5 100t-4.5 76.5t-8.5 53.5t-13 38.5t-19.5 23.5t-25 17t-33.5 11v27h445v-27q-21 -6 -33.5 -11t-25 -17t-19.5 -23.5t-13 -38.5t-8.5 -53.5t-4.5 -76.5
t-2.5 -100t-0.5 -132v-578q0 -81 0.5 -130.5t2.5 -99.5t4.5 -76.5t9 -53.5t13 -38.5t19 -23.5t25 -17.5t33.5 -12.5v-27h-445z" />
    <glyph glyph-name="J" unicode="J" horiz-adv-x="888" 
d="M371 -20q-154 0 -252.5 53t-98.5 143q0 45 29.5 70.5t73.5 25.5q46 0 73.5 -24t47.5 -88q23 -85 46.5 -115.5t88.5 -30.5q58 0 91.5 34.5t33.5 103.5v905q0 110 -0.5 170t-5 116t-10 79t-19.5 44t-29 28t-43 15v27h445v-27q-28 -8 -43 -15t-29 -28t-19.5 -44t-10 -79
t-5 -116t-0.5 -170v-719q0 -158 -102 -258t-262 -100z" />
    <glyph glyph-name="K" unicode="K" horiz-adv-x="1329" 
d="M883 0v27q24 5 36.5 13.5t16 19.5t-3 28.5t-17.5 35.5t-30 46l-488 678l578 489q61 54 79.5 90.5t1.5 55t-63 26.5v27h279v-27q-44 -7 -96 -44t-160 -132l-430 -364l575 -807q54 -73 81 -98t65 -37v-27h-424zM51 0v27q21 6 33.5 11t25 17t19.5 23.5t13 38.5t8.5 53.5
t4.5 76.5t2.5 100t0.5 132v578q0 82 -0.5 132t-2.5 100t-4.5 76.5t-8.5 53.5t-13 38.5t-19.5 23.5t-25 17t-33.5 11v27h445v-27q-21 -6 -33.5 -11t-25 -17t-19.5 -23.5t-13 -38.5t-8.5 -53.5t-4.5 -76.5t-2.5 -100t-0.5 -132v-578q0 -82 0.5 -132t2.5 -100t4.5 -76.5
t8.5 -53.5t13 -38.5t19.5 -23.5t25 -17t33.5 -11v-27h-445z" />
    <glyph glyph-name="L" unicode="L" horiz-adv-x="1148" 
d="M51 0v27q21 6 33.5 11t25 17t19.5 23.5t13 38.5t8.5 53.5t4.5 76.5t2.5 100t0.5 132v578q0 82 -0.5 132t-2.5 100t-4.5 76.5t-8.5 53.5t-13 38.5t-19.5 23.5t-25 17t-33.5 11v27h459v-27q-23 -6 -36.5 -10.5t-27.5 -16.5t-21 -23.5t-14 -38.5t-10 -54t-5 -77t-2.5 -100.5
t-0.5 -131.5v-1024h285q101 0 161 10t109.5 42.5t80.5 88.5t63 154h36l-47 -265q-9 -45 -18 -54t-43 -9h-969z" />
    <glyph glyph-name="M" unicode="M" horiz-adv-x="1695" 
d="M51 0v27q21 12 33.5 20t25.5 23t19 27.5t12.5 40.5t9 55t4.5 77.5t2.5 100t0.5 131.5v555q0 81 -0.5 130.5t-2.5 99.5t-4.5 76.5t-9 53.5t-13 38.5t-19 23.5t-25 17.5t-33.5 12.5v27h338q23 0 32 -10.5t28 -61.5l407 -1130l426 1202h363v-27q-21 -6 -33.5 -11t-25 -17
t-19.5 -23.5t-13 -38.5t-8.5 -53.5t-4.5 -76.5t-2.5 -100t-0.5 -132v-578q0 -82 0.5 -132t2.5 -100t4.5 -76.5t8.5 -53.5t13 -38.5t19.5 -23.5t25 -17t33.5 -11v-27h-451v27q21 6 33.5 11t25 17t19 23.5t13 38.5t8.5 53t4 77t2.5 100t0.5 132v994l-522 -1479h-41l-540 1481
v-973q0 -84 0.5 -131.5t3 -100t5.5 -77.5t11 -54.5t16.5 -41.5t25 -27.5t33 -23t44.5 -19.5v-27h-285z" />
    <glyph glyph-name="N" unicode="N" horiz-adv-x="1386" 
d="M51 0v27q28 14 43 24.5t29 34.5t19.5 49t10 82t5 116.5t0.5 168.5v555q0 81 -0.5 130.5t-2.5 99.5t-4.5 76.5t-9 53.5t-13 38.5t-19 23.5t-25 17.5t-33.5 12.5v27h332q38 0 52.5 -11t47.5 -61l711 -1093v665q0 84 -0.5 131.5t-3 100t-5.5 78t-10.5 54.5t-16 41.5
t-25 27.5t-33 22.5t-43.5 17.5v27h282v-27q-21 -10 -33.5 -17.5t-25 -22.5t-19 -27.5t-13 -41t-8.5 -55t-4 -78t-2.5 -100.5t-0.5 -131v-1042h-66l-970 1489v-981q0 -84 0.5 -131.5t3 -100t5.5 -78.5t10.5 -55.5t16 -41.5t25 -27.5t33 -23t43.5 -17.5v-27h-283z" />
    <glyph glyph-name="O" unicode="O" horiz-adv-x="1564" 
d="M782 -29q-129 0 -254 59.5t-223 162.5t-158.5 254.5t-60.5 322.5q0 172 60.5 322.5t158.5 252t223 160t254 58.5t254 -58.5t223.5 -160t159 -252t60.5 -322.5q0 -171 -60.5 -322.5t-159 -254.5t-223.5 -162.5t-254 -59.5zM782 4q96 0 175 45.5t139 136t93.5 240
t33.5 344.5q0 193 -35 342t-96.5 238.5t-139.5 134.5t-170 45q-91 0 -168.5 -45t-138.5 -134.5t-96 -238.5t-35 -342q0 -384 120 -575t318 -191z" />
    <glyph glyph-name="P" unicode="P" horiz-adv-x="1208" 
d="M51 0v27q21 6 33.5 11t25 17t19.5 23.5t13 38.5t8.5 53.5t4.5 76.5t2.5 100t0.5 132v578q0 82 -0.5 132t-2.5 100t-4.5 76.5t-8.5 53.5t-13 38.5t-19.5 23.5t-25 17t-33.5 11v27h547q576 0 576 -389q0 -109 -44.5 -194t-123.5 -137.5t-182 -79.5t-224 -27h-207v-230
q0 -83 0.5 -131.5t2.5 -100.5t4.5 -77.5t9.5 -53t14.5 -38.5t21.5 -23.5t28.5 -17t37.5 -10.5v-27h-461zM596 1503h-203v-762h201q63 0 113.5 10t97 36t77.5 68.5t49.5 110.5t18.5 158q0 91 -19 159t-50.5 109t-78.5 66.5t-96 35t-110 9.5z" />
    <glyph glyph-name="Q" unicode="Q" horiz-adv-x="1564" 
d="M782 -27q-103 0 -204.5 36.5t-189.5 107.5t-156 166.5t-107 221.5t-39 265q0 172 60.5 323t158.5 252.5t223 159.5t254 58t254 -58t223.5 -159.5t159 -252.5t60.5 -323q0 -228 -101 -410.5t-264 -285.5l6 -21q55 -176 111 -257t149 -81q74 0 136 62l18 -17
q-32 -38 -80 -62t-133 -24q-51 0 -93.5 6.5t-89.5 27t-84 54.5t-71.5 92.5t-58.5 137.5q-74 -19 -142 -19zM782 1530q-92 0 -169.5 -45t-138.5 -134.5t-95.5 -238.5t-34.5 -342q0 -607 266 -735q-40 31 -61 75.5t-21 90.5q0 86 64 140t162 54q125 0 204.5 -61t131.5 -191
q133 182 133 627q0 193 -35 342t-96.5 238.5t-139.5 134.5t-170 45zM571 201q0 -93 61.5 -144t149.5 -51q60 0 133 17l-14 61q-29 144 -72 202t-120 58q-58 0 -98 -36.5t-40 -106.5z" />
    <glyph glyph-name="R" unicode="R" horiz-adv-x="1337" 
d="M51 0v27q21 6 33.5 11t25 17t19.5 23.5t13 38.5t8.5 53.5t4.5 76.5t2.5 100t0.5 132v578q0 82 -0.5 132t-2.5 100t-4.5 76.5t-8.5 53.5t-13 38.5t-19.5 23.5t-25 17t-33.5 11v27h555q621 0 621 -362q0 -102 -44.5 -182t-122.5 -129.5t-179 -75t-219 -25.5h-31
q140 -21 223.5 -100.5t126.5 -245.5q50 -203 102.5 -286t135.5 -83q59 0 104 45l18 -18q-70 -88 -219 -88q-71 0 -126.5 18.5t-104.5 62t-84 121.5t-57 191q-17 91 -31.5 151.5t-33.5 105t-37 68t-47.5 37.5t-58 17.5t-75.5 3.5h-74v-283q0 -82 0.5 -132t2.5 -100t4.5 -76.5
t8.5 -53.5t13 -38.5t19.5 -23.5t25 -17t33.5 -11v-27h-449zM598 1503h-205v-708h252q188 0 270 83.5t82 260.5q0 93 -19 158t-64 112.5t-123 70.5t-193 23z" />
    <glyph glyph-name="S" unicode="S" horiz-adv-x="1142" 
d="M553 -20q-82 0 -151.5 17t-107.5 38t-78.5 38t-70.5 17q-38 0 -47 -41h-30v395h32q33 -206 147 -319t306 -113q171 0 253.5 78t82.5 217q0 63 -14 110.5t-40 85.5t-76.5 73.5t-111 66t-155.5 70.5q-204 88 -301 189t-97 259q0 181 125.5 289.5t319.5 108.5
q86 0 157.5 -19.5t120.5 -39t80 -19.5q24 0 35 10t16 31h31v-305h-33q-38 152 -144 230.5t-263 78.5q-142 0 -215.5 -59t-73.5 -175q0 -109 74.5 -184.5t253.5 -151.5q77 -32 135 -61t117 -65t99.5 -75t73 -86t48.5 -103.5t16 -121.5q0 -108 -43.5 -197.5t-115.5 -146.5
t-164 -88.5t-191 -31.5z" />
    <glyph glyph-name="T" unicode="T" horiz-adv-x="1300" 
d="M426 0v27q21 7 33.5 12.5t25 18t19 23.5t13 38.5t8.5 53t4 76t2.5 99.5t0.5 131v1024h-102q-69 0 -117 -6t-92.5 -23.5t-73.5 -49.5t-50.5 -83t-33.5 -124h-36l24 258q4 43 12.5 52t38.5 9h1096q30 0 38.5 -9t12.5 -52l27 -258h-37q-16 91 -44.5 148t-77 87t-105.5 40.5
t-146 10.5h-98v-1024q0 -82 0.5 -131t2.5 -99.5t4 -76t8.5 -53t13 -38.5t19 -23.5t25 -18t33.5 -12.5v-27h-448z" />
    <glyph glyph-name="U" unicode="U" horiz-adv-x="1382" 
d="M737 -29q-287 0 -440.5 134.5t-153.5 412.5v539q0 82 -0.5 131.5t-2 100.5t-4 77.5t-8 53.5t-12 38.5t-17.5 23.5t-23 16.5t-31 10.5v27h436v-27q-21 -6 -33.5 -11t-25 -17t-19 -23.5t-13 -38.5t-8.5 -53t-4 -77t-2.5 -100t-0.5 -132v-584q0 -128 16.5 -212t58.5 -143
t113 -84.5t180 -25.5q224 0 336.5 112t112.5 372v542q0 84 -0.5 131.5t-3 100t-5.5 78.5t-10.5 55.5t-16 41.5t-24 27.5t-32.5 23t-43 17.5v27h280v-27q-21 -10 -33.5 -18t-25 -22.5t-19 -27.5t-13 -42t-8.5 -55.5t-4 -78t-2.5 -100.5t-0.5 -131v-542q0 -272 -124.5 -396.5
t-369.5 -124.5z" />
    <glyph glyph-name="V" unicode="V" 
d="M655 -14l-462 1237q-71 184 -89 217q-26 47 -66 66q-4 2 -7 3v27h411v-27q-39 -9 -53.5 -23t-11 -55t32.5 -122l372 -1026l361 995q44 110 31 162t-101 69v27h256v-27q-27 -12 -39.5 -20.5t-30.5 -33t-36 -66.5t-45 -117l-465 -1286h-58z" />
    <glyph glyph-name="W" unicode="W" horiz-adv-x="1908" 
d="M641 -14l-465 1290q-6 18 -18 51t-16.5 44t-13.5 34t-14 30.5t-14 22t-17.5 20.5t-20 14t-25.5 15v29h383v-29q-33 -9 -45.5 -24t-9 -50.5t27.5 -99.5l373 -1050l182 508l-174 485q-51 138 -69 167q-26 45 -70 64v29h379v-29q-35 -8 -46.5 -23.5t-6.5 -49t30 -105.5
l103 -297l90 246q18 50 25.5 80.5t8.5 62.5t-14.5 52.5t-48.5 33.5v29h205v-29q-31 -15 -47.5 -32t-36 -59t-53.5 -138l-111 -299l242 -700l332 997q17 54 23.5 84.5t3.5 63t-25.5 52t-65.5 31.5v29h252v-29q-35 -16 -53 -30.5t-43 -62t-54 -138.5l-428 -1290h-57l-270 751
l-271 -751h-57z" />
    <glyph glyph-name="X" unicode="X" horiz-adv-x="1384" 
d="M47 0v27q58 20 104 70t136 186l305 452l-330 541q-80 132 -119.5 175t-93.5 58v27h453v-27q-44 -5 -57 -25.5t3.5 -66.5t67.5 -129l242 -397l250 373q53 79 70.5 129t1.5 78.5t-68 37.5v27h266v-27q-21 -7 -35 -13.5t-29.5 -19t-24.5 -20.5t-27.5 -32.5t-29 -40
t-39.5 -58t-49 -72.5l-266 -395l348 -573q14 -23 36.5 -59t31.5 -50.5t25 -39t24 -34t21 -24.5t23.5 -22t24 -15t29.5 -14v-27h-454v27q48 12 62 34t-2.5 70.5t-72.5 140.5l-262 430l-288 -430q-49 -76 -62 -126t6 -77.5t70 -41.5v-27h-291z" />
    <glyph glyph-name="Y" unicode="Y" horiz-adv-x="1294" 
d="M432 0v27q21 7 33.5 12.5t25 17.5t19 23.5t13 38.5t9 53.5t4.5 76.5t2.5 99.5t0.5 130.5v262l-310 537q-61 109 -100 156.5t-96 74.5v27h432v-27q-50 -14 -59.5 -43t24.5 -96l322 -559l266 467q65 110 64.5 162t-76.5 69v27h256v-27q-36 -14 -57 -28.5t-57 -62.5
t-89 -140l-289 -508v-291q0 -81 0.5 -130.5t2.5 -99.5t4.5 -76.5t9 -53.5t13 -38.5t19 -23.5t25 -17.5t33.5 -12.5v-27h-445z" />
    <glyph glyph-name="Z" unicode="Z" horiz-adv-x="1265" 
d="M53 0l832 1503h-342q-88 0 -151 -10.5t-104.5 -28.5t-73 -53.5t-50.5 -72.5t-43 -99h-35l55 297h1022l-841 -1503h385q87 0 149 6t111.5 22.5t82 38.5t58.5 60.5t43 82t35 109.5h33l-48 -352h-1118z" />
    <glyph glyph-name="bracketleft" unicode="[" horiz-adv-x="626" 
d="M143 1624h432v-33h-243v-1775h243v-33h-432v1841z" />
    <glyph glyph-name="backslash" unicode="\" horiz-adv-x="907" 
d="M82 1649l858 -1968l-47 -21l-858 1968z" />
    <glyph glyph-name="bracketright" unicode="]" horiz-adv-x="626" 
d="M483 1624v-1841h-432v33h244v1775h-244v33h432z" />
    <glyph glyph-name="asciicircum" unicode="^" horiz-adv-x="851" 
d="M68 999l342 549h32l342 -549l-32 -20l-326 522l-326 -522z" />
    <glyph glyph-name="underscore" unicode="_" horiz-adv-x="739" 
d="M-12 -213v41h764v-41h-764z" />
    <glyph glyph-name="grave" unicode="`" horiz-adv-x="913" 
d="M602 1075l-276 185q-74 45 -74 104q0 36 21 57t57 21q33 0 55.5 -18.5t54.5 -65.5l183 -262z" />
    <glyph glyph-name="a" unicode="a" horiz-adv-x="946" 
d="M305 -18q-111 0 -178.5 57.5t-67.5 159.5q0 39 9.5 70.5t29.5 55t42 41t58 33.5t65 27t75.5 27.5t77.5 29.5l53 23q67 28 99 64.5t32 95.5v147q0 148 -158 148q-56 0 -86 -25t-55 -72q-23 -43 -47 -63.5t-64 -20.5q-36 0 -58.5 21.5t-22.5 54.5q0 61 94.5 98t230.5 37
q371 0 371 -246v-489q0 -100 6.5 -146t20.5 -60.5t45 -14.5q33 0 61 20l10 -22q-60 -47 -164 -47q-169 0 -182 145l-29 -27q-57 -57 -118.5 -89.5t-149.5 -32.5zM270 233q0 -99 32.5 -143.5t94.5 -44.5q44 0 83 24t93 74l27 25v393q-32 -48 -129 -90l-53 -22
q-80 -33 -114 -81.5t-34 -134.5z" />
    <glyph glyph-name="b" unicode="b" horiz-adv-x="1120" 
d="M561 -18q-58 0 -113.5 14.5t-90.5 31.5t-72 31.5t-62 14.5q-18 0 -30.5 -9t-16.5 -17t-8 -21h-31v1187v11q0 136 -12.5 162t-83.5 30v31l305 156v-816l33 37q76 81 145 124.5t158 43.5q69 0 133.5 -29t118.5 -85t86.5 -151t32.5 -216q0 -244 -139.5 -387t-352.5 -143z
M408 57q35 -23 67.5 -32t81.5 -9q126 0 202.5 113.5t76.5 347.5q0 457 -215 457q-57 0 -114.5 -39.5t-127.5 -116.5l-33 -37v-514q0 -129 62 -170z" />
    <glyph glyph-name="c" unicode="c" horiz-adv-x="921" 
d="M547 -18q-97 0 -185 35.5t-154.5 98.5t-105.5 157.5t-39 205.5q0 118 45 218t116.5 163t157 98t169.5 35q131 0 221 -38.5t90 -108.5q0 -36 -23.5 -57t-64.5 -21q-27 0 -45.5 6.5t-31.5 23.5t-20.5 33.5t-18.5 47.5l-1.5 4.5l-1.5 4.5t-2 5q-12 38 -34.5 54t-65.5 16
q-59 0 -106.5 -23t-85.5 -73t-59 -138t-21 -209q0 -249 85.5 -365t235.5 -116q148 0 254 111l23 -23q-131 -145 -332 -145z" />
    <glyph glyph-name="d" unicode="d" horiz-adv-x="1118" 
d="M455 -18q-73 0 -141 29.5t-123.5 85.5t-89 148.5t-33.5 207.5q0 250 136.5 394t344.5 144q121 0 225 -84v307v63t-2 47t-3.5 35.5t-8 23t-11.5 16.5t-18.5 8.5t-24 6.5t-32.5 3v31l309 154v-1313q0 -71 1.5 -105.5t5.5 -67t15.5 -46.5t28 -24t45.5 -19v-27h-305v172
l-20 -22q-72 -79 -142.5 -123.5t-156.5 -44.5zM285 479q0 -100 13 -177.5t34 -126t51 -80t61.5 -44t67.5 -12.5q101 0 242 158l20 22v645q-111 92 -221 92q-56 0 -103 -26.5t-85 -81.5t-59 -149t-21 -220z" />
    <glyph glyph-name="e" unicode="e" horiz-adv-x="962" 
d="M561 -20q-96 0 -183 31t-158.5 91t-114 161.5t-42.5 230.5q0 96 29 179.5t76.5 141t107.5 99.5t122 61.5t120 19.5q102 0 182 -36t135 -116.5t68 -199.5h-618q-6 -58 -6 -133q0 -244 87.5 -359.5t243.5 -115.5q81 0 138.5 21t117.5 63l19 -27q-66 -52 -140 -82t-184 -30z
M518 963q-81 0 -142.5 -66t-84.5 -219h414q-11 157 -58.5 221t-128.5 64z" />
    <glyph glyph-name="f" unicode="f" horiz-adv-x="589" 
d="M61 0v27q21 7 34 13.5t23 21.5t14.5 27.5t7 46t3 63t0.5 90.5v645h-118v29q74 13 98 41.5t24 101.5v111q0 96 29.5 168.5t77.5 112.5t101.5 59.5t109.5 19.5q96 0 157.5 -35t61.5 -94q0 -28 -19 -49t-57 -21q-46 0 -65 17.5t-27 60.5q-11 56 -22.5 72t-40.5 16
q-49 0 -75 -52t-26 -189v-330h211v-39h-211v-645q0 -45 0.5 -70t2.5 -54t5 -43t10 -31t16 -24t24 -16t32 -14t43 -10v-27h-424z" />
    <glyph glyph-name="g" unicode="g" horiz-adv-x="958" 
d="M451 -344q-75 0 -145 11t-132.5 33.5t-100.5 64t-38 96.5q0 65 52.5 111t137.5 81q-137 36 -137 150q0 57 30.5 99.5t82.5 82.5l30 23q-74 39 -117 104.5t-42 153.5q0 77 34.5 141t90 104t121.5 62t133 22q101 0 192 -45q51 44 109.5 72.5t99.5 28.5q86 0 86 -76
q0 -31 -18 -49.5t-43 -18.5q-30 0 -71.5 29t-62.5 29q-33 0 -77 -29q76 -43 119.5 -111.5t43.5 -158.5q0 -76 -34.5 -137.5t-90 -99t-121 -57.5t-132.5 -20q-102 0 -187 39l-33 -24q-26 -21 -38.5 -38t-12.5 -38q0 -44 78 -55l367 -46q143 -18 212.5 -72t69.5 -163
q0 -133 -126.5 -216t-329.5 -83zM451 385q83 0 133.5 66t50.5 215q0 152 -50.5 224.5t-133.5 72.5q-85 0 -135 -72.5t-50 -224.5q0 -281 185 -281zM164 -123q0 -90 78 -139t209 -49q169 0 261.5 56t92.5 132q0 60 -47.5 86t-153.5 39l-315 39l-15 2q-58 -27 -84 -65.5
t-26 -100.5z" />
    <glyph glyph-name="h" unicode="h" horiz-adv-x="1101" 
d="M55 0v27q21 7 34 13.5t23 21.5t14.5 27.5t7 46t3 63t0.5 90.5v925v11v60t-2 44t-3 33.5t-7 21t-11 16t-18 8t-23.5 6.5l-31.5 3v31l305 154v-846l78 71q87 82 159 123t152 41q236 0 236 -258v-444q0 -162 11.5 -202t70.5 -60v-27h-381v27q27 9 41.5 18.5t26 25t16 45.5
t6.5 68t2 105v497q0 134 -109 134q-48 0 -100 -32t-131 -104l-78 -71v-424v-70t1.5 -54t3.5 -43.5t7 -30.5t11 -24t16 -16t21.5 -14t29.5 -10v-27h-381z" />
    <glyph glyph-name="i" unicode="i" horiz-adv-x="495" 
d="M246 1141q-51 0 -86 36t-35 87q0 50 35 84t86 34t86 -33.5t35 -82.5q0 -51 -35 -88t-86 -37zM53 0v27q29 9 44.5 19.5t26.5 23.5t15 46.5t5 66t1 106.5v307v11v60.5t-1.5 45t-3.5 35t-7.5 23t-11 18t-17 10t-23.5 9t-32 5.5v31l303 153v-708q0 -162 12.5 -202t79.5 -60
v-27h-391z" />
    <glyph glyph-name="j" unicode="j" horiz-adv-x="485" 
d="M242 1141q-51 0 -86 36t-35 87q0 50 35 84t86 34t85.5 -33.5t34.5 -82.5q0 -51 -34.5 -88t-85.5 -37zM-45 -313q-39 0 -66.5 22.5t-27.5 61.5t22 58t54 19q29 0 56.5 -21t49.5 -42t37 -21q13 0 22 9q19 13 28 54t9 144v619v12q0 133 -9 162q-10 31 -46 41q-14 4 -41 8v31
l305 153v-864q0 -238 -192 -369q-64 -45 -108.5 -61t-92.5 -16z" />
    <glyph glyph-name="k" unicode="k" horiz-adv-x="1011" 
d="M55 0v27q21 7 34 13.5t23 21.5t14.5 27.5t7 46t3 63t0.5 90.5v925v11v60t-2 44t-3 33.5t-7 21t-11 16t-18 8t-23.5 6.5l-31.5 3v31l305 154v-1313v-70t1.5 -54t3.5 -43.5t7 -30.5t11 -24t16 -16t21.5 -14t29.5 -10v-27h-381zM627 0v27q87 9 22 96l-276 387v25l334 282
q44 37 53.5 65.5t-8 43.5t-52.5 20v27h258v-27q-40 -12 -84 -42t-143 -111l-203 -170l367 -504q40 -54 59 -70.5t43 -21.5v-27h-370z" />
    <glyph glyph-name="l" unicode="l" horiz-adv-x="501" 
d="M55 0v27q23 7 37.5 14t25.5 21.5t16 28t8.5 46t4 63t0.5 89.5v925v63.5t-2 46t-3 36t-8 23t-12 16.5t-18.5 8t-24.5 7t-34 3v31l309 154v-1313q0 -52 0.5 -79t2 -58t6 -45t11 -30t18 -23t25.5 -14t36 -13v-27h-398z" />
    <glyph glyph-name="m" unicode="m" horiz-adv-x="1628" 
d="M53 0v27q21 7 34 13.5t23 21.5t14.5 27.5t7 46t3 63t0.5 90.5v307v11v60.5t-1.5 45t-3.5 35t-7.5 23t-11 18t-17 10t-23.5 9t-32 5.5v31l305 153v-196l29 26q88 83 158.5 123.5t150.5 40.5q98 0 156 -46t75 -148l33 30q90 84 160 124t151 40q236 0 236 -258v-444
q0 -162 11.5 -202t70.5 -60v-27h-381v27q27 9 42 19t26 24.5t15 45.5t5.5 67t1.5 106v497q0 134 -108 134q-46 0 -99 -32.5t-131 -103.5l-28 -26v-469q0 -163 11 -203t70 -59v-27h-381v27q33 11 49.5 22.5t27.5 41.5t13.5 72.5t2.5 125.5v497q0 134 -109 134
q-47 0 -98.5 -31.5t-130.5 -104.5l-29 -26v-469v-70t1.5 -54t3.5 -43.5t7 -30.5t11 -24t16 -16t21.5 -14t29.5 -10v-27h-381z" />
    <glyph glyph-name="n" unicode="n" horiz-adv-x="1101" 
d="M55 0v27q21 7 34 13.5t23 21.5t14.5 27.5t7 46t3 63t0.5 90.5v307v11v60.5t-1.5 45t-3.5 35t-7.5 23t-11 18t-17 10t-23.5 9t-32 5.5v31l305 153v-241l78 71q87 82 159 123t152 41q236 0 236 -258v-444q0 -162 11.5 -202t70.5 -60v-27h-381v27q27 9 41.5 18.5t26 25
t16 45.5t6.5 68t2 105v497q0 134 -109 134q-48 0 -100 -32t-131 -104l-78 -71v-424v-70t1.5 -54t3.5 -43.5t7 -30.5t11 -24t16 -16t21.5 -14t29.5 -10v-27h-381z" />
    <glyph glyph-name="o" unicode="o" horiz-adv-x="1075" 
d="M539 -18q-78 0 -159 32t-153 92t-118 160t-46 221q0 97 30.5 182t80 143.5t112 100.5t127.5 62t126 20q60 0 124.5 -20t127 -62t111.5 -100.5t79.5 -143.5t30.5 -182q0 -98 -30.5 -182.5t-79.5 -142.5t-111.5 -99.5t-126.5 -61t-125 -19.5zM539 16q118 0 187 113.5
t69 357.5q0 246 -69 361t-187 115q-121 0 -189.5 -114.5t-68.5 -361.5q0 -245 68.5 -358t189.5 -113z" />
    <glyph glyph-name="p" unicode="p" horiz-adv-x="1120" 
d="M55 -328v27q21 7 34 13.5t23 21.5t14.5 27.5t7 46t3 63t0.5 90.5v635v11v60.5t-1.5 45t-3.5 35t-7.5 23t-11 18t-17 10t-23.5 9t-32 5.5v31l305 153v-211l33 37q76 81 145 125.5t158 44.5q69 0 133.5 -29t118.5 -85t86.5 -151t32.5 -216q0 -245 -133.5 -387.5
t-341.5 -142.5q-124 0 -232 81v-102v-70t1.5 -54t3.5 -43.5t7 -30.5t11 -24t16 -16t21.5 -14t29.5 -10v-27h-381zM379 776l-33 -37v-633q109 -88 227 -88q122 0 192.5 111.5t70.5 347.5q0 457 -215 457q-57 0 -113 -40t-129 -118z" />
    <glyph glyph-name="q" unicode="q" horiz-adv-x="1103" 
d="M684 -328v27q18 5 29.5 10t21.5 14t16 16t11 24t7 30.5t3.5 43.5t1.5 54v70v211l-20 -22q-72 -79 -142.5 -123.5t-156.5 -44.5q-73 0 -141 29.5t-123.5 85.5t-89 148.5t-33.5 207.5q0 245 137 391.5t350 146.5q66 0 123 -13t89 -29t64.5 -29t55.5 -13q53 0 63 56h31
v-1002q0 -61 0.5 -90.5t3 -63t7 -46t14.5 -27.5t23 -21.5t34 -13.5v-27h-379zM285 477q0 -123 19 -212t52.5 -136.5t72 -68.5t83.5 -21q101 0 242 158l20 22v535q0 64 -12.5 96.5t-42.5 56.5q-71 51 -160 51q-123 0 -198.5 -120t-75.5 -361z" />
    <glyph glyph-name="r" unicode="r" horiz-adv-x="772" 
d="M55 0v27q21 7 34 13.5t23 21.5t14.5 27.5t7 46t3 63t0.5 90.5v307v11v60.5t-1.5 45t-3.5 35t-7.5 23t-11 18t-17 10t-23.5 9t-32 5.5v31l305 153v-235l68 74q81 90 130.5 124.5t104.5 34.5q47 0 71.5 -23t24.5 -65q0 -48 -26.5 -75t-65.5 -27q-38 0 -77.5 26.5
t-61.5 26.5q-25 0 -44.5 -12.5t-55.5 -52.5l-68 -74v-430q0 -59 0.5 -90t4 -63.5t8.5 -46t16.5 -28t26 -21t38.5 -13.5v-27h-385z" />
    <glyph glyph-name="s" unicode="s" horiz-adv-x="800" 
d="M395 18q101 0 150 48.5t49 130.5q0 74 -49.5 122t-177.5 93q-153 56 -219 125t-66 188q0 115 84.5 190.5t210.5 75.5q78 0 145.5 -23.5t87.5 -23.5q29 0 35 29h31v-240h-31q-35 117 -101 171t-167 54q-86 0 -131 -37.5t-45 -107.5q0 -38 12.5 -66t43.5 -51t67.5 -40
t99.5 -40q173 -62 242 -136t69 -201q0 -126 -101 -210.5t-239 -84.5q-57 0 -103.5 11.5t-71 25t-49 25t-40.5 11.5q-27 0 -33 -37h-32v285h30q37 -141 108 -214t191 -73z" />
    <glyph glyph-name="t" unicode="t" horiz-adv-x="608" 
d="M373 -16q-114 0 -174 57.5t-60 159.5v733h-84v33q93 11 165.5 102t94.5 252h31v-348h203v-39h-203v-676q0 -129 18.5 -176t81.5 -47q56 0 103 47l18 -19q-63 -79 -194 -79z" />
    <glyph glyph-name="u" unicode="u" horiz-adv-x="1077" 
d="M367 -18q-234 0 -234 251v363v11v60.5t-1.5 45t-3.5 35t-7.5 23t-11 18t-17 10t-23.5 9t-32 5.5v31l303 153v-811q0 -131 106 -131q89 0 238 138l49 45v358v11v60.5t-1.5 45t-3.5 35t-7.5 23t-11 18t-17 10t-23.5 9t-32 5.5v31l303 153v-708q0 -71 1.5 -105.5t5.5 -67
t15.5 -46.5t28 -24t45.5 -19v-27h-303v195l-49 -45q-95 -87 -165 -127.5t-152 -40.5z" />
    <glyph glyph-name="v" unicode="v" horiz-adv-x="944" 
d="M449 -14l-299 741q-51 126 -78.5 166t-63.5 53v27h373v-27q-57 -8 -63.5 -46.5t40.5 -166.5l197 -512l184 463q43 107 49 164t-13 74.5t-66 23.5v27h227v-27q-25 -8 -41.5 -24.5t-44 -71t-70.5 -166.5l-278 -698h-53z" />
    <glyph glyph-name="w" unicode="w" 
d="M414 -14l-275 741q-47 128 -71 167t-58 52v27h352v-27q-32 -5 -43 -22.5t-4 -61t37 -129.5l180 -500l150 359l-47 135q-47 131 -70.5 168t-60.5 51v27h356v-27q-32 -5 -45 -22t-8.5 -62.5t33.5 -128.5l166 -481l159 436q30 78 40 129t0 77.5t-28.5 37t-52.5 14.5v27h228
v-27q-26 -9 -42.5 -27.5t-38 -66.5t-65.5 -164l-258 -702h-55l-193 553l-233 -553h-53z" />
    <glyph glyph-name="x" unicode="x" horiz-adv-x="956" 
d="M37 0v27q63 26 101 63t108 148l143 217l-174 280q-54 89 -85.5 132t-48.5 56.5t-44 22.5v27h377v-27q-38 -5 -51 -18.5t-3.5 -47t48.5 -96.5l127 -204l110 161q33 48 51 83.5t22.5 57t-3 35.5t-20.5 20t-33 9v27h225v-27q-62 -25 -89.5 -53.5t-115.5 -157.5l-127 -188
l188 -303q80 -127 112.5 -165.5t66.5 -51.5v-27h-373v27q55 8 58 41t-56 127l-141 227l-127 -191q-49 -72 -65.5 -115t-5 -63t49.5 -26v-27h-225z" />
    <glyph glyph-name="y" unicode="y" horiz-adv-x="942" 
d="M207 -338q-57 0 -86 23.5t-29 62.5q0 37 19.5 56.5t54.5 19.5t74 -25.5t61 -25.5q33 0 70 42t84 162l4 11l-314 749q-57 129 -79.5 163t-57.5 46v27h367v-27q-34 -6 -48 -19.5t-9 -58.5t40 -127l201 -508l184 459q32 77 43 127.5t1.5 76t-28 36t-52.5 14.5v27h227v-27
q-34 -8 -61 -52t-91 -202l-290 -723q-66 -166 -136 -236.5t-149 -70.5z" />
    <glyph glyph-name="z" unicode="z" horiz-adv-x="872" 
d="M836 281l-43 -308q-33 17 -87.5 22t-226.5 5h-442l545 940h-189q-65 0 -111.5 -9.5t-75 -22.5t-51 -42.5t-34 -54t-29.5 -72.5h-31l48 260q28 -17 91.5 -21.5t221.5 -4.5h395l-551 -940h219q55 0 95 5t71 19t51 30t39.5 48.5t32 62.5t31.5 83h31z" />
    <glyph glyph-name="braceleft" unicode="{" horiz-adv-x="606" 
d="M555 -184v-33q-190 0 -302 68t-112 194q0 60 21.5 130.5t47.5 123.5t47.5 116.5t21.5 112.5q0 36 -7.5 61t-31 50t-75 38t-130.5 13v33q79 0 130.5 13t75 38t31 50t7.5 61q0 49 -21.5 113t-47.5 117t-47.5 124t-21.5 131q0 125 112 192.5t302 67.5v-33q-122 0 -174.5 -47
t-52.5 -157q0 -71 45 -228.5t45 -228.5q0 -87 -66.5 -152.5t-189.5 -76.5q123 -11 189.5 -76t66.5 -152q0 -71 -45 -230t-45 -229q0 -110 52.5 -157t174.5 -47z" />
    <glyph glyph-name="bar" unicode="|" horiz-adv-x="602" 
d="M274 1679h54v-1896h-54v1896z" />
    <glyph glyph-name="braceright" unicode="}" horiz-adv-x="606" 
d="M51 -217v33q122 0 175 47t53 157q0 70 -45.5 229t-45.5 230q0 87 66.5 152t189.5 76q-123 11 -189.5 76.5t-66.5 152.5q0 72 45.5 229t45.5 228q0 110 -53 157t-175 47v33q190 0 302 -67.5t112 -192.5q0 -60 -21.5 -131t-47 -124t-47 -117t-21.5 -113q0 -28 4 -48.5
t18 -43.5t39.5 -37t71.5 -23.5t110 -9.5v-33q-64 0 -110 -9.5t-71.5 -23.5t-39.5 -37t-18 -43.5t-4 -48.5q0 -49 21.5 -112.5t47 -116.5t47 -123.5t21.5 -130.5q0 -126 -112 -194t-302 -68z" />
    <glyph glyph-name="asciitilde" unicode="~" horiz-adv-x="743" 
d="M254 846q40 0 137 -18.5t131 -18.5q61 0 117 96l27 -12q-36 -105 -75.5 -152t-94.5 -47q-42 0 -137 17.5t-132 17.5q-65 0 -123 -96l-26 12q74 201 176 201z" />
    <glyph glyph-name="uni00A0" unicode="&#xa0;" horiz-adv-x="399" 
 />
    <glyph glyph-name="exclamdown" unicode="&#xa1;" horiz-adv-x="524" 
d="M244 520h39q8 -186 28 -363t39.5 -282t35 -197t15.5 -135q0 -73 -37.5 -113t-101.5 -40q-63 0 -100 40.5t-37 112.5q0 49 23.5 178t53.5 345t42 454zM264 971q58 0 94.5 -36t36.5 -95q0 -57 -37 -95t-94 -38q-56 0 -94.5 38t-38.5 95q0 59 38 95t95 36z" />
    <glyph glyph-name="cent" unicode="&#xa2;" horiz-adv-x="921" 
d="M512 1176h45v-183q124 0 214.5 -40.5t90.5 -106.5q0 -36 -23.5 -57t-64.5 -21q-27 0 -45.5 6.5t-31.5 23.5t-20.5 33.5t-18.5 47.5l-1.5 4.5l-1.5 4.5t-2 5q-12 38 -33.5 54t-62.5 16v-922q14 -2 45 -2q148 0 254 111l23 -23q-131 -145 -322 -145v-175h-45v177
q-192 12 -320.5 146.5t-128.5 348.5q0 112 40 207t105 157.5t143.5 100.5t160.5 47v185zM281 520q0 -405 231 -469v910q-231 -41 -231 -441z" />
    <glyph glyph-name="sterling" unicode="&#xa3;" horiz-adv-x="1085" 
d="M86 0l100 115q38 43 59 69t44.5 64t34 76t10.5 82q0 63 -29 163h-248v37h234q-26 67 -76 176h-158v37h142q-76 178 -76 299q0 100 42 183.5t110.5 136.5t153.5 82.5t175 29.5q182 0 292 -70t110 -165q0 -44 -26 -73.5t-69 -29.5q-100 0 -118 101q-2 11 -5.5 34t-5.5 36
t-8 33.5t-13.5 32.5t-21.5 27t-32 23t-44.5 13.5t-60.5 5.5q-133 0 -190.5 -96t-57.5 -273q0 -136 68 -330h422v-37h-410q24 -65 51 -176h359v-37h-355q5 -40 5 -49q0 -56 -17.5 -106t-52.5 -94.5t-59.5 -69.5t-67.5 -62h354q141 0 209 9t103 32t57 74h37l-56 -207
q-15 -62 -32 -79t-70 -17h-813z" />
    <glyph glyph-name="yen" unicode="&#xa5;" horiz-adv-x="1138" 
d="M360 0v27q28 9 43 17t29 29.5t19.5 45.5t10 79.5t5 115.5t0.5 169v88h-365v37h365v176h-365v37h353l-254 457q-63 115 -98.5 160t-92.5 71v27h420v-27q-51 -13 -60.5 -39.5t25.5 -99.5l283 -510l199 404q44 92 55 139t-6.5 70.5t-71.5 35.5v27h246v-27q-45 -17 -75.5 -60
t-109.5 -200l-210 -428h358v-37h-365v-176h365v-37h-365v-88q0 -109 0.5 -169t5 -115.5t10 -79.5t19.5 -45.5t29 -29.5t43 -17v-27h-445z" />
    <glyph glyph-name="brokenbar" unicode="&#xa6;" horiz-adv-x="602" 
d="M274 1679h54v-778h-54v778zM328 561v-778h-54v778h54z" />
    <glyph glyph-name="section" unicode="&#xa7;" horiz-adv-x="1069" 
d="M489 -289q106 0 158.5 63.5t52.5 172.5q0 101 -71 191.5t-264 252.5q-83 72 -128 115t-86 95.5t-57 102.5t-16 111q0 103 55 176.5t139 114.5q-32 65 -32 154q0 155 100 243t248 88q145 0 239.5 -65.5t94.5 -143.5q0 -32 -19.5 -52.5t-56.5 -20.5q-41 0 -65 22t-36 66
q-1 3 -2 8q-8 31 -12.5 47t-16.5 40t-26.5 36t-40 21.5t-59.5 9.5q-99 0 -156 -51t-57 -142q0 -38 10 -70t25 -59t54 -66t76 -71.5t111 -95.5q90 -77 138 -120.5t100 -97t75.5 -93t38.5 -86t15 -97.5q0 -172 -191 -305q29 -63 29 -139q0 -168 -104 -278t-263 -110
q-163 0 -277 84.5t-114 192.5q0 36 23 59t63 23q79 0 97 -90q10 -64 20 -99.5t31.5 -71t59.5 -50.5t97 -15zM502 555q137 -118 205 -185.5t104 -129.5q68 59 68 143q0 31 -8 60.5t-19.5 55.5t-38 58.5t-49 58t-67.5 66.5t-79.5 70.5t-97.5 83.5q-69 60 -100 88t-70 70.5
t-61 80.5q-82 -44 -82 -147q0 -43 13.5 -79t46.5 -75t77.5 -80.5t116.5 -103.5q27 -23 41 -35z" />
    <glyph glyph-name="dieresis" unicode="&#xa8;" horiz-adv-x="913" 
d="M637 1147q-50 0 -82.5 33t-32.5 84q0 47 33 78.5t82 31.5q48 0 80.5 -31.5t32.5 -78.5q0 -51 -32.5 -84t-80.5 -33zM276 1147q-47 0 -78.5 33t-31.5 84q0 47 31.5 78.5t78.5 31.5q49 0 82 -31.5t33 -78.5q0 -51 -32.5 -84t-82.5 -33z" />
    <glyph glyph-name="copyright" unicode="&#xa9;" horiz-adv-x="1728" 
d="M866 1559q160 0 306.5 -63t253 -169.5t170 -253.5t63.5 -307t-63.5 -306.5t-170 -253t-253 -170t-306.5 -63.5q-161 0 -308.5 63.5t-254 170t-170 253t-63.5 306.5q0 161 63.5 307.5t170 253t254 169.5t308.5 63zM866 8q152 0 291.5 59t241.5 159.5t162.5 241.5t60.5 298
t-60.5 298t-162.5 241.5t-241.5 159.5t-291.5 59t-292 -59t-243 -159.5t-164 -242t-61 -297.5t61 -297.5t164 -242t243 -159.5t292 -59zM897 297q-188 0 -312 129t-124 342q0 92 25.5 170.5t68 132t98.5 91.5t117 55.5t123 17.5q75 0 138 -22.5t79 -22.5q33 0 39 33h22v-226
h-22q-34 110 -97.5 160.5t-158.5 50.5q-119 0 -189.5 -103t-70.5 -319q0 -120 22.5 -208.5t63 -139t91 -74.5t112.5 -24q157 0 249 111l19 -17q-111 -137 -293 -137z" />
    <glyph glyph-name="ordfeminine" unicode="&#xaa;" horiz-adv-x="751" 
d="M250 801q-84 0 -135.5 42t-51.5 118q0 34 11 60.5t27 43t46 33t53.5 25.5t65.5 24.5t68 26.5l37 14q53 21 76.5 48t23.5 73v108q0 109 -117 109q-30 0 -51.5 -11t-32 -24t-24.5 -37q-15 -33 -33 -48t-51 -15q-28 0 -45 16.5t-17 40.5q0 46 73 74t175 28q283 0 283 -182
v-364q0 -73 4.5 -106.5t15 -44.5t33.5 -11q27 0 47 14l8 -16q-37 -37 -125 -37q-132 0 -141 106l-22 -20q-45 -41 -90.5 -64.5t-110.5 -23.5zM227 987q0 -139 90 -139q60 0 134 74l20 18v287q-30 -39 -96 -64l-39 -16q-61 -25 -85 -60t-24 -100z" />
    <glyph glyph-name="guillemotleft" unicode="&#xab;" horiz-adv-x="790" 
d="M692 133l-311 322v32l309 322l23 -14l-166 -324l168 -324zM391 133l-309 322v32l307 322l23 -14l-164 -324l166 -324z" />
    <glyph glyph-name="registered" unicode="&#xae;" horiz-adv-x="1056" 
d="M530 1556q192 0 327.5 -134.5t135.5 -327.5q0 -194 -135.5 -329.5t-327.5 -135.5q-193 0 -330 135.5t-137 329.5q0 127 63 233.5t170.5 167.5t233.5 61zM530 662q178 0 303 124.5t125 307.5t-124.5 306.5t-303.5 123.5q-180 0 -306 -124t-126 -306q0 -184 126 -308
t306 -124zM344 870v15q23 4 28 26t5 111v182q0 64 -2 88t-8 34t-23 15v15h191q202 0 202 -117q0 -63 -52.5 -95t-131.5 -32h-8q48 -6 74.5 -31t39.5 -80q18 -63 32 -85.5t38 -22.5q21 0 33 12l8 -8q-31 -31 -76 -31q-51 0 -80.5 27t-42.5 98q-17 80 -31.5 99.5t-52.5 19.5
h-22v-88q0 -89 5 -111t28 -26v-15h-154zM526 1339h-61v-213h74q114 0 114 105q0 57 -27.5 82.5t-99.5 25.5z" />
    <glyph glyph-name="macron" unicode="&#xaf;" horiz-adv-x="913" 
d="M242 1262h440v-93h-440v93z" />
    <glyph glyph-name="degree" unicode="&#xb0;" horiz-adv-x="561" 
d="M281 1550q86 0 143 -57t57 -145t-57 -146.5t-143 -58.5q-85 0 -143 59t-58 146q0 86 58 144t143 58zM121 1348q0 -72 46.5 -122t113.5 -50q71 0 115 49.5t44 122.5t-44 121.5t-115 48.5q-68 0 -114 -49t-46 -121z" />
    <glyph glyph-name="twosuperior" unicode="&#xb2;" horiz-adv-x="849" 
d="M281 1067h149q101 0 144.5 4.5t59 15t28.5 37.5h22l-35 -135q-6 -24 -10.5 -30.5t-17.5 -6.5h-476l205 230q85 97 120.5 176t35.5 170q0 168 -119 168q-13 0 -23.5 -2t-18.5 -7t-14 -9t-11 -12t-7.5 -12.5t-5.5 -15t-3.5 -14t-2.5 -14t-2 -11.5q-5 -30 -19.5 -43.5
t-46.5 -13.5q-59 0 -59 57q0 42 57.5 81.5t157.5 39.5q110 0 186 -47t76 -145q0 -90 -60 -169.5t-175 -176.5z" />
    <glyph glyph-name="threesuperior" unicode="&#xb3;" horiz-adv-x="835" 
d="M180 1544l39 139q6 19 9.5 24t11.5 5h432v-12l-283 -283q39 13 70 13q112 0 176.5 -58t64.5 -172q0 -103 -84 -177.5t-223 -74.5q-98 0 -158.5 39t-60.5 86q0 24 15.5 39.5t43.5 15.5q49 0 58 -51l3 -17q3 -17 5 -23.5t9.5 -21.5t17 -22t27 -13.5t40.5 -6.5
q85 0 125.5 63t40.5 164q0 203 -113 203q-43 0 -70.5 -14t-62.5 -46l-16 15l240 239h-129q-93 0 -130 -4.5t-49.5 -13t-23.5 -35.5h-25z" />
    <glyph glyph-name="acute" unicode="&#xb4;" horiz-adv-x="913" 
d="M313 1075l-20 21l182 262q32 46 55 65t56 19q36 0 57 -21t21 -57q0 -60 -76 -104z" />
    <glyph glyph-name="paragraph" unicode="&#xb6;" horiz-adv-x="1099" 
d="M608 752h-92q-202 0 -330.5 105.5t-128.5 289.5q0 188 127.5 288.5t333.5 100.5h531v-27q-21 -6 -33.5 -11t-25.5 -17t-19 -24t-12.5 -39.5t-9 -55t-4.5 -80t-2.5 -104.5t-0.5 -138v-606q0 -140 -24.5 -248.5t-67 -179.5t-105.5 -116t-134.5 -64t-159.5 -19
q-93 0 -146 32t-53 89q0 36 22 59t58 23q31 0 57.5 -15.5t46 -37.5t38.5 -44.5t44 -38t53 -15.5t53 9.5t54 40.5t49.5 80.5t34.5 136.5t14 202v1173h-168v-749z" />
    <glyph glyph-name="periodcentered" unicode="&#xb7;" horiz-adv-x="499" 
d="M252 469q-58 0 -95.5 36t-37.5 95q0 57 38 95t95 38t94 -38t37 -95q0 -59 -36.5 -95t-94.5 -36z" />
    <glyph glyph-name="cedilla" unicode="&#xb8;" horiz-adv-x="913" 
d="M485 0h45l-57 -98q79 -12 127.5 -51.5t48.5 -92.5q0 -152 -327 -164l-5 31q195 21 195 90q0 34 -34 50.5t-103 21.5l-8 14z" />
    <glyph glyph-name="onesuperior" unicode="&#xb9;" horiz-adv-x="602" 
d="M459 952h-287v23q36 5 50.5 21t21 64.5t6.5 160.5v190q0 47 -1.5 70.5t-5 42t-14.5 24.5t-23 8.5t-38 2.5v20l217 147v-505q0 -74 1.5 -110t4.5 -67t12 -42t21 -17.5t35 -9.5v-23z" />
    <glyph glyph-name="ordmasculine" unicode="&#xba;" horiz-adv-x="815" 
d="M408 793q-45 0 -93.5 14t-96.5 44.5t-86 73t-61.5 105.5t-23.5 137t23.5 138t61.5 108t86 75.5t96.5 46.5t93.5 15t94 -15t96.5 -46.5t85 -75.5t61 -108t23.5 -138t-23.5 -137t-61 -105.5t-85.5 -73t-96.5 -44.5t-93.5 -14zM408 819q86 0 138 82t52 266t-52.5 270.5
t-137.5 86.5t-138 -86.5t-53 -270.5t52.5 -266t138.5 -82z" />
    <glyph glyph-name="guillemotright" unicode="&#xbb;" horiz-adv-x="790" 
d="M100 133l-22 14l166 324l-164 324l22 14l308 -322v-32zM399 133l-22 14l168 324l-166 324l22 14l310 -322v-32z" />
    <glyph glyph-name="onequarter" unicode="&#xbc;" horiz-adv-x="1030" 
d="M770 -12h-90q4 -91 14 -113t45 -31v-22h-254v22q25 7 35 16t16 36.5t9 91.5h-355v14l443 586h47v-500h135zM291 88h254v336zM123 756v24h784v-24h-784zM664 952h-287v23q36 5 50.5 21t21 64.5t6.5 160.5v190q0 47 -1.5 70.5t-5 42t-14.5 24.5t-23 8.5t-38 2.5v20l217 147
v-505q0 -74 1.5 -110t4.5 -67t12 -42t21 -17.5t35 -9.5v-23z" />
    <glyph glyph-name="onehalf" unicode="&#xbd;" horiz-adv-x="1030" 
d="M123 756v24h784v-24h-784zM662 952h-287v23q36 5 50.5 21t21 64.5t6.5 160.5v190q0 47 -1.5 70.5t-5 42t-14.5 24.5t-23 8.5t-38 2.5v20l217 147v-505q0 -74 1.5 -110t4.5 -67t12 -42t21 -17.5t35 -9.5v-23zM381 -63h149q101 0 144.5 4.5t59 15t28.5 37.5h22l-34 -135
q-6 -24 -11 -30.5t-18 -6.5h-475l205 229q84 96 119.5 175.5t35.5 170.5q0 168 -119 168q-13 0 -23.5 -2t-18.5 -6.5t-14 -8.5t-11 -12.5t-7.5 -12.5t-5.5 -14.5t-3.5 -13.5t-2.5 -14t-2 -12q-5 -30 -19.5 -43.5t-45.5 -13.5q-60 0 -60 57q0 42 57.5 81.5t157.5 39.5
q110 0 186.5 -47.5t76.5 -145.5q0 -89 -60.5 -169t-175.5 -177z" />
    <glyph glyph-name="threequarters" unicode="&#xbe;" horiz-adv-x="1030" 
d="M770 -12h-90q4 -91 14 -113t45 -31v-22h-254v22q25 7 35 16t16 36.5t9 91.5h-355v14l443 586h47v-500h135zM291 88h254v336zM123 756v24h784v-24h-784zM258 1544l39 139q6 19 9.5 24t10.5 5h433v-12l-283 -283q39 13 70 13q112 0 176.5 -58t64.5 -172q0 -103 -84 -177.5
t-223 -74.5q-98 0 -158.5 39t-60.5 86q0 24 15.5 39.5t43.5 15.5q49 0 58 -51l3 -17q3 -17 5 -23.5t9.5 -21.5t17 -22t27 -13.5t40.5 -6.5q85 0 125.5 63t40.5 164q0 203 -113 203q-43 0 -70.5 -14t-62.5 -46l-16 15l239 239h-129q-93 0 -130 -4.5t-49 -13t-23 -35.5h-25z
" />
    <glyph glyph-name="questiondown" unicode="&#xbf;" horiz-adv-x="888" 
d="M539 537h30q4 -105 -21 -203.5t-64 -175t-78.5 -149t-68 -155.5t-28.5 -165q0 -144 50.5 -204t158.5 -60q43 0 64.5 16t35.5 53q5 12 14.5 38.5t15.5 38.5t18 27.5t29 22t42 6.5q42 0 69.5 -26t27.5 -62q0 -63 -83 -105t-235 -42q-198 0 -317 84.5t-119 234.5
q0 68 25 132t65 115.5t88 103t97 103.5t89.5 106.5t66.5 123t28 142.5zM530 971q57 0 95.5 -36t38.5 -95q0 -57 -39 -95t-95 -38q-57 0 -94 38t-37 95q0 59 36.5 95t94.5 36z" />
    <glyph glyph-name="Agrave" unicode="&#xc0;" horiz-adv-x="1441" 
d="M33 0v27q47 16 82 66.5t86 189.5l391 1079l-8 20q-26 68 -52.5 93.5t-66.5 33.5v27h280q23 0 30 -7.5t18 -37.5l464 -1231q52 -132 74 -166q29 -46 78 -63v-31h-399v31q54 10 61 46t-24 109l-107 275h-637l-63 -178q-20 -54 -28 -91t-4 -71.5t28 -57t69 -36.5v-27h-272z
M315 494h613l-316 817zM842 1614l-332 65q-115 22 -115 107q0 31 22 54.5t56 23.5q48 0 98 -37l281 -187z" />
    <glyph glyph-name="Aacute" unicode="&#xc1;" horiz-adv-x="1441" 
d="M33 0v27q47 16 82 66.5t86 189.5l391 1079l-8 20q-26 68 -52.5 93.5t-66.5 33.5v27h280q23 0 30 -7.5t18 -37.5l464 -1231q52 -132 74 -166q29 -46 78 -63v-31h-399v31q54 10 61 46t-24 109l-107 275h-637l-63 -178q-20 -54 -28 -91t-4 -71.5t28 -57t69 -36.5v-27h-272z
M315 494h613l-316 817zM455 1614l-11 26l281 187q50 37 98 37q34 0 56 -23.5t22 -54.5q0 -85 -115 -107z" />
    <glyph glyph-name="Acircumflex" unicode="&#xc2;" horiz-adv-x="1441" 
d="M33 0v27q47 16 82 66.5t86 189.5l391 1079l-8 20q-26 68 -52.5 93.5t-66.5 33.5v27h280q23 0 30 -7.5t18 -37.5l464 -1231q52 -132 74 -166q29 -46 78 -63v-31h-399v31q54 10 61 46t-24 109l-107 275h-637l-63 -178q-20 -54 -28 -91t-4 -71.5t28 -57t69 -36.5v-27h-272z
M315 494h613l-316 817zM375 1634l274 246l277 -246l-11 -24l-266 98l-264 -98z" />
    <glyph glyph-name="Atilde" unicode="&#xc3;" horiz-adv-x="1441" 
d="M33 0v27q47 16 82 66.5t86 189.5l391 1079l-8 20q-26 68 -52.5 93.5t-66.5 33.5v27h280q23 0 30 -7.5t18 -37.5l464 -1231q52 -132 74 -166q29 -46 78 -63v-31h-399v31q54 10 61 46t-24 109l-107 275h-637l-63 -178q-20 -54 -28 -91t-4 -71.5t28 -57t69 -36.5v-27h-272z
M315 494h613l-316 817zM565 1815q38 0 117 -8.5t104 -8.5q64 0 117 88l25 -8q-23 -100 -65.5 -154.5t-96.5 -54.5q-37 0 -115 8.5t-108 8.5q-60 0 -115 -87l-25 9q58 207 162 207z" />
    <glyph glyph-name="Adieresis" unicode="&#xc4;" horiz-adv-x="1441" 
d="M33 0v27q47 16 82 66.5t86 189.5l391 1079l-8 20q-26 68 -52.5 93.5t-66.5 33.5v27h280q23 0 30 -7.5t18 -37.5l464 -1231q52 -132 74 -166q29 -46 78 -63v-31h-399v31q54 10 61 46t-24 109l-107 275h-637l-63 -178q-20 -54 -28 -91t-4 -71.5t28 -57t69 -36.5v-27h-272z
M315 494h613l-316 817zM850 1622q-49 0 -81 32.5t-32 82.5q0 47 32 78.5t81 31.5q47 0 79 -31.5t32 -78.5q0 -49 -32 -82t-79 -33zM451 1622q-47 0 -79 33t-32 82q0 47 32 78.5t79 31.5q49 0 81.5 -31.5t32.5 -78.5q0 -50 -32.5 -82.5t-81.5 -32.5z" />
    <glyph glyph-name="Aring" unicode="&#xc5;" horiz-adv-x="1441" 
d="M33 0v27q47 16 82 66.5t86 189.5l391 1079l-8 20q-26 68 -52.5 93.5t-66.5 33.5v27h280q23 0 30 -7.5t18 -37.5l464 -1231q52 -132 74 -166q29 -46 78 -63v-31h-399v31q54 10 61 46t-24 109l-107 275h-637l-63 -178q-20 -54 -28 -91t-4 -71.5t28 -57t69 -36.5v-27h-272z
M315 494h613l-316 817zM475 1769q0 72 51.5 118t122.5 46t121.5 -46t50.5 -118t-49.5 -117.5t-122.5 -45.5q-74 0 -124 45.5t-50 117.5zM559 1769q0 -131 90 -131t90 131q0 61 -24.5 96.5t-65.5 35.5q-43 0 -66.5 -35t-23.5 -97z" />
    <glyph glyph-name="AE" unicode="&#xc6;" horiz-adv-x="1937" 
d="M1501 680h-31q-1 6 -4 17q-17 69 -38 94q-48 53 -193 53h-84v-811h309q98 0 157.5 10t107 40t76 81.5t50.5 138.5h37l-26 -240q-2 -24 -5.5 -36.5t-12 -18.5t-16.5 -7t-28 -1h-991v27q21 7 33.5 12.5t25 18t19 23.5t13 38.5t8.5 53t4 76t2.5 99.5t0.5 131v6h-542
l-125 -227q-57 -104 -51 -156t75 -77v-25h-256v25q46 19 83.5 61t109.5 172l620 1137q31 57 17.5 80t-76.5 34v27h985q25 0 34.5 -9.5t16.5 -51.5l39 -215h-37q-53 146 -129.5 194.5t-242.5 48.5h-285v-626h84q155 0 200 61q18 25 32 90l3 12h31v-360zM389 518h526v963z" />
    <glyph glyph-name="Ccedilla" unicode="&#xc7;" horiz-adv-x="1368" 
d="M801 -27q-150 0 -281 56t-227 157.5t-151.5 252t-55.5 331.5q0 130 29.5 244t81.5 199t120.5 152.5t148 109.5t163 64t166.5 22q74 0 137.5 -12.5t98 -27.5t71.5 -27.5t65 -12.5q53 0 68 55h33v-356h-33q-58 178 -172 263t-268 85q-99 0 -179.5 -41.5t-143.5 -126.5
t-97.5 -227.5t-34.5 -331.5q0 -206 40.5 -358t112.5 -239t161 -128t196 -41q258 0 416 190l24 -22q-28 -39 -67.5 -75.5t-99 -73.5t-143 -59t-179.5 -22zM670 0h45l-58 -98q79 -12 128 -51.5t49 -92.5q0 -152 -328 -164l-4 31q194 21 194 90q0 34 -34 50.5t-103 21.5l-8 14z
" />
    <glyph glyph-name="Egrave" unicode="&#xc8;" horiz-adv-x="1208" 
d="M51 0v27q21 7 33.5 12.5t25 17.5t19 23.5t13 38.5t9 53.5t4.5 76.5t2.5 99.5t0.5 130.5v578q0 81 -0.5 130.5t-2.5 99.5t-4.5 76.5t-9 53.5t-13 38.5t-19 23.5t-25 17.5t-33.5 12.5v27h975q25 0 34.5 -9.5t16.5 -51.5l39 -215h-37q-53 146 -129.5 194.5t-242.5 48.5h-314
v-626h99q59 0 100 8t64.5 21t38 34t21 42.5t12.5 50.5q0 5 1 7h31v-360h-31q-1 4 -3 13q-17 70 -39 96q-49 55 -195 55h-99v-811h338q98 0 157.5 10t107 40t76 81.5t50.5 138.5h37l-26 -240q-2 -24 -5.5 -36.5t-12 -18.5t-16.5 -7t-28 -1h-1020zM801 1614l-332 65
q-115 22 -115 107q0 31 22 54.5t56 23.5q48 0 98 -37l281 -187z" />
    <glyph glyph-name="Eacute" unicode="&#xc9;" horiz-adv-x="1208" 
d="M51 0v27q21 7 33.5 12.5t25 17.5t19 23.5t13 38.5t9 53.5t4.5 76.5t2.5 99.5t0.5 130.5v578q0 81 -0.5 130.5t-2.5 99.5t-4.5 76.5t-9 53.5t-13 38.5t-19 23.5t-25 17.5t-33.5 12.5v27h975q25 0 34.5 -9.5t16.5 -51.5l39 -215h-37q-53 146 -129.5 194.5t-242.5 48.5h-314
v-626h99q59 0 100 8t64.5 21t38 34t21 42.5t12.5 50.5q0 5 1 7h31v-360h-31q-1 4 -3 13q-17 70 -39 96q-49 55 -195 55h-99v-811h338q98 0 157.5 10t107 40t76 81.5t50.5 138.5h37l-26 -240q-2 -24 -5.5 -36.5t-12 -18.5t-16.5 -7t-28 -1h-1020zM414 1614l-11 26l281 187
q50 37 98 37q34 0 56 -23.5t22 -54.5q0 -85 -115 -107z" />
    <glyph glyph-name="Ecircumflex" unicode="&#xca;" horiz-adv-x="1208" 
d="M51 0v27q21 7 33.5 12.5t25 17.5t19 23.5t13 38.5t9 53.5t4.5 76.5t2.5 99.5t0.5 130.5v578q0 81 -0.5 130.5t-2.5 99.5t-4.5 76.5t-9 53.5t-13 38.5t-19 23.5t-25 17.5t-33.5 12.5v27h975q25 0 34.5 -9.5t16.5 -51.5l39 -215h-37q-53 146 -129.5 194.5t-242.5 48.5h-314
v-626h99q59 0 100 8t64.5 21t38 34t21 42.5t12.5 50.5q0 5 1 7h31v-360h-31q-1 4 -3 13q-17 70 -39 96q-49 55 -195 55h-99v-811h338q98 0 157.5 10t107 40t76 81.5t50.5 138.5h37l-26 -240q-2 -24 -5.5 -36.5t-12 -18.5t-16.5 -7t-28 -1h-1020zM334 1634l274 246l277 -246
l-11 -24l-266 98l-264 -98z" />
    <glyph glyph-name="Edieresis" unicode="&#xcb;" horiz-adv-x="1208" 
d="M51 0v27q21 7 33.5 12.5t25 17.5t19 23.5t13 38.5t9 53.5t4.5 76.5t2.5 99.5t0.5 130.5v578q0 81 -0.5 130.5t-2.5 99.5t-4.5 76.5t-9 53.5t-13 38.5t-19 23.5t-25 17.5t-33.5 12.5v27h975q25 0 34.5 -9.5t16.5 -51.5l39 -215h-37q-53 146 -129.5 194.5t-242.5 48.5h-314
v-626h99q59 0 100 8t64.5 21t38 34t21 42.5t12.5 50.5q0 5 1 7h31v-360h-31q-1 4 -3 13q-17 70 -39 96q-49 55 -195 55h-99v-811h338q98 0 157.5 10t107 40t76 81.5t50.5 138.5h37l-26 -240q-2 -24 -5.5 -36.5t-12 -18.5t-16.5 -7t-28 -1h-1020zM809 1622q-49 0 -81 32.5
t-32 82.5q0 47 32 78.5t81 31.5q47 0 79 -31.5t32 -78.5q0 -49 -32 -82t-79 -33zM410 1622q-47 0 -79 33t-32 82q0 47 32 78.5t79 31.5q49 0 81.5 -31.5t32.5 -78.5q0 -50 -32.5 -82.5t-81.5 -32.5z" />
    <glyph glyph-name="Igrave" unicode="&#xcc;" horiz-adv-x="546" 
d="M51 0v27q21 7 33.5 12.5t25 17.5t19 23.5t13 38.5t9 53.5t4.5 76.5t2.5 99.5t0.5 130.5v578q0 82 -0.5 132t-2.5 100t-4.5 76.5t-8.5 53.5t-13 38.5t-19.5 23.5t-25 17t-33.5 11v27h445v-27q-21 -6 -33.5 -11t-25 -17t-19.5 -23.5t-13 -38.5t-8.5 -53.5t-4.5 -76.5
t-2.5 -100t-0.5 -132v-578q0 -81 0.5 -130.5t2.5 -99.5t4.5 -76.5t9 -53.5t13 -38.5t19 -23.5t25 -17.5t33.5 -12.5v-27h-445zM465 1614l-332 65q-115 22 -115 107q0 31 22 54.5t56 23.5q49 0 99 -37l280 -187z" />
    <glyph glyph-name="Iacute" unicode="&#xcd;" horiz-adv-x="546" 
d="M51 0v27q21 7 33.5 12.5t25 17.5t19 23.5t13 38.5t9 53.5t4.5 76.5t2.5 99.5t0.5 130.5v578q0 82 -0.5 132t-2.5 100t-4.5 76.5t-8.5 53.5t-13 38.5t-19.5 23.5t-25 17t-33.5 11v27h445v-27q-21 -6 -33.5 -11t-25 -17t-19.5 -23.5t-13 -38.5t-8.5 -53.5t-4.5 -76.5
t-2.5 -100t-0.5 -132v-578q0 -81 0.5 -130.5t2.5 -99.5t4.5 -76.5t9 -53.5t13 -38.5t19 -23.5t25 -17.5t33.5 -12.5v-27h-445zM78 1614l-10 26l280 187q50 37 98 37q34 0 56 -23.5t22 -54.5q0 -85 -114 -107z" />
    <glyph glyph-name="Icircumflex" unicode="&#xce;" horiz-adv-x="546" 
d="M51 0v27q21 7 33.5 12.5t25 17.5t19 23.5t13 38.5t9 53.5t4.5 76.5t2.5 99.5t0.5 130.5v578q0 82 -0.5 132t-2.5 100t-4.5 76.5t-8.5 53.5t-13 38.5t-19.5 23.5t-25 17t-33.5 11v27h445v-27q-21 -6 -33.5 -11t-25 -17t-19.5 -23.5t-13 -38.5t-8.5 -53.5t-4.5 -76.5
t-2.5 -100t-0.5 -132v-578q0 -81 0.5 -130.5t2.5 -99.5t4.5 -76.5t9 -53.5t13 -38.5t19 -23.5t25 -17.5t33.5 -12.5v-27h-445zM-2 1634l274 246l277 -246l-10 -24l-267 98l-264 -98z" />
    <glyph glyph-name="Idieresis" unicode="&#xcf;" horiz-adv-x="546" 
d="M434 1622q-49 0 -80.5 32.5t-31.5 82.5q0 48 31.5 79t80.5 31q47 0 79 -31.5t32 -78.5q0 -49 -32 -82t-79 -33zM115 1622q-48 0 -80.5 33t-32.5 82q0 47 32.5 78.5t80.5 31.5t81 -31.5t33 -78.5q0 -49 -33 -82t-81 -33zM51 0v27q21 7 33.5 12.5t25 17.5t19 23.5t13 38.5
t9 53.5t4.5 76.5t2.5 99.5t0.5 130.5v578q0 82 -0.5 132t-2.5 100t-4.5 76.5t-8.5 53.5t-13 38.5t-19.5 23.5t-25 17t-33.5 11v27h445v-27q-21 -6 -33.5 -11t-25 -17t-19.5 -23.5t-13 -38.5t-8.5 -53.5t-4.5 -76.5t-2.5 -100t-0.5 -132v-578q0 -81 0.5 -130.5t2.5 -99.5
t4.5 -76.5t9 -53.5t13 -38.5t19 -23.5t25 -17.5t33.5 -12.5v-27h-445z" />
    <glyph glyph-name="Eth" unicode="&#xd0;" horiz-adv-x="1476" 
d="M51 0v27q21 7 33.5 12.5t25 17.5t19 23.5t13 38.5t9 53.5t4.5 76.5t2.5 99.5t0.5 130.5v307h-166v33h166v-33h235v-755h80q173 0 294 39.5t204.5 128.5t122.5 235t39 357q0 172 -32 298.5t-87 205.5t-141 126t-180.5 64.5t-219.5 17.5h-80v-684h293v-33h-293v33h-235v238
q0 81 -0.5 130.5t-2.5 99.5t-4.5 76.5t-9 53.5t-13 38.5t-19 23.5t-25 17.5t-33.5 12.5v27h422q212 0 380.5 -47t288.5 -139t184.5 -234.5t64.5 -327.5q0 -367 -237 -577.5t-681 -210.5h-422z" />
    <glyph glyph-name="Ntilde" unicode="&#xd1;" horiz-adv-x="1386" 
d="M51 0v27q28 14 43 24.5t29 34.5t19.5 49t10 82t5 116.5t0.5 168.5v555q0 81 -0.5 130.5t-2.5 99.5t-4.5 76.5t-9 53.5t-13 38.5t-19 23.5t-25 17.5t-33.5 12.5v27h332q38 0 52.5 -11t47.5 -61l711 -1093v665q0 84 -0.5 131.5t-3 100t-5.5 78t-10.5 54.5t-16 41.5
t-25 27.5t-33 22.5t-43.5 17.5v27h282v-27q-21 -10 -33.5 -17.5t-25 -22.5t-19 -27.5t-13 -41t-8.5 -55t-4 -78t-2.5 -100.5t-0.5 -131v-1042h-66l-970 1489v-981q0 -84 0.5 -131.5t3 -100t5.5 -78.5t10.5 -55.5t16 -41.5t25 -27.5t33 -23t43.5 -17.5v-27h-283zM680 1815
q38 0 117 -8.5t104 -8.5q64 0 117 88l24 -8q-23 -100 -65 -154.5t-96 -54.5q-37 0 -115.5 8.5t-108.5 8.5q-59 0 -114 -87l-25 9q58 207 162 207z" />
    <glyph glyph-name="Ograve" unicode="&#xd2;" horiz-adv-x="1564" 
d="M782 -29q-129 0 -254 59.5t-223 162.5t-158.5 254.5t-60.5 322.5q0 172 60.5 322.5t158.5 252t223 160t254 58.5t254 -58.5t223.5 -160t159 -252t60.5 -322.5q0 -171 -60.5 -322.5t-159 -254.5t-223.5 -162.5t-254 -59.5zM782 4q96 0 175 45.5t139 136t93.5 240
t33.5 344.5q0 193 -35 342t-96.5 238.5t-139.5 134.5t-170 45q-91 0 -168.5 -45t-138.5 -134.5t-96 -238.5t-35 -342q0 -384 120 -575t318 -191zM977 1614l-332 65q-115 22 -115 107q0 31 22 54.5t56 23.5q49 0 99 -37l280 -187z" />
    <glyph glyph-name="Oacute" unicode="&#xd3;" horiz-adv-x="1564" 
d="M782 -29q-129 0 -254 59.5t-223 162.5t-158.5 254.5t-60.5 322.5q0 172 60.5 322.5t158.5 252t223 160t254 58.5t254 -58.5t223.5 -160t159 -252t60.5 -322.5q0 -171 -60.5 -322.5t-159 -254.5t-223.5 -162.5t-254 -59.5zM782 4q96 0 175 45.5t139 136t93.5 240
t33.5 344.5q0 193 -35 342t-96.5 238.5t-139.5 134.5t-170 45q-91 0 -168.5 -45t-138.5 -134.5t-96 -238.5t-35 -342q0 -384 120 -575t318 -191zM588 1614l-10 26l280 187q50 37 98 37q34 0 56 -23.5t22 -54.5q0 -85 -114 -107z" />
    <glyph glyph-name="Ocircumflex" unicode="&#xd4;" horiz-adv-x="1564" 
d="M782 -29q-129 0 -254 59.5t-223 162.5t-158.5 254.5t-60.5 322.5q0 172 60.5 322.5t158.5 252t223 160t254 58.5t254 -58.5t223.5 -160t159 -252t60.5 -322.5q0 -171 -60.5 -322.5t-159 -254.5t-223.5 -162.5t-254 -59.5zM782 4q96 0 175 45.5t139 136t93.5 240
t33.5 344.5q0 193 -35 342t-96.5 238.5t-139.5 134.5t-170 45q-91 0 -168.5 -45t-138.5 -134.5t-96 -238.5t-35 -342q0 -384 120 -575t318 -191zM508 1634l274 246l277 -246l-10 -24l-267 98l-264 -98z" />
    <glyph glyph-name="Otilde" unicode="&#xd5;" horiz-adv-x="1564" 
d="M782 -29q-129 0 -254 59.5t-223 162.5t-158.5 254.5t-60.5 322.5q0 172 60.5 322.5t158.5 252t223 160t254 58.5t254 -58.5t223.5 -160t159 -252t60.5 -322.5q0 -171 -60.5 -322.5t-159 -254.5t-223.5 -162.5t-254 -59.5zM782 4q96 0 175 45.5t139 136t93.5 240
t33.5 344.5q0 193 -35 342t-96.5 238.5t-139.5 134.5t-170 45q-91 0 -168.5 -45t-138.5 -134.5t-96 -238.5t-35 -342q0 -384 120 -575t318 -191zM700 1815q38 0 117.5 -8.5t104.5 -8.5q63 0 116 88l25 -8q-23 -100 -65.5 -154.5t-96.5 -54.5q-37 0 -115 8.5t-108 8.5
q-60 0 -115 -87l-24 9q58 207 161 207z" />
    <glyph glyph-name="Odieresis" unicode="&#xd6;" horiz-adv-x="1564" 
d="M782 -29q-129 0 -254 59.5t-223 162.5t-158.5 254.5t-60.5 322.5q0 172 60.5 322.5t158.5 252t223 160t254 58.5t254 -58.5t223.5 -160t159 -252t60.5 -322.5q0 -171 -60.5 -322.5t-159 -254.5t-223.5 -162.5t-254 -59.5zM782 4q96 0 175 45.5t139 136t93.5 240
t33.5 344.5q0 193 -35 342t-96.5 238.5t-139.5 134.5t-170 45q-91 0 -168.5 -45t-138.5 -134.5t-96 -238.5t-35 -342q0 -384 120 -575t318 -191zM983 1622q-49 0 -81 32.5t-32 82.5q0 47 32 78.5t81 31.5q47 0 79 -31.5t32 -78.5q0 -49 -32 -82t-79 -33zM584 1622
q-47 0 -79 33t-32 82q0 47 32 78.5t79 31.5q49 0 81.5 -31.5t32.5 -78.5q0 -50 -32.5 -82.5t-81.5 -32.5z" />
    <glyph glyph-name="multiply" unicode="&#xd7;" horiz-adv-x="851" 
d="M100 397l297 324l-299 326l29 32l299 -325l299 325l29 -30l-299 -328l299 -326l-31 -30l-297 325l-297 -323z" />
    <glyph glyph-name="Oslash" unicode="&#xd8;" horiz-adv-x="1564" 
d="M782 -29q-185 0 -356 119l-100 -190l-33 16l102 195q-139 105 -224 278.5t-85 380.5q0 172 60.5 322.5t158.5 252t223 160t254 58.5q174 0 328 -97l86 162l33 -16l-88 -166q152 -100 245 -279t93 -397q0 -171 -60.5 -322.5t-159 -254.5t-223.5 -162.5t-254 -59.5z
M344 770q0 -353 109 -553l614 1167q-117 146 -285 146q-91 0 -168.5 -45t-138.5 -134.5t-96 -238.5t-35 -342zM782 4q96 0 175 45.5t139 136t93.5 240t33.5 344.5q0 381 -131 582l-619 -1172q114 -176 309 -176z" />
    <glyph glyph-name="Ugrave" unicode="&#xd9;" horiz-adv-x="1382" 
d="M737 -29q-287 0 -440.5 134.5t-153.5 412.5v539q0 82 -0.5 131.5t-2 100.5t-4 77.5t-8 53.5t-12 38.5t-17.5 23.5t-23 16.5t-31 10.5v27h436v-27q-21 -6 -33.5 -11t-25 -17t-19 -23.5t-13 -38.5t-8.5 -53t-4 -77t-2.5 -100t-0.5 -132v-584q0 -128 16.5 -212t58.5 -143
t113 -84.5t180 -25.5q224 0 336.5 112t112.5 372v542q0 84 -0.5 131.5t-3 100t-5.5 78.5t-10.5 55.5t-16 41.5t-24 27.5t-32.5 23t-43 17.5v27h280v-27q-21 -10 -33.5 -18t-25 -22.5t-19 -27.5t-13 -42t-8.5 -55.5t-4 -78t-2.5 -100.5t-0.5 -131v-542q0 -272 -124.5 -396.5
t-369.5 -124.5zM963 1614l-332 65q-115 22 -115 107q0 31 22 54.5t56 23.5q48 0 98 -37l281 -187z" />
    <glyph glyph-name="Uacute" unicode="&#xda;" horiz-adv-x="1382" 
d="M737 -29q-287 0 -440.5 134.5t-153.5 412.5v539q0 82 -0.5 131.5t-2 100.5t-4 77.5t-8 53.5t-12 38.5t-17.5 23.5t-23 16.5t-31 10.5v27h436v-27q-21 -6 -33.5 -11t-25 -17t-19 -23.5t-13 -38.5t-8.5 -53t-4 -77t-2.5 -100t-0.5 -132v-584q0 -128 16.5 -212t58.5 -143
t113 -84.5t180 -25.5q224 0 336.5 112t112.5 372v542q0 84 -0.5 131.5t-3 100t-5.5 78.5t-10.5 55.5t-16 41.5t-24 27.5t-32.5 23t-43 17.5v27h280v-27q-21 -10 -33.5 -18t-25 -22.5t-19 -27.5t-13 -42t-8.5 -55.5t-4 -78t-2.5 -100.5t-0.5 -131v-542q0 -272 -124.5 -396.5
t-369.5 -124.5zM573 1614l-10 26l281 187q50 37 98 37q34 0 56 -23.5t22 -54.5q0 -85 -115 -107z" />
    <glyph glyph-name="Ucircumflex" unicode="&#xdb;" horiz-adv-x="1382" 
d="M737 -29q-287 0 -440.5 134.5t-153.5 412.5v539q0 82 -0.5 131.5t-2 100.5t-4 77.5t-8 53.5t-12 38.5t-17.5 23.5t-23 16.5t-31 10.5v27h436v-27q-21 -6 -33.5 -11t-25 -17t-19 -23.5t-13 -38.5t-8.5 -53t-4 -77t-2.5 -100t-0.5 -132v-584q0 -128 16.5 -212t58.5 -143
t113 -84.5t180 -25.5q224 0 336.5 112t112.5 372v542q0 84 -0.5 131.5t-3 100t-5.5 78.5t-10.5 55.5t-16 41.5t-24 27.5t-32.5 23t-43 17.5v27h280v-27q-21 -10 -33.5 -18t-25 -22.5t-19 -27.5t-13 -42t-8.5 -55.5t-4 -78t-2.5 -100.5t-0.5 -131v-542q0 -272 -124.5 -396.5
t-369.5 -124.5zM494 1634l274 246l276 -246l-10 -24l-266 98l-264 -98z" />
    <glyph glyph-name="Udieresis" unicode="&#xdc;" horiz-adv-x="1382" 
d="M737 -29q-287 0 -440.5 134.5t-153.5 412.5v539q0 82 -0.5 131.5t-2 100.5t-4 77.5t-8 53.5t-12 38.5t-17.5 23.5t-23 16.5t-31 10.5v27h436v-27q-21 -6 -33.5 -11t-25 -17t-19 -23.5t-13 -38.5t-8.5 -53t-4 -77t-2.5 -100t-0.5 -132v-584q0 -128 16.5 -212t58.5 -143
t113 -84.5t180 -25.5q224 0 336.5 112t112.5 372v542q0 84 -0.5 131.5t-3 100t-5.5 78.5t-10.5 55.5t-16 41.5t-24 27.5t-32.5 23t-43 17.5v27h280v-27q-21 -10 -33.5 -18t-25 -22.5t-19 -27.5t-13 -42t-8.5 -55.5t-4 -78t-2.5 -100.5t-0.5 -131v-542q0 -272 -124.5 -396.5
t-369.5 -124.5zM969 1622q-49 0 -81 32.5t-32 82.5q0 47 32 78.5t81 31.5q47 0 78.5 -31.5t31.5 -78.5q0 -49 -31.5 -82t-78.5 -33zM569 1622q-47 0 -78.5 33t-31.5 82q0 47 31.5 78.5t78.5 31.5q49 0 82 -31.5t33 -78.5q0 -49 -33 -82t-82 -33z" />
    <glyph glyph-name="Yacute" unicode="&#xdd;" horiz-adv-x="1294" 
d="M432 0v27q21 7 33.5 12.5t25 17.5t19 23.5t13 38.5t9 53.5t4.5 76.5t2.5 99.5t0.5 130.5v262l-310 537q-61 109 -100 156.5t-96 74.5v27h432v-27q-50 -14 -59.5 -43t24.5 -96l322 -559l266 467q65 110 64.5 162t-76.5 69v27h256v-27q-36 -14 -57 -28.5t-57 -62.5
t-89 -140l-289 -508v-291q0 -81 0.5 -130.5t2.5 -99.5t4.5 -76.5t9 -53.5t13 -38.5t19 -23.5t25 -17.5t33.5 -12.5v-27h-445zM555 1614l-10 26l280 187q50 37 99 37q34 0 55.5 -23.5t21.5 -54.5q0 -85 -114 -107z" />
    <glyph glyph-name="Thorn" unicode="&#xde;" horiz-adv-x="1204" 
d="M51 0v27q21 7 33.5 12.5t25 17.5t19 23.5t13 38.5t9 53.5t4.5 76.5t2.5 99.5t0.5 130.5v578q0 82 -0.5 132t-2.5 100t-4.5 76.5t-8.5 53.5t-13 38.5t-19.5 23.5t-25 17t-33.5 11v27h445v-27q-45 -12 -63.5 -32t-28.5 -71t-13 -163h207q576 0 576 -389q0 -109 -44.5 -194
t-123.5 -137.5t-182 -79.5t-224 -27h-211q0 -89 1 -143t6 -98.5t11 -66.5t20 -39.5t28 -25t41 -16.5v-27h-445zM389 449h205q63 0 113.5 10t97 36t77.5 68t49.5 110t18.5 158q0 91 -19 159t-50.5 109t-78.5 66.5t-96 35t-110 9.5h-207v-761z" />
    <glyph glyph-name="germandbls" unicode="&#xdf;" horiz-adv-x="1153" 
d="M352 1255v-966q0 -163 10 -202t64 -60v-27h-365v27q21 7 34 13.5t23 21.5t14.5 27.5t7 46t3 63t0.5 90.5v645h-118v29q79 17 100.5 45.5t21.5 113.5v21q0 107 40 192.5t104.5 136.5t140 78t152.5 27q157 0 263.5 -73t106.5 -185q0 -43 -15.5 -81t-44.5 -69t-57 -55
t-67.5 -54t-60.5 -50q-48 -44 -64 -78t-16 -76q0 -28 11 -53t25.5 -43.5t47 -43.5t56.5 -41t73 -46q140 -89 202 -169t62 -188q0 -131 -97.5 -209.5t-228.5 -78.5q-54 0 -99.5 15.5t-75 31.5t-44.5 16q-25 0 -31 -27h-32v261h30q27 -118 90.5 -191.5t161.5 -73.5
q77 0 121.5 46.5t44.5 121.5q0 81 -44 136t-163 131q-124 77 -181.5 143t-57.5 149q0 36 9 68t30 62.5t35.5 48.5t47 50.5t42.5 43.5q66 66 95 127.5t29 144.5q0 256 -204 256q-114 0 -173 -68t-59 -221z" />
    <glyph glyph-name="agrave" unicode="&#xe0;" horiz-adv-x="946" 
d="M305 -18q-111 0 -178.5 57.5t-67.5 159.5q0 39 9.5 70.5t29.5 55t42 41t58 33.5t65 27t75.5 27.5t77.5 29.5l53 23q67 28 99 64.5t32 95.5v147q0 148 -158 148q-56 0 -86 -25t-55 -72q-23 -43 -47 -63.5t-64 -20.5q-36 0 -58.5 21.5t-22.5 54.5q0 61 94.5 98t230.5 37
q371 0 371 -246v-489q0 -100 6.5 -146t20.5 -60.5t45 -14.5q33 0 61 20l10 -22q-60 -47 -164 -47q-169 0 -182 145l-29 -27q-57 -57 -118.5 -89.5t-149.5 -32.5zM270 233q0 -99 32.5 -143.5t94.5 -44.5q44 0 83 24t93 74l27 25v393q-32 -48 -129 -90l-53 -22
q-80 -33 -114 -81.5t-34 -134.5zM580 1075l-277 185q-74 45 -74 104q0 36 21 57t57 21q33 0 56 -19t55 -65l182 -262z" />
    <glyph glyph-name="aacute" unicode="&#xe1;" horiz-adv-x="946" 
d="M305 -18q-111 0 -178.5 57.5t-67.5 159.5q0 39 9.5 70.5t29.5 55t42 41t58 33.5t65 27t75.5 27.5t77.5 29.5l53 23q67 28 99 64.5t32 95.5v147q0 148 -158 148q-56 0 -86 -25t-55 -72q-23 -43 -47 -63.5t-64 -20.5q-36 0 -58.5 21.5t-22.5 54.5q0 61 94.5 98t230.5 37
q371 0 371 -246v-489q0 -100 6.5 -146t20.5 -60.5t45 -14.5q33 0 61 20l10 -22q-60 -47 -164 -47q-169 0 -182 145l-29 -27q-57 -57 -118.5 -89.5t-149.5 -32.5zM270 233q0 -99 32.5 -143.5t94.5 -44.5q44 0 83 24t93 74l27 25v393q-32 -48 -129 -90l-53 -22
q-80 -33 -114 -81.5t-34 -134.5zM344 1075l-20 21l182 262q32 47 54.5 65.5t55.5 18.5q36 0 57 -21t21 -57q0 -60 -76 -104z" />
    <glyph glyph-name="acircumflex" unicode="&#xe2;" horiz-adv-x="946" 
d="M305 -18q-111 0 -178.5 57.5t-67.5 159.5q0 39 9.5 70.5t29.5 55t42 41t58 33.5t65 27t75.5 27.5t77.5 29.5l53 23q67 28 99 64.5t32 95.5v147q0 148 -158 148q-56 0 -86 -25t-55 -72q-23 -43 -47 -63.5t-64 -20.5q-36 0 -58.5 21.5t-22.5 54.5q0 61 94.5 98t230.5 37
q371 0 371 -246v-489q0 -100 6.5 -146t20.5 -60.5t45 -14.5q33 0 61 20l10 -22q-60 -47 -164 -47q-169 0 -182 145l-29 -27q-57 -57 -118.5 -89.5t-149.5 -32.5zM270 233q0 -99 32.5 -143.5t94.5 -44.5q44 0 83 24t93 74l27 25v393q-32 -48 -129 -90l-53 -22
q-80 -33 -114 -81.5t-34 -134.5zM201 1092l250 356l251 -356l-22 -19l-229 166l-228 -166z" />
    <glyph glyph-name="atilde" unicode="&#xe3;" horiz-adv-x="946" 
d="M305 -18q-111 0 -178.5 57.5t-67.5 159.5q0 39 9.5 70.5t29.5 55t42 41t58 33.5t65 27t75.5 27.5t77.5 29.5l53 23q67 28 99 64.5t32 95.5v147q0 148 -158 148q-56 0 -86 -25t-55 -72q-23 -43 -47 -63.5t-64 -20.5q-36 0 -58.5 21.5t-22.5 54.5q0 61 94.5 98t230.5 37
q371 0 371 -246v-489q0 -100 6.5 -146t20.5 -60.5t45 -14.5q33 0 61 20l10 -22q-60 -47 -164 -47q-169 0 -182 145l-29 -27q-57 -57 -118.5 -89.5t-149.5 -32.5zM270 233q0 -99 32.5 -143.5t94.5 -44.5q44 0 83 24t93 74l27 25v393q-32 -48 -129 -90l-53 -22
q-80 -33 -114 -81.5t-34 -134.5zM367 1323q38 0 107 -14.5t99 -14.5q56 0 107 90l25 -12q-53 -207 -158 -207q-37 0 -105 13.5t-102 13.5q-28 0 -52.5 -17.5t-58.5 -70.5l-24 12q37 105 75 156t87 51z" />
    <glyph glyph-name="adieresis" unicode="&#xe4;" horiz-adv-x="946" 
d="M305 -18q-111 0 -178.5 57.5t-67.5 159.5q0 39 9.5 70.5t29.5 55t42 41t58 33.5t65 27t75.5 27.5t77.5 29.5l53 23q67 28 99 64.5t32 95.5v147q0 148 -158 148q-56 0 -86 -25t-55 -72q-23 -43 -47 -63.5t-64 -20.5q-36 0 -58.5 21.5t-22.5 54.5q0 61 94.5 98t230.5 37
q371 0 371 -246v-489q0 -100 6.5 -146t20.5 -60.5t45 -14.5q33 0 61 20l10 -22q-60 -47 -164 -47q-169 0 -182 145l-29 -27q-57 -57 -118.5 -89.5t-149.5 -32.5zM270 233q0 -99 32.5 -143.5t94.5 -44.5q44 0 83 24t93 74l27 25v393q-32 -48 -129 -90l-53 -22
q-80 -33 -114 -81.5t-34 -134.5zM631 1147q-50 0 -82.5 33t-32.5 84q0 47 33 78.5t82 31.5q47 0 79.5 -31.5t32.5 -78.5q0 -51 -32 -84t-80 -33zM270 1147q-47 0 -78.5 33t-31.5 84q0 47 31.5 78.5t78.5 31.5q49 0 82 -31.5t33 -78.5q0 -51 -32.5 -84t-82.5 -33z" />
    <glyph glyph-name="aring" unicode="&#xe5;" horiz-adv-x="946" 
d="M305 -18q-111 0 -178.5 57.5t-67.5 159.5q0 39 9.5 70.5t29.5 55t42 41t58 33.5t65 27t75.5 27.5t77.5 29.5l53 23q67 28 99 64.5t32 95.5v147q0 148 -158 148q-56 0 -86 -25t-55 -72q-23 -43 -47 -63.5t-64 -20.5q-36 0 -58.5 21.5t-22.5 54.5q0 61 94.5 98t230.5 37
q371 0 371 -246v-489q0 -100 6.5 -146t20.5 -60.5t45 -14.5q33 0 61 20l10 -22q-60 -47 -164 -47q-169 0 -182 145l-29 -27q-57 -57 -118.5 -89.5t-149.5 -32.5zM270 233q0 -99 32.5 -143.5t94.5 -44.5q44 0 83 24t93 74l27 25v393q-32 -48 -129 -90l-53 -22
q-80 -33 -114 -81.5t-34 -134.5zM279 1245q0 72 50.5 118t121.5 46t122.5 -46t51.5 -118t-50.5 -118t-123.5 -46t-122.5 46t-49.5 118zM360 1245q0 -131 91 -131q90 0 90 131q0 62 -23.5 96.5t-66.5 34.5q-42 0 -66.5 -35t-24.5 -96z" />
    <glyph glyph-name="ae" unicode="&#xe6;" horiz-adv-x="1484" 
d="M313 -18q-117 0 -185.5 57t-68.5 160q0 39 9.5 70.5t29.5 55t42 41t58 33.5t65 27t75.5 27.5t77.5 29.5l53 23q67 28 99 64.5t32 95.5v147q0 148 -158 148q-56 0 -86 -25t-55 -72q-23 -43 -47 -63.5t-64 -20.5q-36 0 -58.5 21.5t-22.5 54.5q0 61 94.5 98t230.5 37
q248 0 332 -112q63 58 137.5 87t143.5 29q155 0 257 -87.5t121 -264.5h-606q-6 -59 -6 -133q0 -244 86.5 -359.5t241.5 -115.5q79 0 133 20.5t115 63.5l18 -27q-67 -53 -138.5 -82.5t-178.5 -29.5q-123 0 -231.5 51.5t-174.5 152.5l-74 -69q-76 -73 -134.5 -103t-162.5 -30z
M1047 963q-78 0 -138.5 -66t-83.5 -219h402q-10 157 -55 221t-125 64zM270 233q0 -100 31.5 -144t93.5 -44q105 0 205 100l68 64q-68 120 -68 285v67q-32 -48 -129 -90l-53 -22q-80 -33 -114 -81.5t-34 -134.5z" />
    <glyph glyph-name="ccedilla" unicode="&#xe7;" horiz-adv-x="921" 
d="M547 -18q-97 0 -185 35.5t-154.5 98.5t-105.5 157.5t-39 205.5q0 118 45 218t116.5 163t157 98t169.5 35q131 0 221 -38.5t90 -108.5q0 -36 -23.5 -57t-64.5 -21q-27 0 -45.5 6.5t-31.5 23.5t-20.5 33.5t-18.5 47.5l-1.5 4.5l-1.5 4.5t-2 5q-12 38 -34.5 54t-65.5 16
q-59 0 -106.5 -23t-85.5 -73t-59 -138t-21 -209q0 -249 85.5 -365t235.5 -116q148 0 254 111l23 -23q-131 -145 -332 -145zM451 0h45l-58 -98q79 -12 127.5 -51.5t48.5 -92.5q0 -152 -327 -164l-4 31q194 21 194 90q0 34 -34 50.5t-103 21.5l-8 14z" />
    <glyph glyph-name="egrave" unicode="&#xe8;" horiz-adv-x="962" 
d="M561 -20q-96 0 -183 31t-158.5 91t-114 161.5t-42.5 230.5q0 96 29 179.5t76.5 141t107.5 99.5t122 61.5t120 19.5q102 0 182 -36t135 -116.5t68 -199.5h-618q-6 -58 -6 -133q0 -244 87.5 -359.5t243.5 -115.5q81 0 138.5 21t117.5 63l19 -27q-66 -52 -140 -82t-184 -30z
M518 963q-81 0 -142.5 -66t-84.5 -219h414q-11 157 -58.5 221t-128.5 64zM649 1075l-276 185q-74 45 -74 104q0 36 21 57t57 21q33 0 55.5 -18.5t54.5 -65.5l183 -262z" />
    <glyph glyph-name="eacute" unicode="&#xe9;" horiz-adv-x="962" 
d="M561 -20q-96 0 -183 31t-158.5 91t-114 161.5t-42.5 230.5q0 96 29 179.5t76.5 141t107.5 99.5t122 61.5t120 19.5q102 0 182 -36t135 -116.5t68 -199.5h-618q-6 -58 -6 -133q0 -244 87.5 -359.5t243.5 -115.5q81 0 138.5 21t117.5 63l19 -27q-66 -52 -140 -82t-184 -30z
M518 963q-81 0 -142.5 -66t-84.5 -219h414q-11 157 -58.5 221t-128.5 64zM414 1075l-21 21l182 262q32 46 55 65t56 19q36 0 57 -21t21 -57q0 -60 -76 -104z" />
    <glyph glyph-name="ecircumflex" unicode="&#xea;" horiz-adv-x="962" 
d="M561 -20q-96 0 -183 31t-158.5 91t-114 161.5t-42.5 230.5q0 96 29 179.5t76.5 141t107.5 99.5t122 61.5t120 19.5q102 0 182 -36t135 -116.5t68 -199.5h-618q-6 -58 -6 -133q0 -244 87.5 -359.5t243.5 -115.5q81 0 138.5 21t117.5 63l19 -27q-66 -52 -140 -82t-184 -30z
M518 963q-81 0 -142.5 -66t-84.5 -219h414q-11 157 -58.5 221t-128.5 64zM272 1092l250 356l252 -356l-22 -19l-230 166l-227 -166z" />
    <glyph glyph-name="edieresis" unicode="&#xeb;" horiz-adv-x="962" 
d="M561 -20q-96 0 -183 31t-158.5 91t-114 161.5t-42.5 230.5q0 96 29 179.5t76.5 141t107.5 99.5t122 61.5t120 19.5q102 0 182 -36t135 -116.5t68 -199.5h-618q-6 -58 -6 -133q0 -244 87.5 -359.5t243.5 -115.5q81 0 138.5 21t117.5 63l19 -27q-66 -52 -140 -82t-184 -30z
M518 963q-81 0 -142.5 -66t-84.5 -219h414q-11 157 -58.5 221t-128.5 64zM702 1147q-50 0 -82 33t-32 84q0 47 32.5 78.5t81.5 31.5q48 0 80.5 -31.5t32.5 -78.5q0 -51 -32.5 -84t-80.5 -33zM342 1147q-48 0 -79.5 33t-31.5 84q0 47 32 78.5t79 31.5q49 0 82 -31.5t33 -78.5
q0 -51 -32.5 -84t-82.5 -33z" />
    <glyph glyph-name="igrave" unicode="&#xec;" horiz-adv-x="491" 
d="M53 0v27q29 9 44.5 19.5t26.5 23.5t15 46.5t5 66t1 106.5v307v11v60.5t-1.5 45t-3.5 35t-7.5 23t-11 18t-17 10t-23.5 9t-32 5.5v31l303 153v-708q0 -162 12.5 -202t79.5 -60v-27h-391zM373 1075l-277 185q-73 45 -73 104q0 36 20.5 57t56.5 21q33 0 56 -19t55 -65
l182 -262z" />
    <glyph glyph-name="iacute" unicode="&#xed;" horiz-adv-x="491" 
d="M53 0v27q29 9 44.5 19.5t26.5 23.5t15 46.5t5 66t1 106.5v307v11v60.5t-1.5 45t-3.5 35t-7.5 23t-11 18t-17 10t-23.5 9t-32 5.5v31l303 153v-708q0 -162 12.5 -202t79.5 -60v-27h-391zM137 1075l-20 21l182 262q32 46 55 65t56 19q36 0 56.5 -21t20.5 -57
q0 -60 -75 -104z" />
    <glyph glyph-name="icircumflex" unicode="&#xee;" horiz-adv-x="491" 
d="M53 0v27q29 9 44.5 19.5t26.5 23.5t15 46.5t5 66t1 106.5v307v11v60.5t-1.5 45t-3.5 35t-7.5 23t-11 18t-17 10t-23.5 9t-32 5.5v31l303 153v-708q0 -162 12.5 -202t79.5 -60v-27h-391zM-4 1092l250 356l252 -356l-23 -19l-229 166l-228 -166z" />
    <glyph glyph-name="idieresis" unicode="&#xef;" horiz-adv-x="491" 
d="M397 1147q-50 0 -82 33t-32 84q0 47 32.5 78.5t81.5 31.5q48 0 80.5 -31.5t32.5 -78.5q0 -51 -32.5 -84t-80.5 -33zM88 1147q-48 0 -80.5 33t-32.5 84q0 47 32.5 78.5t80.5 31.5q49 0 82 -31.5t33 -78.5q0 -51 -32.5 -84t-82.5 -33zM53 0v27q29 9 44.5 19.5t26.5 23.5
t15 46.5t5 66t1 106.5v307v11v60.5t-1.5 45t-3.5 35t-7.5 23t-11 18t-17 10t-23.5 9t-32 5.5v31l303 153v-708q0 -162 12.5 -202t79.5 -60v-27h-391z" />
    <glyph glyph-name="eth" unicode="&#xf0;" horiz-adv-x="1075" 
d="M1012 592q0 -128 -30 -233.5t-78.5 -174t-111.5 -115.5t-126.5 -67t-126.5 -20q-78 0 -159 32t-153 92t-118 160t-46 221q0 97 30.5 182t80 143.5t112 100.5t127.5 62t126 20q123 0 225 -65q-51 205 -184 373l-250 -119l-17 33l242 114q-131 150 -289 232l21 14
q215 -80 362 -203l236 111l14 -31l-219 -104q118 -102 194.5 -233.5t107 -259.5t30.5 -265zM539 16q118 0 187 113.5t69 357.5q0 246 -69 361t-187 115q-121 0 -189.5 -114.5t-68.5 -361.5q0 -245 68.5 -358t189.5 -113z" />
    <glyph glyph-name="ntilde" unicode="&#xf1;" horiz-adv-x="1101" 
d="M55 0v27q21 7 34 13.5t23 21.5t14.5 27.5t7 46t3 63t0.5 90.5v307v11v60.5t-1.5 45t-3.5 35t-7.5 23t-11 18t-17 10t-23.5 9t-32 5.5v31l305 153v-241l78 71q87 82 159 123t152 41q236 0 236 -258v-444q0 -162 11.5 -202t70.5 -60v-27h-381v27q27 9 41.5 18.5t26 25
t16 45.5t6.5 68t2 105v497q0 134 -109 134q-48 0 -100 -32t-131 -104l-78 -71v-424v-70t1.5 -54t3.5 -43.5t7 -30.5t11 -24t16 -16t21.5 -14t29.5 -10v-27h-381zM481 1323q38 0 107.5 -14.5t99.5 -14.5q56 0 107 90l24 -12q-53 -207 -157 -207q-36 0 -105 13.5t-102 13.5
q-28 0 -52.5 -17.5t-58.5 -70.5l-25 12q37 105 75 156t87 51z" />
    <glyph glyph-name="ograve" unicode="&#xf2;" horiz-adv-x="1075" 
d="M539 -18q-78 0 -159 32t-153 92t-118 160t-46 221q0 97 30.5 182t80 143.5t112 100.5t127.5 62t126 20q60 0 124.5 -20t127 -62t111.5 -100.5t79.5 -143.5t30.5 -182q0 -98 -30.5 -182.5t-79.5 -142.5t-111.5 -99.5t-126.5 -61t-125 -19.5zM539 16q118 0 187 113.5
t69 357.5q0 246 -69 361t-187 115q-121 0 -189.5 -114.5t-68.5 -361.5q0 -245 68.5 -358t189.5 -113zM666 1075l-277 185q-74 45 -74 104q0 36 21 57t57 21q33 0 56 -19t55 -65l182 -262z" />
    <glyph glyph-name="oacute" unicode="&#xf3;" horiz-adv-x="1075" 
d="M539 -18q-78 0 -159 32t-153 92t-118 160t-46 221q0 97 30.5 182t80 143.5t112 100.5t127.5 62t126 20q60 0 124.5 -20t127 -62t111.5 -100.5t79.5 -143.5t30.5 -182q0 -98 -30.5 -182.5t-79.5 -142.5t-111.5 -99.5t-126.5 -61t-125 -19.5zM539 16q118 0 187 113.5
t69 357.5q0 246 -69 361t-187 115q-121 0 -189.5 -114.5t-68.5 -361.5q0 -245 68.5 -358t189.5 -113zM430 1075l-20 21l182 262q32 47 54.5 65.5t55.5 18.5q36 0 57 -21t21 -57q0 -60 -75 -104z" />
    <glyph glyph-name="ocircumflex" unicode="&#xf4;" horiz-adv-x="1075" 
d="M539 -18q-78 0 -159 32t-153 92t-118 160t-46 221q0 97 30.5 182t80 143.5t112 100.5t127.5 62t126 20q60 0 124.5 -20t127 -62t111.5 -100.5t79.5 -143.5t30.5 -182q0 -98 -30.5 -182.5t-79.5 -142.5t-111.5 -99.5t-126.5 -61t-125 -19.5zM539 16q118 0 187 113.5
t69 357.5q0 246 -69 361t-187 115q-121 0 -189.5 -114.5t-68.5 -361.5q0 -245 68.5 -358t189.5 -113zM287 1092l250 356l251 -356l-22 -19l-229 166l-228 -166z" />
    <glyph glyph-name="otilde" unicode="&#xf5;" horiz-adv-x="1075" 
d="M539 -18q-78 0 -159 32t-153 92t-118 160t-46 221q0 97 30.5 182t80 143.5t112 100.5t127.5 62t126 20q60 0 124.5 -20t127 -62t111.5 -100.5t79.5 -143.5t30.5 -182q0 -98 -30.5 -182.5t-79.5 -142.5t-111.5 -99.5t-126.5 -61t-125 -19.5zM539 16q118 0 187 113.5
t69 357.5q0 246 -69 361t-187 115q-121 0 -189.5 -114.5t-68.5 -361.5q0 -245 68.5 -358t189.5 -113zM453 1323q38 0 107 -14.5t99 -14.5q56 0 107 90l25 -12q-53 -207 -158 -207q-37 0 -105 13.5t-102 13.5q-28 0 -52.5 -17.5t-58.5 -70.5l-24 12q37 105 75 156t87 51z" />
    <glyph glyph-name="odieresis" unicode="&#xf6;" horiz-adv-x="1075" 
d="M539 -18q-78 0 -159 32t-153 92t-118 160t-46 221q0 97 30.5 182t80 143.5t112 100.5t127.5 62t126 20q60 0 124.5 -20t127 -62t111.5 -100.5t79.5 -143.5t30.5 -182q0 -98 -30.5 -182.5t-79.5 -142.5t-111.5 -99.5t-126.5 -61t-125 -19.5zM539 16q118 0 187 113.5
t69 357.5q0 246 -69 361t-187 115q-121 0 -189.5 -114.5t-68.5 -361.5q0 -245 68.5 -358t189.5 -113zM717 1147q-50 0 -82.5 33t-32.5 84q0 47 33 78.5t82 31.5q47 0 79.5 -31.5t32.5 -78.5q0 -51 -32 -84t-80 -33zM356 1147q-47 0 -78.5 33t-31.5 84q0 47 31.5 78.5
t78.5 31.5q49 0 82 -31.5t33 -78.5q0 -51 -32.5 -84t-82.5 -33z" />
    <glyph glyph-name="divide" unicode="&#xf7;" horiz-adv-x="989" 
d="M379 1024q0 47 36 83t83 36q49 0 83.5 -35.5t34.5 -83.5t-34.5 -83.5t-83.5 -35.5q-47 0 -83 36t-36 83zM96 698v41h801v-41h-801zM379 412q0 47 36 82.5t83 35.5q49 0 83.5 -35t34.5 -83t-34.5 -83.5t-83.5 -35.5q-47 0 -83 36t-36 83z" />
    <glyph glyph-name="oslash" unicode="&#xf8;" horiz-adv-x="1075" 
d="M739 823l-395 -686q68 -121 195 -121q118 0 187 113.5t69 357.5q0 214 -56 336zM326 178l393 682q-67 103 -180 103q-121 0 -189.5 -114.5t-68.5 -361.5q0 -202 45 -309zM184 -70l84 146q-93 67 -149 170t-56 241q0 97 30.5 182t80 143.5t112 100.5t127.5 62t126 20
q115 0 223 -63l69 123l31 -19l-71 -123q100 -67 160.5 -174t60.5 -252q0 -98 -30.5 -182.5t-79.5 -142.5t-111.5 -99.5t-126.5 -61t-125 -19.5q-123 0 -242 73l-82 -143z" />
    <glyph glyph-name="ugrave" unicode="&#xf9;" horiz-adv-x="1077" 
d="M367 -18q-234 0 -234 251v363v11v60.5t-1.5 45t-3.5 35t-7.5 23t-11 18t-17 10t-23.5 9t-32 5.5v31l303 153v-811q0 -131 106 -131q89 0 238 138l49 45v358v11v60.5t-1.5 45t-3.5 35t-7.5 23t-11 18t-17 10t-23.5 9t-32 5.5v31l303 153v-708q0 -71 1.5 -105.5t5.5 -67
t15.5 -46.5t28 -24t45.5 -19v-27h-303v195l-49 -45q-95 -87 -165 -127.5t-152 -40.5zM688 1075l-276 185q-74 45 -74 104q0 36 21 57t57 21q33 0 55.5 -18.5t54.5 -65.5l183 -262z" />
    <glyph glyph-name="uacute" unicode="&#xfa;" horiz-adv-x="1077" 
d="M367 -18q-234 0 -234 251v363v11v60.5t-1.5 45t-3.5 35t-7.5 23t-11 18t-17 10t-23.5 9t-32 5.5v31l303 153v-811q0 -131 106 -131q89 0 238 138l49 45v358v11v60.5t-1.5 45t-3.5 35t-7.5 23t-11 18t-17 10t-23.5 9t-32 5.5v31l303 153v-708q0 -71 1.5 -105.5t5.5 -67
t15.5 -46.5t28 -24t45.5 -19v-27h-303v195l-49 -45q-95 -87 -165 -127.5t-152 -40.5zM453 1075l-21 21l182 262q32 46 55 65t56 19q36 0 57 -21t21 -57q0 -60 -76 -104z" />
    <glyph glyph-name="ucircumflex" unicode="&#xfb;" horiz-adv-x="1077" 
d="M367 -18q-234 0 -234 251v363v11v60.5t-1.5 45t-3.5 35t-7.5 23t-11 18t-17 10t-23.5 9t-32 5.5v31l303 153v-811q0 -131 106 -131q89 0 238 138l49 45v358v11v60.5t-1.5 45t-3.5 35t-7.5 23t-11 18t-17 10t-23.5 9t-32 5.5v31l303 153v-708q0 -71 1.5 -105.5t5.5 -67
t15.5 -46.5t28 -24t45.5 -19v-27h-303v195l-49 -45q-95 -87 -165 -127.5t-152 -40.5zM311 1092l250 356l252 -356l-22 -19l-230 166l-227 -166z" />
    <glyph glyph-name="udieresis" unicode="&#xfc;" horiz-adv-x="1077" 
d="M367 -18q-234 0 -234 251v363v11v60.5t-1.5 45t-3.5 35t-7.5 23t-11 18t-17 10t-23.5 9t-32 5.5v31l303 153v-811q0 -131 106 -131q89 0 238 138l49 45v358v11v60.5t-1.5 45t-3.5 35t-7.5 23t-11 18t-17 10t-23.5 9t-32 5.5v31l303 153v-708q0 -71 1.5 -105.5t5.5 -67
t15.5 -46.5t28 -24t45.5 -19v-27h-303v195l-49 -45q-95 -87 -165 -127.5t-152 -40.5zM741 1147q-50 0 -82 33t-32 84q0 47 32.5 78.5t81.5 31.5q48 0 80.5 -31.5t32.5 -78.5q0 -51 -32.5 -84t-80.5 -33zM381 1147q-48 0 -79.5 33t-31.5 84q0 47 32 78.5t79 31.5
q49 0 82 -31.5t33 -78.5q0 -51 -32.5 -84t-82.5 -33z" />
    <glyph glyph-name="yacute" unicode="&#xfd;" horiz-adv-x="942" 
d="M207 -338q-57 0 -86 23.5t-29 62.5q0 37 19.5 56.5t54.5 19.5t74 -25.5t61 -25.5q33 0 70 42t84 162l4 11l-314 749q-57 129 -79.5 163t-57.5 46v27h367v-27q-34 -6 -48 -19.5t-9 -58.5t40 -127l201 -508l184 459q32 77 43 127.5t1.5 76t-28 36t-52.5 14.5v27h227v-27
q-34 -8 -61 -52t-91 -202l-290 -723q-66 -166 -136 -236.5t-149 -70.5zM438 1075l-20 21l182 262q32 46 55 65t56 19q36 0 56.5 -21t20.5 -57q0 -60 -75 -104z" />
    <glyph glyph-name="thorn" unicode="&#xfe;" horiz-adv-x="1120" 
d="M55 -328v27q21 7 34 13.5t23 21.5t14.5 27.5t7 46t3 63t0.5 90.5v1253v11q0 136 -12.5 162t-83.5 30v31l305 156v-818l33 37q76 81 145 125.5t158 44.5q69 0 133.5 -29t118.5 -85t86.5 -151t32.5 -216q0 -245 -133.5 -387.5t-341.5 -142.5q-124 0 -232 81v-102v-70
t1.5 -54t3.5 -43.5t7 -30.5t11 -24t16 -16t21.5 -14t29.5 -10v-27h-381zM379 776l-33 -37v-633q109 -88 227 -88q122 0 192.5 111.5t70.5 347.5q0 457 -215 457q-57 0 -113 -40t-129 -118z" />
    <glyph glyph-name="ydieresis" unicode="&#xff;" horiz-adv-x="942" 
d="M207 -338q-57 0 -86 23.5t-29 62.5q0 37 19.5 56.5t54.5 19.5t74 -25.5t61 -25.5q33 0 70 42t84 162l4 11l-314 749q-57 129 -79.5 163t-57.5 46v27h367v-27q-34 -6 -48 -19.5t-9 -58.5t40 -127l201 -508l184 459q32 77 43 127.5t1.5 76t-28 36t-52.5 14.5v27h227v-27
q-34 -8 -61 -52t-91 -202l-290 -723q-66 -166 -136 -236.5t-149 -70.5zM707 1147q-50 0 -82.5 33t-32.5 84q0 47 33 78.5t82 31.5q47 0 79.5 -31.5t32.5 -78.5q0 -51 -32 -84t-80 -33zM346 1147q-47 0 -78.5 33t-31.5 84q0 47 31.5 78.5t78.5 31.5q49 0 82 -31.5t33 -78.5
q0 -51 -32.5 -84t-82.5 -33z" />
    <glyph glyph-name="Amacron" unicode="&#x100;" horiz-adv-x="1441" 
d="M33 0v27q47 16 82 66.5t86 189.5l391 1079l-8 20q-26 68 -52.5 93.5t-66.5 33.5v27h280q23 0 30 -7.5t18 -37.5l464 -1231q52 -132 74 -166q29 -46 78 -63v-31h-399v31q54 10 61 46t-24 109l-107 275h-637l-63 -178q-20 -54 -28 -91t-4 -71.5t28 -57t69 -36.5v-27h-272z
M315 494h613l-316 817zM883 1755v-96h-467v96h467z" />
    <glyph glyph-name="amacron" unicode="&#x101;" horiz-adv-x="946" 
d="M305 -18q-111 0 -178.5 57.5t-67.5 159.5q0 39 9.5 70.5t29.5 55t42 41t58 33.5t65 27t75.5 27.5t77.5 29.5l53 23q67 28 99 64.5t32 95.5v147q0 148 -158 148q-56 0 -86 -25t-55 -72q-23 -43 -47 -63.5t-64 -20.5q-36 0 -58.5 21.5t-22.5 54.5q0 61 94.5 98t230.5 37
q371 0 371 -246v-489q0 -100 6.5 -146t20.5 -60.5t45 -14.5q33 0 61 20l10 -22q-60 -47 -164 -47q-169 0 -182 145l-29 -27q-57 -57 -118.5 -89.5t-149.5 -32.5zM270 233q0 -99 32.5 -143.5t94.5 -44.5q44 0 83 24t93 74l27 25v393q-32 -48 -129 -90l-53 -22
q-80 -33 -114 -81.5t-34 -134.5zM231 1262h441v-93h-441v93z" />
    <glyph glyph-name="Abreve" unicode="&#x102;" horiz-adv-x="1441" 
d="M33 0v27q47 16 82 66.5t86 189.5l391 1079l-8 20q-26 68 -52.5 93.5t-66.5 33.5v27h280q23 0 30 -7.5t18 -37.5l464 -1231q52 -132 74 -166q29 -46 78 -63v-31h-399v31q54 10 61 46t-24 109l-107 275h-637l-63 -178q-20 -54 -28 -91t-4 -71.5t28 -57t69 -36.5v-27h-272z
M315 494h613l-316 817zM651 1767q83 0 126 26t65 77h32q-2 -44 -16 -84.5t-40 -74.5t-69 -54.5t-98 -20.5q-102 0 -161 69.5t-64 166.5h33q20 -51 64.5 -78t127.5 -27z" />
    <glyph glyph-name="abreve" unicode="&#x103;" horiz-adv-x="946" 
d="M305 -18q-111 0 -178.5 57.5t-67.5 159.5q0 39 9.5 70.5t29.5 55t42 41t58 33.5t65 27t75.5 27.5t77.5 29.5l53 23q67 28 99 64.5t32 95.5v147q0 148 -158 148q-56 0 -86 -25t-55 -72q-23 -43 -47 -63.5t-64 -20.5q-36 0 -58.5 21.5t-22.5 54.5q0 61 94.5 98t230.5 37
q371 0 371 -246v-489q0 -100 6.5 -146t20.5 -60.5t45 -14.5q33 0 61 20l10 -22q-60 -47 -164 -47q-169 0 -182 145l-29 -27q-57 -57 -118.5 -89.5t-149.5 -32.5zM270 233q0 -99 32.5 -143.5t94.5 -44.5q44 0 83 24t93 74l27 25v393q-32 -48 -129 -90l-53 -22
q-80 -33 -114 -81.5t-34 -134.5zM453 1227q76 0 116 35t60 96h33q0 -102 -56 -179t-153 -77q-100 0 -155.5 76t-55.5 182h32q35 -133 179 -133z" />
    <glyph glyph-name="Aogonek" unicode="&#x104;" horiz-adv-x="1441" 
d="M33 0v27q47 16 82 66.5t86 189.5l391 1079l-8 20q-26 68 -52.5 93.5t-66.5 33.5v27h280q23 0 30 -7.5t18 -37.5l464 -1231q52 -132 74 -166q29 -46 78 -63v-31h-201q-88 0 -137 -52t-49 -126q0 -44 22.5 -70t63.5 -26q6 0 12.5 1t11.5 2t11 4t9 4t10 5.5t8.5 5.5l9 6
t8.5 6l18 -20l-10 -10q-9 -10 -12.5 -13t-15.5 -12.5t-20.5 -14t-23.5 -12t-29.5 -11t-34.5 -6.5t-42 -3q-80 0 -130 37.5t-50 97.5q0 144 274 221l-172 447h-637l-63 -178q-20 -54 -28 -91t-4 -71.5t28 -57t69 -36.5v-27h-272zM315 494h613l-316 817z" />
    <glyph glyph-name="aogonek" unicode="&#x105;" horiz-adv-x="946" 
d="M305 -18q-111 0 -178.5 57.5t-67.5 159.5q0 39 9.5 70.5t29.5 55t42 41t58 33.5t65 27t75.5 27.5t77.5 29.5l53 23q67 28 99 64.5t32 95.5v147q0 148 -158 148q-56 0 -86 -25t-55 -72q-23 -43 -47 -63.5t-64 -20.5q-36 0 -58.5 21.5t-22.5 54.5q0 61 94.5 98t230.5 37
q371 0 371 -246v-489q0 -100 6.5 -146t20.5 -60.5t45 -14.5q33 0 61 20l10 -22q-21 -16 -49 -27q-56 -24 -97.5 -71t-41.5 -113q0 -44 23.5 -70t64.5 -26q40 0 78 34l18 -20q-59 -82 -186 -82q-76 0 -128 38t-52 97q0 119 210 193h-12q-77 0 -121.5 37.5t-52.5 107.5
l-29 -27q-57 -57 -118.5 -89.5t-149.5 -32.5zM270 233q0 -99 32.5 -143.5t94.5 -44.5q44 0 83 24t93 74l27 25v393q-32 -48 -129 -90l-53 -22q-80 -33 -114 -81.5t-34 -134.5z" />
    <glyph glyph-name="Cacute" unicode="&#x106;" horiz-adv-x="1368" 
d="M801 -27q-150 0 -281 56t-227 157.5t-151.5 252t-55.5 331.5q0 130 29.5 244t81.5 199t120.5 152.5t148 109.5t163 64t166.5 22q74 0 137.5 -12.5t98 -27.5t71.5 -27.5t65 -12.5q53 0 68 55h33v-356h-33q-58 178 -172 263t-268 85q-99 0 -179.5 -41.5t-143.5 -126.5
t-97.5 -227.5t-34.5 -331.5q0 -206 40.5 -358t112.5 -239t161 -128t196 -41q258 0 416 190l24 -22q-28 -39 -67.5 -75.5t-99 -73.5t-143 -59t-179.5 -22zM590 1614l-10 26l280 187q50 37 98 37q34 0 56 -23.5t22 -54.5q0 -85 -114 -107z" />
    <glyph glyph-name="cacute" unicode="&#x107;" horiz-adv-x="921" 
d="M547 -18q-97 0 -185 35.5t-154.5 98.5t-105.5 157.5t-39 205.5q0 118 45 218t116.5 163t157 98t169.5 35q131 0 221 -38.5t90 -108.5q0 -36 -23.5 -57t-64.5 -21q-27 0 -45.5 6.5t-31.5 23.5t-20.5 33.5t-18.5 47.5l-1.5 4.5l-1.5 4.5t-2 5q-12 38 -34.5 54t-65.5 16
q-59 0 -106.5 -23t-85.5 -73t-59 -138t-21 -209q0 -249 85.5 -365t235.5 -116q148 0 254 111l23 -23q-131 -145 -332 -145zM430 1075l-20 21l182 262q32 47 54.5 65.5t55.5 18.5q36 0 57 -21t21 -57q0 -60 -75 -104z" />
    <glyph glyph-name="Ccircumflex" unicode="&#x108;" horiz-adv-x="1368" 
d="M801 -27q-150 0 -281 56t-227 157.5t-151.5 252t-55.5 331.5q0 130 29.5 244t81.5 199t120.5 152.5t148 109.5t163 64t166.5 22q74 0 137.5 -12.5t98 -27.5t71.5 -27.5t65 -12.5q53 0 68 55h33v-356h-33q-58 178 -172 263t-268 85q-99 0 -179.5 -41.5t-143.5 -126.5
t-97.5 -227.5t-34.5 -331.5q0 -206 40.5 -358t112.5 -239t161 -128t196 -41q258 0 416 190l24 -22q-28 -39 -67.5 -75.5t-99 -73.5t-143 -59t-179.5 -22zM510 1634l274 246l277 -246l-10 -24l-267 98l-264 -98z" />
    <glyph glyph-name="ccircumflex" unicode="&#x109;" horiz-adv-x="921" 
d="M547 -18q-97 0 -185 35.5t-154.5 98.5t-105.5 157.5t-39 205.5q0 118 45 218t116.5 163t157 98t169.5 35q131 0 221 -38.5t90 -108.5q0 -36 -23.5 -57t-64.5 -21q-27 0 -45.5 6.5t-31.5 23.5t-20.5 33.5t-18.5 47.5l-1.5 4.5l-1.5 4.5t-2 5q-12 38 -34.5 54t-65.5 16
q-59 0 -106.5 -23t-85.5 -73t-59 -138t-21 -209q0 -249 85.5 -365t235.5 -116q148 0 254 111l23 -23q-131 -145 -332 -145zM289 1092l250 356l252 -356l-23 -19l-229 166l-228 -166z" />
    <glyph glyph-name="Cdotaccent" unicode="&#x10a;" horiz-adv-x="1368" 
d="M801 -27q-150 0 -281 56t-227 157.5t-151.5 252t-55.5 331.5q0 130 29.5 244t81.5 199t120.5 152.5t148 109.5t163 64t166.5 22q74 0 137.5 -12.5t98 -27.5t71.5 -27.5t65 -12.5q53 0 68 55h33v-356h-33q-58 178 -172 263t-268 85q-99 0 -179.5 -41.5t-143.5 -126.5
t-97.5 -227.5t-34.5 -331.5q0 -206 40.5 -358t112.5 -239t161 -128t196 -41q258 0 416 190l24 -22q-28 -39 -67.5 -75.5t-99 -73.5t-143 -59t-179.5 -22zM786 1620q-51 0 -85.5 36t-34.5 87q0 50 34.5 84.5t85.5 34.5t86 -34t35 -83q0 -51 -35 -88t-86 -37z" />
    <glyph glyph-name="cdotaccent" unicode="&#x10b;" horiz-adv-x="921" 
d="M547 -18q-97 0 -185 35.5t-154.5 98.5t-105.5 157.5t-39 205.5q0 118 45 218t116.5 163t157 98t169.5 35q131 0 221 -38.5t90 -108.5q0 -36 -23.5 -57t-64.5 -21q-27 0 -45.5 6.5t-31.5 23.5t-20.5 33.5t-18.5 47.5l-1.5 4.5l-1.5 4.5t-2 5q-12 38 -34.5 54t-65.5 16
q-59 0 -106.5 -23t-85.5 -73t-59 -138t-21 -209q0 -249 85.5 -365t235.5 -116q148 0 254 111l23 -23q-131 -145 -332 -145zM539 1141q-51 0 -86 36t-35 87q0 50 35 84t86 34t85.5 -33.5t34.5 -82.5q0 -51 -34.5 -88t-85.5 -37z" />
    <glyph glyph-name="Ccaron" unicode="&#x10c;" horiz-adv-x="1368" 
d="M801 -27q-150 0 -281 56t-227 157.5t-151.5 252t-55.5 331.5q0 130 29.5 244t81.5 199t120.5 152.5t148 109.5t163 64t166.5 22q74 0 137.5 -12.5t98 -27.5t71.5 -27.5t65 -12.5q53 0 68 55h33v-356h-33q-58 178 -172 263t-268 85q-99 0 -179.5 -41.5t-143.5 -126.5
t-97.5 -227.5t-34.5 -331.5q0 -206 40.5 -358t112.5 -239t161 -128t196 -41q258 0 416 190l24 -22q-28 -39 -67.5 -75.5t-99 -73.5t-143 -59t-179.5 -22zM510 1866l10 24l264 -96l267 96l10 -24l-277 -244z" />
    <glyph glyph-name="ccaron" unicode="&#x10d;" horiz-adv-x="921" 
d="M547 -18q-97 0 -185 35.5t-154.5 98.5t-105.5 157.5t-39 205.5q0 118 45 218t116.5 163t157 98t169.5 35q131 0 221 -38.5t90 -108.5q0 -36 -23.5 -57t-64.5 -21q-27 0 -45.5 6.5t-31.5 23.5t-20.5 33.5t-18.5 47.5l-1.5 4.5l-1.5 4.5t-2 5q-12 38 -34.5 54t-65.5 16
q-59 0 -106.5 -23t-85.5 -73t-59 -138t-21 -209q0 -249 85.5 -365t235.5 -116q148 0 254 111l23 -23q-131 -145 -332 -145zM289 1448l22 18l228 -166l229 166l23 -18l-252 -356z" />
    <glyph glyph-name="Dcaron" unicode="&#x10e;" horiz-adv-x="1476" 
d="M51 0v27q21 7 33.5 12.5t25 17.5t19 23.5t13 38.5t9 53.5t4.5 76.5t2.5 99.5t0.5 130.5v578q0 81 -0.5 130.5t-2.5 99.5t-4.5 76.5t-9 53.5t-13 38.5t-19 23.5t-25 17.5t-33.5 12.5v27h422q212 0 380.5 -47t288.5 -139t184.5 -234.5t64.5 -327.5q0 -367 -237 -577.5
t-681 -210.5h-422zM473 1503h-80v-1472h80q173 0 294 39.5t204.5 128.5t122.5 235t39 357q0 172 -32 298.5t-87 205.5t-141 126t-180.5 64.5t-219.5 17.5zM328 1866l10 24l264 -96l266 96l11 -24l-277 -244z" />
    <glyph glyph-name="dcaron" unicode="&#x10f;" horiz-adv-x="1118" 
d="M455 -18q-73 0 -141 29.5t-123.5 85.5t-89 148.5t-33.5 207.5q0 250 136.5 394t344.5 144q121 0 225 -84v307v63t-2 47t-3.5 35.5t-8 23t-11.5 16.5t-18.5 8.5t-24 6.5t-32.5 3v31l309 154v-1313q0 -71 1.5 -105.5t5.5 -67t15.5 -46.5t28 -24t45.5 -19v-27h-305v172
l-20 -22q-72 -79 -142.5 -123.5t-156.5 -44.5zM285 479q0 -100 13 -177.5t34 -126t51 -80t61.5 -44t67.5 -12.5q101 0 242 158l20 22v645q-111 92 -221 92q-56 0 -103 -26.5t-85 -81.5t-59 -149t-21 -220zM1102 1167l-25 7l17 274q5 70 24 100.5t60 30.5q71 0 71 -76
q0 -37 -26 -88z" />
    <glyph glyph-name="Dcroat" unicode="&#x110;" horiz-adv-x="1476" 
d="M51 0v27q21 7 33.5 12.5t25 17.5t19 23.5t13 38.5t9 53.5t4.5 76.5t2.5 99.5t0.5 130.5v307h-166v33h166v-33h235v-755h80q173 0 294 39.5t204.5 128.5t122.5 235t39 357q0 172 -32 298.5t-87 205.5t-141 126t-180.5 64.5t-219.5 17.5h-80v-684h293v-33h-293v33h-235v238
q0 81 -0.5 130.5t-2.5 99.5t-4.5 76.5t-9 53.5t-13 38.5t-19 23.5t-25 17.5t-33.5 12.5v27h422q212 0 380.5 -47t288.5 -139t184.5 -234.5t64.5 -327.5q0 -367 -237 -577.5t-681 -210.5h-422z" />
    <glyph glyph-name="dcroat" unicode="&#x111;" horiz-adv-x="1118" 
d="M489 1157v33h648v-33h-648zM455 -18q-73 0 -141 29.5t-123.5 85.5t-89 148.5t-33.5 207.5q0 250 136.5 394t344.5 144q121 0 225 -84v307v63t-2 47t-3.5 35.5t-8 23t-11.5 16.5t-18.5 8.5t-24 6.5t-32.5 3v31l309 154v-1313q0 -71 1.5 -105.5t5.5 -67t15.5 -46.5t28 -24
t45.5 -19v-27h-305v172l-20 -22q-72 -79 -142.5 -123.5t-156.5 -44.5zM285 479q0 -100 13 -177.5t34 -126t51 -80t61.5 -44t67.5 -12.5q101 0 242 158l20 22v645q-111 92 -221 92q-56 0 -103 -26.5t-85 -81.5t-59 -149t-21 -220z" />
    <glyph glyph-name="Emacron" unicode="&#x112;" horiz-adv-x="1208" 
d="M51 0v27q21 7 33.5 12.5t25 17.5t19 23.5t13 38.5t9 53.5t4.5 76.5t2.5 99.5t0.5 130.5v578q0 81 -0.5 130.5t-2.5 99.5t-4.5 76.5t-9 53.5t-13 38.5t-19 23.5t-25 17.5t-33.5 12.5v27h975q25 0 34.5 -9.5t16.5 -51.5l39 -215h-37q-53 146 -129.5 194.5t-242.5 48.5h-314
v-626h99q59 0 100 8t64.5 21t38 34t21 42.5t12.5 50.5q0 5 1 7h31v-360h-31q-1 4 -3 13q-17 70 -39 96q-49 55 -195 55h-99v-811h338q98 0 157.5 10t107 40t76 81.5t50.5 138.5h37l-26 -240q-2 -24 -5.5 -36.5t-12 -18.5t-16.5 -7t-28 -1h-1020zM842 1755v-96h-467v96h467z
" />
    <glyph glyph-name="emacron" unicode="&#x113;" horiz-adv-x="962" 
d="M561 -20q-96 0 -183 31t-158.5 91t-114 161.5t-42.5 230.5q0 96 29 179.5t76.5 141t107.5 99.5t122 61.5t120 19.5q102 0 182 -36t135 -116.5t68 -199.5h-618q-6 -58 -6 -133q0 -244 87.5 -359.5t243.5 -115.5q81 0 138.5 21t117.5 63l19 -27q-66 -52 -140 -82t-184 -30z
M518 963q-81 0 -142.5 -66t-84.5 -219h414q-11 157 -58.5 221t-128.5 64zM303 1262h440v-93h-440v93z" />
    <glyph glyph-name="Ebreve" unicode="&#x114;" horiz-adv-x="1208" 
d="M51 0v27q21 7 33.5 12.5t25 17.5t19 23.5t13 38.5t9 53.5t4.5 76.5t2.5 99.5t0.5 130.5v578q0 81 -0.5 130.5t-2.5 99.5t-4.5 76.5t-9 53.5t-13 38.5t-19 23.5t-25 17.5t-33.5 12.5v27h975q25 0 34.5 -9.5t16.5 -51.5l39 -215h-37q-53 146 -129.5 194.5t-242.5 48.5h-314
v-626h99q59 0 100 8t64.5 21t38 34t21 42.5t12.5 50.5q0 5 1 7h31v-360h-31q-1 4 -3 13q-17 70 -39 96q-49 55 -195 55h-99v-811h338q98 0 157.5 10t107 40t76 81.5t50.5 138.5h37l-26 -240q-2 -24 -5.5 -36.5t-12 -18.5t-16.5 -7t-28 -1h-1020zM610 1767q83 0 126 26t65 77
h33q-3 -60 -26 -111t-74.5 -87t-123.5 -36q-102 0 -161 69.5t-64 166.5h33q20 -51 64.5 -78t127.5 -27z" />
    <glyph glyph-name="ebreve" unicode="&#x115;" horiz-adv-x="962" 
d="M561 -20q-96 0 -183 31t-158.5 91t-114 161.5t-42.5 230.5q0 96 29 179.5t76.5 141t107.5 99.5t122 61.5t120 19.5q102 0 182 -36t135 -116.5t68 -199.5h-618q-6 -58 -6 -133q0 -244 87.5 -359.5t243.5 -115.5q81 0 138.5 21t117.5 63l19 -27q-66 -52 -140 -82t-184 -30z
M518 963q-81 0 -142.5 -66t-84.5 -219h414q-11 157 -58.5 221t-128.5 64zM524 1227q76 0 116 35t60 96h33q0 -102 -56 -179t-153 -77q-100 0 -155.5 76t-55.5 182h33q35 -133 178 -133z" />
    <glyph glyph-name="Edotaccent" unicode="&#x116;" horiz-adv-x="1208" 
d="M51 0v27q21 7 33.5 12.5t25 17.5t19 23.5t13 38.5t9 53.5t4.5 76.5t2.5 99.5t0.5 130.5v578q0 81 -0.5 130.5t-2.5 99.5t-4.5 76.5t-9 53.5t-13 38.5t-19 23.5t-25 17.5t-33.5 12.5v27h975q25 0 34.5 -9.5t16.5 -51.5l39 -215h-37q-53 146 -129.5 194.5t-242.5 48.5h-314
v-626h99q59 0 100 8t64.5 21t38 34t21 42.5t12.5 50.5q0 5 1 7h31v-360h-31q-1 4 -3 13q-17 70 -39 96q-49 55 -195 55h-99v-811h338q98 0 157.5 10t107 40t76 81.5t50.5 138.5h37l-26 -240q-2 -24 -5.5 -36.5t-12 -18.5t-16.5 -7t-28 -1h-1020zM608 1620q-51 0 -86 36
t-35 87q0 50 35 84.5t86 34.5t86 -34t35 -83q0 -51 -35 -88t-86 -37z" />
    <glyph glyph-name="edotaccent" unicode="&#x117;" horiz-adv-x="962" 
d="M561 -20q-96 0 -183 31t-158.5 91t-114 161.5t-42.5 230.5q0 96 29 179.5t76.5 141t107.5 99.5t122 61.5t120 19.5q102 0 182 -36t135 -116.5t68 -199.5h-618q-6 -58 -6 -133q0 -244 87.5 -359.5t243.5 -115.5q81 0 138.5 21t117.5 63l19 -27q-66 -52 -140 -82t-184 -30z
M518 963q-81 0 -142.5 -66t-84.5 -219h414q-11 157 -58.5 221t-128.5 64zM522 1141q-51 0 -86 36t-35 87q0 50 35 84t86 34t86 -33.5t35 -82.5q0 -51 -35 -88t-86 -37z" />
    <glyph glyph-name="Eogonek" unicode="&#x118;" horiz-adv-x="1208" 
d="M51 0v27q21 7 33.5 12.5t25 17.5t19 23.5t13 38.5t9 53.5t4.5 76.5t2.5 99.5t0.5 130.5v578q0 81 -0.5 130.5t-2.5 99.5t-4.5 76.5t-9 53.5t-13 38.5t-19 23.5t-25 17.5t-33.5 12.5v27h975q25 0 34.5 -9.5t16.5 -51.5l39 -215h-37q-53 146 -129.5 194.5t-242.5 48.5h-314
v-626h99q59 0 100 8t64.5 21t38 34t21 42.5t12.5 50.5q0 5 1 7h31v-360h-31q-1 4 -3 13q-17 70 -39 96q-49 55 -195 55h-99v-811h338q98 0 157.5 10t107 40t76 81.5t50.5 138.5h37l-26 -240q-2 -24 -5.5 -36.5t-12 -18.5t-16.5 -7t-28 -1h-1020zM823 -342q-76 0 -128 38
t-52 97q0 42 28 80.5t70 63.5t81 40.5t71 22.5h49q-117 -64 -117 -178q0 -43 23.5 -69.5t64.5 -26.5q40 0 78 34l19 -20q-59 -82 -187 -82z" />
    <glyph glyph-name="eogonek" unicode="&#x119;" horiz-adv-x="962" 
d="M782 -240l19 -20q-59 -82 -187 -82q-76 0 -128 38t-52 97q0 116 199 191q-15 -4 -72 -4q-96 0 -183 31t-158.5 91t-114 161.5t-42.5 230.5q0 96 29 179.5t76.5 141t107.5 99.5t122 61.5t120 19.5q102 0 182 -36t135 -116.5t68 -199.5h-618q-6 -58 -6 -133
q0 -244 87.5 -359.5t243.5 -115.5q81 0 138.5 21t117.5 63l19 -27q-58 -43 -101 -63q-168 -86 -168 -207q0 -43 24 -69.5t65 -26.5q39 0 77 34zM518 963q-81 0 -142.5 -66t-84.5 -219h414q-11 157 -58.5 221t-128.5 64z" />
    <glyph glyph-name="Ecaron" unicode="&#x11a;" horiz-adv-x="1208" 
d="M51 0v27q21 7 33.5 12.5t25 17.5t19 23.5t13 38.5t9 53.5t4.5 76.5t2.5 99.5t0.5 130.5v578q0 81 -0.5 130.5t-2.5 99.5t-4.5 76.5t-9 53.5t-13 38.5t-19 23.5t-25 17.5t-33.5 12.5v27h975q25 0 34.5 -9.5t16.5 -51.5l39 -215h-37q-53 146 -129.5 194.5t-242.5 48.5h-314
v-626h99q59 0 100 8t64.5 21t38 34t21 42.5t12.5 50.5q0 5 1 7h31v-360h-31q-1 4 -3 13q-17 70 -39 96q-49 55 -195 55h-99v-811h338q98 0 157.5 10t107 40t76 81.5t50.5 138.5h37l-26 -240q-2 -24 -5.5 -36.5t-12 -18.5t-16.5 -7t-28 -1h-1020zM334 1866l10 24l264 -96
l266 96l11 -24l-277 -244z" />
    <glyph glyph-name="ecaron" unicode="&#x11b;" horiz-adv-x="962" 
d="M561 -20q-96 0 -183 31t-158.5 91t-114 161.5t-42.5 230.5q0 96 29 179.5t76.5 141t107.5 99.5t122 61.5t120 19.5q102 0 182 -36t135 -116.5t68 -199.5h-618q-6 -58 -6 -133q0 -244 87.5 -359.5t243.5 -115.5q81 0 138.5 21t117.5 63l19 -27q-66 -52 -140 -82t-184 -30z
M518 963q-81 0 -142.5 -66t-84.5 -219h414q-11 157 -58.5 221t-128.5 64zM272 1448l23 18l227 -166l230 166l22 -18l-252 -356z" />
    <glyph glyph-name="Gcircumflex" unicode="&#x11c;" horiz-adv-x="1497" 
d="M799 -29q-154 0 -288 61t-229.5 167.5t-150.5 257t-55 323.5q0 154 44.5 284.5t117.5 220t167 153t193 92.5t197 29q76 0 139.5 -12t99 -26t75.5 -26t73 -12q49 0 61 53h33v-354h-33q-47 166 -162.5 255t-285.5 89q-81 0 -149 -22.5t-127.5 -76t-101 -135.5t-65.5 -207
t-24 -284q0 -795 471 -795q163 0 243 80.5t80 265.5v31q0 122 -9.5 180.5t-33 84.5t-73.5 34v29h452v-29q-47 -9 -69 -38t-32.5 -112t-10.5 -256v-61q-95 -104 -245 -174t-302 -70zM522 1634l275 246l276 -246l-10 -24l-266 98l-265 -98z" />
    <glyph glyph-name="gcircumflex" unicode="&#x11d;" horiz-adv-x="958" 
d="M451 -344q-75 0 -145 11t-132.5 33.5t-100.5 64t-38 96.5q0 65 52.5 111t137.5 81q-137 36 -137 150q0 57 30.5 99.5t82.5 82.5l30 23q-74 39 -117 104.5t-42 153.5q0 77 34.5 141t90 104t121.5 62t133 22q101 0 192 -45q51 44 109.5 72.5t99.5 28.5q86 0 86 -76
q0 -31 -18 -49.5t-43 -18.5q-30 0 -71.5 29t-62.5 29q-33 0 -77 -29q76 -43 119.5 -111.5t43.5 -158.5q0 -76 -34.5 -137.5t-90 -99t-121 -57.5t-132.5 -20q-102 0 -187 39l-33 -24q-26 -21 -38.5 -38t-12.5 -38q0 -44 78 -55l367 -46q143 -18 212.5 -72t69.5 -163
q0 -133 -126.5 -216t-329.5 -83zM451 385q83 0 133.5 66t50.5 215q0 152 -50.5 224.5t-133.5 72.5q-85 0 -135 -72.5t-50 -224.5q0 -281 185 -281zM164 -123q0 -90 78 -139t209 -49q169 0 261.5 56t92.5 132q0 60 -47.5 86t-153.5 39l-315 39l-15 2q-58 -27 -84 -65.5
t-26 -100.5zM215 1092l250 356l252 -356l-23 -19l-229 166l-227 -166z" />
    <glyph glyph-name="Gbreve" unicode="&#x11e;" horiz-adv-x="1497" 
d="M799 -29q-154 0 -288 61t-229.5 167.5t-150.5 257t-55 323.5q0 154 44.5 284.5t117.5 220t167 153t193 92.5t197 29q76 0 139.5 -12t99 -26t75.5 -26t73 -12q49 0 61 53h33v-354h-33q-47 166 -162.5 255t-285.5 89q-81 0 -149 -22.5t-127.5 -76t-101 -135.5t-65.5 -207
t-24 -284q0 -795 471 -795q163 0 243 80.5t80 265.5v31q0 122 -9.5 180.5t-33 84.5t-73.5 34v29h452v-29q-47 -9 -69 -38t-32.5 -112t-10.5 -256v-61q-95 -104 -245 -174t-302 -70zM799 1767q83 0 125.5 26t64.5 77h33q-2 -44 -16 -84.5t-40 -74.5t-69 -54.5t-98 -20.5
q-103 0 -162 69.5t-64 166.5h33q20 -51 65 -78t128 -27z" />
    <glyph glyph-name="gbreve" unicode="&#x11f;" horiz-adv-x="958" 
d="M451 -344q-75 0 -145 11t-132.5 33.5t-100.5 64t-38 96.5q0 65 52.5 111t137.5 81q-137 36 -137 150q0 57 30.5 99.5t82.5 82.5l30 23q-74 39 -117 104.5t-42 153.5q0 77 34.5 141t90 104t121.5 62t133 22q101 0 192 -45q51 44 109.5 72.5t99.5 28.5q86 0 86 -76
q0 -31 -18 -49.5t-43 -18.5q-30 0 -71.5 29t-62.5 29q-33 0 -77 -29q76 -43 119.5 -111.5t43.5 -158.5q0 -76 -34.5 -137.5t-90 -99t-121 -57.5t-132.5 -20q-102 0 -187 39l-33 -24q-26 -21 -38.5 -38t-12.5 -38q0 -44 78 -55l367 -46q143 -18 212.5 -72t69.5 -163
q0 -133 -126.5 -216t-329.5 -83zM451 385q83 0 133.5 66t50.5 215q0 152 -50.5 224.5t-133.5 72.5q-85 0 -135 -72.5t-50 -224.5q0 -281 185 -281zM164 -123q0 -90 78 -139t209 -49q169 0 261.5 56t92.5 132q0 60 -47.5 86t-153.5 39l-315 39l-15 2q-58 -27 -84 -65.5
t-26 -100.5zM469 1227q76 0 116 35t60 96h33q0 -102 -56 -179t-153 -77q-100 0 -155.5 76t-55.5 182h33q35 -133 178 -133z" />
    <glyph glyph-name="Gdotaccent" unicode="&#x120;" horiz-adv-x="1497" 
d="M799 -29q-154 0 -288 61t-229.5 167.5t-150.5 257t-55 323.5q0 154 44.5 284.5t117.5 220t167 153t193 92.5t197 29q76 0 139.5 -12t99 -26t75.5 -26t73 -12q49 0 61 53h33v-354h-33q-47 166 -162.5 255t-285.5 89q-81 0 -149 -22.5t-127.5 -76t-101 -135.5t-65.5 -207
t-24 -284q0 -795 471 -795q163 0 243 80.5t80 265.5v31q0 122 -9.5 180.5t-33 84.5t-73.5 34v29h452v-29q-47 -9 -69 -38t-32.5 -112t-10.5 -256v-61q-95 -104 -245 -174t-302 -70zM797 1620q-51 0 -86 36t-35 87q0 50 35 84.5t86 34.5t86 -34t35 -83q0 -51 -35 -88t-86 -37
z" />
    <glyph glyph-name="gdotaccent" unicode="&#x121;" horiz-adv-x="958" 
d="M451 -344q-75 0 -145 11t-132.5 33.5t-100.5 64t-38 96.5q0 65 52.5 111t137.5 81q-137 36 -137 150q0 57 30.5 99.5t82.5 82.5l30 23q-74 39 -117 104.5t-42 153.5q0 77 34.5 141t90 104t121.5 62t133 22q101 0 192 -45q51 44 109.5 72.5t99.5 28.5q86 0 86 -76
q0 -31 -18 -49.5t-43 -18.5q-30 0 -71.5 29t-62.5 29q-33 0 -77 -29q76 -43 119.5 -111.5t43.5 -158.5q0 -76 -34.5 -137.5t-90 -99t-121 -57.5t-132.5 -20q-102 0 -187 39l-33 -24q-26 -21 -38.5 -38t-12.5 -38q0 -44 78 -55l367 -46q143 -18 212.5 -72t69.5 -163
q0 -133 -126.5 -216t-329.5 -83zM451 385q83 0 133.5 66t50.5 215q0 152 -50.5 224.5t-133.5 72.5q-85 0 -135 -72.5t-50 -224.5q0 -281 185 -281zM164 -123q0 -90 78 -139t209 -49q169 0 261.5 56t92.5 132q0 60 -47.5 86t-153.5 39l-315 39l-15 2q-58 -27 -84 -65.5
t-26 -100.5zM467 1141q-51 0 -86 36t-35 87q0 50 35 84t86 34t86 -33.5t35 -82.5q0 -51 -35 -88t-86 -37z" />
    <glyph glyph-name="uni0122" unicode="&#x122;" horiz-adv-x="1497" 
d="M799 -29q-154 0 -288 61t-229.5 167.5t-150.5 257t-55 323.5q0 154 44.5 284.5t117.5 220t167 153t193 92.5t197 29q76 0 139.5 -12t99 -26t75.5 -26t73 -12q49 0 61 53h33v-354h-33q-47 166 -162.5 255t-285.5 89q-81 0 -149 -22.5t-127.5 -76t-101 -135.5t-65.5 -207
t-24 -284q0 -795 471 -795q163 0 243 80.5t80 265.5v31q0 122 -9.5 180.5t-33 84.5t-73.5 34v29h452v-29q-47 -9 -69 -38t-32.5 -112t-10.5 -256v-61q-95 -104 -245 -174t-302 -70zM829 -250q-15 -35 -65 -35q-40 0 -67 26t-27 69q0 45 31.5 72.5t74.5 27.5q52 0 89.5 -35.5
t37.5 -103.5q0 -160 -182 -197l-10 25q69 17 100 50t31 70q0 28 -13 31z" />
    <glyph glyph-name="uni0123" unicode="&#x123;" horiz-adv-x="958" 
d="M451 -344q-75 0 -145 11t-132.5 33.5t-100.5 64t-38 96.5q0 65 52.5 111t137.5 81q-137 36 -137 150q0 57 30.5 99.5t82.5 82.5l30 23q-74 39 -117 104.5t-42 153.5q0 77 34.5 141t90 104t121.5 62t133 22q101 0 192 -45q51 44 109.5 72.5t99.5 28.5q86 0 86 -76
q0 -31 -18 -49.5t-43 -18.5q-30 0 -71.5 29t-62.5 29q-33 0 -77 -29q76 -43 119.5 -111.5t43.5 -158.5q0 -76 -34.5 -137.5t-90 -99t-121 -57.5t-132.5 -20q-102 0 -187 39l-33 -24q-26 -21 -38.5 -38t-12.5 -38q0 -44 78 -55l367 -46q143 -18 212.5 -72t69.5 -163
q0 -133 -126.5 -216t-329.5 -83zM451 385q83 0 133.5 66t50.5 215q0 152 -50.5 224.5t-133.5 72.5q-85 0 -135 -72.5t-50 -224.5q0 -281 185 -281zM164 -123q0 -90 78 -139t209 -49q169 0 261.5 56t92.5 132q0 60 -47.5 86t-153.5 39l-315 39l-15 2q-58 -27 -84 -65.5
t-26 -100.5zM408 1282q16 37 67 37q39 0 65.5 -26t26.5 -68q0 -46 -31 -73.5t-75 -27.5q-52 0 -89.5 36t-37.5 104q0 156 182 194l12 -22q-69 -19 -101 -52.5t-32 -70.5q0 -21 13 -31z" />
    <glyph glyph-name="Hcircumflex" unicode="&#x124;" horiz-adv-x="1484" 
d="M51 0v27q21 6 33.5 11t25 17t19.5 23.5t13 38.5t8.5 53.5t4.5 76.5t2.5 100t0.5 132v578q0 82 -0.5 132t-2.5 100t-4.5 76.5t-8.5 53.5t-13 38.5t-19.5 23.5t-25 17t-33.5 11v27h445v-27q-21 -6 -33.5 -11t-25 -17t-19.5 -23.5t-13 -38.5t-8.5 -53.5t-4.5 -76.5
t-2.5 -100t-0.5 -132v-199h707v199q0 82 -0.5 132t-2.5 100t-4.5 76.5t-8.5 53.5t-13 38.5t-19.5 23.5t-25 17t-33.5 11v27h445v-27q-21 -6 -33.5 -11t-25 -17t-19.5 -23.5t-13 -38.5t-8.5 -53.5t-4.5 -76.5t-2.5 -100t-0.5 -132v-578q0 -82 0.5 -132t2.5 -100t4.5 -76.5
t8.5 -53.5t13 -38.5t19.5 -23.5t25 -17t33.5 -11v-27h-445v27q21 6 33.5 11t25 17t19.5 23.5t13 38.5t8.5 53.5t4.5 76.5t2.5 100t0.5 132v346h-707v-346q0 -82 0.5 -132t2.5 -100t4.5 -76.5t8.5 -53.5t13 -38.5t19.5 -23.5t25 -17t33.5 -11v-27h-445zM467 1634l274 246
l277 -246l-10 -24l-267 98l-264 -98z" />
    <glyph glyph-name="hcircumflex" unicode="&#x125;" horiz-adv-x="1101" 
d="M55 0v27q21 7 34 13.5t23 21.5t14.5 27.5t7 46t3 63t0.5 90.5v925v11v60t-2 44t-3 33.5t-7 21t-11 16t-18 8t-23.5 6.5l-31.5 3v31l305 154v-846l78 71q87 82 159 123t152 41q236 0 236 -258v-444q0 -162 11.5 -202t70.5 -60v-27h-381v27q27 9 41.5 18.5t26 25t16 45.5
t6.5 68t2 105v497q0 134 -109 134q-48 0 -100 -32t-131 -104l-78 -71v-424v-70t1.5 -54t3.5 -43.5t7 -30.5t11 -24t16 -16t21.5 -14t29.5 -10v-27h-381zM305 1692l275 245l276 -245l-10 -25l-266 98l-265 -98z" />
    <glyph glyph-name="Hbar" unicode="&#x126;" horiz-adv-x="1484" 
d="M-16 1157v33h1515v-33h-1515zM51 0v27q21 6 33.5 11t25 17t19.5 23.5t13 38.5t8.5 53.5t4.5 76.5t2.5 100t0.5 132v578q0 82 -0.5 132t-2.5 100t-4.5 76.5t-8.5 53.5t-13 38.5t-19.5 23.5t-25 17t-33.5 11v27h445v-27q-21 -6 -33.5 -11t-25 -17t-19.5 -23.5t-13 -38.5
t-8.5 -53.5t-4.5 -76.5t-2.5 -100t-0.5 -132v-199h707v199q0 82 -0.5 132t-2.5 100t-4.5 76.5t-8.5 53.5t-13 38.5t-19.5 23.5t-25 17t-33.5 11v27h445v-27q-21 -6 -33.5 -11t-25 -17t-19.5 -23.5t-13 -38.5t-8.5 -53.5t-4.5 -76.5t-2.5 -100t-0.5 -132v-578q0 -82 0.5 -132
t2.5 -100t4.5 -76.5t8.5 -53.5t13 -38.5t19.5 -23.5t25 -17t33.5 -11v-27h-445v27q21 6 33.5 11t25 17t19.5 23.5t13 38.5t8.5 53.5t4.5 76.5t2.5 100t0.5 132v346h-707v-346q0 -82 0.5 -132t2.5 -100t4.5 -76.5t8.5 -53.5t13 -38.5t19.5 -23.5t25 -17t33.5 -11v-27h-445z
" />
    <glyph glyph-name="hbar" unicode="&#x127;" horiz-adv-x="1101" 
d="M631 1157h-649v33h649v-33zM55 0v27q21 7 34 13.5t23 21.5t14.5 27.5t7 46t3 63t0.5 90.5v925v11v60t-2 44t-3 33.5t-7 21t-11 16t-18 8t-23.5 6.5l-31.5 3v31l305 154v-846l78 71q87 82 159 123t152 41q236 0 236 -258v-444q0 -162 11.5 -202t70.5 -60v-27h-381v27
q27 9 41.5 18.5t26 25t16 45.5t6.5 68t2 105v497q0 134 -109 134q-48 0 -100 -32t-131 -104l-78 -71v-424v-70t1.5 -54t3.5 -43.5t7 -30.5t11 -24t16 -16t21.5 -14t29.5 -10v-27h-381z" />
    <glyph glyph-name="Itilde" unicode="&#x128;" horiz-adv-x="546" 
d="M51 0v27q21 7 33.5 12.5t25 17.5t19 23.5t13 38.5t9 53.5t4.5 76.5t2.5 99.5t0.5 130.5v578q0 82 -0.5 132t-2.5 100t-4.5 76.5t-8.5 53.5t-13 38.5t-19.5 23.5t-25 17t-33.5 11v27h445v-27q-21 -6 -33.5 -11t-25 -17t-19.5 -23.5t-13 -38.5t-8.5 -53.5t-4.5 -76.5
t-2.5 -100t-0.5 -132v-578q0 -81 0.5 -130.5t2.5 -99.5t4.5 -76.5t9 -53.5t13 -38.5t19 -23.5t25 -17.5t33.5 -12.5v-27h-445zM188 1815q38 0 117.5 -8.5t104.5 -8.5q63 0 116 88l25 -8q-23 -100 -65.5 -154.5t-96.5 -54.5q-37 0 -115 8.5t-108 8.5q-60 0 -115 -87l-24 9
q58 207 161 207z" />
    <glyph glyph-name="itilde" unicode="&#x129;" horiz-adv-x="491" 
d="M53 0v27q29 9 44.5 19.5t26.5 23.5t15 46.5t5 66t1 106.5v307v11v60.5t-1.5 45t-3.5 35t-7.5 23t-11 18t-17 10t-23.5 9t-32 5.5v31l303 153v-708q0 -162 12.5 -202t79.5 -60v-27h-391zM160 1323q38 0 107.5 -14.5t99.5 -14.5q55 0 106 90l25 -12q-53 -207 -158 -207
q-36 0 -105 13.5t-102 13.5q-28 0 -52 -17.5t-58 -70.5l-25 12q37 105 75 156t87 51z" />
    <glyph glyph-name="Imacron" unicode="&#x12a;" horiz-adv-x="546" 
d="M51 0v27q21 7 33.5 12.5t25 17.5t19 23.5t13 38.5t9 53.5t4.5 76.5t2.5 99.5t0.5 130.5v578q0 82 -0.5 132t-2.5 100t-4.5 76.5t-8.5 53.5t-13 38.5t-19.5 23.5t-25 17t-33.5 11v27h445v-27q-21 -6 -33.5 -11t-25 -17t-19.5 -23.5t-13 -38.5t-8.5 -53.5t-4.5 -76.5
t-2.5 -100t-0.5 -132v-578q0 -81 0.5 -130.5t2.5 -99.5t4.5 -76.5t9 -53.5t13 -38.5t19 -23.5t25 -17.5t33.5 -12.5v-27h-445zM506 1755v-96h-467v96h467z" />
    <glyph glyph-name="imacron" unicode="&#x12b;" horiz-adv-x="491" 
d="M53 0v27q29 9 44.5 19.5t26.5 23.5t15 46.5t5 66t1 106.5v307v11v60.5t-1.5 45t-3.5 35t-7.5 23t-11 18t-17 10t-23.5 9t-32 5.5v31l303 153v-708q0 -162 12.5 -202t79.5 -60v-27h-391zM27 1262h440v-93h-440v93z" />
    <glyph glyph-name="Ibreve" unicode="&#x12c;" horiz-adv-x="546" 
d="M51 0v27q21 7 33.5 12.5t25 17.5t19 23.5t13 38.5t9 53.5t4.5 76.5t2.5 99.5t0.5 130.5v578q0 82 -0.5 132t-2.5 100t-4.5 76.5t-8.5 53.5t-13 38.5t-19.5 23.5t-25 17t-33.5 11v27h445v-27q-21 -6 -33.5 -11t-25 -17t-19.5 -23.5t-13 -38.5t-8.5 -53.5t-4.5 -76.5
t-2.5 -100t-0.5 -132v-578q0 -81 0.5 -130.5t2.5 -99.5t4.5 -76.5t9 -53.5t13 -38.5t19 -23.5t25 -17.5t33.5 -12.5v-27h-445zM274 1767q83 0 126 26t65 77h33q-3 -60 -26 -111t-74.5 -87t-123.5 -36q-102 0 -161 69.5t-64 166.5h33q20 -51 64.5 -78t127.5 -27z" />
    <glyph glyph-name="ibreve" unicode="&#x12d;" horiz-adv-x="491" 
d="M53 0v27q29 9 44.5 19.5t26.5 23.5t15 46.5t5 66t1 106.5v307v11v60.5t-1.5 45t-3.5 35t-7.5 23t-11 18t-17 10t-23.5 9t-32 5.5v31l303 153v-708q0 -162 12.5 -202t79.5 -60v-27h-391zM248 1227q76 0 116 35t60 96h33q0 -102 -56 -179t-153 -77q-100 0 -155.5 76
t-55.5 182h33q35 -133 178 -133z" />
    <glyph glyph-name="Iogonek" unicode="&#x12e;" horiz-adv-x="546" 
d="M51 0v27q21 7 33.5 12.5t25 17.5t19 23.5t13 38.5t9 53.5t4.5 76.5t2.5 99.5t0.5 130.5v578q0 82 -0.5 132t-2.5 100t-4.5 76.5t-8.5 53.5t-13 38.5t-19.5 23.5t-25 17t-33.5 11v27h445v-27q-21 -6 -33.5 -11t-25 -17t-19.5 -23.5t-13 -38.5t-8.5 -53.5t-4.5 -76.5
t-2.5 -100t-0.5 -132v-578q0 -81 0.5 -130.5t2.5 -99.5t4.5 -76.5t9 -53.5t13 -38.5t19 -23.5t25 -17.5t33.5 -12.5v-27h-445zM281 -342q-76 0 -128.5 38t-52.5 97q0 42 28 80.5t70 63.5t81 40.5t71 22.5h49q-116 -63 -116 -178q0 -43 23.5 -69.5t64.5 -26.5q40 0 78 34
l18 -20q-59 -82 -186 -82z" />
    <glyph glyph-name="iogonek" unicode="&#x12f;" horiz-adv-x="495" 
d="M246 1141q-51 0 -86 36t-35 87q0 50 35 84t86 34t86 -33.5t35 -82.5q0 -51 -35 -88t-86 -37zM53 0v27q29 9 44.5 19.5t26.5 23.5t15 46.5t5 66t1 106.5v307v11v60.5t-1.5 45t-3.5 35t-7.5 23t-11 18t-17 10t-23.5 9t-32 5.5v31l303 153v-708q0 -162 12.5 -202t79.5 -60
v-27h-391zM250 -342q-76 0 -128 38t-52 97q0 34 19 66t47 54.5t63.5 41.5t65 29.5t54.5 15.5h50q-117 -64 -117 -178q0 -43 23.5 -69.5t64.5 -26.5q40 0 78 34l18 -20q-59 -82 -186 -82z" />
    <glyph glyph-name="Idotaccent" unicode="&#x130;" horiz-adv-x="546" 
d="M51 0v27q21 7 33.5 12.5t25 17.5t19 23.5t13 38.5t9 53.5t4.5 76.5t2.5 99.5t0.5 130.5v578q0 82 -0.5 132t-2.5 100t-4.5 76.5t-8.5 53.5t-13 38.5t-19.5 23.5t-25 17t-33.5 11v27h445v-27q-21 -6 -33.5 -11t-25 -17t-19.5 -23.5t-13 -38.5t-8.5 -53.5t-4.5 -76.5
t-2.5 -100t-0.5 -132v-578q0 -81 0.5 -130.5t2.5 -99.5t4.5 -76.5t9 -53.5t13 -38.5t19 -23.5t25 -17.5t33.5 -12.5v-27h-445zM272 1620q-51 0 -85.5 36t-34.5 87q0 50 34.5 84.5t85.5 34.5t86 -34t35 -83q0 -51 -35 -88t-86 -37z" />
    <glyph glyph-name="dotlessi" unicode="&#x131;" horiz-adv-x="495" 
d="M53 0v27q29 9 44.5 19.5t26.5 23.5t15 46.5t5 66t1 106.5v307v11v60.5t-1.5 45t-3.5 35t-7.5 23t-11 18t-17 10t-23.5 9t-32 5.5v31l303 153v-708q0 -162 12.5 -202t79.5 -60v-27h-391z" />
    <glyph glyph-name="IJ" unicode="&#x132;" horiz-adv-x="1435" 
d="M51 0v27q21 7 33.5 12.5t25 17.5t19 23.5t13 38.5t9 53.5t4.5 76.5t2.5 99.5t0.5 130.5v578q0 82 -0.5 132t-2.5 100t-4.5 76.5t-8.5 53.5t-13 38.5t-19.5 23.5t-25 17t-33.5 11v27h445v-27q-21 -6 -33.5 -11t-25 -17t-19.5 -23.5t-13 -38.5t-8.5 -53.5t-4.5 -76.5
t-2.5 -100t-0.5 -132v-578q0 -81 0.5 -130.5t2.5 -99.5t4.5 -76.5t9 -53.5t13 -38.5t19 -23.5t25 -17.5t33.5 -12.5v-27h-445zM918 -20q-154 0 -252.5 53t-98.5 143q0 45 29.5 70.5t73.5 25.5q46 0 73.5 -24t47.5 -88q23 -85 46.5 -115.5t88.5 -30.5q58 0 91.5 34.5
t33.5 103.5v905q0 110 -0.5 170t-5 116t-10 79t-19.5 44t-29 28t-43 15v27h445v-27q-28 -8 -43 -15t-29 -28t-19.5 -44t-10 -79t-5 -116t-0.5 -170v-719q0 -158 -102 -258t-262 -100z" />
    <glyph glyph-name="ij" unicode="&#x133;" horiz-adv-x="960" 
d="M246 1141q-51 0 -86 36t-35 87q0 50 35 84t86 34t86 -33.5t35 -82.5q0 -51 -35 -88t-86 -37zM53 0v27q29 9 44.5 19.5t26.5 23.5t15 46.5t5 66t1 106.5v307v11v60.5t-1.5 45t-3.5 35t-7.5 23t-11 18t-17 10t-23.5 9t-32 5.5v31l303 153v-708q0 -162 12.5 -202t79.5 -60
v-27h-391zM717 1141q-51 0 -86 36t-35 87q0 50 35 84t86 34t86 -33.5t35 -82.5q0 -51 -35 -88t-86 -37zM430 -313q-39 0 -66.5 22.5t-27.5 61.5t22 58t54 19q29 0 56.5 -21t49.5 -42t37 -21q14 0 23 9q19 13 27.5 53.5t8.5 144.5v619v12q0 133 -9 162q-10 31 -46 41
q-14 4 -41 8v31l305 153v-864q0 -238 -192 -369q-64 -45 -108.5 -61t-92.5 -16z" />
    <glyph glyph-name="Jcircumflex" unicode="&#x134;" horiz-adv-x="888" 
d="M371 -20q-154 0 -252.5 53t-98.5 143q0 45 29.5 70.5t73.5 25.5q46 0 73.5 -24t47.5 -88q23 -85 46.5 -115.5t88.5 -30.5q58 0 91.5 34.5t33.5 103.5v905q0 110 -0.5 170t-5 116t-10 79t-19.5 44t-29 28t-43 15v27h445v-27q-28 -8 -43 -15t-29 -28t-19.5 -44t-10 -79
t-5 -116t-0.5 -170v-719q0 -158 -102 -258t-262 -100zM346 1634l275 246l276 -246l-10 -24l-266 98l-265 -98z" />
    <glyph glyph-name="jcircumflex" unicode="&#x135;" horiz-adv-x="485" 
d="M-45 -313q-39 0 -66.5 22.5t-27.5 61.5t22 58t54 19q29 0 56.5 -21t49.5 -42t37 -21q13 0 22 9q19 13 28 54t9 144v619v12q0 133 -9 162q-10 31 -46 41q-14 4 -41 8v31l305 153v-864q0 -238 -192 -369q-64 -45 -108.5 -61t-92.5 -16zM-6 1092l250 356l252 -356l-23 -19
l-229 166l-228 -166z" />
    <glyph glyph-name="uni0136" unicode="&#x136;" horiz-adv-x="1329" 
d="M883 0v27q24 5 36.5 13.5t16 19.5t-3 28.5t-17.5 35.5t-30 46l-488 678l578 489q61 54 79.5 90.5t1.5 55t-63 26.5v27h279v-27q-44 -7 -96 -44t-160 -132l-430 -364l575 -807q54 -73 81 -98t65 -37v-27h-424zM51 0v27q21 6 33.5 11t25 17t19.5 23.5t13 38.5t8.5 53.5
t4.5 76.5t2.5 100t0.5 132v578q0 82 -0.5 132t-2.5 100t-4.5 76.5t-8.5 53.5t-13 38.5t-19.5 23.5t-25 17t-33.5 11v27h445v-27q-21 -6 -33.5 -11t-25 -17t-19.5 -23.5t-13 -38.5t-8.5 -53.5t-4.5 -76.5t-2.5 -100t-0.5 -132v-578q0 -82 0.5 -132t2.5 -100t4.5 -76.5
t8.5 -53.5t13 -38.5t19.5 -23.5t25 -17t33.5 -11v-27h-445zM700 -250q-15 -35 -65 -35q-40 0 -67 26t-27 69q0 45 31.5 72.5t74.5 27.5q52 0 89.5 -35.5t37.5 -103.5q0 -160 -182 -197l-10 25q69 17 100 50t31 70q0 28 -13 31z" />
    <glyph glyph-name="uni0137" unicode="&#x137;" horiz-adv-x="1011" 
d="M55 0v27q21 7 34 13.5t23 21.5t14.5 27.5t7 46t3 63t0.5 90.5v925v11v60t-2 44t-3 33.5t-7 21t-11 16t-18 8t-23.5 6.5l-31.5 3v31l305 154v-1313v-70t1.5 -54t3.5 -43.5t7 -30.5t11 -24t16 -16t21.5 -14t29.5 -10v-27h-381zM627 0v27q87 9 22 96l-276 387v25l334 282
q44 37 53.5 65.5t-8 43.5t-52.5 20v27h258v-27q-40 -12 -84 -42t-143 -111l-203 -170l367 -504q40 -54 59 -70.5t43 -21.5v-27h-370zM573 -250q-15 -35 -65 -35q-40 0 -67 26t-27 69q0 45 31.5 72.5t74.5 27.5q52 0 89.5 -35.5t37.5 -103.5q0 -160 -182 -197l-10 25
q69 17 100 50t31 70q0 28 -13 31z" />
    <glyph glyph-name="Lacute" unicode="&#x139;" horiz-adv-x="1148" 
d="M51 0v27q21 6 33.5 11t25 17t19.5 23.5t13 38.5t8.5 53.5t4.5 76.5t2.5 100t0.5 132v578q0 82 -0.5 132t-2.5 100t-4.5 76.5t-8.5 53.5t-13 38.5t-19.5 23.5t-25 17t-33.5 11v27h459v-27q-23 -6 -36.5 -10.5t-27.5 -16.5t-21 -23.5t-14 -38.5t-10 -54t-5 -77t-2.5 -100.5
t-0.5 -131.5v-1024h285q101 0 161 10t109.5 42.5t80.5 88.5t63 154h36l-47 -265q-9 -45 -18 -54t-43 -9h-969zM84 1614l-10 26l280 187q50 37 99 37q34 0 55.5 -23.5t21.5 -54.5q0 -85 -114 -107z" />
    <glyph glyph-name="lacute" unicode="&#x13a;" horiz-adv-x="501" 
d="M55 0v27q23 7 37.5 14t25.5 21.5t16 28t8.5 46t4 63t0.5 89.5v925v63.5t-2 46t-3 36t-8 23t-12 16.5t-18.5 8t-24.5 7t-34 3v31l309 154v-1313q0 -52 0.5 -79t2 -58t6 -45t11 -30t18 -23t25.5 -14t36 -13v-27h-398zM51 1614l-10 26l281 187q50 37 98 37q34 0 56 -23.5
t22 -54.5q0 -85 -115 -107z" />
    <glyph glyph-name="uni013B" unicode="&#x13b;" horiz-adv-x="1148" 
d="M51 0v27q21 6 33.5 11t25 17t19.5 23.5t13 38.5t8.5 53.5t4.5 76.5t2.5 100t0.5 132v578q0 82 -0.5 132t-2.5 100t-4.5 76.5t-8.5 53.5t-13 38.5t-19.5 23.5t-25 17t-33.5 11v27h459v-27q-23 -6 -36.5 -10.5t-27.5 -16.5t-21 -23.5t-14 -38.5t-10 -54t-5 -77t-2.5 -100.5
t-0.5 -131.5v-1024h285q101 0 161 10t109.5 42.5t80.5 88.5t63 154h36l-47 -265q-9 -45 -18 -54t-43 -9h-969zM641 -250q-15 -35 -66 -35q-40 0 -67 26t-27 69q0 45 31.5 72.5t75.5 27.5q52 0 89.5 -35.5t37.5 -103.5q0 -160 -183 -197l-10 25q69 17 100 50t31 70
q0 28 -12 31z" />
    <glyph glyph-name="uni013C" unicode="&#x13c;" horiz-adv-x="501" 
d="M55 0v27q23 7 37.5 14t25.5 21.5t16 28t8.5 46t4 63t0.5 89.5v925v63.5t-2 46t-3 36t-8 23t-12 16.5t-18.5 8t-24.5 7t-34 3v31l309 154v-1313q0 -52 0.5 -79t2 -58t6 -45t11 -30t18 -23t25.5 -14t36 -13v-27h-398zM293 -250q-15 -35 -66 -35q-40 0 -67 26t-27 69
q0 45 31.5 72.5t75.5 27.5q52 0 89.5 -35.5t37.5 -103.5q0 -160 -183 -197l-10 25q69 17 100 50t31 70q0 28 -12 31z" />
    <glyph glyph-name="Lcaron" unicode="&#x13d;" horiz-adv-x="1148" 
d="M51 0v27q21 6 33.5 11t25 17t19.5 23.5t13 38.5t8.5 53.5t4.5 76.5t2.5 100t0.5 132v578q0 82 -0.5 132t-2.5 100t-4.5 76.5t-8.5 53.5t-13 38.5t-19.5 23.5t-25 17t-33.5 11v27h459v-27q-23 -6 -36.5 -10.5t-27.5 -16.5t-21 -23.5t-14 -38.5t-10 -54t-5 -77t-2.5 -100.5
t-0.5 -131.5v-1024h285q101 0 161 10t109.5 42.5t80.5 88.5t63 154h36l-47 -265q-9 -45 -18 -54t-43 -9h-969zM610 1147l-24 6l16 274q5 70 24 101t60 31q72 0 72 -76q0 -35 -27 -88z" />
    <glyph glyph-name="lcaron" unicode="&#x13e;" horiz-adv-x="501" 
d="M55 0v27q23 7 37.5 14t25.5 21.5t16 28t8.5 46t4 63t0.5 89.5v925v63.5t-2 46t-3 36t-8 23t-12 16.5t-18.5 8t-24.5 7t-34 3v31l309 154v-1313q0 -52 0.5 -79t2 -58t6 -45t11 -30t18 -23t25.5 -14t36 -13v-27h-398zM481 1167l-24 7l16 274q5 70 24 100.5t60 30.5
q72 0 72 -76q0 -35 -27 -88z" />
    <glyph glyph-name="Ldot" unicode="&#x13f;" horiz-adv-x="1148" 
d="M852 668q-58 0 -95.5 36t-37.5 95q0 57 38 95t95 38t94 -38t37 -95q0 -59 -36.5 -95t-94.5 -36zM51 0v27q21 6 33.5 11t25 17t19.5 23.5t13 38.5t8.5 53.5t4.5 76.5t2.5 100t0.5 132v578q0 82 -0.5 132t-2.5 100t-4.5 76.5t-8.5 53.5t-13 38.5t-19.5 23.5t-25 17
t-33.5 11v27h459v-27q-23 -6 -36.5 -10.5t-27.5 -16.5t-21 -23.5t-14 -38.5t-10 -54t-5 -77t-2.5 -100.5t-0.5 -131.5v-1024h285q101 0 161 10t109.5 42.5t80.5 88.5t63 154h36l-47 -265q-9 -45 -18 -54t-43 -9h-969z" />
    <glyph glyph-name="ldot" unicode="&#x140;" horiz-adv-x="624" 
d="M561 618q-57 0 -95 36.5t-38 95.5q0 57 38.5 95t94.5 38q57 0 94 -38t37 -95q0 -59 -36.5 -95.5t-94.5 -36.5zM55 0v27q23 7 37.5 14t25.5 21.5t16 28t8.5 46t4 63t0.5 89.5v925v63.5t-2 46t-3 36t-8 23t-12 16.5t-18.5 8t-24.5 7t-34 3v31l309 154v-1313q0 -52 0.5 -79
t2 -58t6 -45t11 -30t18 -23t25.5 -14t36 -13v-27h-398z" />
    <glyph glyph-name="Lslash" unicode="&#x141;" horiz-adv-x="1101" 
d="M774 946l-786 -432l-17 29l787 432zM51 0v27q21 6 33.5 11t25 17t19.5 23.5t13 38.5t8.5 53.5t4.5 76.5t2.5 100t0.5 132v578q0 82 -0.5 132t-2.5 100t-4.5 76.5t-8.5 53.5t-13 38.5t-19.5 23.5t-25 17t-33.5 11v27h459v-27q-23 -6 -36.5 -10.5t-27.5 -16.5t-21 -23.5
t-14 -38.5t-10 -54t-5 -77t-2.5 -100.5t-0.5 -131.5v-1024h285q101 0 161 10t109.5 42.5t80.5 88.5t63 154h36l-47 -265q-9 -45 -18 -54t-43 -9h-969z" />
    <glyph glyph-name="lslash" unicode="&#x142;" horiz-adv-x="501" 
d="M530 975l-534 -354l-21 28l537 355zM55 0v27q23 7 37.5 14t25.5 21.5t16 28t8.5 46t4 63t0.5 89.5v925v63.5t-2 46t-3 36t-8 23t-12 16.5t-18.5 8t-24.5 7t-34 3v31l309 154v-1313q0 -52 0.5 -79t2 -58t6 -45t11 -30t18 -23t25.5 -14t36 -13v-27h-398z" />
    <glyph glyph-name="Nacute" unicode="&#x143;" horiz-adv-x="1386" 
d="M51 0v27q28 14 43 24.5t29 34.5t19.5 49t10 82t5 116.5t0.5 168.5v555q0 81 -0.5 130.5t-2.5 99.5t-4.5 76.5t-9 53.5t-13 38.5t-19 23.5t-25 17.5t-33.5 12.5v27h332q38 0 52.5 -11t47.5 -61l711 -1093v665q0 84 -0.5 131.5t-3 100t-5.5 78t-10.5 54.5t-16 41.5
t-25 27.5t-33 22.5t-43.5 17.5v27h282v-27q-21 -10 -33.5 -17.5t-25 -22.5t-19 -27.5t-13 -41t-8.5 -55t-4 -78t-2.5 -100.5t-0.5 -131v-1042h-66l-970 1489v-981q0 -84 0.5 -131.5t3 -100t5.5 -78.5t10.5 -55.5t16 -41.5t25 -27.5t33 -23t43.5 -17.5v-27h-283zM569 1614
l-10 26l281 187q50 37 98 37q34 0 56 -23.5t22 -54.5q0 -85 -115 -107z" />
    <glyph glyph-name="nacute" unicode="&#x144;" horiz-adv-x="1101" 
d="M55 0v27q21 7 34 13.5t23 21.5t14.5 27.5t7 46t3 63t0.5 90.5v307v11v60.5t-1.5 45t-3.5 35t-7.5 23t-11 18t-17 10t-23.5 9t-32 5.5v31l305 153v-241l78 71q87 82 159 123t152 41q236 0 236 -258v-444q0 -162 11.5 -202t70.5 -60v-27h-381v27q27 9 41.5 18.5t26 25
t16 45.5t6.5 68t2 105v497q0 134 -109 134q-48 0 -100 -32t-131 -104l-78 -71v-424v-70t1.5 -54t3.5 -43.5t7 -30.5t11 -24t16 -16t21.5 -14t29.5 -10v-27h-381zM459 1075l-21 21l183 262q32 47 54.5 65.5t55.5 18.5q36 0 57 -21t21 -57q0 -60 -76 -104z" />
    <glyph glyph-name="uni0145" unicode="&#x145;" horiz-adv-x="1386" 
d="M51 0v27q28 14 43 24.5t29 34.5t19.5 49t10 82t5 116.5t0.5 168.5v555q0 81 -0.5 130.5t-2.5 99.5t-4.5 76.5t-9 53.5t-13 38.5t-19 23.5t-25 17.5t-33.5 12.5v27h332q38 0 52.5 -11t47.5 -61l711 -1093v665q0 84 -0.5 131.5t-3 100t-5.5 78t-10.5 54.5t-16 41.5
t-25 27.5t-33 22.5t-43.5 17.5v27h282v-27q-21 -10 -33.5 -17.5t-25 -22.5t-19 -27.5t-13 -41t-8.5 -55t-4 -78t-2.5 -100.5t-0.5 -131v-1042h-66l-970 1489v-981q0 -84 0.5 -131.5t3 -100t5.5 -78.5t10.5 -55.5t16 -41.5t25 -27.5t33 -23t43.5 -17.5v-27h-283zM733 -250
q-15 -35 -65 -35q-40 0 -67.5 26t-27.5 69q0 45 31.5 72.5t75.5 27.5q52 0 89.5 -35.5t37.5 -103.5q0 -160 -182 -197l-11 25q69 17 100 50t31 70q0 28 -12 31z" />
    <glyph glyph-name="uni0146" unicode="&#x146;" horiz-adv-x="1101" 
d="M55 0v27q21 7 34 13.5t23 21.5t14.5 27.5t7 46t3 63t0.5 90.5v307v11v60.5t-1.5 45t-3.5 35t-7.5 23t-11 18t-17 10t-23.5 9t-32 5.5v31l305 153v-241l78 71q87 82 159 123t152 41q236 0 236 -258v-444q0 -162 11.5 -202t70.5 -60v-27h-381v27q27 9 41.5 18.5t26 25
t16 45.5t6.5 68t2 105v497q0 134 -109 134q-48 0 -100 -32t-131 -104l-78 -71v-424v-70t1.5 -54t3.5 -43.5t7 -30.5t11 -24t16 -16t21.5 -14t29.5 -10v-27h-381zM598 -250q-15 -35 -66 -35q-40 0 -67 26t-27 69q0 45 31.5 72.5t75.5 27.5q52 0 89.5 -35.5t37.5 -103.5
q0 -160 -183 -197l-10 25q69 17 100 50t31 70q0 28 -12 31z" />
    <glyph glyph-name="Ncaron" unicode="&#x147;" horiz-adv-x="1386" 
d="M51 0v27q28 14 43 24.5t29 34.5t19.5 49t10 82t5 116.5t0.5 168.5v555q0 81 -0.5 130.5t-2.5 99.5t-4.5 76.5t-9 53.5t-13 38.5t-19 23.5t-25 17.5t-33.5 12.5v27h332q38 0 52.5 -11t47.5 -61l711 -1093v665q0 84 -0.5 131.5t-3 100t-5.5 78t-10.5 54.5t-16 41.5
t-25 27.5t-33 22.5t-43.5 17.5v27h282v-27q-21 -10 -33.5 -17.5t-25 -22.5t-19 -27.5t-13 -41t-8.5 -55t-4 -78t-2.5 -100.5t-0.5 -131v-1042h-66l-970 1489v-981q0 -84 0.5 -131.5t3 -100t5.5 -78.5t10.5 -55.5t16 -41.5t25 -27.5t33 -23t43.5 -17.5v-27h-283zM489 1866
l11 24l264 -96l266 96l10 -24l-276 -244z" />
    <glyph glyph-name="ncaron" unicode="&#x148;" horiz-adv-x="1101" 
d="M55 0v27q21 7 34 13.5t23 21.5t14.5 27.5t7 46t3 63t0.5 90.5v307v11v60.5t-1.5 45t-3.5 35t-7.5 23t-11 18t-17 10t-23.5 9t-32 5.5v31l305 153v-241l78 71q87 82 159 123t152 41q236 0 236 -258v-444q0 -162 11.5 -202t70.5 -60v-27h-381v27q27 9 41.5 18.5t26 25
t16 45.5t6.5 68t2 105v497q0 134 -109 134q-48 0 -100 -32t-131 -104l-78 -71v-424v-70t1.5 -54t3.5 -43.5t7 -30.5t11 -24t16 -16t21.5 -14t29.5 -10v-27h-381zM315 1448l23 18l227 -166l230 166l22 -18l-252 -356z" />
    <glyph glyph-name="napostrophe" unicode="&#x149;" horiz-adv-x="1101" 
d="M55 0v27q21 7 34 13.5t23 21.5t14.5 27.5t7 46t3 63t0.5 90.5v307v11v60.5t-1.5 45t-3.5 35t-7.5 23t-11 18t-17 10t-23.5 9t-32 5.5v31l305 153v-241l78 71q87 82 159 123t152 41q236 0 236 -258v-444q0 -162 11.5 -202t70.5 -60v-27h-381v27q27 9 41.5 18.5t26 25
t16 45.5t6.5 68t2 105v497q0 134 -109 134q-48 0 -100 -32t-131 -104l-78 -71v-424v-70t1.5 -54t3.5 -43.5t7 -30.5t11 -24t16 -16t21.5 -14t29.5 -10v-27h-381zM74 1391q-23 -37 -74 -37q-45 0 -75.5 30.5t-30.5 77.5q0 54 36 87.5t88 33.5q58 0 101 -44t43 -130
q0 -189 -213 -305l-12 22q157 103 157 213q0 38 -20 52z" />
    <glyph glyph-name="Eng" unicode="&#x14a;" horiz-adv-x="1386" 
d="M51 0v27q28 14 43 24.5t29 34.5t19.5 49t10 82t5 116.5t0.5 168.5v555q0 81 -0.5 130.5t-2.5 99.5t-4.5 76.5t-9 53.5t-13 38.5t-19 23.5t-25 17.5t-33.5 12.5v27h332q37 0 52.5 -11t47.5 -61l711 -1056v628v107.5t-1.5 87t-3 71.5t-5 54.5t-8 44.5t-12.5 32.5t-16 26
t-21.5 18.5t-27.5 17t-34 14v27h274v-27q-21 -10 -33.5 -17.5t-25 -22.5t-19 -27.5t-13 -41t-8.5 -55t-4 -78t-2.5 -100.5t-0.5 -131v-1065q0 -109 -67.5 -182.5t-186.5 -73.5q-135 0 -229.5 51.5t-94.5 133.5q0 47 27.5 70.5t71.5 23.5q46 0 70.5 -26t45.5 -93
q10 -32 15.5 -46.5t15 -34t19.5 -27t26 -13.5t37 -6q96 0 153.5 64.5t57.5 164.5v15l-997 1493v-983q0 -84 0.5 -131.5t3 -100t5.5 -78.5t10.5 -55.5t16 -41.5t25 -27.5t33 -23t43.5 -17.5v-27h-283z" />
    <glyph glyph-name="eng" unicode="&#x14b;" horiz-adv-x="1101" 
d="M55 0v27q21 7 34 13.5t23 21.5t14.5 27.5t7 46t3 63t0.5 90.5v307v11v60.5t-1.5 45t-3.5 35t-7.5 23t-11 18t-17 10t-23.5 9t-32 5.5v31l305 153v-241l78 71q87 82 159 123t152 41q236 0 236 -258v-600q0 -238 -191 -369q-64 -45 -109 -61t-91 -16q-39 0 -67 22.5
t-28 61.5t22 58t54 19q29 0 56.5 -21t48.5 -42t36 -21q16 0 25 9q37 26 37 198v815q0 134 -109 134q-48 0 -100 -32t-131 -104l-78 -71v-424v-70t1.5 -54t3.5 -43.5t7 -30.5t11 -24t16 -16t21.5 -14t29.5 -10v-27h-381z" />
    <glyph glyph-name="Omacron" unicode="&#x14c;" horiz-adv-x="1564" 
d="M782 -29q-129 0 -254 59.5t-223 162.5t-158.5 254.5t-60.5 322.5q0 172 60.5 322.5t158.5 252t223 160t254 58.5t254 -58.5t223.5 -160t159 -252t60.5 -322.5q0 -171 -60.5 -322.5t-159 -254.5t-223.5 -162.5t-254 -59.5zM782 4q96 0 175 45.5t139 136t93.5 240
t33.5 344.5q0 193 -35 342t-96.5 238.5t-139.5 134.5t-170 45q-91 0 -168.5 -45t-138.5 -134.5t-96 -238.5t-35 -342q0 -384 120 -575t318 -191zM1018 1755v-96h-467v96h467z" />
    <glyph glyph-name="omacron" unicode="&#x14d;" horiz-adv-x="1075" 
d="M539 -18q-78 0 -159 32t-153 92t-118 160t-46 221q0 97 30.5 182t80 143.5t112 100.5t127.5 62t126 20q60 0 124.5 -20t127 -62t111.5 -100.5t79.5 -143.5t30.5 -182q0 -98 -30.5 -182.5t-79.5 -142.5t-111.5 -99.5t-126.5 -61t-125 -19.5zM539 16q118 0 187 113.5
t69 357.5q0 246 -69 361t-187 115q-121 0 -189.5 -114.5t-68.5 -361.5q0 -245 68.5 -358t189.5 -113zM317 1262h441v-93h-441v93z" />
    <glyph glyph-name="Obreve" unicode="&#x14e;" horiz-adv-x="1564" 
d="M782 -29q-129 0 -254 59.5t-223 162.5t-158.5 254.5t-60.5 322.5q0 172 60.5 322.5t158.5 252t223 160t254 58.5t254 -58.5t223.5 -160t159 -252t60.5 -322.5q0 -171 -60.5 -322.5t-159 -254.5t-223.5 -162.5t-254 -59.5zM782 4q96 0 175 45.5t139 136t93.5 240
t33.5 344.5q0 193 -35 342t-96.5 238.5t-139.5 134.5t-170 45q-91 0 -168.5 -45t-138.5 -134.5t-96 -238.5t-35 -342q0 -384 120 -575t318 -191zM784 1767q83 0 126 26t65 77h33q-3 -60 -26 -111t-74.5 -87t-123.5 -36q-102 0 -161 69.5t-64 166.5h33q20 -51 64.5 -78
t127.5 -27z" />
    <glyph glyph-name="obreve" unicode="&#x14f;" horiz-adv-x="1075" 
d="M539 -18q-78 0 -159 32t-153 92t-118 160t-46 221q0 97 30.5 182t80 143.5t112 100.5t127.5 62t126 20q60 0 124.5 -20t127 -62t111.5 -100.5t79.5 -143.5t30.5 -182q0 -98 -30.5 -182.5t-79.5 -142.5t-111.5 -99.5t-126.5 -61t-125 -19.5zM539 16q118 0 187 113.5
t69 357.5q0 246 -69 361t-187 115q-121 0 -189.5 -114.5t-68.5 -361.5q0 -245 68.5 -358t189.5 -113zM539 1227q76 0 116 35t60 96h33q0 -102 -56 -179t-153 -77q-100 0 -155.5 76t-55.5 182h32q35 -133 179 -133z" />
    <glyph glyph-name="Ohungarumlaut" unicode="&#x150;" horiz-adv-x="1564" 
d="M782 -29q-129 0 -254 59.5t-223 162.5t-158.5 254.5t-60.5 322.5q0 172 60.5 322.5t158.5 252t223 160t254 58.5t254 -58.5t223.5 -160t159 -252t60.5 -322.5q0 -171 -60.5 -322.5t-159 -254.5t-223.5 -162.5t-254 -59.5zM782 4q96 0 175 45.5t139 136t93.5 240
t33.5 344.5q0 193 -35 342t-96.5 238.5t-139.5 134.5t-170 45q-91 0 -168.5 -45t-138.5 -134.5t-96 -238.5t-35 -342q0 -384 120 -575t318 -191zM901 1630l-16 23l123 166q23 32 32.5 44.5t29.5 26t42 13.5q33 0 51.5 -22t18.5 -48q0 -50 -76 -90zM610 1630l-16 23l123 166
q41 55 59 68q22 16 47 16q33 0 50.5 -21.5t17.5 -48.5q0 -51 -74 -90z" />
    <glyph glyph-name="ohungarumlaut" unicode="&#x151;" horiz-adv-x="1075" 
d="M539 -18q-78 0 -159 32t-153 92t-118 160t-46 221q0 97 30.5 182t80 143.5t112 100.5t127.5 62t126 20q60 0 124.5 -20t127 -62t111.5 -100.5t79.5 -143.5t30.5 -182q0 -98 -30.5 -182.5t-79.5 -142.5t-111.5 -99.5t-126.5 -61t-125 -19.5zM539 16q118 0 187 113.5
t69 357.5q0 246 -69 361t-187 115q-121 0 -189.5 -114.5t-68.5 -361.5q0 -245 68.5 -358t189.5 -113zM666 1098l-21 10l76 272q13 51 32.5 75t55.5 24q34 0 52 -20t18 -52q0 -41 -37 -84zM403 1098l-20 10l74 272q15 52 33.5 75.5t54.5 23.5q34 0 52.5 -20t18.5 -52
q0 -42 -36 -84z" />
    <glyph glyph-name="OE" unicode="&#x152;" horiz-adv-x="2064" 
d="M1624 680h-31q-1 4 -3 13q-17 70 -39 96q-48 55 -195 55h-84v-811h315q98 0 157.5 10t107 40t76 81.5t50.5 138.5h37l-26 -240q-2 -24 -5.5 -36.5t-12 -18.5t-16.5 -7t-28 -1h-1071q-164 0 -303.5 51t-244 146.5t-163.5 243t-59 329.5q0 174 59.5 319.5t163 242.5
t244.5 150.5t303 53.5h1026q25 0 34.5 -9.5t16.5 -51.5l39 -215h-37q-53 146 -129.5 194.5t-242.5 48.5h-291v-626h84q59 0 100 8t64.5 21t38 34t21 42.5t12.5 50.5q0 5 1 7h31v-360zM856 1503q-127 0 -220.5 -39.5t-161 -126t-101 -228t-33.5 -339.5q0 -737 516 -737
q131 0 156.5 71.5t25.5 395.5v518q0 93 -0.5 146.5t-3.5 112t-7.5 87t-14.5 59.5t-22 42.5t-32.5 22.5t-43.5 13t-58 2z" />
    <glyph glyph-name="oe" unicode="&#x153;" horiz-adv-x="1689" 
d="M537 -18q-77 0 -157.5 32t-152.5 92t-118 160t-46 221t46 221t117.5 160.5t152.5 93.5t158 33q97 0 194.5 -50.5t163.5 -145.5q65 95 160 145.5t190 50.5q102 0 182 -36t135 -116.5t68 -199.5h-618q-6 -59 -6 -133q0 -244 87.5 -359.5t243.5 -115.5q81 0 138.5 21
t117.5 63l19 -27q-66 -52 -140 -82t-184 -30q-122 0 -226 48.5t-169 145.5q-66 -94 -162 -143t-194 -49zM1245 963q-81 0 -142.5 -66t-84.5 -219h414q-11 157 -58.5 221t-128.5 64zM537 16q119 0 186.5 113t67.5 358q0 247 -67.5 361.5t-186.5 114.5q-256 0 -256 -476
q0 -471 256 -471z" />
    <glyph glyph-name="Racute" unicode="&#x154;" horiz-adv-x="1337" 
d="M51 0v27q21 6 33.5 11t25 17t19.5 23.5t13 38.5t8.5 53.5t4.5 76.5t2.5 100t0.5 132v578q0 82 -0.5 132t-2.5 100t-4.5 76.5t-8.5 53.5t-13 38.5t-19.5 23.5t-25 17t-33.5 11v27h555q621 0 621 -362q0 -102 -44.5 -182t-122.5 -129.5t-179 -75t-219 -25.5h-31
q140 -21 223.5 -100.5t126.5 -245.5q50 -203 102.5 -286t135.5 -83q59 0 104 45l18 -18q-70 -88 -219 -88q-71 0 -126.5 18.5t-104.5 62t-84 121.5t-57 191q-17 91 -31.5 151.5t-33.5 105t-37 68t-47.5 37.5t-58 17.5t-75.5 3.5h-74v-283q0 -82 0.5 -132t2.5 -100t4.5 -76.5
t8.5 -53.5t13 -38.5t19.5 -23.5t25 -17t33.5 -11v-27h-449zM598 1503h-205v-708h252q188 0 270 83.5t82 260.5q0 93 -19 158t-64 112.5t-123 70.5t-193 23zM461 1614l-10 26l280 187q50 37 98 37q34 0 56 -23.5t22 -54.5q0 -85 -114 -107z" />
    <glyph glyph-name="racute" unicode="&#x155;" horiz-adv-x="772" 
d="M55 0v27q21 7 34 13.5t23 21.5t14.5 27.5t7 46t3 63t0.5 90.5v307v11v60.5t-1.5 45t-3.5 35t-7.5 23t-11 18t-17 10t-23.5 9t-32 5.5v31l305 153v-235l68 74q81 90 130.5 124.5t104.5 34.5q47 0 71.5 -23t24.5 -65q0 -48 -26.5 -75t-65.5 -27q-38 0 -77.5 26.5
t-61.5 26.5q-25 0 -44.5 -12.5t-55.5 -52.5l-68 -74v-430q0 -59 0.5 -90t4 -63.5t8.5 -46t16.5 -28t26 -21t38.5 -13.5v-27h-385zM330 1075l-21 21l183 262q32 47 54.5 65.5t55.5 18.5q36 0 57 -21t21 -57q0 -60 -76 -104z" />
    <glyph glyph-name="uni0156" unicode="&#x156;" horiz-adv-x="1337" 
d="M51 0v27q21 6 33.5 11t25 17t19.5 23.5t13 38.5t8.5 53.5t4.5 76.5t2.5 100t0.5 132v578q0 82 -0.5 132t-2.5 100t-4.5 76.5t-8.5 53.5t-13 38.5t-19.5 23.5t-25 17t-33.5 11v27h555q621 0 621 -362q0 -102 -44.5 -182t-122.5 -129.5t-179 -75t-219 -25.5h-31
q140 -21 223.5 -100.5t126.5 -245.5q50 -203 102.5 -286t135.5 -83q59 0 104 45l18 -18q-70 -88 -219 -88q-71 0 -126.5 18.5t-104.5 62t-84 121.5t-57 191q-17 91 -31.5 151.5t-33.5 105t-37 68t-47.5 37.5t-58 17.5t-75.5 3.5h-74v-283q0 -82 0.5 -132t2.5 -100t4.5 -76.5
t8.5 -53.5t13 -38.5t19.5 -23.5t25 -17t33.5 -11v-27h-449zM598 1503h-205v-708h252q188 0 270 83.5t82 260.5q0 93 -19 158t-64 112.5t-123 70.5t-193 23zM711 -250q-15 -35 -66 -35q-40 0 -67 26t-27 69q0 45 31.5 72.5t74.5 27.5q52 0 89.5 -35.5t37.5 -103.5
q0 -160 -182 -197l-10 25q69 17 100 50t31 70q0 28 -12 31z" />
    <glyph glyph-name="uni0157" unicode="&#x157;" horiz-adv-x="772" 
d="M55 0v27q21 7 34 13.5t23 21.5t14.5 27.5t7 46t3 63t0.5 90.5v307v11v60.5t-1.5 45t-3.5 35t-7.5 23t-11 18t-17 10t-23.5 9t-32 5.5v31l305 153v-235l68 74q81 90 130.5 124.5t104.5 34.5q47 0 71.5 -23t24.5 -65q0 -48 -26.5 -75t-65.5 -27q-38 0 -77.5 26.5
t-61.5 26.5q-25 0 -44.5 -12.5t-55.5 -52.5l-68 -74v-430q0 -59 0.5 -90t4 -63.5t8.5 -46t16.5 -28t26 -21t38.5 -13.5v-27h-385zM289 -250q-15 -35 -66 -35q-40 0 -67 26t-27 69q0 45 31.5 72.5t75.5 27.5q52 0 89 -35.5t37 -103.5q0 -160 -182 -197l-10 25q69 17 100 50
t31 70q0 28 -12 31z" />
    <glyph glyph-name="Rcaron" unicode="&#x158;" horiz-adv-x="1337" 
d="M51 0v27q21 6 33.5 11t25 17t19.5 23.5t13 38.5t8.5 53.5t4.5 76.5t2.5 100t0.5 132v578q0 82 -0.5 132t-2.5 100t-4.5 76.5t-8.5 53.5t-13 38.5t-19.5 23.5t-25 17t-33.5 11v27h555q621 0 621 -362q0 -102 -44.5 -182t-122.5 -129.5t-179 -75t-219 -25.5h-31
q140 -21 223.5 -100.5t126.5 -245.5q50 -203 102.5 -286t135.5 -83q59 0 104 45l18 -18q-70 -88 -219 -88q-71 0 -126.5 18.5t-104.5 62t-84 121.5t-57 191q-17 91 -31.5 151.5t-33.5 105t-37 68t-47.5 37.5t-58 17.5t-75.5 3.5h-74v-283q0 -82 0.5 -132t2.5 -100t4.5 -76.5
t8.5 -53.5t13 -38.5t19.5 -23.5t25 -17t33.5 -11v-27h-449zM598 1503h-205v-708h252q188 0 270 83.5t82 260.5q0 93 -19 158t-64 112.5t-123 70.5t-193 23zM381 1866l10 24l264 -96l267 96l10 -24l-277 -244z" />
    <glyph glyph-name="rcaron" unicode="&#x159;" horiz-adv-x="772" 
d="M55 0v27q21 7 34 13.5t23 21.5t14.5 27.5t7 46t3 63t0.5 90.5v307v11v60.5t-1.5 45t-3.5 35t-7.5 23t-11 18t-17 10t-23.5 9t-32 5.5v31l305 153v-235l68 74q81 90 130.5 124.5t104.5 34.5q47 0 71.5 -23t24.5 -65q0 -48 -26.5 -75t-65.5 -27q-38 0 -77.5 26.5
t-61.5 26.5q-25 0 -44.5 -12.5t-55.5 -52.5l-68 -74v-430q0 -59 0.5 -90t4 -63.5t8.5 -46t16.5 -28t26 -21t38.5 -13.5v-27h-385zM186 1448l23 18l227 -166l230 166l22 -18l-252 -356z" />
    <glyph glyph-name="Sacute" unicode="&#x15a;" horiz-adv-x="1142" 
d="M553 -20q-82 0 -151.5 17t-107.5 38t-78.5 38t-70.5 17q-38 0 -47 -41h-30v395h32q33 -206 147 -319t306 -113q171 0 253.5 78t82.5 217q0 63 -14 110.5t-40 85.5t-76.5 73.5t-111 66t-155.5 70.5q-204 88 -301 189t-97 259q0 181 125.5 289.5t319.5 108.5
q86 0 157.5 -19.5t120.5 -39t80 -19.5q24 0 35 10t16 31h31v-305h-33q-38 152 -144 230.5t-263 78.5q-142 0 -215.5 -59t-73.5 -175q0 -109 74.5 -184.5t253.5 -151.5q77 -32 135 -61t117 -65t99.5 -75t73 -86t48.5 -103.5t16 -121.5q0 -108 -43.5 -197.5t-115.5 -146.5
t-164 -88.5t-191 -31.5zM360 1614l-10 26l281 187q50 37 98 37q34 0 56 -23.5t22 -54.5q0 -85 -115 -107z" />
    <glyph glyph-name="sacute" unicode="&#x15b;" horiz-adv-x="800" 
d="M395 18q101 0 150 48.5t49 130.5q0 74 -49.5 122t-177.5 93q-153 56 -219 125t-66 188q0 115 84.5 190.5t210.5 75.5q78 0 145.5 -23.5t87.5 -23.5q29 0 35 29h31v-240h-31q-35 117 -101 171t-167 54q-86 0 -131 -37.5t-45 -107.5q0 -38 12.5 -66t43.5 -51t67.5 -40
t99.5 -40q173 -62 242 -136t69 -201q0 -126 -101 -210.5t-239 -84.5q-57 0 -103.5 11.5t-71 25t-49 25t-40.5 11.5q-27 0 -33 -37h-32v285h30q37 -141 108 -214t191 -73zM283 1075l-21 21l182 262q32 46 55 65t56 19q36 0 57 -21t21 -57q0 -60 -76 -104z" />
    <glyph glyph-name="Scircumflex" unicode="&#x15c;" horiz-adv-x="1142" 
d="M553 -20q-82 0 -151.5 17t-107.5 38t-78.5 38t-70.5 17q-38 0 -47 -41h-30v395h32q33 -206 147 -319t306 -113q171 0 253.5 78t82.5 217q0 63 -14 110.5t-40 85.5t-76.5 73.5t-111 66t-155.5 70.5q-204 88 -301 189t-97 259q0 181 125.5 289.5t319.5 108.5
q86 0 157.5 -19.5t120.5 -39t80 -19.5q24 0 35 10t16 31h31v-305h-33q-38 152 -144 230.5t-263 78.5q-142 0 -215.5 -59t-73.5 -175q0 -109 74.5 -184.5t253.5 -151.5q77 -32 135 -61t117 -65t99.5 -75t73 -86t48.5 -103.5t16 -121.5q0 -108 -43.5 -197.5t-115.5 -146.5
t-164 -88.5t-191 -31.5zM281 1634l274 246l276 -246l-10 -24l-266 98l-264 -98z" />
    <glyph glyph-name="scircumflex" unicode="&#x15d;" horiz-adv-x="800" 
d="M395 18q101 0 150 48.5t49 130.5q0 74 -49.5 122t-177.5 93q-153 56 -219 125t-66 188q0 115 84.5 190.5t210.5 75.5q78 0 145.5 -23.5t87.5 -23.5q29 0 35 29h31v-240h-31q-35 117 -101 171t-167 54q-86 0 -131 -37.5t-45 -107.5q0 -38 12.5 -66t43.5 -51t67.5 -40
t99.5 -40q173 -62 242 -136t69 -201q0 -126 -101 -210.5t-239 -84.5q-57 0 -103.5 11.5t-71 25t-49 25t-40.5 11.5q-27 0 -33 -37h-32v285h30q37 -141 108 -214t191 -73zM141 1092l250 356l252 -356l-22 -19l-230 166l-227 -166z" />
    <glyph glyph-name="uni015E" unicode="&#x15e;" horiz-adv-x="1142" 
d="M516 0h45l-59 -98q79 -12 127.5 -51.5t48.5 -92.5q0 -152 -328 -164l-2 31q193 21 193 90q0 62 -135 72l-9 14zM553 -20q-82 0 -151.5 17t-107.5 38t-78.5 38t-70.5 17q-38 0 -47 -41h-30v395h32q33 -206 147 -319t306 -113q171 0 253.5 78t82.5 217q0 63 -14 110.5
t-40 85.5t-76.5 73.5t-111 66t-155.5 70.5q-204 88 -301 189t-97 259q0 181 125.5 289.5t319.5 108.5q86 0 157.5 -19.5t120.5 -39t80 -19.5q24 0 35 10t16 31h31v-305h-33q-38 152 -144 230.5t-263 78.5q-142 0 -215.5 -59t-73.5 -175q0 -109 74.5 -184.5t253.5 -151.5
q77 -32 135 -61t117 -65t99.5 -75t73 -86t48.5 -103.5t16 -121.5q0 -108 -43.5 -197.5t-115.5 -146.5t-164 -88.5t-191 -31.5z" />
    <glyph glyph-name="uni015F" unicode="&#x15f;" horiz-adv-x="800" 
d="M356 0h45l-57 -98q79 -12 127.5 -51.5t48.5 -92.5q0 -152 -327 -164l-5 31q195 21 195 90q0 34 -34 50.5t-103 21.5l-8 14zM395 18q101 0 150 48.5t49 130.5q0 74 -49.5 122t-177.5 93q-153 56 -219 125t-66 188q0 115 84.5 190.5t210.5 75.5q78 0 145.5 -23.5
t87.5 -23.5q29 0 35 29h31v-240h-31q-35 117 -101 171t-167 54q-86 0 -131 -37.5t-45 -107.5q0 -38 12.5 -66t43.5 -51t67.5 -40t99.5 -40q173 -62 242 -136t69 -201q0 -126 -101 -210.5t-239 -84.5q-57 0 -103.5 11.5t-71 25t-49 25t-40.5 11.5q-27 0 -33 -37h-32v285h30
q37 -141 108 -214t191 -73z" />
    <glyph glyph-name="Scaron" unicode="&#x160;" horiz-adv-x="1142" 
d="M553 -20q-82 0 -151.5 17t-107.5 38t-78.5 38t-70.5 17q-38 0 -47 -41h-30v395h32q33 -206 147 -319t306 -113q171 0 253.5 78t82.5 217q0 63 -14 110.5t-40 85.5t-76.5 73.5t-111 66t-155.5 70.5q-204 88 -301 189t-97 259q0 181 125.5 289.5t319.5 108.5
q86 0 157.5 -19.5t120.5 -39t80 -19.5q24 0 35 10t16 31h31v-305h-33q-38 152 -144 230.5t-263 78.5q-142 0 -215.5 -59t-73.5 -175q0 -109 74.5 -184.5t253.5 -151.5q77 -32 135 -61t117 -65t99.5 -75t73 -86t48.5 -103.5t16 -121.5q0 -108 -43.5 -197.5t-115.5 -146.5
t-164 -88.5t-191 -31.5zM281 1866l10 24l264 -96l266 96l10 -24l-276 -244z" />
    <glyph glyph-name="scaron" unicode="&#x161;" horiz-adv-x="800" 
d="M395 18q101 0 150 48.5t49 130.5q0 74 -49.5 122t-177.5 93q-153 56 -219 125t-66 188q0 115 84.5 190.5t210.5 75.5q78 0 145.5 -23.5t87.5 -23.5q29 0 35 29h31v-240h-31q-35 117 -101 171t-167 54q-86 0 -131 -37.5t-45 -107.5q0 -38 12.5 -66t43.5 -51t67.5 -40
t99.5 -40q173 -62 242 -136t69 -201q0 -126 -101 -210.5t-239 -84.5q-57 0 -103.5 11.5t-71 25t-49 25t-40.5 11.5q-27 0 -33 -37h-32v285h30q37 -141 108 -214t191 -73zM141 1448l23 18l227 -166l230 166l22 -18l-252 -356z" />
    <glyph glyph-name="Tcommaaccent" unicode="&#x162;" horiz-adv-x="1300" 
d="M426 0v27q21 7 33.5 12.5t25 18t19 23.5t13 38.5t8.5 53t4 76t2.5 99.5t0.5 131v1024h-102q-69 0 -117 -6t-92.5 -23.5t-73.5 -49.5t-50.5 -83t-33.5 -124h-36l24 258q4 43 12.5 52t38.5 9h1096q30 0 38.5 -9t12.5 -52l27 -258h-37q-16 91 -44.5 148t-77 87t-105.5 40.5
t-146 10.5h-98v-1024q0 -82 0.5 -131t2.5 -99.5t4 -76t8.5 -53t13 -38.5t19 -23.5t25 -18t33.5 -12.5v-27h-448zM696 -250q-15 -35 -65 -35q-40 0 -67 26t-27 69q0 45 31.5 72.5t74.5 27.5q52 0 89.5 -35.5t37.5 -103.5q0 -160 -182 -197l-10 25q69 17 100 50t31 70
q0 28 -13 31z" />
    <glyph glyph-name="tcommaaccent" unicode="&#x163;" horiz-adv-x="608" 
d="M373 -16q-114 0 -174 57.5t-60 159.5v733h-84v33q93 11 165.5 102t94.5 252h31v-348h203v-39h-203v-676q0 -129 18.5 -176t81.5 -47q56 0 103 47l18 -19q-63 -79 -194 -79zM377 -250q-15 -35 -66 -35q-40 0 -67 26t-27 69q0 45 31.5 72.5t75.5 27.5q52 0 89.5 -35.5
t37.5 -103.5q0 -160 -183 -197l-10 25q69 17 100 50t31 70q0 28 -12 31z" />
    <glyph glyph-name="Tcaron" unicode="&#x164;" horiz-adv-x="1300" 
d="M426 0v27q21 7 33.5 12.5t25 18t19 23.5t13 38.5t8.5 53t4 76t2.5 99.5t0.5 131v1024h-102q-69 0 -117 -6t-92.5 -23.5t-73.5 -49.5t-50.5 -83t-33.5 -124h-36l24 258q4 43 12.5 52t38.5 9h1096q30 0 38.5 -9t12.5 -52l27 -258h-37q-16 91 -44.5 148t-77 87t-105.5 40.5
t-146 10.5h-98v-1024q0 -82 0.5 -131t2.5 -99.5t4 -76t8.5 -53t13 -38.5t19 -23.5t25 -18t33.5 -12.5v-27h-448zM377 1866l10 24l264 -96l267 96l10 -24l-277 -244z" />
    <glyph glyph-name="tcaron" unicode="&#x165;" horiz-adv-x="608" 
d="M373 -16q-114 0 -174 57.5t-60 159.5v733h-84v33q93 11 165.5 102t94.5 252h31v-348h203v-39h-203v-676q0 -129 18.5 -176t81.5 -47q56 0 103 47l18 -19q-63 -79 -194 -79zM473 1098l-24 6l16 274q5 70 24 100.5t60 30.5q72 0 72 -75q0 -36 -27 -88z" />
    <glyph glyph-name="Tbar" unicode="&#x166;" horiz-adv-x="1300" 
d="M242 848v33h817v-33h-817zM426 0v27q21 7 33.5 12.5t25 18t19 23.5t13 38.5t8.5 53t4 76t2.5 99.5t0.5 131v1024h-102q-69 0 -117 -6t-92.5 -23.5t-73.5 -49.5t-50.5 -83t-33.5 -124h-36l24 258q4 43 12.5 52t38.5 9h1096q30 0 38.5 -9t12.5 -52l27 -258h-37
q-16 91 -44.5 148t-77 87t-105.5 40.5t-146 10.5h-98v-1024q0 -82 0.5 -131t2.5 -99.5t4 -76t8.5 -53t13 -38.5t19 -23.5t25 -18t33.5 -12.5v-27h-448z" />
    <glyph glyph-name="tbar" unicode="&#x167;" horiz-adv-x="608" 
d="M55 600v35h490v-35h-490zM373 -16q-114 0 -174 57.5t-60 159.5v733h-84v33q93 11 165.5 102t94.5 252h31v-348h203v-39h-203v-676q0 -129 18.5 -176t81.5 -47q56 0 103 47l18 -19q-63 -79 -194 -79z" />
    <glyph glyph-name="Utilde" unicode="&#x168;" horiz-adv-x="1382" 
d="M737 -29q-287 0 -440.5 134.5t-153.5 412.5v539q0 82 -0.5 131.5t-2 100.5t-4 77.5t-8 53.5t-12 38.5t-17.5 23.5t-23 16.5t-31 10.5v27h436v-27q-21 -6 -33.5 -11t-25 -17t-19 -23.5t-13 -38.5t-8.5 -53t-4 -77t-2.5 -100t-0.5 -132v-584q0 -128 16.5 -212t58.5 -143
t113 -84.5t180 -25.5q224 0 336.5 112t112.5 372v542q0 84 -0.5 131.5t-3 100t-5.5 78.5t-10.5 55.5t-16 41.5t-24 27.5t-32.5 23t-43 17.5v27h280v-27q-21 -10 -33.5 -18t-25 -22.5t-19 -27.5t-13 -42t-8.5 -55.5t-4 -78t-2.5 -100.5t-0.5 -131v-542q0 -272 -124.5 -396.5
t-369.5 -124.5zM686 1815q38 0 117 -8.5t104 -8.5q64 0 117 88l25 -8q-23 -100 -65.5 -154.5t-96.5 -54.5q-37 0 -115 8.5t-108 8.5q-60 0 -115 -87l-25 9q58 207 162 207z" />
    <glyph glyph-name="utilde" unicode="&#x169;" horiz-adv-x="1077" 
d="M367 -18q-234 0 -234 251v363v11v60.5t-1.5 45t-3.5 35t-7.5 23t-11 18t-17 10t-23.5 9t-32 5.5v31l303 153v-811q0 -131 106 -131q89 0 238 138l49 45v358v11v60.5t-1.5 45t-3.5 35t-7.5 23t-11 18t-17 10t-23.5 9t-32 5.5v31l303 153v-708q0 -71 1.5 -105.5t5.5 -67
t15.5 -46.5t28 -24t45.5 -19v-27h-303v195l-49 -45q-95 -87 -165 -127.5t-152 -40.5zM475 1323q38 0 107.5 -14.5t99.5 -14.5q55 0 106 90l25 -12q-53 -207 -158 -207q-37 0 -105 13.5t-101 13.5q-28 0 -52.5 -17.5t-58.5 -70.5l-25 12q37 105 75 156t87 51z" />
    <glyph glyph-name="Umacron" unicode="&#x16a;" horiz-adv-x="1382" 
d="M737 -29q-287 0 -440.5 134.5t-153.5 412.5v539q0 82 -0.5 131.5t-2 100.5t-4 77.5t-8 53.5t-12 38.5t-17.5 23.5t-23 16.5t-31 10.5v27h436v-27q-21 -6 -33.5 -11t-25 -17t-19 -23.5t-13 -38.5t-8.5 -53t-4 -77t-2.5 -100t-0.5 -132v-584q0 -128 16.5 -212t58.5 -143
t113 -84.5t180 -25.5q224 0 336.5 112t112.5 372v542q0 84 -0.5 131.5t-3 100t-5.5 78.5t-10.5 55.5t-16 41.5t-24 27.5t-32.5 23t-43 17.5v27h280v-27q-21 -10 -33.5 -18t-25 -22.5t-19 -27.5t-13 -42t-8.5 -55.5t-4 -78t-2.5 -100.5t-0.5 -131v-542q0 -272 -124.5 -396.5
t-369.5 -124.5zM1004 1755v-96h-467v96h467z" />
    <glyph glyph-name="umacron" unicode="&#x16b;" horiz-adv-x="1077" 
d="M367 -18q-234 0 -234 251v363v11v60.5t-1.5 45t-3.5 35t-7.5 23t-11 18t-17 10t-23.5 9t-32 5.5v31l303 153v-811q0 -131 106 -131q89 0 238 138l49 45v358v11v60.5t-1.5 45t-3.5 35t-7.5 23t-11 18t-17 10t-23.5 9t-32 5.5v31l303 153v-708q0 -71 1.5 -105.5t5.5 -67
t15.5 -46.5t28 -24t45.5 -19v-27h-303v195l-49 -45q-95 -87 -165 -127.5t-152 -40.5zM342 1262h440v-93h-440v93z" />
    <glyph glyph-name="Ubreve" unicode="&#x16c;" horiz-adv-x="1382" 
d="M737 -29q-287 0 -440.5 134.5t-153.5 412.5v539q0 82 -0.5 131.5t-2 100.5t-4 77.5t-8 53.5t-12 38.5t-17.5 23.5t-23 16.5t-31 10.5v27h436v-27q-21 -6 -33.5 -11t-25 -17t-19 -23.5t-13 -38.5t-8.5 -53t-4 -77t-2.5 -100t-0.5 -132v-584q0 -128 16.5 -212t58.5 -143
t113 -84.5t180 -25.5q224 0 336.5 112t112.5 372v542q0 84 -0.5 131.5t-3 100t-5.5 78.5t-10.5 55.5t-16 41.5t-24 27.5t-32.5 23t-43 17.5v27h280v-27q-21 -10 -33.5 -18t-25 -22.5t-19 -27.5t-13 -42t-8.5 -55.5t-4 -78t-2.5 -100.5t-0.5 -131v-542q0 -272 -124.5 -396.5
t-369.5 -124.5zM770 1767q83 0 126 26t65 77h32q-2 -44 -16 -84.5t-40 -74.5t-69 -54.5t-98 -20.5q-102 0 -161 69.5t-64 166.5h33q20 -51 64.5 -78t127.5 -27z" />
    <glyph glyph-name="ubreve" unicode="&#x16d;" horiz-adv-x="1077" 
d="M367 -18q-234 0 -234 251v363v11v60.5t-1.5 45t-3.5 35t-7.5 23t-11 18t-17 10t-23.5 9t-32 5.5v31l303 153v-811q0 -131 106 -131q89 0 238 138l49 45v358v11v60.5t-1.5 45t-3.5 35t-7.5 23t-11 18t-17 10t-23.5 9t-32 5.5v31l303 153v-708q0 -71 1.5 -105.5t5.5 -67
t15.5 -46.5t28 -24t45.5 -19v-27h-303v195l-49 -45q-95 -87 -165 -127.5t-152 -40.5zM563 1227q76 0 116 35t60 96h33q0 -102 -56 -179t-153 -77q-100 0 -155.5 76t-55.5 182h33q35 -133 178 -133z" />
    <glyph glyph-name="Uring" unicode="&#x16e;" horiz-adv-x="1382" 
d="M737 -29q-287 0 -440.5 134.5t-153.5 412.5v539q0 82 -0.5 131.5t-2 100.5t-4 77.5t-8 53.5t-12 38.5t-17.5 23.5t-23 16.5t-31 10.5v27h436v-27q-21 -6 -33.5 -11t-25 -17t-19 -23.5t-13 -38.5t-8.5 -53t-4 -77t-2.5 -100t-0.5 -132v-584q0 -128 16.5 -212t58.5 -143
t113 -84.5t180 -25.5q224 0 336.5 112t112.5 372v542q0 84 -0.5 131.5t-3 100t-5.5 78.5t-10.5 55.5t-16 41.5t-24 27.5t-32.5 23t-43 17.5v27h280v-27q-21 -10 -33.5 -18t-25 -22.5t-19 -27.5t-13 -42t-8.5 -55.5t-4 -78t-2.5 -100.5t-0.5 -131v-542q0 -272 -124.5 -396.5
t-369.5 -124.5zM606 1708q0 72 51.5 118t122.5 46t121.5 -46t50.5 -118t-49.5 -118t-122.5 -46t-123.5 46t-50.5 118zM690 1708q0 -131 90 -131t90 131q0 61 -24.5 96t-65.5 35q-43 0 -66.5 -34.5t-23.5 -96.5z" />
    <glyph glyph-name="uring" unicode="&#x16f;" horiz-adv-x="1077" 
d="M367 -18q-234 0 -234 251v363v11v60.5t-1.5 45t-3.5 35t-7.5 23t-11 18t-17 10t-23.5 9t-32 5.5v31l303 153v-811q0 -131 106 -131q89 0 238 138l49 45v358v11v60.5t-1.5 45t-3.5 35t-7.5 23t-11 18t-17 10t-23.5 9t-32 5.5v31l303 153v-708q0 -71 1.5 -105.5t5.5 -67
t15.5 -46.5t28 -24t45.5 -19v-27h-303v195l-49 -45q-95 -87 -165 -127.5t-152 -40.5zM389 1245q0 72 50.5 118t121.5 46t122.5 -46t51.5 -118t-50.5 -118t-123.5 -46t-122.5 46t-49.5 118zM471 1245q0 -131 90 -131t90 131q0 62 -23.5 96.5t-66.5 34.5q-41 0 -65.5 -35
t-24.5 -96z" />
    <glyph glyph-name="Uhungarumlaut" unicode="&#x170;" horiz-adv-x="1382" 
d="M737 -29q-287 0 -440.5 134.5t-153.5 412.5v539q0 82 -0.5 131.5t-2 100.5t-4 77.5t-8 53.5t-12 38.5t-17.5 23.5t-23 16.5t-31 10.5v27h436v-27q-21 -6 -33.5 -11t-25 -17t-19 -23.5t-13 -38.5t-8.5 -53t-4 -77t-2.5 -100t-0.5 -132v-584q0 -128 16.5 -212t58.5 -143
t113 -84.5t180 -25.5q224 0 336.5 112t112.5 372v542q0 84 -0.5 131.5t-3 100t-5.5 78.5t-10.5 55.5t-16 41.5t-24 27.5t-32.5 23t-43 17.5v27h280v-27q-21 -10 -33.5 -18t-25 -22.5t-19 -27.5t-13 -42t-8.5 -55.5t-4 -78t-2.5 -100.5t-0.5 -131v-542q0 -272 -124.5 -396.5
t-369.5 -124.5zM887 1630l-17 23l123 166q22 31 32.5 44.5t30.5 26.5t42 13q33 0 51 -22t18 -48q0 -50 -75 -90zM596 1630l-16 23l122 166q24 33 34 45t30.5 25.5t42.5 13.5q33 0 50.5 -21.5t17.5 -48.5q0 -51 -74 -90z" />
    <glyph glyph-name="uhungarumlaut" unicode="&#x171;" horiz-adv-x="1077" 
d="M367 -18q-234 0 -234 251v363v11v60.5t-1.5 45t-3.5 35t-7.5 23t-11 18t-17 10t-23.5 9t-32 5.5v31l303 153v-811q0 -131 106 -131q89 0 238 138l49 45v358v11v60.5t-1.5 45t-3.5 35t-7.5 23t-11 18t-17 10t-23.5 9t-32 5.5v31l303 153v-708q0 -71 1.5 -105.5t5.5 -67
t15.5 -46.5t28 -24t45.5 -19v-27h-303v195l-49 -45q-95 -87 -165 -127.5t-152 -40.5zM690 1098l-20 10l75 272q13 51 33 75t56 24q34 0 51.5 -20t17.5 -52q0 -41 -37 -84zM428 1098l-20 10l73 272q15 52 33.5 75.5t54.5 23.5q34 0 53 -20t19 -52q0 -41 -37 -84z" />
    <glyph glyph-name="Uogonek" unicode="&#x172;" horiz-adv-x="1382" 
d="M819 -342q-76 0 -128 38t-52 97q0 63 60 110.5t147 76.5q-65 -9 -109 -9q-287 0 -440.5 134.5t-153.5 412.5v539q0 82 -0.5 131.5t-2 100.5t-4 77.5t-8 53.5t-12 38.5t-17.5 23.5t-23 16.5t-31 10.5v27h436v-27q-21 -6 -33.5 -11t-25 -17t-19 -23.5t-13 -38.5t-8.5 -53
t-4 -77t-2.5 -100t-0.5 -132v-584q0 -128 16.5 -212t58.5 -143t113 -84.5t180 -25.5q224 0 336.5 112t112.5 372v542q0 84 -0.5 131.5t-3 100t-5.5 78.5t-10.5 55.5t-16 41.5t-24 27.5t-32.5 23t-43 17.5v27h280v-27q-21 -10 -33.5 -18t-25 -22.5t-19 -27.5t-13 -42
t-8.5 -55.5t-4 -78t-2.5 -100.5t-0.5 -131v-542q0 -370 -242 -474q-78 -35 -122 -81t-44 -115q0 -44 22.5 -70t63.5 -26q6 0 12.5 1t11.5 2t11 4t9 4t10 5.5t8.5 5.5l9 6t8.5 6l19 -20q-1 -1 -8.5 -9t-11 -11t-13 -11.5t-17 -12.5t-19 -11t-24 -11t-27.5 -8t-32.5 -6
t-36.5 -2z" />
    <glyph glyph-name="uogonek" unicode="&#x173;" horiz-adv-x="1077" 
d="M367 -18q-234 0 -234 251v363v11v60.5t-1.5 45t-3.5 35t-7.5 23t-11 18t-17 10t-23.5 9t-32 5.5v31l303 153v-811q0 -131 106 -131q89 0 238 138l49 45v358v11v60.5t-1.5 45t-3.5 35t-7.5 23t-11 18t-17 10t-23.5 9t-32 5.5v31l303 153v-708q0 -71 1.5 -105.5t5.5 -67
t15.5 -46.5t28 -24t45.5 -19v-27h-260q-82 -62 -82 -178q0 -43 23.5 -69.5t64.5 -26.5q40 0 78 34l19 -20q-59 -82 -187 -82q-81 0 -130.5 37.5t-49.5 97.5q0 33 17.5 64.5t43.5 54.5t58 42t57 29.5t45 16.5v195l-49 -45q-95 -87 -165 -127.5t-152 -40.5z" />
    <glyph glyph-name="Wcircumflex" unicode="&#x174;" horiz-adv-x="1908" 
d="M641 -14l-465 1290q-6 18 -18 51t-16.5 44t-13.5 34t-14 30.5t-14 22t-17.5 20.5t-20 14t-25.5 15v29h383v-29q-33 -9 -45.5 -24t-9 -50.5t27.5 -99.5l373 -1050l182 508l-174 485q-51 138 -69 167q-26 45 -70 64v29h379v-29q-35 -8 -46.5 -23.5t-6.5 -49t30 -105.5
l103 -297l90 246q18 50 25.5 80.5t8.5 62.5t-14.5 52.5t-48.5 33.5v29h205v-29q-31 -15 -47.5 -32t-36 -59t-53.5 -138l-111 -299l242 -700l332 997q17 54 23.5 84.5t3.5 63t-25.5 52t-65.5 31.5v29h252v-29q-35 -16 -53 -30.5t-43 -62t-54 -138.5l-428 -1290h-57l-270 751
l-271 -751h-57zM723 1634l274 246l277 -246l-10 -24l-267 98l-264 -98z" />
    <glyph glyph-name="wcircumflex" unicode="&#x175;" 
d="M414 -14l-275 741q-47 128 -71 167t-58 52v27h352v-27q-32 -5 -43 -22.5t-4 -61t37 -129.5l180 -500l150 359l-47 135q-47 131 -70.5 168t-60.5 51v27h356v-27q-32 -5 -45 -22t-8.5 -62.5t33.5 -128.5l166 -481l159 436q30 78 40 129t0 77.5t-28.5 37t-52.5 14.5v27h228
v-27q-26 -9 -42.5 -27.5t-38 -66.5t-65.5 -164l-258 -702h-55l-193 553l-233 -553h-53zM438 1092l250 356l252 -356l-22 -19l-230 166l-227 -166z" />
    <glyph glyph-name="Ycircumflex" unicode="&#x176;" horiz-adv-x="1294" 
d="M432 0v27q21 7 33.5 12.5t25 17.5t19 23.5t13 38.5t9 53.5t4.5 76.5t2.5 99.5t0.5 130.5v262l-310 537q-61 109 -100 156.5t-96 74.5v27h432v-27q-50 -14 -59.5 -43t24.5 -96l322 -559l266 467q65 110 64.5 162t-76.5 69v27h256v-27q-36 -14 -57 -28.5t-57 -62.5
t-89 -140l-289 -508v-291q0 -81 0.5 -130.5t2.5 -99.5t4.5 -76.5t9 -53.5t13 -38.5t19 -23.5t25 -17.5t33.5 -12.5v-27h-445zM463 1634l274 246l277 -246l-10 -24l-267 98l-264 -98z" />
    <glyph glyph-name="ycircumflex" unicode="&#x177;" horiz-adv-x="942" 
d="M207 -338q-57 0 -86 23.5t-29 62.5q0 37 19.5 56.5t54.5 19.5t74 -25.5t61 -25.5q33 0 70 42t84 162l4 11l-314 749q-57 129 -79.5 163t-57.5 46v27h367v-27q-34 -6 -48 -19.5t-9 -58.5t40 -127l201 -508l184 459q32 77 43 127.5t1.5 76t-28 36t-52.5 14.5v27h227v-27
q-34 -8 -61 -52t-91 -202l-290 -723q-66 -166 -136 -236.5t-149 -70.5zM276 1092l250 356l252 -356l-22 -19l-230 166l-227 -166z" />
    <glyph glyph-name="Ydieresis" unicode="&#x178;" horiz-adv-x="1294" 
d="M432 0v27q21 7 33.5 12.5t25 17.5t19 23.5t13 38.5t9 53.5t4.5 76.5t2.5 99.5t0.5 130.5v262l-310 537q-61 109 -100 156.5t-96 74.5v27h432v-27q-50 -14 -59.5 -43t24.5 -96l322 -559l266 467q65 110 64.5 162t-76.5 69v27h256v-27q-36 -14 -57 -28.5t-57 -62.5
t-89 -140l-289 -508v-291q0 -81 0.5 -130.5t2.5 -99.5t4.5 -76.5t9 -53.5t13 -38.5t19 -23.5t25 -17.5t33.5 -12.5v-27h-445zM938 1622q-49 0 -81 32.5t-32 82.5q0 47 32 78.5t81 31.5q47 0 79 -31.5t32 -78.5q0 -49 -32 -82t-79 -33zM539 1622q-47 0 -79 33t-32 82
q0 47 32 78.5t79 31.5q49 0 81.5 -31.5t32.5 -78.5q0 -50 -32.5 -82.5t-81.5 -32.5z" />
    <glyph glyph-name="Zacute" unicode="&#x179;" horiz-adv-x="1265" 
d="M53 0l832 1503h-342q-88 0 -151 -10.5t-104.5 -28.5t-73 -53.5t-50.5 -72.5t-43 -99h-35l55 297h1022l-841 -1503h385q87 0 149 6t111.5 22.5t82 38.5t58.5 60.5t43 82t35 109.5h33l-48 -352h-1118zM455 1614l-11 26l281 187q50 37 98 37q34 0 56 -23.5t22 -54.5
q0 -85 -115 -107z" />
    <glyph glyph-name="zacute" unicode="&#x17a;" horiz-adv-x="872" 
d="M836 281l-43 -308q-33 17 -87.5 22t-226.5 5h-442l545 940h-189q-65 0 -111.5 -9.5t-75 -22.5t-51 -42.5t-34 -54t-29.5 -72.5h-31l48 260q28 -17 91.5 -21.5t221.5 -4.5h395l-551 -940h219q55 0 95 5t71 19t51 30t39.5 48.5t32 62.5t31.5 83h31zM344 1075l-20 21
l182 262q32 47 54.5 65.5t55.5 18.5q36 0 57 -21t21 -57q0 -60 -76 -104z" />
    <glyph glyph-name="Zdotaccent" unicode="&#x17b;" horiz-adv-x="1265" 
d="M53 0l832 1503h-342q-88 0 -151 -10.5t-104.5 -28.5t-73 -53.5t-50.5 -72.5t-43 -99h-35l55 297h1022l-841 -1503h385q87 0 149 6t111.5 22.5t82 38.5t58.5 60.5t43 82t35 109.5h33l-48 -352h-1118zM631 1620q-51 0 -86 36t-35 87q0 50 35 84.5t86 34.5t86 -34t35 -83
q0 -51 -35 -88t-86 -37z" />
    <glyph glyph-name="zdotaccent" unicode="&#x17c;" horiz-adv-x="872" 
d="M836 281l-43 -308q-33 17 -87.5 22t-226.5 5h-442l545 940h-189q-65 0 -111.5 -9.5t-75 -22.5t-51 -42.5t-34 -54t-29.5 -72.5h-31l48 260q28 -17 91.5 -21.5t221.5 -4.5h395l-551 -940h219q55 0 95 5t71 19t51 30t39.5 48.5t32 62.5t31.5 83h31zM451 1141q-51 0 -86 36
t-35 87q0 50 35 84t86 34t85.5 -33.5t34.5 -82.5q0 -51 -34.5 -88t-85.5 -37z" />
    <glyph glyph-name="Zcaron" unicode="&#x17d;" horiz-adv-x="1265" 
d="M53 0l832 1503h-342q-88 0 -151 -10.5t-104.5 -28.5t-73 -53.5t-50.5 -72.5t-43 -99h-35l55 297h1022l-841 -1503h385q87 0 149 6t111.5 22.5t82 38.5t58.5 60.5t43 82t35 109.5h33l-48 -352h-1118zM356 1866l11 24l264 -96l266 96l10 -24l-276 -244z" />
    <glyph glyph-name="zcaron" unicode="&#x17e;" horiz-adv-x="872" 
d="M836 281l-43 -308q-33 17 -87.5 22t-226.5 5h-442l545 940h-189q-65 0 -111.5 -9.5t-75 -22.5t-51 -42.5t-34 -54t-29.5 -72.5h-31l48 260q28 -17 91.5 -21.5t221.5 -4.5h395l-551 -940h219q55 0 95 5t71 19t51 30t39.5 48.5t32 62.5t31.5 83h31zM201 1448l22 18
l228 -166l229 166l22 -18l-251 -356z" />
    <glyph glyph-name="uni0192" unicode="&#x192;" horiz-adv-x="860" 
d="M166 934v39h141l27 194q15 114 52 197t88 127.5t105.5 65t116.5 20.5q89 0 146 -34t57 -93q0 -28 -20 -50t-58 -22q-43 0 -61.5 18t-26.5 62q-11 56 -21 71t-38 15q-93 0 -129 -254l-43 -317h186v-39h-192l-90 -649q-21 -149 -59 -253.5t-89 -161.5t-106.5 -81.5
t-122.5 -24.5q-85 0 -148 34.5t-63 92.5q0 29 20 50.5t58 21.5q42 0 59 -19t25 -65q10 -49 24 -65.5t43 -16.5q42 0 66 39t49.5 158t62.5 377l76 563h-135z" />
    <glyph glyph-name="Aringacute" unicode="&#x1fa;" horiz-adv-x="1441" 
d="M33 0v27q47 16 82 66.5t86 189.5l391 1079l-8 20q-26 68 -52.5 93.5t-66.5 33.5v27h280q23 0 30 -7.5t18 -37.5l464 -1231q52 -132 74 -166q29 -46 78 -63v-31h-399v31q54 10 61 46t-24 109l-107 275h-637l-63 -178q-20 -54 -28 -91t-4 -71.5t28 -57t69 -36.5v-27h-272z
M315 494h613l-316 817zM475 1769q0 72 51.5 118t122.5 46t121.5 -46t50.5 -118t-49.5 -117.5t-122.5 -45.5q-74 0 -124 45.5t-50 117.5zM559 1769q0 -131 90 -131t90 131q0 61 -24.5 96.5t-65.5 35.5q-43 0 -66.5 -35t-23.5 -97zM455 1952l-11 26l281 187q50 37 98 37
q34 0 56 -23.5t22 -54.5q0 -85 -115 -107z" />
    <glyph glyph-name="aringacute" unicode="&#x1fb;" horiz-adv-x="946" 
d="M305 -18q-111 0 -178.5 57.5t-67.5 159.5q0 39 9.5 70.5t29.5 55t42 41t58 33.5t65 27t75.5 27.5t77.5 29.5l53 23q67 28 99 64.5t32 95.5v147q0 148 -158 148q-56 0 -86 -25t-55 -72q-23 -43 -47 -63.5t-64 -20.5q-36 0 -58.5 21.5t-22.5 54.5q0 61 94.5 98t230.5 37
q371 0 371 -246v-489q0 -100 6.5 -146t20.5 -60.5t45 -14.5q33 0 61 20l10 -22q-60 -47 -164 -47q-169 0 -182 145l-29 -27q-57 -57 -118.5 -89.5t-149.5 -32.5zM270 233q0 -99 32.5 -143.5t94.5 -44.5q44 0 83 24t93 74l27 25v393q-32 -48 -129 -90l-53 -22
q-80 -33 -114 -81.5t-34 -134.5zM279 1245q0 72 50.5 118t121.5 46t122.5 -46t51.5 -118t-50.5 -118t-123.5 -46t-122.5 46t-49.5 118zM360 1245q0 -131 91 -131q90 0 90 131q0 62 -23.5 96.5t-66.5 34.5q-42 0 -66.5 -35t-24.5 -96zM258 1450l-10 27l280 186q50 37 99 37
q34 0 56 -23.5t22 -54.5q0 -84 -115 -106z" />
    <glyph glyph-name="AEacute" unicode="&#x1fc;" horiz-adv-x="1937" 
d="M1501 680h-31q-1 6 -4 17q-17 69 -38 94q-48 53 -193 53h-84v-811h309q98 0 157.5 10t107 40t76 81.5t50.5 138.5h37l-26 -240q-2 -24 -5.5 -36.5t-12 -18.5t-16.5 -7t-28 -1h-991v27q21 7 33.5 12.5t25 18t19 23.5t13 38.5t8.5 53t4 76t2.5 99.5t0.5 131v6h-542
l-125 -227q-57 -104 -51 -156t75 -77v-25h-256v25q46 19 83.5 61t109.5 172l620 1137q31 57 17.5 80t-76.5 34v27h985q25 0 34.5 -9.5t16.5 -51.5l39 -215h-37q-53 146 -129.5 194.5t-242.5 48.5h-285v-626h84q155 0 200 61q18 25 32 90l3 12h31v-360zM389 518h526v963z
M1118 1614l-10 26l281 187q50 37 98 37q34 0 56 -23.5t22 -54.5q0 -85 -115 -107z" />
    <glyph glyph-name="aeacute" unicode="&#x1fd;" horiz-adv-x="1484" 
d="M313 -18q-117 0 -185.5 57t-68.5 160q0 39 9.5 70.5t29.5 55t42 41t58 33.5t65 27t75.5 27.5t77.5 29.5l53 23q67 28 99 64.5t32 95.5v147q0 148 -158 148q-56 0 -86 -25t-55 -72q-23 -43 -47 -63.5t-64 -20.5q-36 0 -58.5 21.5t-22.5 54.5q0 61 94.5 98t230.5 37
q248 0 332 -112q63 58 137.5 87t143.5 29q155 0 257 -87.5t121 -264.5h-606q-6 -59 -6 -133q0 -244 86.5 -359.5t241.5 -115.5q79 0 133 20.5t115 63.5l18 -27q-67 -53 -138.5 -82.5t-178.5 -29.5q-123 0 -231.5 51.5t-174.5 152.5l-74 -69q-76 -73 -134.5 -103t-162.5 -30z
M1047 963q-78 0 -138.5 -66t-83.5 -219h402q-10 157 -55 221t-125 64zM270 233q0 -100 31.5 -144t93.5 -44q105 0 205 100l68 64q-68 120 -68 285v67q-32 -48 -129 -90l-53 -22q-80 -33 -114 -81.5t-34 -134.5zM666 1075l-21 21l182 262q32 46 55 65t56 19q36 0 57 -21
t21 -57q0 -60 -76 -104z" />
    <glyph glyph-name="Oslashacute" unicode="&#x1fe;" horiz-adv-x="1564" 
d="M782 -29q-185 0 -356 119l-100 -190l-33 16l102 195q-139 105 -224 278.5t-85 380.5q0 172 60.5 322.5t158.5 252t223 160t254 58.5q174 0 328 -97l86 162l33 -16l-88 -166q152 -100 245 -279t93 -397q0 -171 -60.5 -322.5t-159 -254.5t-223.5 -162.5t-254 -59.5z
M344 770q0 -353 109 -553l614 1167q-117 146 -285 146q-91 0 -168.5 -45t-138.5 -134.5t-96 -238.5t-35 -342zM782 4q96 0 175 45.5t139 136t93.5 240t33.5 344.5q0 381 -131 582l-619 -1172q114 -176 309 -176zM588 1614l-10 26l280 187q50 37 98 37q34 0 56 -23.5
t22 -54.5q0 -85 -114 -107z" />
    <glyph glyph-name="oslashacute" unicode="&#x1ff;" horiz-adv-x="1075" 
d="M739 823l-395 -686q68 -121 195 -121q118 0 187 113.5t69 357.5q0 214 -56 336zM326 178l393 682q-67 103 -180 103q-121 0 -189.5 -114.5t-68.5 -361.5q0 -202 45 -309zM184 -70l84 146q-93 67 -149 170t-56 241q0 97 30.5 182t80 143.5t112 100.5t127.5 62t126 20
q115 0 223 -63l69 123l31 -19l-71 -123q100 -67 160.5 -174t60.5 -252q0 -98 -30.5 -182.5t-79.5 -142.5t-111.5 -99.5t-126.5 -61t-125 -19.5q-123 0 -242 73l-82 -143zM430 1075l-20 21l182 262q32 47 54.5 65.5t55.5 18.5q36 0 57 -21t21 -57q0 -60 -75 -104z" />
    <glyph glyph-name="uni0218" unicode="&#x218;" horiz-adv-x="1142" 
d="M553 -20q-82 0 -151.5 17t-107.5 38t-78.5 38t-70.5 17q-38 0 -47 -41h-30v395h32q33 -206 147 -319t306 -113q171 0 253.5 78t82.5 217q0 63 -14 110.5t-40 85.5t-76.5 73.5t-111 66t-155.5 70.5q-204 88 -301 189t-97 259q0 181 125.5 289.5t319.5 108.5
q86 0 157.5 -19.5t120.5 -39t80 -19.5q24 0 35 10t16 31h31v-305h-33q-38 152 -144 230.5t-263 78.5q-142 0 -215.5 -59t-73.5 -175q0 -109 74.5 -184.5t253.5 -151.5q77 -32 135 -61t117 -65t99.5 -75t73 -86t48.5 -103.5t16 -121.5q0 -108 -43.5 -197.5t-115.5 -146.5
t-164 -88.5t-191 -31.5zM594 -250q-15 -35 -66 -35q-40 0 -67 26t-27 69q0 45 31.5 72.5t75.5 27.5q52 0 89.5 -35.5t37.5 -103.5q0 -160 -183 -197l-10 25q69 17 100 50t31 70q0 28 -12 31z" />
    <glyph glyph-name="uni0219" unicode="&#x219;" horiz-adv-x="800" 
d="M395 18q101 0 150 48.5t49 130.5q0 74 -49.5 122t-177.5 93q-153 56 -219 125t-66 188q0 115 84.5 190.5t210.5 75.5q78 0 145.5 -23.5t87.5 -23.5q29 0 35 29h31v-240h-31q-35 117 -101 171t-167 54q-86 0 -131 -37.5t-45 -107.5q0 -38 12.5 -66t43.5 -51t67.5 -40
t99.5 -40q173 -62 242 -136t69 -201q0 -126 -101 -210.5t-239 -84.5q-57 0 -103.5 11.5t-71 25t-49 25t-40.5 11.5q-27 0 -33 -37h-32v285h30q37 -141 108 -214t191 -73zM434 -250q-15 -35 -65 -35q-40 0 -67.5 26t-27.5 69q0 45 31.5 72.5t75.5 27.5q52 0 89.5 -35.5
t37.5 -103.5q0 -160 -182 -197l-11 25q69 17 100 50t31 70q0 28 -12 31z" />
    <glyph glyph-name="uni021A" unicode="&#x21a;" horiz-adv-x="1300" 
d="M426 0v27q21 7 33.5 12.5t25 18t19 23.5t13 38.5t8.5 53t4 76t2.5 99.5t0.5 131v1024h-102q-69 0 -117 -6t-92.5 -23.5t-73.5 -49.5t-50.5 -83t-33.5 -124h-36l24 258q4 43 12.5 52t38.5 9h1096q30 0 38.5 -9t12.5 -52l27 -258h-37q-16 91 -44.5 148t-77 87t-105.5 40.5
t-146 10.5h-98v-1024q0 -82 0.5 -131t2.5 -99.5t4 -76t8.5 -53t13 -38.5t19 -23.5t25 -18t33.5 -12.5v-27h-448zM696 -250q-15 -35 -65 -35q-40 0 -67 26t-27 69q0 45 31.5 72.5t74.5 27.5q52 0 89.5 -35.5t37.5 -103.5q0 -160 -182 -197l-10 25q69 17 100 50t31 70
q0 28 -13 31z" />
    <glyph glyph-name="uni021B" unicode="&#x21b;" horiz-adv-x="608" 
d="M373 -16q-114 0 -174 57.5t-60 159.5v733h-84v33q93 11 165.5 102t94.5 252h31v-348h203v-39h-203v-676q0 -129 18.5 -176t81.5 -47q56 0 103 47l18 -19q-63 -79 -194 -79zM377 -250q-15 -35 -66 -35q-40 0 -67 26t-27 69q0 45 31.5 72.5t75.5 27.5q52 0 89.5 -35.5
t37.5 -103.5q0 -160 -183 -197l-10 25q69 17 100 50t31 70q0 28 -12 31z" />
    <glyph glyph-name="uni0237" unicode="&#x237;" horiz-adv-x="485" 
d="M-45 -313q-39 0 -66.5 22.5t-27.5 61.5t22 58t54 19q29 0 56.5 -21t49.5 -42t37 -21q13 0 22 9q19 13 28 54t9 144v619v12q0 133 -9 162q-10 31 -46 41q-14 4 -41 8v31l305 153v-864q0 -238 -192 -369q-64 -45 -108.5 -61t-92.5 -16z" />
    <glyph glyph-name="circumflex" unicode="&#x2c6;" horiz-adv-x="913" 
d="M217 1092l250 356l252 -356l-23 -19l-229 166l-227 -166z" />
    <glyph glyph-name="caron" unicode="&#x2c7;" horiz-adv-x="913" 
d="M217 1448l23 18l227 -166l229 166l23 -18l-252 -356z" />
    <glyph glyph-name="breve" unicode="&#x2d8;" horiz-adv-x="913" 
d="M457 1227q76 0 116 35t60 96h33q0 -102 -56 -179t-153 -77q-100 0 -155.5 76t-55.5 182h33q35 -133 178 -133z" />
    <glyph glyph-name="dotaccent" unicode="&#x2d9;" horiz-adv-x="913" 
d="M457 1141q-51 0 -86 36t-35 87q0 50 35 84t86 34t86 -33.5t35 -82.5q0 -51 -35 -88t-86 -37z" />
    <glyph glyph-name="ring" unicode="&#x2da;" horiz-adv-x="913" 
d="M301 1245q0 72 50.5 118t121.5 46t122.5 -46t51.5 -118t-50.5 -118t-123.5 -46t-122.5 46t-49.5 118zM383 1245q0 -131 90 -131t90 131q0 62 -23.5 96.5t-66.5 34.5q-41 0 -65.5 -35t-24.5 -96z" />
    <glyph glyph-name="ogonek" unicode="&#x2db;" horiz-adv-x="913" 
d="M459 -342q-76 0 -128 38t-52 97q0 34 19 66t47 54.5t63.5 41.5t65 29.5t54.5 15.5h50q-117 -64 -117 -178q0 -43 23.5 -69.5t64.5 -26.5q40 0 78 34l18 -20q-59 -82 -186 -82z" />
    <glyph glyph-name="tilde" unicode="&#x2dc;" horiz-adv-x="913" 
d="M362 1323q38 0 107.5 -14.5t99.5 -14.5q56 0 107 90l24 -12q-53 -207 -157 -207q-37 0 -105 13.5t-102 13.5q-28 0 -52.5 -17.5t-58.5 -70.5l-24 12q37 105 74.5 156t86.5 51z" />
    <glyph glyph-name="hungarumlaut" unicode="&#x2dd;" horiz-adv-x="913" 
d="M514 1098l-20 10l75 272q13 51 32.5 75t55.5 24q34 0 52 -20t18 -52q0 -41 -37 -84zM252 1098l-21 10l74 272q15 52 33.5 75.5t54.5 23.5q34 0 53 -20t19 -52q0 -41 -37 -84z" />
    <glyph glyph-name="Wgrave" unicode="&#x1e80;" horiz-adv-x="1908" 
d="M641 -14l-465 1290q-6 18 -18 51t-16.5 44t-13.5 34t-14 30.5t-14 22t-17.5 20.5t-20 14t-25.5 15v29h383v-29q-33 -9 -45.5 -24t-9 -50.5t27.5 -99.5l373 -1050l182 508l-174 485q-51 138 -69 167q-26 45 -70 64v29h379v-29q-35 -8 -46.5 -23.5t-6.5 -49t30 -105.5
l103 -297l90 246q18 50 25.5 80.5t8.5 62.5t-14.5 52.5t-48.5 33.5v29h205v-29q-31 -15 -47.5 -32t-36 -59t-53.5 -138l-111 -299l242 -700l332 997q17 54 23.5 84.5t3.5 63t-25.5 52t-65.5 31.5v29h252v-29q-35 -16 -53 -30.5t-43 -62t-54 -138.5l-428 -1290h-57l-270 751
l-271 -751h-57zM1190 1614l-332 65q-115 22 -115 107q0 31 22 54.5t56 23.5q49 0 99 -37l280 -187z" />
    <glyph glyph-name="wgrave" unicode="&#x1e81;" 
d="M414 -14l-275 741q-47 128 -71 167t-58 52v27h352v-27q-32 -5 -43 -22.5t-4 -61t37 -129.5l180 -500l150 359l-47 135q-47 131 -70.5 168t-60.5 51v27h356v-27q-32 -5 -45 -22t-8.5 -62.5t33.5 -128.5l166 -481l159 436q30 78 40 129t0 77.5t-28.5 37t-52.5 14.5v27h228
v-27q-26 -9 -42.5 -27.5t-38 -66.5t-65.5 -164l-258 -702h-55l-193 553l-233 -553h-53zM817 1075l-276 185q-74 45 -74 104q0 36 21 57t57 21q33 0 55.5 -18.5t54.5 -65.5l183 -262z" />
    <glyph glyph-name="Wacute" unicode="&#x1e82;" horiz-adv-x="1908" 
d="M641 -14l-465 1290q-6 18 -18 51t-16.5 44t-13.5 34t-14 30.5t-14 22t-17.5 20.5t-20 14t-25.5 15v29h383v-29q-33 -9 -45.5 -24t-9 -50.5t27.5 -99.5l373 -1050l182 508l-174 485q-51 138 -69 167q-26 45 -70 64v29h379v-29q-35 -8 -46.5 -23.5t-6.5 -49t30 -105.5
l103 -297l90 246q18 50 25.5 80.5t8.5 62.5t-14.5 52.5t-48.5 33.5v29h205v-29q-31 -15 -47.5 -32t-36 -59t-53.5 -138l-111 -299l242 -700l332 997q17 54 23.5 84.5t3.5 63t-25.5 52t-65.5 31.5v29h252v-29q-35 -16 -53 -30.5t-43 -62t-54 -138.5l-428 -1290h-57l-270 751
l-271 -751h-57zM803 1614l-10 26l280 187q50 37 98 37q34 0 56 -23.5t22 -54.5q0 -85 -114 -107z" />
    <glyph glyph-name="wacute" unicode="&#x1e83;" 
d="M414 -14l-275 741q-47 128 -71 167t-58 52v27h352v-27q-32 -5 -43 -22.5t-4 -61t37 -129.5l180 -500l150 359l-47 135q-47 131 -70.5 168t-60.5 51v27h356v-27q-32 -5 -45 -22t-8.5 -62.5t33.5 -128.5l166 -481l159 436q30 78 40 129t0 77.5t-28.5 37t-52.5 14.5v27h228
v-27q-26 -9 -42.5 -27.5t-38 -66.5t-65.5 -164l-258 -702h-55l-193 553l-233 -553h-53zM582 1075l-21 21l182 262q32 46 55 65t56 19q36 0 57 -21t21 -57q0 -60 -76 -104z" />
    <glyph glyph-name="Wdieresis" unicode="&#x1e84;" horiz-adv-x="1908" 
d="M641 -14l-465 1290q-6 18 -18 51t-16.5 44t-13.5 34t-14 30.5t-14 22t-17.5 20.5t-20 14t-25.5 15v29h383v-29q-33 -9 -45.5 -24t-9 -50.5t27.5 -99.5l373 -1050l182 508l-174 485q-51 138 -69 167q-26 45 -70 64v29h379v-29q-35 -8 -46.5 -23.5t-6.5 -49t30 -105.5
l103 -297l90 246q18 50 25.5 80.5t8.5 62.5t-14.5 52.5t-48.5 33.5v29h205v-29q-31 -15 -47.5 -32t-36 -59t-53.5 -138l-111 -299l242 -700l332 997q17 54 23.5 84.5t3.5 63t-25.5 52t-65.5 31.5v29h252v-29q-35 -16 -53 -30.5t-43 -62t-54 -138.5l-428 -1290h-57l-270 751
l-271 -751h-57zM1198 1622q-49 0 -81 32.5t-32 82.5q0 47 32 78.5t81 31.5q47 0 79 -31.5t32 -78.5q0 -49 -32 -82t-79 -33zM799 1622q-47 0 -79 33t-32 82q0 47 32 78.5t79 31.5q49 0 81.5 -31.5t32.5 -78.5q0 -50 -32.5 -82.5t-81.5 -32.5z" />
    <glyph glyph-name="wdieresis" unicode="&#x1e85;" 
d="M414 -14l-275 741q-47 128 -71 167t-58 52v27h352v-27q-32 -5 -43 -22.5t-4 -61t37 -129.5l180 -500l150 359l-47 135q-47 131 -70.5 168t-60.5 51v27h356v-27q-32 -5 -45 -22t-8.5 -62.5t33.5 -128.5l166 -481l159 436q30 78 40 129t0 77.5t-28.5 37t-52.5 14.5v27h228
v-27q-26 -9 -42.5 -27.5t-38 -66.5t-65.5 -164l-258 -702h-55l-193 553l-233 -553h-53zM868 1147q-50 0 -82 33t-32 84q0 47 32.5 78.5t81.5 31.5q48 0 80.5 -31.5t32.5 -78.5q0 -51 -32.5 -84t-80.5 -33zM508 1147q-48 0 -79.5 33t-31.5 84q0 47 32 78.5t79 31.5
q49 0 82 -31.5t33 -78.5q0 -51 -32.5 -84t-82.5 -33z" />
    <glyph glyph-name="Ygrave" unicode="&#x1ef2;" horiz-adv-x="1294" 
d="M432 0v27q21 7 33.5 12.5t25 17.5t19 23.5t13 38.5t9 53.5t4.5 76.5t2.5 99.5t0.5 130.5v262l-310 537q-61 109 -100 156.5t-96 74.5v27h432v-27q-50 -14 -59.5 -43t24.5 -96l322 -559l266 467q65 110 64.5 162t-76.5 69v27h256v-27q-36 -14 -57 -28.5t-57 -62.5
t-89 -140l-289 -508v-291q0 -81 0.5 -130.5t2.5 -99.5t4.5 -76.5t9 -53.5t13 -38.5t19 -23.5t25 -17.5t33.5 -12.5v-27h-445zM928 1614l-332 65q-115 22 -115 107q0 31 22 54.5t56 23.5q48 0 98 -37l281 -187z" />
    <glyph glyph-name="ygrave" unicode="&#x1ef3;" horiz-adv-x="942" 
d="M207 -338q-57 0 -86 23.5t-29 62.5q0 37 19.5 56.5t54.5 19.5t74 -25.5t61 -25.5q33 0 70 42t84 162l4 11l-314 749q-57 129 -79.5 163t-57.5 46v27h367v-27q-34 -6 -48 -19.5t-9 -58.5t40 -127l201 -508l184 459q32 77 43 127.5t1.5 76t-28 36t-52.5 14.5v27h227v-27
q-34 -8 -61 -52t-91 -202l-290 -723q-66 -166 -136 -236.5t-149 -70.5zM655 1075l-276 185q-74 45 -74 104q0 36 21 57t57 21q33 0 56 -19t55 -65l182 -262z" />
    <glyph glyph-name="uni2009" unicode="&#x2009;" horiz-adv-x="184" 
 />
    <glyph glyph-name="endash" unicode="&#x2013;" horiz-adv-x="1062" 
d="M90 555v41h883v-41h-883z" />
    <glyph glyph-name="emdash" unicode="&#x2014;" horiz-adv-x="1855" 
d="M90 555v41h1675v-41h-1675z" />
    <glyph glyph-name="quoteleft" unicode="&#x2018;" horiz-adv-x="485" 
d="M199 1337q27 35 73 35q45 0 76 -30t31 -78q0 -54 -36 -86.5t-89 -32.5q-58 0 -100.5 43.5t-42.5 128.5q0 189 213 305l12 -20q-158 -106 -158 -213q0 -43 21 -52z" />
    <glyph glyph-name="quoteright" unicode="&#x2019;" horiz-adv-x="485" 
d="M287 1391q-23 -37 -74 -37q-45 0 -76 30.5t-31 77.5q0 54 36 87.5t89 33.5q58 0 101 -44t43 -130q0 -189 -213 -305l-12 22q157 103 157 213q0 38 -20 52z" />
    <glyph glyph-name="quotesinglbase" unicode="&#x201a;" horiz-adv-x="489" 
d="M289 98q-23 -37 -74 -37q-45 0 -75.5 31t-30.5 78q0 54 36 87.5t88 33.5q58 0 101 -44t43 -130q0 -189 -213 -305l-12 22q157 103 157 213q0 37 -20 51z" />
    <glyph glyph-name="quotedblleft" unicode="&#x201c;" horiz-adv-x="817" 
d="M199 1337q27 35 73 35q45 0 76 -30t31 -78q0 -54 -36 -86.5t-89 -32.5q-58 0 -100.5 43.5t-42.5 128.5q0 189 213 305l12 -20q-158 -106 -158 -213q0 -43 21 -52zM530 1337q27 35 74 35q45 0 76 -30t31 -78q0 -54 -36 -86.5t-89 -32.5q-58 0 -101 43.5t-43 128.5
q0 189 213 305l13 -20q-158 -106 -158 -213q0 -43 20 -52z" />
    <glyph glyph-name="quotedblright" unicode="&#x201d;" horiz-adv-x="817" 
d="M618 1391q-23 -37 -73 -37q-45 0 -76 30.5t-31 77.5q0 54 36 87.5t89 33.5q58 0 101 -44t43 -130q0 -189 -213 -305l-13 22q158 103 158 213q0 37 -21 52zM287 1391q-23 -37 -74 -37q-45 0 -76 30.5t-31 77.5q0 54 36 87.5t89 33.5q58 0 101 -44t43 -130
q0 -189 -213 -305l-12 22q157 103 157 213q0 38 -20 52z" />
    <glyph glyph-name="quotedblbase" unicode="&#x201e;" horiz-adv-x="821" 
d="M621 98q-23 -37 -74 -37q-45 0 -76 31t-31 78q0 54 36 87.5t89 33.5q58 0 101 -44t43 -130q0 -189 -213 -305l-13 22q158 103 158 213q0 37 -20 51zM289 98q-23 -37 -74 -37q-45 0 -75.5 31t-30.5 78q0 54 36 87.5t88 33.5q58 0 101 -44t43 -130q0 -189 -213 -305l-12 22
q157 103 157 213q0 37 -20 51z" />
    <glyph glyph-name="dagger" unicode="&#x2020;" horiz-adv-x="827" 
d="M432 -4h-33q-7 258 -40.5 522.5t-57.5 351.5q39 44 66.5 113.5t27.5 140.5q-45 0 -119 -42t-118 -42q-51 0 -80 31t-29 72q0 44 28.5 73t80.5 29q43 0 118.5 -44t118.5 -44q0 52 -44 146t-44 135q0 48 30 79t77 31t76.5 -31t29.5 -79q0 -41 -44 -135t-44 -146
q44 0 118 44t120 44q52 0 80 -29t28 -73q0 -42 -28.5 -72.5t-79.5 -30.5q-46 0 -120 42t-118 42q0 -70 27.5 -139.5t66.5 -114.5q-23 -94 -56.5 -357t-37.5 -517z" />
    <glyph glyph-name="daggerdbl" unicode="&#x2021;" horiz-adv-x="827" 
d="M414 -16q-47 0 -77 31t-30 79q0 41 44 135t44 146q-45 0 -119 -44t-118 -44q-52 0 -80.5 29t-28.5 73q0 41 29 72t80 31q44 0 117 -42t120 -42q0 225 -119 358q119 140 119 358q-47 0 -120 -42t-117 -42q-51 0 -80 31t-29 72q0 44 28.5 73t80.5 29q44 0 118 -44t119 -44
q0 52 -44 146t-44 135q0 48 30 79t77 31t76.5 -31t29.5 -79q0 -41 -44 -135t-44 -146q46 0 119.5 44t118.5 44q52 0 80 -29t28 -73q0 -42 -28.5 -72.5t-79.5 -30.5q-46 0 -120 42t-118 42q0 -216 117 -358q-117 -135 -117 -358q44 0 118 42t120 42q51 0 79.5 -30.5
t28.5 -72.5q0 -44 -28 -73t-80 -29q-45 0 -118.5 44t-119.5 44q0 -52 44 -146t44 -135q0 -48 -29.5 -79t-76.5 -31z" />
    <glyph glyph-name="bullet" unicode="&#x2022;" horiz-adv-x="776" 
d="M389 848q113 0 186.5 -74t73.5 -186q0 -111 -74 -186.5t-186 -75.5t-187 75.5t-75 186.5q0 112 74.5 186t187.5 74z" />
    <glyph glyph-name="ellipsis" unicode="&#x2026;" horiz-adv-x="1525" 
d="M1260 -25q-58 0 -96 36t-38 95q0 57 38.5 95.5t95.5 38.5t94 -38.5t37 -95.5q0 -59 -36.5 -95t-94.5 -36zM766 -27q-58 0 -95.5 36t-37.5 95q0 57 38 95.5t95 38.5t94 -38.5t37 -95.5q0 -59 -36.5 -95t-94.5 -36zM270 -27q-58 0 -95.5 36t-37.5 95q0 57 38 95.5t95 38.5
t94 -38.5t37 -95.5q0 -59 -36.5 -95t-94.5 -36z" />
    <glyph glyph-name="perthousand" unicode="&#x2030;" horiz-adv-x="2353" 
d="M408 776q-62 0 -123 27.5t-110.5 76t-80.5 123t-31 160.5t31 160t80.5 122.5t110.5 75.5t123 27q63 0 124.5 -27t111.5 -75.5t81 -122.5t31 -160t-31 -160.5t-81 -123t-111.5 -76t-124.5 -27.5zM289 -4l-41 27l1020 1523l41 -26zM408 809q76 0 129 84.5t53 269.5
q0 97 -15.5 168.5t-42.5 110t-58 56.5t-66 18q-33 0 -63 -18t-57 -56.5t-43 -110t-16 -168.5q0 -184 53.5 -269t125.5 -85zM1147 -12q-62 0 -123 27.5t-110.5 76t-80 123t-30.5 160.5t30.5 160t80 122.5t110.5 75.5t123 27q63 0 124.5 -27t111.5 -75.5t81 -122.5t31 -160
t-31 -160.5t-81 -123t-111.5 -76t-124.5 -27.5zM1942 -12q-62 0 -123 27.5t-110.5 76t-80.5 123t-31 160.5t31 160t80.5 122.5t110.5 75.5t123 27q63 0 124.5 -27t111.5 -75.5t81 -122.5t31 -160t-31 -160.5t-81 -123t-111.5 -76t-124.5 -27.5zM1147 20q76 0 129 85t53 270
q0 97 -15.5 168t-42.5 109.5t-58 56.5t-66 18q-33 0 -63 -18t-56.5 -56t-42.5 -109.5t-16 -168.5q0 -184 53 -269.5t125 -85.5zM1942 20q76 0 129 85t53 270q0 97 -15.5 168t-42.5 109.5t-58 56.5t-66 18q-33 0 -63 -18t-57 -56t-43 -109.5t-16 -168.5q0 -184 53.5 -269.5
t125.5 -85.5z" />
    <glyph glyph-name="uni2032" unicode="&#x2032;" horiz-adv-x="335" 
d="M98 1145l-24 8q20 115 20 264q0 139 94 139q42 0 65 -25t23 -65q0 -33 -16 -64.5t-51 -78.5q-76 -108 -111 -178z" />
    <glyph glyph-name="uni2033" unicode="&#x2033;" horiz-adv-x="587" 
d="M240 1145l-25 8q21 121 21 264q0 139 94 139q42 0 65 -25t23 -65q0 -32 -16.5 -63.5t-51.5 -79.5q-73 -103 -110 -178zM209 1145l-25 8q21 121 21 264q0 139 94 139q42 0 65 -25t23 -65q0 -32 -16.5 -63.5t-51.5 -79.5q-73 -103 -110 -178z" />
    <glyph glyph-name="guilsinglleft" unicode="&#x2039;" horiz-adv-x="497" 
d="M399 133l-317 322v32l315 322l23 -14l-162 -324l164 -324z" />
    <glyph glyph-name="guilsinglright" unicode="&#x203a;" horiz-adv-x="497" 
d="M100 133l-22 14l164 324l-162 324l22 14l316 -322v-32z" />
    <glyph glyph-name="fraction" unicode="&#x2044;" horiz-adv-x="1030" 
d="M123 756v24h784v-24h-784z" />
    <glyph glyph-name="Euro" unicode="&#x20ac;" horiz-adv-x="1298" 
d="M39 653v37h141q-2 27 -2 80q0 34 4 96h-143v37h147q18 154 79.5 280t148.5 205.5t189.5 122.5t207.5 43q179 0 296.5 -70.5t117.5 -166.5q0 -39 -24 -66.5t-68 -27.5q-102 0 -121 116q-7 47 -16 75.5t-30 56t-59 39.5t-96 12q-345 0 -379 -619h459v-37h-461v-65
q0 -76 2 -111h459v-37h-457q37 -616 393 -616q73 0 131.5 16t102 48t71 61.5t60.5 73.5l25 -21q-17 -31 -38 -58.5t-59 -62.5t-82.5 -60t-110 -42t-139.5 -17q-172 0 -303.5 87t-207 238.5t-95.5 352.5h-143z" />
    <glyph glyph-name="trademark" unicode="&#x2122;" horiz-adv-x="1466" 
d="M244 913v17q22 9 30 20.5t11.5 45.5t3.5 116v406h-43q-70 0 -102.5 -23t-45.5 -92h-16l10 108q1 18 4.5 21.5t16.5 3.5h460q8 0 11.5 -1t6 -6.5t3.5 -17.5l10 -108h-16q-13 69 -46.5 92t-103.5 23h-41v-406q0 -83 4 -116.5t12 -45t31 -20.5v-17h-200zM676 913v17
q17 7 24 12t12.5 28t6 53t0.5 101v205q0 91 -2.5 124.5t-10.5 48t-30 20.5v14h164h3h2.5t2.5 -0.5t2.5 -2t2 -3.5t2.5 -5.5t3 -8.5l168 -451l178 471h166v-14q-21 -5 -29 -19t-11 -49.5t-3 -124.5v-209q0 -88 3.5 -124.5t11.5 -48t30 -17.5v-17h-198v17q22 7 30 18.5
t11.5 47.5t3.5 124v389l-226 -598h-24l-228 598v-385q0 -56 1 -84t3 -51.5t8.5 -32.5t14 -15t23.5 -11v-17h-115z" />
    <glyph glyph-name="onethird" unicode="&#x2153;" horiz-adv-x="1030" 
d="M123 756v24h784v-24h-784zM662 952h-287v23q36 5 50.5 21t21 64.5t6.5 160.5v190q0 47 -1.5 70.5t-5 42t-14.5 24.5t-23 8.5t-38 2.5v20l217 147v-505q0 -74 1.5 -110t4.5 -67t12 -42t21 -17.5t35 -9.5v-23zM258 416l39 139q6 19 9.5 24t10.5 5h433v-13l-283 -282
q36 12 70 12q112 0 176.5 -57.5t64.5 -171.5q0 -103 -84 -177.5t-223 -74.5q-98 0 -158.5 39t-60.5 86q0 24 15.5 39.5t43.5 15.5q49 0 58 -51l3 -17q3 -17 5 -24t9.5 -22t17 -22t27 -13.5t40.5 -6.5q85 0 125.5 63.5t40.5 164.5q0 202 -113 202q-43 0 -70.5 -14t-62.5 -45
l-16 14l239 240h-129q-93 0 -130 -4.5t-49 -13t-23 -35.5h-25z" />
    <glyph glyph-name="twothirds" unicode="&#x2154;" horiz-adv-x="1030" 
d="M123 756v24h784v-24h-784zM258 416l39 139q6 19 9.5 24t10.5 5h433v-13l-283 -282q36 12 70 12q112 0 176.5 -57.5t64.5 -171.5q0 -103 -84 -177.5t-223 -74.5q-98 0 -158.5 39t-60.5 86q0 24 15.5 39.5t43.5 15.5q49 0 58 -51l3 -17q3 -17 5 -24t9.5 -22t17 -22
t27 -13.5t40.5 -6.5q85 0 125.5 63.5t40.5 164.5q0 202 -113 202q-43 0 -70.5 -14t-62.5 -45l-16 14l239 240h-129q-93 0 -130 -4.5t-49 -13t-23 -35.5h-25zM377 1067h149q101 0 144.5 4.5t59 15t28.5 37.5h22l-35 -135q-6 -24 -10.5 -30.5t-17.5 -6.5h-475l204 230
q85 97 120.5 176t35.5 170q0 168 -119 168q-13 0 -23.5 -2t-18.5 -7t-14 -9t-11 -12t-7.5 -12.5t-5.5 -15t-3.5 -14t-2.5 -14t-2 -11.5q-5 -30 -19.5 -43.5t-45.5 -13.5q-60 0 -60 57q0 42 57.5 81.5t157.5 39.5q70 0 127 -17.5t96.5 -62.5t39.5 -112q0 -89 -60.5 -169
t-175.5 -177z" />
    <glyph glyph-name="oneeighth" unicode="&#x215b;" horiz-adv-x="1030" 
d="M776 41q0 -94 -74 -158.5t-184 -64.5q-119 0 -190.5 56t-71.5 138q0 130 168 199q-79 48 -111 91.5t-32 105.5q0 86 67 134t164 48q108 0 169.5 -45.5t61.5 -110.5q0 -52 -37.5 -96t-99.5 -76q91 -50 130.5 -98t39.5 -123zM518 -158q74 0 113 40t39 100q0 63 -39.5 100.5
t-136.5 87.5l-45 25q-44 -27 -69.5 -75t-25.5 -110q0 -168 164 -168zM537 301l45 -25q73 55 73 152q0 64 -35.5 100.5t-107.5 36.5q-63 0 -101 -27.5t-38 -74.5q0 -22 7.5 -41t17.5 -32t35 -30t44 -27t60 -32zM123 756v24h784v-24h-784zM662 952h-287v23q36 5 50.5 21
t21 64.5t6.5 160.5v190q0 47 -1.5 70.5t-5 42t-14.5 24.5t-23 8.5t-38 2.5v20l217 147v-505q0 -74 1.5 -110t4.5 -67t12 -42t21 -17.5t35 -9.5v-23z" />
    <glyph glyph-name="threeeighths" unicode="&#x215c;" horiz-adv-x="1030" 
d="M776 41q0 -94 -74 -158.5t-184 -64.5q-119 0 -190.5 56t-71.5 138q0 130 168 199q-79 48 -111 91.5t-32 105.5q0 86 67 134t164 48q108 0 169.5 -45.5t61.5 -110.5q0 -52 -37.5 -96t-99.5 -76q91 -50 130.5 -98t39.5 -123zM518 -158q74 0 113 40t39 100q0 63 -39.5 100.5
t-136.5 87.5l-45 25q-44 -27 -69.5 -75t-25.5 -110q0 -168 164 -168zM537 301l45 -25q73 55 73 152q0 64 -35.5 100.5t-107.5 36.5q-63 0 -101 -27.5t-38 -74.5q0 -22 7.5 -41t17.5 -32t35 -30t44 -27t60 -32zM123 756v24h784v-24h-784zM258 1544l39 139q6 19 9.5 24t10.5 5
h433v-12l-283 -283q39 13 70 13q112 0 176.5 -58t64.5 -172q0 -103 -84 -177.5t-223 -74.5q-98 0 -158.5 39t-60.5 86q0 24 15.5 39.5t43.5 15.5q49 0 58 -51l3 -17q3 -17 5 -23.5t9.5 -21.5t17 -22t27 -13.5t40.5 -6.5q85 0 125.5 63t40.5 164q0 203 -113 203
q-43 0 -70.5 -14t-62.5 -46l-16 15l239 239h-129q-93 0 -130 -4.5t-49 -13t-23 -35.5h-25z" />
    <glyph glyph-name="fiveeighths" unicode="&#x215d;" horiz-adv-x="1030" 
d="M776 41q0 -94 -74 -158.5t-184 -64.5q-119 0 -190.5 56t-71.5 138q0 130 168 199q-79 48 -111 91.5t-32 105.5q0 86 67 134t164 48q108 0 169.5 -45.5t61.5 -110.5q0 -52 -37.5 -96t-99.5 -76q91 -50 130.5 -98t39.5 -123zM711 1599h-316l-53 -196q62 47 156 47
q119 0 198.5 -58.5t79.5 -170.5q0 -117 -85.5 -195t-223.5 -78q-96 0 -157.5 38.5t-61.5 88.5q0 27 16 42.5t45 15.5q54 0 60 -62q0 -1 2.5 -17.5t4.5 -22.5t9 -20t16 -20t26.5 -12t39.5 -6q81 0 124.5 71.5t43.5 176.5q0 98 -36 150t-105 52q-107 0 -170 -63l-17 10l90 342
h365l-31 -92q-4 -13 -8 -17t-12 -4zM518 -158q74 0 113 40t39 100q0 63 -39.5 100.5t-136.5 87.5l-45 25q-44 -27 -69.5 -75t-25.5 -110q0 -168 164 -168zM537 301l45 -25q73 55 73 152q0 64 -35.5 100.5t-107.5 36.5q-63 0 -101 -27.5t-38 -74.5q0 -22 7.5 -41t17.5 -32
t35 -30t44 -27t60 -32zM123 756v24h784v-24h-784z" />
    <glyph glyph-name="seveneighths" unicode="&#x215e;" horiz-adv-x="1030" 
d="M776 41q0 -94 -74 -158.5t-184 -64.5q-119 0 -190.5 56t-71.5 138q0 130 168 199q-79 48 -111 91.5t-32 105.5q0 86 67 134t164 48q108 0 169.5 -45.5t61.5 -110.5q0 -52 -37.5 -96t-99.5 -76q91 -50 130.5 -98t39.5 -123zM518 -158q74 0 113 40t39 100q0 63 -39.5 100.5
t-136.5 87.5l-45 25q-44 -27 -69.5 -75t-25.5 -110q0 -168 164 -168zM772 1700l-307 -748h-29l266 647h-213q-116 0 -145.5 -10t-46.5 -55h-23l41 152q9 26 25 26h432v-12zM537 301l45 -25q73 55 73 152q0 64 -35.5 100.5t-107.5 36.5q-63 0 -101 -27.5t-38 -74.5
q0 -22 7.5 -41t17.5 -32t35 -30t44 -27t60 -32zM123 756v24h784v-24h-784z" />
    <glyph glyph-name="arrowleft" unicode="&#x2190;" horiz-adv-x="1650" 
d="M90 715v28q67 15 156.5 57.5t179.5 101t169 136t118 152.5l24 -10q-78 -311 -280 -435h1087v-32h-1087q204 -126 280 -434l-24 -11q-52 102 -170 200.5t-238 160.5t-215 86z" />
    <glyph glyph-name="arrowright" unicode="&#x2192;" horiz-adv-x="1650" 
d="M106 713v32h1088q-203 125 -281 435l25 10q36 -75 115.5 -153t170.5 -136.5t181 -101t156 -56.5v-28q-68 -17 -157 -58.5t-180 -99t-170 -135t-116 -154.5l-25 11q76 308 281 434h-1088z" />
    <glyph glyph-name="minus" unicode="&#x2212;" horiz-adv-x="993" 
d="M96 698v41h801v-41h-801z" />
    <glyph glyph-name="uni24C5" unicode="&#x24c5;" horiz-adv-x="1728" 
d="M866 1559q160 0 306.5 -63t253 -169.5t170 -253.5t63.5 -307t-63.5 -306.5t-170 -253t-253 -170t-306.5 -63.5q-161 0 -308.5 63.5t-254 170t-170 253t-63.5 306.5q0 161 63.5 307.5t170 253t254 169.5t308.5 63zM866 8q152 0 291.5 59t241.5 159.5t162.5 241.5t60.5 298
t-60.5 298t-162.5 241.5t-241.5 159.5t-291.5 59t-292 -59t-243 -159.5t-164 -242t-61 -297.5t61 -297.5t164 -242t243 -159.5t292 -59zM571 303v23q31 9 43 27t16.5 67t4.5 170v348q0 120 -4.5 169.5t-16.5 68.5t-43 28v21h336q166 0 263.5 -56t97.5 -178
q0 -127 -101.5 -194.5t-257.5 -67.5h-112v-139q0 -64 0.5 -99.5t3.5 -67.5t6.5 -46t13 -26t19.5 -16.5t28 -8.5v-23h-297zM907 1200h-110v-444h108q98 0 153.5 49t55.5 174q0 221 -207 221z" />
    <glyph glyph-name="space_uni0326" horiz-adv-x="1024" 
d="M561 -250q-15 -35 -65 -35q-40 0 -67.5 26t-27.5 69q0 45 31.5 72.5t75.5 27.5q52 0 89.5 -35.5t37.5 -103.5q0 -160 -182 -197l-11 25q69 17 100 50t31 70q0 28 -12 31z" />
    <glyph glyph-name="A.alt" 
d="M707 1552l462 -1239q64 -173 92 -224.5t68 -61.5v-27h-414v27q42 9 57.5 23t13 52.5t-29.5 114.5l-88 244h-571l-68 -189q-42 -117 -27 -171t99 -74v-27h-268v27q47 18 80 65.5t75 171.5l465 1288h54zM309 494h547l-274 755z" />
    <glyph glyph-name="G.alt" horiz-adv-x="1488" 
d="M801 -29q-207 0 -373 104t-259 289t-93 416q0 154 44 284.5t117.5 220t168.5 153t196.5 92.5t202.5 29q80 0 143.5 -11.5t95 -25.5t68.5 -25.5t70 -11.5q42 0 57 51h33v-350h-35q-85 340 -432 340q-105 0 -188.5 -37.5t-150 -119.5t-102.5 -226t-36 -342
q0 -208 33.5 -362.5t96.5 -248.5t148.5 -140t194.5 -46q165 0 245 64t80 168v100q0 104 -1.5 168.5t-7 116.5t-13 78t-24 44.5t-34.5 24.5t-49 10v27h353v-756h-31q-5 32 -17.5 48t-39.5 16q-21 0 -63.5 -22t-89 -49t-130.5 -49t-178 -22z" />
    <glyph glyph-name="J.alt" horiz-adv-x="542" 
d="M-80 -305q-64 0 -95.5 29.5t-31.5 72.5q0 36 25 61t61 25q31 0 59.5 -18t45.5 -39t36.5 -39t36.5 -18t37 14q19 15 30.5 31.5t22.5 72.5t11 146v1024q0 110 -0.5 170t-5 116t-10 79t-19.5 44t-29 28t-43 15v27h445v-27q-28 -8 -43 -15t-29 -28t-19.5 -44t-10 -79t-5 -116
t-0.5 -170v-797q0 -61 -13 -118.5t-30.5 -100.5t-47 -86.5t-51 -69.5t-54.5 -56t-46 -40t-36 -27q-86 -67 -191 -67z" />
    <glyph glyph-name="J.alt1" horiz-adv-x="1083" 
d="M694 412v645q0 107 -1 170t-6 116.5t-11 78.5t-21 45t-30 27t-43 15v27h450v-27q-28 -8 -43 -15t-29 -28t-19 -43.5t-9.5 -79.5t-5 -116t-0.5 -170v-592q0 -121 -43.5 -216.5t-115.5 -152.5t-157.5 -86.5t-177.5 -29.5q-106 0 -196 30t-148.5 91.5t-58.5 144.5
q0 48 28.5 74t73.5 26q55 0 85 -28.5t36 -98.5q11 -112 50 -158.5t130 -46.5q65 0 111.5 19.5t81.5 64t52 123t17 191.5z" />
    <glyph glyph-name="K.alt" horiz-adv-x="1331" 
d="M51 0v27q21 6 33.5 11t25 17t19.5 23.5t13 38.5t8.5 53.5t4.5 76.5t2.5 100t0.5 132v578q0 82 -0.5 132t-2.5 100t-4.5 76.5t-8.5 53.5t-13 38.5t-19.5 23.5t-25 17t-33.5 11v27h445v-27q-21 -6 -33.5 -11t-25 -17t-19.5 -23.5t-13 -38.5t-8.5 -53.5t-4.5 -76.5
t-2.5 -100t-0.5 -132v-248l547 528q158 156 14 172v27h283v-27q-78 -6 -252 -174l-504 -485q61 22 127 22q182 0 281 -98t149 -315q55 -249 94 -330.5t115 -81.5q23 0 44.5 10.5t31.5 19t27 25.5l18 -18q-68 -98 -221 -98q-148 0 -234 112.5t-129 378.5q-25 153 -51 227
t-64 103t-106 29q-91 0 -170 -66v-291q0 -82 0.5 -132t2.5 -100t4.5 -76.5t8.5 -53.5t13 -38.5t19.5 -23.5t25 -17t33.5 -11v-27h-445z" />
    <glyph glyph-name="Q.alt" horiz-adv-x="1564" 
d="M782 -29q-129 0 -254 59.5t-223 162.5t-158.5 254.5t-60.5 322.5q0 172 60.5 322.5t158.5 252t223 160t254 58.5t254 -58.5t223.5 -160t159 -252t60.5 -322.5q0 -315 -189 -543l101 -102q54 -54 81.5 -72t63.5 -26v-27h-227q-23 0 -38 7t-44 36l-64 63
q-176 -135 -381 -135zM782 4q226 0 328 156l-326 327q-6 6 -20.5 19.5t-19 17t-15 12t-17 11.5t-16.5 6.5t-22 5.5v27h241q18 0 27 -5.5t33 -29.5l209 -213q39 157 39 432q0 193 -35 342t-96.5 238.5t-139.5 134.5t-170 45q-91 0 -168.5 -45t-138.5 -134.5t-96 -238.5
t-35 -342q0 -384 120 -575t318 -191z" />
    </font>
</defs>
</svg>
