<?xml version="1.0" standalone="no"?>
<!DOCTYPE svg PUBLIC "-//W3C//DTD SVG 1.1//EN" "http://www.w3.org/Graphics/SVG/1.1/DTD/svg11.dtd" >
<svg xmlns="http://www.w3.org/2000/svg" xmlns:xlink="http://www.w3.org/1999/xlink" version="1.1">
<metadata>
Created by FontForge 20170731 at Wed Feb 10 12:54:36 2021
 By Aleksey,,,
Copyright (c) 2018 Commercial Type, Inc. All rights reserved.
</metadata>
<defs>
<font id="SchnyderS-Bold" horiz-adv-x="1378" >
  <font-face 
    font-family="Schnyder S"
    font-weight="700"
    font-stretch="normal"
    units-per-em="2048"
    panose-1="0 0 0 0 0 0 0 0 0 0"
    ascent="1638"
    descent="-410"
    x-height="973"
    cap-height="1536"
    bbox="-229 -614 2298 2234"
    underline-thickness="32"
    underline-position="-192"
    unicode-range="U+000D-FB04"
  />
<missing-glyph horiz-adv-x="366" 
 />
    <glyph glyph-name="f_f" unicode="ff" horiz-adv-x="1175" 
d="M598 0v27q21 7 34 13.5t23 21.5t14.5 27.5t7 46t3 63t0.5 90.5v645h-287v-645q0 -45 0.5 -70t2.5 -54t5 -43t10 -31t16 -24t24 -16t32 -14t43 -10v-27h-471v27q21 7 34 13.5t23 21.5t14.5 27.5t7 46t3 63t0.5 90.5v645h-114v29q70 11 93 35t23 69v88q0 88 24.5 159
t64.5 116.5t92.5 76.5t105 43.5t106.5 12.5q90 0 148 -30.5t76 -82.5q52 64 129.5 95.5t156.5 31.5q114 0 185 -38.5t71 -108.5q0 -28 -22.5 -51t-65.5 -23q-55 0 -77.5 19.5t-30.5 70.5q-10 59 -24 78.5t-44 19.5q-48 0 -73 -51.5t-25 -189.5v-330h207v-39h-207v-645
q0 -45 0.5 -70t2.5 -54t5 -43t10 -31t16 -24t24 -16t32 -14t43 -10v-27h-471zM393 973h287v241q0 78 20 134h-14q-47 0 -66 20t-30 68q-12 61 -23 77.5t-41 16.5q-41 0 -69 -24t-46 -92t-18 -181v-260z" />
    <glyph glyph-name="f_i" unicode="fi" horiz-adv-x="1064" 
d="M55 0v27q21 7 34 13.5t23 21.5t14.5 27.5t7 46t3 63t0.5 90.5v645h-114v29q70 11 93 35t23 69v150q0 77 22.5 140t59 103t84.5 67t95.5 38.5t95.5 11.5q95 0 154 -35t59 -94q0 -33 -21 -54.5t-63 -21.5q-46 0 -64 19.5t-24 68.5q-6 50 -16 67t-34 17q-32 0 -51 -18.5
t-31 -73t-12 -149.5v-330h191l352 35v-719v-70t1.5 -54t3.5 -43.5t7 -30.5t11 -24t16 -16t21.5 -14t29.5 -10v-27h-434v27q23 7 36.5 13.5t24.5 21.5t15.5 27.5t7.5 46.5t3.5 63t0.5 90v428v11v60.5t-1.5 45t-3.5 35t-7.5 23t-11 18t-17 10t-23.5 9t-32 5.5h-191v-645
q0 -45 0.5 -70t2.5 -54t5 -43t10 -31t16 -24t24 -16t32 -14t43 -10v-27h-471zM819 1087q-60 0 -99.5 41.5t-39.5 102.5q0 57 40 97t99 40q60 0 101 -39t41 -96q0 -60 -41 -103t-101 -43z" />
    <glyph glyph-name="f_l" unicode="fl" horiz-adv-x="1071" 
d="M55 0v27q21 7 34 13.5t23 21.5t14.5 27.5t7 46t3 63t0.5 90.5v645h-114v29q70 11 93 35t23 69v119q0 81 22 146.5t58.5 108.5t85.5 72t100 41.5t105 12.5q101 0 164 -38.5t63 -105.5q0 -29 -21 -53t-59 -24q-49 0 -68.5 19t-27.5 75q-7 59 -18 76.5t-41 17.5
q-109 0 -109 -223v-338h187v-39h-187v-645q0 -45 0.5 -70t2.5 -54t5 -43t10 -31t16 -24t24 -16t32 -14t43 -10v-27h-471zM590 0v27q20 6 32.5 13t23 14.5t16 23t10 30.5t6 45t2 58t0.5 78v895v80t-4.5 52t-8.5 36t-18.5 18t-29 11.5t-44.5 4.5v31l361 185v-1313
q0 -61 0.5 -90t4 -63t8.5 -46.5t17.5 -27.5t28 -21.5t41.5 -13.5v-27h-446z" />
    <glyph glyph-name="f_f_i" unicode="ffi" horiz-adv-x="1607" 
d="M55 0v27q21 7 34 13.5t23 21.5t14.5 27.5t7 46t3 63t0.5 90.5v645h-114v29q70 11 93 35t23 69v88q0 88 24.5 159t64.5 116.5t92.5 76.5t105 43.5t106.5 12.5q91 0 149 -30t75 -85q52 65 128 97t154 32q95 0 154 -35t59 -94q0 -33 -21 -54.5t-63 -21.5q-46 0 -64 19.5
t-24 68.5q-6 51 -15.5 67.5t-33.5 16.5q-32 0 -51 -18.5t-31 -73t-12 -149.5v-330h190l353 35v-719v-70t1.5 -54t3.5 -43.5t7 -30.5t11 -24t16 -16t21.5 -14t29.5 -10v-27h-434v27q23 7 36.5 13.5t24.5 21.5t15.5 27.5t7.5 46.5t3.5 63t0.5 90v428q0 137 -9 166
q-10 31 -44 42q-15 4 -44 9h-190v-645q0 -45 0.5 -70t2.5 -54t5 -43t10 -31t16 -24t24 -16t32 -14t43 -10v-27h-471v27q21 7 34 13.5t23 21.5t14.5 27.5t7 46t3 63t0.5 90.5v645h-287v-645q0 -45 0.5 -70t2.5 -54t5 -43t10 -31t16 -24t24 -16t32 -14t43 -10v-27h-471z
M393 973h287v235q0 76 22 140h-16q-47 0 -66 20t-30 68q-12 61 -23 77.5t-41 16.5q-41 0 -69 -24t-46 -92t-18 -181v-260zM1362 1087q-60 0 -99.5 41.5t-39.5 102.5q0 57 39.5 97t99.5 40t100.5 -39t40.5 -96q0 -60 -40.5 -103t-100.5 -43z" />
    <glyph glyph-name="f_f_l" unicode="ffl" horiz-adv-x="1613" 
d="M598 0v27q21 7 34 13.5t23 21.5t14.5 27.5t7 46t3 63t0.5 90.5v645h-287v-645q0 -45 0.5 -70t2.5 -54t5 -43t10 -31t16 -24t24 -16t32 -14t43 -10v-27h-471v27q21 7 34 13.5t23 21.5t14.5 27.5t7 46t3 63t0.5 90.5v645h-114v29q70 11 93 35t23 69v84q0 87 25 157.5
t65.5 115.5t93.5 75.5t106.5 43.5t107.5 13q92 0 149.5 -30.5t75.5 -85.5q53 64 130.5 95.5t160.5 31.5q101 0 164 -38.5t63 -105.5q0 -29 -21 -53t-59 -24q-49 0 -68.5 19t-27.5 75q-7 59 -18.5 76.5t-41.5 17.5q-108 0 -108 -223v-338h186v-39h-186v-645q0 -45 0.5 -70
t2.5 -54t5 -43t10 -31t16 -24t24 -16t32 -14t43 -10v-27h-471zM393 973h287v207q0 84 27 163q-2 -2 -17 -2q-46 0 -65 20t-31 69q-12 61 -23 77.5t-41 16.5q-42 0 -70.5 -23.5t-47.5 -91t-19 -180.5v-256zM1133 0v27q20 6 32.5 13t23 14.5t16 23t10 30.5t6 45t2 58t0.5 78
v895v80t-4.5 52t-8.5 36t-18.5 18t-29 11.5t-44.5 4.5v31l361 185v-1313q0 -61 0.5 -90t4 -63t8.5 -46.5t17.5 -27.5t28 -21.5t41.5 -13.5v-27h-446z" />
    <glyph glyph-name="f_b" unicode="fb" horiz-adv-x="1685" 
d="M55 0v27q21 7 34 13.5t23 21.5t14.5 27.5t7 46t3 63t0.5 90.5v645h-114v29q70 11 93 35t23 69v119q0 81 22 146.5t58.5 108.5t85.5 72t100 41.5t105 12.5q101 0 164 -38.5t63 -105.5q0 -29 -21 -53t-59 -24q-49 0 -68.5 19t-27.5 75q-7 59 -18 76.5t-41 17.5
q-109 0 -109 -223v-338h187v-39h-187v-645q0 -45 0.5 -70t2.5 -54t5 -43t10 -31t16 -24t24 -16t32 -14t43 -10v-27h-471zM1135 -18q-60 0 -118 15.5t-95.5 34.5t-77.5 34.5t-68 15.5q-50 0 -65 -57h-31v1161q0 133 -8 160q-9 29 -44 37q-14 3 -44 6v30l352 185v-811l27 28
q38 41 59.5 61.5t62.5 51.5t87 45t100 14q64 0 124.5 -27.5t113 -82t84.5 -149.5t32 -218q0 -243 -138.5 -388.5t-352.5 -145.5zM993 53q30 -21 58.5 -29t74.5 -8q112 0 173 117.5t61 343.5q0 125 -13 213.5t-37.5 138.5t-56 72.5t-73.5 22.5q-54 0 -102 -36.5t-115 -111.5
l-27 -28v-496q0 -88 13.5 -133t43.5 -66z" />
    <glyph glyph-name="f_f_b" unicode="ffb" horiz-adv-x="2228" 
d="M598 0v27q21 7 34 13.5t23 21.5t14.5 27.5t7 46t3 63t0.5 90.5v645h-287v-645q0 -45 0.5 -70t2.5 -54t5 -43t10 -31t16 -24t24 -16t32 -14t43 -10v-27h-471v27q21 7 34 13.5t23 21.5t14.5 27.5t7 46t3 63t0.5 90.5v645h-114v29q70 11 93 35t23 69v84q0 87 25 157.5
t65.5 115.5t93.5 75.5t106.5 43.5t107.5 13q92 0 149.5 -31.5t75.5 -86.5q53 65 130 97t161 32q101 0 164 -38.5t63 -105.5q0 -29 -21 -53t-59 -24q-49 0 -68.5 19t-27.5 75q-7 59 -18.5 76.5t-41.5 17.5q-108 0 -108 -223v-338h186v-39h-186v-645q0 -45 0.5 -70t2.5 -54
t5 -43t10 -31t16 -24t24 -16t32 -14t43 -10v-27h-471zM393 973h287v207q0 84 27 163q-2 -2 -17 -2q-46 0 -65 20t-31 69q-12 61 -23 77.5t-41 16.5q-42 0 -70.5 -23.5t-47.5 -91t-19 -180.5v-256zM1677 -18q-60 0 -118 15.5t-95 34.5t-77 34.5t-68 15.5q-51 0 -66 -57h-30
v1161q0 132 -9 160q-9 29 -44 37q-14 3 -44 6v30l353 185v-811l26 28q37 40 59.5 61.5t63.5 52t87 44.5t100 14q64 0 124.5 -27.5t113 -82t84.5 -149.5t32 -218q0 -243 -139 -388.5t-353 -145.5zM1536 53q30 -21 58.5 -29t74.5 -8q112 0 173 117.5t61 343.5q0 165 -24 267
t-62.5 141t-94.5 39q-54 0 -102 -36.5t-115 -111.5l-26 -28v-496q0 -88 13.5 -133t43.5 -66z" />
    <glyph glyph-name="f_f_h" unicode="ffh" horiz-adv-x="2217" 
d="M598 0v27q21 7 34 13.5t23 21.5t14.5 27.5t7 46t3 63t0.5 90.5v645h-287v-645q0 -45 0.5 -70t2.5 -54t5 -43t10 -31t16 -24t24 -16t32 -14t43 -10v-27h-471v27q21 7 34 13.5t23 21.5t14.5 27.5t7 46t3 63t0.5 90.5v645h-114v29q70 11 93 35t23 69v84q0 87 25 157.5
t65.5 115.5t93.5 75.5t106.5 43.5t107.5 13q92 0 149.5 -31.5t75.5 -86.5q53 65 130 97t161 32q101 0 164 -38.5t63 -105.5q0 -29 -21 -53t-59 -24q-49 0 -68.5 19t-27.5 75q-7 59 -18.5 76.5t-41.5 17.5q-108 0 -108 -223v-338h186v-39h-186v-645q0 -45 0.5 -70t2.5 -54
t5 -43t10 -31t16 -24t24 -16t32 -14t43 -10v-27h-471zM393 973h287v207q0 84 27 163q-2 -2 -17 -2q-46 0 -65 20t-31 69q-12 61 -23 77.5t-41 16.5q-42 0 -70.5 -23.5t-47.5 -91t-19 -180.5v-256zM1141 0v27q21 7 34 13.5t23 21.5t14.5 27.5t7 46t3 63t0.5 90.5v895v6
q0 129 -9 155q-10 28 -47 36l-41 5v31l353 185v-850l77 73q89 84 160.5 125t157.5 41q109 0 168 -62.5t59 -205.5v-434q0 -162 11.5 -202t70.5 -60v-27h-428v27q42 14 59.5 36t24 69.5t6.5 156.5v502q0 108 -86 108q-47 0 -91.5 -27.5t-111.5 -89.5l-77 -73v-420v-70
t1.5 -54t3.5 -43.5t7 -30.5t11 -24t16 -16t21.5 -14t29.5 -10v-27h-428z" />
    <glyph glyph-name="f_f_j" unicode="ffj" horiz-adv-x="1605" 
d="M598 0v27q21 7 34 13.5t23 21.5t14.5 27.5t7 46t3 63t0.5 90.5v645h-287v-645q0 -45 0.5 -70t2.5 -54t5 -43t10 -31t16 -24t24 -16t32 -14t43 -10v-27h-471v27q21 7 34 13.5t23 21.5t14.5 27.5t7 46t3 63t0.5 90.5v645h-114v29q70 11 93 35t23 69v88q0 88 24.5 159
t64.5 116.5t92.5 76.5t105 43.5t106.5 12.5q91 0 149 -30t75 -85q52 65 128 97t154 32q95 0 154 -35t59 -94q0 -33 -21 -54.5t-63 -21.5q-46 0 -64 19.5t-24 68.5q-6 51 -15.5 67.5t-33.5 16.5q-32 0 -51 -18.5t-31 -73t-12 -149.5v-330h190l353 35v-822q0 -133 -47 -232.5
t-156 -174.5q-76 -53 -127.5 -72.5t-106.5 -19.5q-41 0 -70.5 26.5t-29.5 71.5q0 41 23.5 62.5t58.5 21.5q31 0 62 -26.5t53.5 -52.5t34.5 -26q9 0 20 11q17 17 23 49.5t6 99.5v793q0 137 -9 166q-10 31 -44 42q-15 4 -44 9h-190v-645q0 -45 0.5 -70t2.5 -54t5 -43t10 -31
t16 -24t24 -16t32 -14t43 -10v-27h-471zM393 973h287v235q0 76 22 140h-16q-47 0 -66 20t-30 68q-12 61 -23 77.5t-41 16.5q-41 0 -69 -24t-46 -92t-18 -181v-260zM1362 1087q-60 0 -99.5 41.5t-39.5 102.5q0 57 39.5 97t99.5 40t100.5 -39t40.5 -96q0 -60 -40.5 -103
t-100.5 -43z" />
    <glyph glyph-name="f_f_k" unicode="ffk" horiz-adv-x="2158" 
d="M598 0v27q21 7 34 13.5t23 21.5t14.5 27.5t7 46t3 63t0.5 90.5v645h-287v-645q0 -45 0.5 -70t2.5 -54t5 -43t10 -31t16 -24t24 -16t32 -14t43 -10v-27h-471v27q21 7 34 13.5t23 21.5t14.5 27.5t7 46t3 63t0.5 90.5v645h-114v29q70 11 93 35t23 69v84q0 87 25 157.5
t65.5 115.5t93.5 75.5t106.5 43.5t107.5 13q92 0 149.5 -31.5t75.5 -86.5q53 65 130 97t161 32q101 0 164 -38.5t63 -105.5q0 -29 -21 -53t-59 -24q-49 0 -68.5 19t-27.5 75q-7 59 -18.5 76.5t-41.5 17.5q-108 0 -108 -223v-338h186v-39h-186v-645q0 -45 0.5 -70t2.5 -54
t5 -43t10 -31t16 -24t24 -16t32 -14t43 -10v-27h-471zM393 973h287v207q0 84 27 163q-2 -2 -17 -2q-46 0 -65 20t-31 69q-12 61 -23 77.5t-41 16.5q-42 0 -70.5 -23.5t-47.5 -91t-19 -180.5v-256zM1141 0v27q21 7 34 13.5t23 21.5t14.5 27.5t7 46t3 63t0.5 90.5v895v6
q0 129 -9 155q-10 28 -47 36l-41 5v31l353 185v-1313v-70t1.5 -54t3.5 -43.5t7 -30.5t11 -24t16 -16t21.5 -14t29.5 -10v-27h-428zM1739 0v27q47 6 50 27.5t-30 68.5l-252 391v25l310 266q38 32 54.5 58t12 42.5t-20.5 26.5t-42 14v27h268v-27q-42 -11 -82.5 -40
t-165.5 -132l-139 -117l344 -526q40 -58 61.5 -78.5t42.5 -25.5v-27h-411z" />
    <glyph glyph-name="f_h" unicode="fh" horiz-adv-x="1675" 
d="M55 0v27q21 7 34 13.5t23 21.5t14.5 27.5t7 46t3 63t0.5 90.5v645h-114v29q70 11 93 35t23 69v119q0 81 22 146.5t58.5 108.5t85.5 72t100 41.5t105 12.5q101 0 164 -38.5t63 -105.5q0 -29 -21 -53t-59 -24q-49 0 -68.5 19t-27.5 75q-7 59 -18 76.5t-41 17.5
q-109 0 -109 -223v-338h187v-39h-187v-645q0 -45 0.5 -70t2.5 -54t5 -43t10 -31t16 -24t24 -16t32 -14t43 -10v-27h-471zM598 0v27q21 7 34 13.5t23 21.5t14.5 27.5t7 46t3 63t0.5 90.5v895v11q0 126 -9 151q-10 28 -48 35q-12 2 -39 5v31l352 185v-850l78 73
q90 85 160.5 125.5t156.5 40.5q228 0 228 -268v-434q0 -163 11 -203t70 -59v-27h-428v27q42 14 60 36t24.5 69.5t6.5 156.5v502q0 108 -86 108q-47 0 -91.5 -27.5t-111.5 -89.5l-78 -73v-420v-70t1.5 -54t3.5 -43.5t7 -30.5t11 -24t16 -16t21.5 -14t29.5 -10v-27h-428z" />
    <glyph glyph-name="f_j" unicode="fj" horiz-adv-x="1060" 
d="M55 0v27q21 7 34 13.5t23 21.5t14.5 27.5t7 46t3 63t0.5 90.5v645h-114v29q70 11 93 35t23 69v150q0 77 22.5 140t59 103t84.5 67t95.5 38.5t95.5 11.5q95 0 154 -35t59 -94q0 -33 -21 -54.5t-63 -21.5q-46 0 -64 19.5t-24 68.5q-6 50 -16 67t-34 17q-32 0 -51 -18.5
t-31 -73t-12 -149.5v-330h191l352 35v-822q0 -133 -47 -232.5t-156 -174.5q-76 -53 -127 -72.5t-106 -19.5q-41 0 -71 26.5t-30 71.5q0 41 23.5 62.5t58.5 21.5q31 0 62 -26.5t53.5 -52.5t34.5 -26q9 0 20 11q17 17 23 49.5t6 99.5v793v11v60.5t-1.5 45t-3.5 35t-7.5 23
t-11 18t-17 10t-23.5 9t-32 5.5h-191v-645q0 -45 0.5 -70t2.5 -54t5 -43t10 -31t16 -24t24 -16t32 -14t43 -10v-27h-471zM819 1087q-60 0 -99.5 41.5t-39.5 102.5q0 57 40 97t99 40q60 0 101 -39t41 -96q0 -60 -41 -103t-101 -43z" />
    <glyph glyph-name="f_k" unicode="fk" horiz-adv-x="1615" 
d="M55 0v27q21 7 34 13.5t23 21.5t14.5 27.5t7 46t3 63t0.5 90.5v645h-114v29q70 11 93 35t23 69v119q0 81 22 146.5t58.5 108.5t85.5 72t100 41.5t105 12.5q101 0 164 -38.5t63 -105.5q0 -29 -21 -53t-59 -24q-49 0 -68.5 19t-27.5 75q-7 59 -18 76.5t-41 17.5
q-109 0 -109 -223v-338h187v-39h-187v-645q0 -45 0.5 -70t2.5 -54t5 -43t10 -31t16 -24t24 -16t32 -14t43 -10v-27h-471zM598 0v27q21 7 34 13.5t23 21.5t14.5 27.5t7 46t3 63t0.5 90.5v895v11q0 126 -9 151q-10 28 -48 35q-12 2 -39 5v31l352 185v-1313v-70t1.5 -54
t3.5 -43.5t7 -30.5t11 -24t16 -16t21.5 -14t29.5 -10v-27h-428zM1196 0v27q33 4 43.5 15t5 29t-27.5 52l-252 391v25l309 266q38 32 54.5 58t12 42.5t-20.5 26.5t-42 14v27h268v-27q-42 -11 -82.5 -40t-165.5 -132l-139 -117l344 -526q39 -58 61.5 -78.5t43.5 -25.5v-27
h-412z" />
    <glyph glyph-name="g_j" unicode="gj" horiz-adv-x="1513" 
d="M1260 1118q-60 0 -102 43t-42 103t42 100.5t102 40.5t101.5 -39.5t41.5 -99.5t-41.5 -104t-101.5 -44zM944 -313q-45 0 -71.5 23t-26.5 65q0 45 24 69.5t58 24.5q24 0 49 -16.5t41 -36t34 -36t31 -16.5q10 0 21 11q17 17 23 49.5t6 99.5v647v6q0 139 -10 168
q-10 31 -46 42q-14 4 -41 8v30l353 183v-822q0 -131 -47.5 -230t-155.5 -177q-128 -92 -242 -92zM453 -344q-74 0 -143 9.5t-134.5 30t-105 60.5t-39.5 94q0 34 16 62.5t45.5 49.5t59.5 36t69 29q-143 44 -143 155q0 61 31.5 109.5t89.5 97.5l26 23q-158 89 -155 254
q0 77 35.5 141t92.5 104t125.5 62t137.5 22q97 0 196 -45q49 46 107 77.5t98 31.5q103 0 103 -86q0 -36 -21 -58t-47 -22q-32 0 -59 18.5t-47.5 37t-36.5 18.5q-30 0 -74 -29q78 -44 125 -113.5t47 -158.5q0 -76 -35.5 -137.5t-93 -99t-125 -57.5t-137.5 -20q-116 0 -203 43
l-29 -24q-45 -36 -45 -70q0 -43 82 -53l342 -39q161 -18 239.5 -74.5t78.5 -175.5q0 -139 -130.5 -221t-342.5 -82zM184 -131q0 -85 72.5 -132.5t196.5 -47.5q173 0 265.5 50.5t92.5 119.5q0 54 -50.5 82t-174.5 41l-275 28l-43 6q-84 -41 -84 -147zM461 385q73 0 115 63
t42 218q0 159 -40.5 228t-116.5 69q-77 0 -117.5 -69t-40.5 -228q0 -156 41 -218.5t117 -62.5z" />
    <glyph glyph-name=".notdef" horiz-adv-x="366" 
 />
    <glyph glyph-name=".null" horiz-adv-x="0" 
 />
    <glyph glyph-name="nonmarkingreturn" horiz-adv-x="682" 
 />
    <glyph glyph-name="NULL" horiz-adv-x="0" 
 />
    <glyph glyph-name="NULL" horiz-adv-x="0" 
 />
    <glyph glyph-name="CR" unicode="&#xd;" horiz-adv-x="366" 
 />
    <glyph glyph-name="space" unicode=" " horiz-adv-x="366" 
 />
    <glyph glyph-name="exclam" unicode="!" horiz-adv-x="557" 
d="M297 453h-39q-13 180 -39 344.5t-48.5 258t-40 179.5t-17.5 135q0 89 43.5 135.5t122.5 46.5t122 -46t43 -136q0 -49 -17.5 -135t-41 -179.5t-49.5 -258t-39 -344.5zM281 -31q-67 0 -112.5 43t-45.5 111q0 67 45.5 111.5t112.5 44.5t110 -44t43 -112q0 -69 -42.5 -111.5
t-110.5 -42.5z" />
    <glyph glyph-name="quotedbl" unicode="&#x22;" horiz-adv-x="806" 
d="M600 1022h-33q-11 55 -64.5 208t-53.5 208q0 67 34.5 104t100.5 37q68 0 102.5 -37t34.5 -104q0 -55 -55 -206.5t-66 -209.5zM238 1022h-33q-11 56 -65 208.5t-54 207.5q0 67 34.5 104t100.5 37q68 0 102.5 -37t34.5 -104q0 -55 -54.5 -206.5t-65.5 -209.5z" />
    <glyph glyph-name="numbersign" unicode="#" horiz-adv-x="1011" 
d="M37 541v41h244l81 475h-235v41h244l75 438h48l-76 -438h268l76 438h47l-76 -438h242v-41h-250l-82 -475h242v-41h-248l-94 -539h-47l94 539h-268l-95 -539h-47l94 539h-237zM328 582h268l82 475h-268z" />
    <glyph glyph-name="dollar" unicode="$" horiz-adv-x="1099" 
d="M428 1710h45v-162q46 4 64 4q48 0 71 -2v160h45v-164q169 -20 267 -88.5t98 -163.5q0 -50 -30.5 -81t-78.5 -31q-125 0 -147 149q-12 82 -33 121t-76 55v-569q190 -91 292 -208t102 -286q0 -180 -106.5 -300.5t-287.5 -149.5v-189h-45v183q-18 -2 -57 -2q-53 0 -78 2
v-183h-45v189q-179 23 -285 99.5t-106 185.5q0 59 36 93t91 34t89 -34.5t38 -99.5q5 -116 33 -169.5t104 -71.5v674q-88 39 -149 78.5t-110 91.5t-73 118.5t-24 149.5q0 160 98 264.5t258 134.5v168zM864 311q0 86 -46.5 151.5t-164.5 131.5v-565q104 24 157.5 97t53.5 185z
M551 18q12 0 57 5v595q-37 22 -135 66v-661q57 -5 78 -5zM537 1520q-18 0 -64 -4v-500l135 -60v560q-46 4 -71 4zM246 1278q0 -87 43 -140t139 -100v467q-87 -23 -134.5 -82.5t-47.5 -144.5z" />
    <glyph glyph-name="percent" unicode="%" horiz-adv-x="1566" 
d="M412 776q-66 0 -128 27.5t-111.5 76.5t-79.5 123t-30 160t30 160t79.5 122.5t111.5 75.5t128 27t128.5 -27t112.5 -75.5t80.5 -122.5t30.5 -160t-30.5 -160.5t-80.5 -123t-112.5 -76t-128.5 -27.5zM293 -4l-41 27l1020 1523l41 -26zM412 809q68 0 110.5 83t42.5 271
q0 189 -42 271t-111 82q-67 0 -108.5 -82t-41.5 -271q0 -187 41.5 -270.5t108.5 -83.5zM1151 -12q-66 0 -128 27.5t-111 76.5t-79 123t-30 160t30 160t79 122.5t111 75.5t128 27t128.5 -27t112.5 -75.5t80.5 -122.5t30.5 -160t-30.5 -160.5t-80.5 -123t-112.5 -76
t-128.5 -27.5zM1151 20q68 0 111 83.5t43 271.5t-42.5 270t-111.5 82q-32 0 -57.5 -17.5t-47 -56.5t-33.5 -109.5t-12 -168.5q0 -188 41.5 -271.5t108.5 -83.5z" />
    <glyph glyph-name="ampersand" unicode="&#x26;" horiz-adv-x="1595" 
d="M338 1217q0 96 59 176.5t155.5 126t205.5 45.5q91 0 171 -33t131.5 -97.5t51.5 -146.5q0 -39 -14.5 -76.5t-33 -65.5t-54 -57.5t-60 -47t-70 -42t-64.5 -33t-62 -28.5q5 -5 20 -25l356 -464l119 225q45 84 60.5 118t22 72t-14.5 54t-70 28v27h324v-27
q-48 -11 -76.5 -23.5t-62.5 -42.5t-67 -81t-79 -137l-129 -248q94 -123 156.5 -197.5t106 -112.5t68 -51.5t62.5 -25.5v-27h-397l-137 178q-80 -102 -170.5 -150t-216.5 -48q-252 0 -406.5 114t-154.5 312q0 59 16 112.5t39 94t61 78.5t71 63.5t80 52t76.5 40.5t71.5 32
q-79 111 -112 188t-33 150zM569 1331q0 -45 11 -91t24 -77.5t41 -75t42.5 -62.5t47.5 -62q30 20 38.5 26t37 28t40.5 36t33 41.5t30.5 53t17.5 61.5t8 75q0 67 -17 117.5t-45 77.5t-58 40t-62 13q-88 0 -138.5 -58.5t-50.5 -142.5zM360 414q0 -209 70 -305.5t203 -96.5
q114 0 199 49t159 150l-413 539q-45 56 -78 104q-140 -104 -140 -440z" />
    <glyph glyph-name="quotesingle" unicode="'" horiz-adv-x="444" 
d="M238 1022h-33q-11 56 -65 208.5t-54 207.5q0 67 34.5 104t100.5 37q68 0 102.5 -37t34.5 -104q0 -55 -54.5 -206.5t-65.5 -209.5z" />
    <glyph glyph-name="parenleft" unicode="(" horiz-adv-x="681" 
d="M647 -195l-20 -22q-65 45 -128 99t-143.5 144.5t-139 187t-99.5 228t-41 267.5q0 137 41 268.5t99.5 227t139 185t143 142t128.5 98.5l20 -22q-31 -26 -67 -72t-79 -127.5t-77 -179t-57 -234.5t-23 -286q0 -183 33.5 -347t84.5 -273.5t97.5 -178.5t87.5 -105z" />
    <glyph glyph-name="parenright" unicode=")" horiz-adv-x="681" 
d="M55 -217l-20 22q41 36 87.5 105t97.5 178.5t84.5 273.5t33.5 347q0 149 -23 286t-57 234.5t-77 179t-79 127.5t-67 72l20 22q66 -46 128.5 -98.5t143 -142t139 -185t99.5 -227t41 -268.5q0 -136 -41 -267.5t-99.5 -228t-139 -187t-143.5 -144.5t-128 -99z" />
    <glyph glyph-name="asterisk" unicode="*" horiz-adv-x="784" 
d="M459 963q0 -80 -68 -80q-67 0 -67 80q0 38 28 118.5t35 124.5q-34 -42 -72 -119t-61 -100q-26 -28 -55 -29t-52 23q-49 49 11 104q29 27 105.5 64t113.5 63q-48 -8 -130.5 -33.5t-115.5 -25.5q-80 0 -80 68q0 65 80 65q35 0 118 -27t128 -34q-40 32 -116.5 68t-100.5 63
q-30 26 -32 55.5t22 52.5q48 48 104 -10q22 -25 63.5 -104t69.5 -119q-8 51 -35.5 132.5t-27.5 115.5q0 37 17.5 58.5t49.5 21.5t50 -21.5t18 -58.5q0 -34 -26.5 -117t-33.5 -131q25 37 64.5 117t64.5 106q53 60 107 6q24 -20 21.5 -49t-31.5 -55q-28 -25 -101.5 -62
t-113.5 -69q46 7 125.5 34t115.5 27q82 0 82 -65q0 -68 -82 -68q-35 0 -114 26t-127 33q38 -27 112 -63t103 -62q61 -61 10 -108q-23 -24 -52 -22.5t-55 30.5q-23 24 -60 101t-69 118q7 -49 33.5 -127.5t26.5 -115.5z" />
    <glyph glyph-name="plus" unicode="+" horiz-adv-x="993" 
d="M520 313h-45v385h-379v41h379v387h45v-387h377v-41h-377v-385z" />
    <glyph glyph-name="comma" unicode="," horiz-adv-x="571" 
d="M348 43q-27 -47 -100 -47q-55 0 -93 38t-38 97q0 64 44 106t103 42q74 0 128 -56t54 -170q0 -120 -80.5 -207.5t-215.5 -130.5l-13 23q230 86 230 244q0 42 -19 61z" />
    <glyph glyph-name="hyphen" unicode="-" horiz-adv-x="628" 
d="M86 461l49 182h408l-49 -182h-408z" />
    <glyph glyph-name="period" unicode="." horiz-adv-x="542" 
d="M272 -31q-67 0 -111 43t-44 111q0 67 44.5 111.5t110.5 44.5q67 0 110.5 -44t43.5 -112q0 -69 -43 -111.5t-111 -42.5z" />
    <glyph glyph-name="slash" unicode="/" horiz-adv-x="907" 
d="M825 1649l47 -21l-858 -1968l-47 21z" />
    <glyph glyph-name="zero" unicode="0" horiz-adv-x="1398" 
d="M700 1559q121 0 233.5 -59t198.5 -161.5t137.5 -251.5t51.5 -317q0 -167 -52.5 -316.5t-138.5 -253t-198.5 -163.5t-231.5 -60q-120 0 -233 60t-199 163.5t-138 253t-52 316.5q0 168 52 317t138 251.5t199 161.5t233 59zM700 1526q-144 0 -225.5 -183.5t-81.5 -572.5
q0 -401 73.5 -580.5t233.5 -179.5t234 179.5t74 580.5q0 198 -22.5 345.5t-64 236t-96.5 131.5t-125 43z" />
    <glyph glyph-name="one" unicode="1" horiz-adv-x="692" 
d="M641 0h-580v27q28 5 45.5 9.5t35.5 15t27 22.5t18 38t13 53.5t7 76.5t3.5 101t0.5 132v492q0 69 -1 106t-7.5 71.5t-15.5 47.5t-30 22t-45.5 7.5t-66.5 -7.5v31l455 328v-1098q0 -270 13 -337q13 -69 55 -91q23 -12 73 -20v-27z" />
    <glyph glyph-name="two" unicode="2" horiz-adv-x="1110" 
d="M252 246h266q113 0 184 1.5t128 8t86 13.5t53 24t34.5 34.5t24.5 49.5h37l-78 -283q-18 -64 -30 -79t-48 -15h-909l395 465q164 193 235.5 357.5t71.5 338.5q0 190 -49.5 276.5t-154.5 86.5q-34 0 -59.5 -5t-43 -11.5t-30.5 -22.5t-20.5 -29t-13.5 -40.5t-9 -46t-7 -56.5
q-16 -142 -137 -142q-57 0 -95 38.5t-38 95.5q0 103 118 177t337 74q56 0 118.5 -11t134.5 -40.5t128 -74t93.5 -119t37.5 -168.5q0 -93 -35 -182.5t-104.5 -175.5t-151.5 -162t-197 -164z" />
    <glyph glyph-name="three" unicode="3" horiz-adv-x="1187" 
d="M492 14q317 0 317 494q0 68 -1.5 111t-7 94t-17.5 82t-31.5 59t-50 40.5t-72.5 12.5q-74 0 -130 -17.5t-83 -36.5t-77 -62q-9 -7 -13 -11l-21 23l492 493h-262q-90 0 -150 -2t-104.5 -10t-68.5 -15.5t-43 -26t-27 -34.5t-21 -49h-37l76 297q14 57 22 68.5t37 11.5h838
v-29l-598 -598q74 31 170 31q98 0 182 -25t152.5 -75.5t107.5 -136t39 -197.5q0 -113 -41 -208.5t-118 -165.5t-195 -110t-264 -40q-196 0 -319.5 86t-123.5 200q0 52 34.5 87.5t90.5 35.5q131 0 143 -125q2 -19 4.5 -48.5t4 -47t6.5 -42t11 -39t18.5 -30.5t29.5 -24.5
t42.5 -14.5t58.5 -6z" />
    <glyph glyph-name="four" unicode="4" horiz-adv-x="1312" 
d="M1184 369h-174q0 -90 2.5 -144.5t8.5 -93.5t19.5 -58.5t30 -29t45.5 -16.5v-27h-502v27q49 12 69 37t29 91t9 214h-692v32l848 1155h133v-1005h260zM188 551h533v727z" />
    <glyph glyph-name="five" unicode="5" horiz-adv-x="1157" 
d="M942 1303h-653l-105 -420q137 98 332 98q93 0 174.5 -15.5t153.5 -51.5t123.5 -89t81.5 -133t30 -180q0 -128 -48.5 -230t-132.5 -167t-193 -99t-234 -34q-194 0 -323.5 78.5t-129.5 203.5q0 50 38.5 82.5t90.5 32.5q56 0 91.5 -31.5t40.5 -83.5q1 -15 4 -47t4 -43.5
t5 -36t7.5 -33.5t11 -26.5t16.5 -24t22.5 -16.5t31 -13.5t40 -6.5t50.5 -3q154 0 230.5 132.5t76.5 367.5q0 434 -262 434q-103 0 -195 -32t-159 -89l-23 19l172 690h744l-60 -182q-12 -35 -20 -43t-33 -8z" />
    <glyph glyph-name="six" unicode="6" horiz-adv-x="1335" 
d="M778 1524q-171 0 -264 -145t-117 -431q137 113 289 113q95 0 181.5 -20.5t160 -63t127.5 -103t84.5 -145.5t30.5 -186q0 -107 -35.5 -200.5t-94 -158.5t-133 -112t-152 -69.5t-150.5 -22.5q-67 0 -138 21.5t-141.5 63t-133 107.5t-110.5 148.5t-76 193.5t-28 236
q0 119 30.5 229.5t82 197.5t121 159t147 120t159.5 74t160 26q198 0 307 -62t109 -159q0 -53 -34.5 -83.5t-84.5 -30.5q-121 0 -139 125q-9 61 -21 97t-33 53.5t-43 22.5t-61 5zM389 750q0 -196 26 -343t71 -231t100 -124t119 -40q80 0 132.5 34t81 105.5t39.5 163.5t11 228
q0 110 -14.5 194.5t-39.5 138.5t-62 89t-78.5 49t-92.5 14q-161 0 -289 -121q-4 -102 -4 -157z" />
    <glyph glyph-name="seven" unicode="7" horiz-adv-x="1093" 
d="M1051 1507l-609 -1507h-41l523 1292h-512q-134 0 -199.5 -10.5t-90 -30t-46.5 -65.5h-31l78 276q13 49 22 61.5t39 12.5h867v-29z" />
    <glyph glyph-name="eight" unicode="8" horiz-adv-x="1228" 
d="M1149 434q0 -94 -46.5 -180t-121.5 -145t-170 -94t-190 -35q-153 0 -281 48.5t-201 132t-73 181.5q0 75 28 137.5t81 110t116.5 82t146.5 65.5q-86 53 -138.5 93.5t-92 90.5t-56 107t-16.5 133t29.5 141.5t78.5 111t112.5 78.5t131 48.5t134.5 15.5q196 0 326 -92
t130 -239q0 -117 -90 -200.5t-223 -131.5q102 -59 168 -107t118 -103t75.5 -115.5t23.5 -133.5zM621 12q305 0 305 262q0 67 -20.5 118.5t-76 99.5t-97 74.5t-138.5 81.5q-8 5 -12 7l-113 64q-56 -31 -93 -69.5t-63 -112.5t-26 -177q0 -166 77 -257t257 -91zM670 946l67 -39
v2q156 81 156 312q0 143 -71 223t-201 80q-137 0 -210 -58.5t-73 -175.5q0 -33 9 -63.5t20 -53t39 -49.5t46.5 -43.5t64 -44.5t70 -42t83.5 -48z" />
    <glyph glyph-name="nine" unicode="9" horiz-adv-x="1335" 
d="M563 12q84 0 146.5 25t104.5 70.5t69 119t40.5 161.5t18.5 206q-132 -121 -307 -121q-111 0 -211.5 32.5t-181 95t-128.5 164.5t-48 230q0 106 37 198.5t96.5 155.5t134.5 108.5t151 67t146 21.5q92 0 181.5 -31t170 -95t141.5 -153t97 -213.5t36 -267.5
q0 -178 -53.5 -330t-146 -255.5t-220.5 -162t-274 -58.5q-198 0 -319 61.5t-121 165.5q0 55 30.5 86t86.5 31q62 0 96.5 -29.5t44.5 -99.5q12 -108 49 -145.5t133 -37.5zM367 1014q0 -130 11.5 -218.5t41.5 -156.5t84.5 -100.5t136.5 -32.5q168 0 303 135q2 47 2 145
q0 170 -19 301.5t-49.5 210t-73 128.5t-84.5 68.5t-89 18.5q-116 0 -190 -128.5t-74 -370.5z" />
    <glyph glyph-name="colon" unicode=":" horiz-adv-x="559" 
d="M281 618q-67 0 -111.5 43t-44.5 111q0 67 45 111.5t111 44.5q67 0 110 -44t43 -112q0 -69 -42.5 -111.5t-110.5 -42.5zM281 -31q-67 0 -111.5 43t-44.5 111q0 67 45 111.5t111 44.5q67 0 110 -44t43 -112q0 -69 -42.5 -111.5t-110.5 -42.5z" />
    <glyph glyph-name="semicolon" unicode=";" horiz-adv-x="583" 
d="M289 618q-67 0 -111.5 43t-44.5 111q0 67 45 111.5t111 44.5q67 0 110 -44t43 -112q0 -69 -42.5 -111.5t-110.5 -42.5zM354 43q-27 -47 -100 -47q-55 0 -93 38t-38 97q0 64 44 106t103 42q74 0 128.5 -56t54.5 -170q0 -120 -81 -207.5t-216 -130.5l-13 23q230 86 230 244
q0 42 -19 61z" />
    <glyph glyph-name="less" unicode="&#x3c;" horiz-adv-x="948" 
d="M115 692v51l719 318v-49l-666 -293l666 -295v-49z" />
    <glyph glyph-name="equal" unicode="=" horiz-adv-x="993" 
d="M96 829v41h801v-41h-801zM96 545v41h801v-41h-801z" />
    <glyph glyph-name="greater" unicode="&#x3e;" horiz-adv-x="948" 
d="M834 692l-719 -317v49l665 295l-665 293v49l719 -318v-51z" />
    <glyph glyph-name="question" unicode="?" horiz-adv-x="917" 
d="M375 422h-33q-11 107 7 207.5t52 178.5t69.5 150t62 152t26.5 156q0 138 -40.5 198t-137.5 60q-39 0 -57 -18t-29 -62q-1 -5 -6 -26t-7 -26.5t-7 -23t-9 -23t-11.5 -18t-15.5 -17t-18.5 -11.5t-24.5 -9t-30 -2q-49 0 -82 30.5t-33 72.5q0 72 88.5 118.5t243.5 46.5
q226 0 344.5 -86t118.5 -231q0 -73 -27 -139t-69.5 -117t-94 -100t-102 -98.5t-92 -101t-65.5 -119t-21 -142.5zM389 -31q-67 0 -111.5 43t-44.5 111q0 67 45 111.5t111 44.5q67 0 110.5 -44t43.5 -112q0 -69 -43 -111.5t-111 -42.5z" />
    <glyph glyph-name="at" unicode="@" horiz-adv-x="1794" 
d="M1493 -104l18 -23q-251 -213 -630 -213q-130 0 -248.5 26.5t-223 84t-181 141t-121 205.5t-44.5 270q0 189 78.5 359t208 288.5t302.5 188t358 69.5q214 0 378.5 -76t257.5 -221t93 -338q0 -140 -56 -261.5t-157 -209t-252.5 -134t-331.5 -36.5l19 109
q-63 -62 -113.5 -88.5t-124.5 -26.5q-119 0 -203 91t-84 264q0 102 31.5 195.5t85.5 163.5t123 122t146 79t153 27q52 0 99.5 -18t87 -35.5t69.5 -17.5q41 0 92 51h29l-119 -701q-19 -97 -3 -126.5t81 -6.5q144 47 231.5 182.5t87.5 354.5q0 286 -181.5 449t-487.5 163
q-160 0 -301.5 -56t-246.5 -157t-166 -253.5t-61 -334.5q0 -359 189 -554t524 -195q193 0 349.5 60t244.5 139zM702 354q0 -155 24.5 -219.5t76.5 -64.5q32 0 67.5 22t98.5 82l94 563q23 183 -88 183q-40 0 -86.5 -41t-88.5 -112t-70 -180.5t-28 -232.5z" />
    <glyph glyph-name="A" unicode="A" horiz-adv-x="1464" 
d="M31 0v27q33 11 55 31t51.5 76.5t67.5 162.5l366 1016l-26 69q-24 64 -51 89.5t-68 37.5v27h344q22 0 29 -7t18 -38l465 -1231q53 -136 76 -171q31 -47 76 -58v-31h-471v31q38 7 53 26t11 55t-28 95l-98 254h-598l-59 -164q-46 -121 -29.5 -181.5t111.5 -88.5v-27h-295z
M315 494h574l-297 768z" />
    <glyph glyph-name="B" unicode="B" horiz-adv-x="1304" 
d="M51 0v27q21 7 33.5 12.5t25 17.5t19 23.5t13 38.5t9 53.5t4.5 76.5t2.5 99.5t0.5 130.5v578q0 81 -0.5 130.5t-2.5 99.5t-4.5 76.5t-9 53.5t-13 38.5t-19 23.5t-25 17.5t-33.5 12.5v27h506q300 0 446 -90t146 -258q0 -62 -23 -115t-74 -100.5t-142.5 -81t-217.5 -49.5v-6
q276 -32 410.5 -133.5t134.5 -264.5q0 -110 -52 -195t-145.5 -137.5t-216 -79t-270.5 -26.5h-502zM555 1503h-102v-649h90q105 0 173 18.5t107 60t54.5 99t15.5 144.5q0 175 -74.5 251t-263.5 76zM547 821h-94v-788h90q206 0 303.5 87.5t97.5 285.5q0 110 -17.5 183.5
t-61.5 128t-121.5 79t-196.5 24.5z" />
    <glyph glyph-name="C" unicode="C" 
d="M821 -33q-118 0 -227.5 34t-202.5 102t-162 163.5t-108 225t-39 278.5q0 155 43.5 288t116 224t166.5 156t195 95t202 30q72 0 134.5 -13t97.5 -28t72 -28t65 -13q58 0 71 55h33v-377h-33q-60 186 -174.5 278.5t-265.5 92.5q-185 0 -292 -178.5t-107 -550.5
q0 -766 485 -766q122 0 224.5 52t170.5 132l25 -22q-28 -39 -68.5 -75.5t-100 -73.5t-143.5 -59t-178 -22z" />
    <glyph glyph-name="D" unicode="D" horiz-adv-x="1521" 
d="M51 0v27q21 7 33.5 12.5t25 17.5t19 23.5t13 38.5t9 53.5t4.5 76.5t2.5 99.5t0.5 130.5v578q0 81 -0.5 130.5t-2.5 99.5t-4.5 76.5t-9 53.5t-13 38.5t-19 23.5t-25 17.5t-33.5 12.5v27h494q197 0 359.5 -47t282.5 -138.5t186.5 -235t66.5 -327.5q0 -363 -238.5 -575.5
t-656.5 -212.5h-494zM545 1503h-92v-1472h92q205 0 328 72t184 239t61 449q0 172 -27.5 298.5t-75 205.5t-122 126t-157 64.5t-191.5 17.5z" />
    <glyph glyph-name="E" unicode="E" horiz-adv-x="1247" 
d="M51 0v27q21 7 33.5 12.5t25 17.5t19 23.5t13 38.5t9 53.5t4.5 76.5t2.5 99.5t0.5 130.5v578q0 81 -0.5 130.5t-2.5 99.5t-4.5 76.5t-9 53.5t-13 38.5t-19 23.5t-25 17.5t-33.5 12.5v27h1004q25 0 34.5 -10t16.5 -51l39 -222h-37q-34 102 -78 153.5t-119 74t-209 22.5
h-249v-626h77q45 0 79.5 4t58.5 8.5t42.5 17.5t28 20.5t19 29.5t12.5 31.5t10 38.5q3 10 4 15h31v-368h-31q-21 76 -31 94q-30 55 -120 69q-43 7 -103 7h-77v-811h260q155 0 240 25.5t129 82.5t69 170h37l-27 -248q-2 -24 -5.5 -36.5t-12 -18.5t-16 -7t-27.5 -1h-1049z" />
    <glyph glyph-name="F" unicode="F" horiz-adv-x="1232" 
d="M51 0v27q21 6 33.5 11t25 17t19.5 23.5t13 38.5t8.5 53.5t4.5 76.5t2.5 100t0.5 132v578q0 82 -0.5 132t-2.5 100t-4.5 76.5t-8.5 53.5t-13 38.5t-19.5 23.5t-25 17t-33.5 11v27h1055q25 0 34 -9.5t15 -49.5l35 -232h-37q-18 56 -33 89.5t-39.5 66t-54.5 49.5t-78 30.5
t-110.5 18t-151.5 4.5h-233v-633h118q46 0 81.5 4.5t60 11.5t42.5 20.5t28 25t17.5 33t11 36t7.5 41.5h31v-372h-31q-6 37 -11 56t-20.5 44.5t-40 37.5t-69 21t-107.5 9h-118v-359q0 -83 0.5 -132t2.5 -100t4 -77t8.5 -53t13 -38.5t19 -23.5t25 -17t33.5 -11v-27h-508z" />
    <glyph glyph-name="G" unicode="G" horiz-adv-x="1552" 
d="M829 -33q-156 0 -294.5 61.5t-238 168t-157 258t-57.5 325.5q0 129 33 242.5t90 197.5t130.5 150.5t157.5 108t168.5 63t165.5 21.5q91 0 166 -19t131 -38t99 -19q49 0 61 49h33v-373h-33q-49 170 -166.5 268.5t-290.5 98.5q-426 0 -426 -729q0 -418 105.5 -609.5
t322.5 -191.5q151 0 220 80.5t69 271.5v39q0 115 -13.5 178.5t-39.5 88.5t-74 34v27h520v-27q-52 -8 -75 -41.5t-32 -117.5t-9 -267v-59q-91 -98 -258 -169t-308 -71z" />
    <glyph glyph-name="H" unicode="H" horiz-adv-x="1525" 
d="M51 0v27q21 6 33.5 11t25 17t19.5 23.5t13 38.5t8.5 53.5t4.5 76.5t2.5 100t0.5 132v578q0 82 -0.5 132t-2.5 100t-4.5 76.5t-8.5 53.5t-13 38.5t-19.5 23.5t-25 17t-33.5 11v27h502v-27q-21 -6 -33.5 -11t-25 -17t-19.5 -23.5t-13 -38.5t-8.5 -53.5t-4.5 -76.5
t-2.5 -100t-0.5 -132v-199h633v199q0 83 -0.5 132t-2.5 100t-4 77t-8.5 53t-13 38.5t-19 23.5t-25 17t-33.5 11v27h502v-27q-21 -6 -33.5 -11t-25 -17t-19.5 -23.5t-13 -38.5t-8.5 -53.5t-4.5 -76.5t-2.5 -100t-0.5 -132v-578q0 -82 0.5 -132t2.5 -100t4.5 -76.5t8.5 -53.5
t13 -38.5t19.5 -23.5t25 -17t33.5 -11v-27h-502v27q21 6 33.5 11t25 17t19 23.5t13 38.5t8.5 53t4 77t2.5 100t0.5 132v346h-633v-346q0 -82 0.5 -132t2.5 -100t4.5 -76.5t8.5 -53.5t13 -38.5t19.5 -23.5t25 -17t33.5 -11v-27h-502z" />
    <glyph glyph-name="I" unicode="I" horiz-adv-x="604" 
d="M51 0v27q21 7 33.5 12.5t25 17.5t19 23.5t13 38.5t9 53.5t4.5 76.5t2.5 99.5t0.5 130.5v578q0 82 -0.5 132t-2.5 100t-4.5 76.5t-8.5 53.5t-13 38.5t-19.5 23.5t-25 17t-33.5 11v27h502v-27q-21 -6 -33.5 -11t-25 -17t-19.5 -23.5t-13 -38.5t-8.5 -53.5t-4.5 -76.5
t-2.5 -100t-0.5 -132v-578q0 -81 0.5 -130.5t2.5 -99.5t4.5 -76.5t9 -53.5t13 -38.5t19 -23.5t25 -17.5t33.5 -12.5v-27h-502z" />
    <glyph glyph-name="J" unicode="J" horiz-adv-x="972" 
d="M410 -20q-164 0 -275.5 57.5t-111.5 157.5q0 53 35 84.5t85 31.5q51 0 86 -29.5t54 -103.5q12 -52 19.5 -76t23 -48.5t38 -33t58.5 -8.5q52 0 82.5 32.5t30.5 98.5v914q0 110 -0.5 170t-5 116t-10 79t-19.5 44t-29 28t-43 15v27h502v-27q-28 -8 -43 -15t-29 -28
t-19.5 -44t-10 -79t-5 -116t-0.5 -170v-676q0 -185 -117.5 -293t-295.5 -108z" />
    <glyph glyph-name="K" unicode="K" horiz-adv-x="1380" 
d="M887 0v27q24 4 37 11t18 16.5t-1 27t-16.5 37t-31.5 51.5l-434 664l575 503q47 41 67 71.5t13.5 50t-26 31t-54.5 19.5v27h291v-27q-47 -11 -101 -50.5t-151 -127.5l-383 -334l547 -835q46 -73 73.5 -97.5t67.5 -37.5v-27h-491zM51 0v27q21 6 33.5 11t25 17t19.5 23.5
t13 38.5t8.5 53.5t4.5 76.5t2.5 100t0.5 132v578q0 82 -0.5 132t-2.5 100t-4.5 76.5t-8.5 53.5t-13 38.5t-19.5 23.5t-25 17t-33.5 11v27h502v-27q-21 -6 -33.5 -11t-25 -17t-19.5 -23.5t-13 -38.5t-8.5 -53.5t-4.5 -76.5t-2.5 -100t-0.5 -132v-578q0 -82 0.5 -132t2.5 -100
t4.5 -76.5t8.5 -53.5t13 -38.5t19.5 -23.5t25 -17t33.5 -11v-27h-502z" />
    <glyph glyph-name="L" unicode="L" horiz-adv-x="1200" 
d="M51 0v27q21 6 33.5 11t25 17t19.5 23.5t13 38.5t8.5 53.5t4.5 76.5t2.5 100t0.5 132v578q0 82 -0.5 132t-2.5 100t-4.5 76.5t-8.5 53.5t-13 38.5t-19.5 23.5t-25 17t-33.5 11v27h520v-27q-19 -4 -31 -8t-24.5 -12t-20 -14.5t-15 -23.5t-11 -30.5t-7.5 -43t-5 -54.5
t-2.5 -71t-1.5 -87v-108v-1024h215q122 0 196 12.5t127.5 49.5t83.5 92t60 153h36l-53 -277q-10 -46 -19 -54.5t-42 -8.5h-1006z" />
    <glyph glyph-name="M" unicode="M" horiz-adv-x="1736" 
d="M51 0v27q24 13 37.5 24t27 25t20 39.5t12 53t7 80t2.5 106.5t1 147v555q0 81 -0.5 130.5t-2.5 99.5t-4.5 76.5t-9 53.5t-13 38.5t-19 23.5t-25 17.5t-33.5 12.5v27h402q23 0 31.5 -10.5t27.5 -61.5l371 -1032l377 1104h426v-27q-21 -6 -33.5 -11t-25 -17t-19.5 -23.5
t-13 -38.5t-8.5 -53.5t-4.5 -76.5t-2.5 -100t-0.5 -132v-578q0 -82 0.5 -132t2.5 -100t4.5 -76.5t8.5 -53.5t13 -38.5t19.5 -23.5t25 -17t33.5 -11v-27h-515v27q21 6 33.5 11t25 17t19.5 23.5t13 38.5t8.5 53.5t4.5 76.5t2.5 100t0.5 132v991l-504 -1476h-41l-536 1481v-973
q0 -83 0.5 -130t3 -99t5.5 -77.5t11.5 -55t17 -42t25.5 -28t34.5 -24t45.5 -19.5v-27h-289z" />
    <glyph glyph-name="N" unicode="N" horiz-adv-x="1394" 
d="M51 0v27q28 14 43 24.5t29 34.5t19.5 49t10 82t5 116.5t0.5 168.5v555q0 81 -0.5 130.5t-2.5 99.5t-4.5 76.5t-9 53.5t-13 38.5t-19 23.5t-25 17.5t-33.5 12.5v27h395q38 0 53 -11t48 -61l661 -1007v579q0 84 -0.5 131.5t-3 100t-5.5 78t-11 54.5t-17 41.5t-25.5 27.5
t-33.5 22.5t-45 17.5v27h287v-27q-21 -10 -33.5 -18t-25 -22.5t-19.5 -27.5t-13 -41t-8.5 -55t-4.5 -77.5t-2.5 -100.5t-0.5 -131v-1042h-80l-970 1489v-981q0 -86 0.5 -131.5t2.5 -100t5 -78.5t11 -54.5t17 -42.5t25.5 -27.5t34 -23t45.5 -17.5v-27h-287z" />
    <glyph glyph-name="O" unicode="O" horiz-adv-x="1593" 
d="M797 -35q-137 0 -266.5 60.5t-228.5 165t-159.5 256.5t-60.5 323q0 137 39 262t107.5 221t158 167t195.5 108t215 37q136 0 265.5 -59t228.5 -161.5t159.5 -253t60.5 -321.5t-60.5 -323t-159.5 -256.5t-228.5 -165t-265.5 -60.5zM797 -2q185 0 289 191.5t104 580.5
q0 156 -20.5 284t-56.5 216t-86 147.5t-107.5 87t-122.5 27.5q-82 0 -152 -45t-125 -134.5t-86 -239t-31 -343.5q0 -389 104.5 -580.5t289.5 -191.5z" />
    <glyph glyph-name="P" unicode="P" horiz-adv-x="1255" 
d="M51 0v27q21 6 33.5 11t25 17t19.5 23.5t13 38.5t8.5 53.5t4.5 76.5t2.5 100t0.5 132v578q0 82 -0.5 132t-2.5 100t-4.5 76.5t-8.5 53.5t-13 38.5t-19.5 23.5t-25 17t-33.5 11v27h588q133 0 238 -21.5t184.5 -67t122.5 -121t43 -177.5q0 -144 -79 -245t-209 -148t-298 -47
h-188v-230q0 -82 0.5 -131.5t2.5 -100.5t5 -77t10 -53.5t14.5 -39t22 -23.5t29 -16.5t38.5 -10.5v-27h-524zM637 1503h-184v-762h182q159 0 237 90.5t78 292.5q0 201 -79 290t-234 89z" />
    <glyph glyph-name="Q" unicode="Q" horiz-adv-x="1593" 
d="M797 -35q-134 0 -263 60t-229 163.5t-161.5 256t-61.5 325.5t61.5 324t162 252.5t229 160t262.5 58.5q107 0 211.5 -36.5t194.5 -107t159.5 -166t109 -221t39.5 -264.5q0 -222 -94 -400.5t-252 -285.5l19 -57q90 -312 248 -312q61 0 137 66l18 -17q-1 -1 -14.5 -15.5
t-19 -18.5t-21 -16t-29.5 -16.5t-36.5 -11.5t-50.5 -9.5t-62 -2.5q-56 0 -102 6.5t-96 26.5t-89.5 53t-75 89.5t-59.5 132.5q-80 -17 -135 -17zM797 1532q-66 0 -123.5 -27.5t-107.5 -87t-86 -147.5t-56.5 -215.5t-20.5 -284.5q0 -634 234 -747q-80 68 -80 172
q0 88 61.5 144t167.5 56q111 0 194 -49.5t142 -157.5q68 166 68 582q0 157 -20.5 284.5t-56 215.5t-85.5 147.5t-107.5 87t-123.5 27.5zM600 195q0 -95 54.5 -146t142.5 -51q71 0 127 12q-3 11 -7.5 33t-7.5 33q-26 141 -68.5 200.5t-115.5 59.5q-56 0 -90.5 -37t-34.5 -104
z" />
    <glyph glyph-name="R" unicode="R" horiz-adv-x="1376" 
d="M51 0v27q21 6 33.5 11t25 17t19.5 23.5t13 38.5t8.5 53.5t4.5 76.5t2.5 100t0.5 132v578q0 82 -0.5 132t-2.5 100t-4.5 76.5t-8.5 53.5t-13 38.5t-19.5 23.5t-25 17t-33.5 11v27h574q321 0 483 -93t162 -269q0 -103 -45.5 -182.5t-127.5 -129t-190.5 -75t-238.5 -25.5
h-13q165 -21 257.5 -99.5t140.5 -256.5q57 -206 98.5 -280.5t112.5 -74.5q32 0 50 8.5t38 28.5l18 -18q-73 -84 -227 -84q-165 0 -255 91t-126 314q-24 161 -53.5 241t-67 105t-104.5 25h-84v-283q0 -83 0.5 -132t2.5 -100t4 -77t8.5 -53t13 -38.5t19 -23.5t25 -17t33.5 -11
v-27h-508zM616 1503h-163v-708h188q189 0 263.5 77.5t74.5 264.5q0 189 -80 277.5t-283 88.5z" />
    <glyph glyph-name="S" unicode="S" horiz-adv-x="1173" 
d="M559 -23q-78 0 -146 17t-107 37.5t-82.5 37.5t-76.5 17q-17 0 -29.5 -12t-17.5 -31h-30v424h36q30 -215 143.5 -336t309.5 -121q171 0 252.5 69t81.5 210q0 139 -89.5 221t-326.5 180q-94 39 -160 79.5t-118 94.5t-77.5 123t-25.5 156q0 188 121.5 303t331.5 115
q83 0 156 -19t124 -38t82 -19q24 0 35.5 9.5t16.5 33.5h30v-328h-37q-30 158 -137 243t-270 85q-275 0 -275 -223q0 -97 77.5 -171.5t252.5 -148.5q94 -39 163 -75.5t134 -85t106 -101.5t65 -122.5t24 -151.5q0 -95 -31.5 -174.5t-84 -133.5t-122.5 -92t-145.5 -55
t-153.5 -17z" />
    <glyph glyph-name="T" unicode="T" horiz-adv-x="1331" 
d="M410 0v27q21 7 33.5 12.5t25 18t19 23.5t13 38.5t8.5 53t4 76t2.5 99.5t0.5 131v1024h-92q-70 0 -119 -7t-94 -26t-74 -52.5t-49.5 -87.5t-30.5 -130h-37l23 275q4 43 12.5 52t38.5 9h1139q30 0 38.5 -9t12.5 -52l27 -275h-37q-14 95 -42.5 155t-76.5 92.5t-106 44
t-146 11.5h-92v-1024q0 -81 0.5 -130.5t2.5 -99.5t4.5 -76.5t9 -53.5t13 -38.5t19 -23.5t25 -17.5t33.5 -12.5v-27h-508z" />
    <glyph glyph-name="U" unicode="U" horiz-adv-x="1402" 
d="M741 -31q-283 0 -440.5 138.5t-157.5 414.5v535q0 82 -0.5 131.5t-2 100.5t-4 77.5t-8 53.5t-12 38.5t-17.5 23.5t-23 16.5t-31 10.5v27h494v-27q-21 -6 -33.5 -11t-25 -17t-19.5 -23.5t-13 -38.5t-8.5 -53.5t-4.5 -76.5t-2.5 -100t-0.5 -132v-590q0 -105 7.5 -175.5
t27.5 -129.5t56 -92t92 -50.5t137 -17.5q234 0 347 115t113 379v538q0 84 -0.5 131.5t-3 100t-5.5 78.5t-11 55.5t-16.5 41.5t-25 27.5t-33.5 23t-44 17.5v27h285v-27q-28 -14 -43 -24.5t-29 -34.5t-19.5 -49t-10 -82t-5 -116.5t-0.5 -168.5v-538q0 -276 -126 -401.5
t-384 -125.5z" />
    <glyph glyph-name="V" unicode="V" horiz-adv-x="1370" 
d="M653 -14l-463 1237q-71 185 -88 215q-25 48 -64 67q-4 2 -9 4v27h479v-27q-30 -7 -45 -16t-23 -31t0.5 -62t32.5 -104l346 -944l334 926q44 110 28.5 164.5t-106.5 66.5v27h266v-27q-32 -15 -50.5 -32.5t-43 -65t-57.5 -139.5l-465 -1286h-72z" />
    <glyph glyph-name="W" unicode="W" horiz-adv-x="1916" 
d="M637 -14l-465 1290q-6 18 -18 51t-16.5 44t-13.5 34t-14 30.5t-14 22t-17.5 20.5t-20 14t-25.5 15v29h444v-29q-48 -13 -54.5 -45t28.5 -129l350 -983l151 422l-182 504q-51 138 -69 167q-26 45 -70 64v29h440v-29q-32 -7 -44 -22.5t-7.5 -51t29.5 -104.5l90 -262l75 211
q14 40 21.5 65t12 54.5t-0.5 48t-20 35t-41 26.5v29h205v-29q-45 -21 -67.5 -57.5t-70.5 -171.5l-96 -266l227 -672l312 936q12 37 17.5 58.5t9.5 48.5t0 43t-15 33t-32.5 28.5t-53.5 19.5v29h262v-29q-34 -16 -52.5 -32.5t-42.5 -63t-54 -135.5l-428 -1290h-72l-264 731
l-262 -731h-72z" />
    <glyph glyph-name="X" unicode="X" horiz-adv-x="1413" 
d="M47 0v27q58 20 104 70t136 186l295 438l-316 555q-74 132 -115 174.5t-98 58.5v27h522v-27q-42 -5 -56.5 -24t-0.5 -66t62 -131l213 -375l235 351q53 79 70.5 129t1.5 78.5t-68 37.5v27h266v-27q-21 -7 -35 -13.5t-29.5 -19t-24.5 -20.5t-27 -32t-29 -40.5t-39 -58
t-49 -72.5l-252 -374l338 -594q84 -145 119.5 -190t95.5 -68v-27h-524v27q49 12 63.5 33.5t0 69.5t-67.5 142l-236 414l-278 -414q-49 -76 -61 -126t8 -77.5t71 -41.5v-27h-295z" />
    <glyph glyph-name="Y" unicode="Y" horiz-adv-x="1306" 
d="M410 0v27q21 7 33.5 12.5t25 18t19 23.5t13 38.5t8.5 53t4 76t2.5 99.5t0.5 131v262l-297 537q-62 113 -97.5 158.5t-96.5 72.5v27h503v-27q-50 -18 -62 -48t17 -91l303 -557l252 465q61 112 57 163t-81 68v27h268v-27q-28 -11 -44 -20t-40.5 -32.5t-52.5 -66.5t-66 -112
l-274 -508v-291q0 -82 0.5 -131t2.5 -99.5t4 -76t8.5 -53t13 -38.5t19 -23.5t25 -18t33.5 -12.5v-27h-501z" />
    <glyph glyph-name="Z" unicode="Z" horiz-adv-x="1277" 
d="M41 0l793 1503h-289q-118 0 -194 -14.5t-123 -50t-71.5 -79t-47.5 -118.5h-37l57 295h1051l-803 -1503h317q113 0 188.5 9.5t131 29.5t91.5 59.5t59 90t44 130.5h37l-57 -352h-1147z" />
    <glyph glyph-name="bracketleft" unicode="[" horiz-adv-x="667" 
d="M141 1624h475v-33h-229v-1775h229v-33h-475v1841z" />
    <glyph glyph-name="backslash" unicode="\" horiz-adv-x="907" 
d="M82 1649l858 -1968l-47 -21l-858 1968z" />
    <glyph glyph-name="bracketright" unicode="]" horiz-adv-x="667" 
d="M526 1624v-1841h-475v33h230v1775h-230v33h475z" />
    <glyph glyph-name="asciicircum" unicode="^" horiz-adv-x="851" 
d="M68 999l342 549h32l342 -549l-32 -20l-326 522l-326 -522z" />
    <glyph glyph-name="underscore" unicode="_" horiz-adv-x="739" 
d="M-12 -213v41h764v-41h-764z" />
    <glyph glyph-name="grave" unicode="`" horiz-adv-x="913" 
d="M616 1059l-282 145q-98 55 -98 131q0 44 25 70.5t71 26.5q42 0 70.5 -23.5t66.5 -81.5l168 -248z" />
    <glyph glyph-name="a" unicode="a" horiz-adv-x="983" 
d="M309 -20q-117 0 -186.5 60t-69.5 167q0 46 17 82t42.5 59t68.5 45t80 35t93.5 33.5t94.5 36.5l28 12q59 28 80 48q41 41 41 108v151q0 141 -145 141q-57 0 -89 -28.5t-53 -81.5q-20 -54 -45 -77t-73 -23q-42 0 -70.5 25t-28.5 63q0 69 98 112t250 43q196 0 302 -66
t106 -198v-502q0 -114 12.5 -149t50.5 -35q23 0 58 20l10 -22q-74 -53 -195 -53q-74 0 -121.5 32.5t-60.5 96.5l-24 -21q-35 -32 -66 -53t-87 -41t-118 -20zM309 248q0 -195 119 -195q35 0 70 20t82 60l18 17v407q-27 -38 -117 -80l-28 -12q-75 -32 -109.5 -78.5
t-34.5 -138.5z" />
    <glyph glyph-name="b" unicode="b" horiz-adv-x="1132" 
d="M582 -18q-60 0 -118 15.5t-95.5 34.5t-77.5 34.5t-68 15.5q-50 0 -65 -57h-31v1161q0 133 -8 160q-9 29 -44 37q-14 3 -44 6v30l352 185v-811l27 28q38 41 59.5 61.5t62.5 51.5t87 45t100 14q64 0 124.5 -27.5t113 -82t84.5 -149.5t32 -218q0 -243 -138.5 -388.5
t-352.5 -145.5zM440 53q30 -21 58.5 -29t74.5 -8q112 0 173 117.5t61 343.5q0 125 -13 213.5t-37.5 138.5t-56 72.5t-73.5 22.5q-54 0 -102 -36.5t-115 -111.5l-27 -28v-496q0 -88 13.5 -133t43.5 -66z" />
    <glyph glyph-name="c" unicode="c" horiz-adv-x="923" 
d="M539 -18q-204 0 -343 134t-139 349q0 101 30 188.5t80 149t114 105t132.5 64.5t135.5 21q146 0 237 -44t91 -120q0 -37 -26.5 -58t-68.5 -21q-64 0 -91.5 31t-49.5 110q-12 40 -32.5 55t-57.5 15q-227 0 -227 -426q0 -249 76 -368.5t214 -119.5q137 0 244 107l23 -23
q-134 -149 -342 -149z" />
    <glyph glyph-name="d" unicode="d" horiz-adv-x="1130" 
d="M426 -18q-73 0 -138 28t-116.5 82.5t-82 143.5t-30.5 202q0 257 137.5 404t356.5 147q112 0 197 -65v260q0 133 -9 160q-9 28 -44 36q-14 3 -44 6v31l353 185v-1313v-70t1.5 -54t3.5 -43.5t7 -30.5t11 -24t16 -16t21.5 -14t29.5 -10v-27h-346v166l-21 -23
q-33 -36 -58.5 -59t-64 -49.5t-83.5 -39.5t-97 -13zM326 459q0 -412 184 -412q53 0 105.5 36.5t113.5 104.5l21 23v672q-91 71 -191 71q-110 0 -171.5 -122.5t-61.5 -372.5z" />
    <glyph glyph-name="e" unicode="e" horiz-adv-x="976" 
d="M565 -20q-99 0 -188 31t-161.5 91t-115.5 161.5t-43 230.5q0 97 30 181t78.5 141t110 98t123.5 60t119 19q169 0 283.5 -93.5t126.5 -260.5h-606q-5 -97 -5 -121q0 -475 314 -475q79 0 135 20t115 62l18 -27q-69 -55 -144.5 -86.5t-189.5 -31.5zM518 961
q-162 0 -192 -287h360q-17 156 -56 221.5t-112 65.5z" />
    <glyph glyph-name="f" unicode="f" horiz-adv-x="632" 
d="M55 0v27q21 7 34 13.5t23 21.5t14.5 27.5t7 46t3 63t0.5 90.5v645h-114v29q70 11 93 35t23 69v150q0 96 33.5 168.5t88.5 112.5t115.5 59.5t123.5 19.5q114 0 185 -38.5t71 -108.5q0 -28 -22.5 -51t-65.5 -23q-55 0 -78 19.5t-31 70.5q-10 59 -23.5 78.5t-43.5 19.5
q-48 0 -73.5 -51.5t-25.5 -189.5v-330h207v-39h-207v-645q0 -45 0.5 -70t2.5 -54t5 -43t10 -31t16 -24t24 -16t32 -14t43 -10v-27h-471z" />
    <glyph glyph-name="g" unicode="g" horiz-adv-x="983" 
d="M453 -344q-74 0 -143 9.5t-134.5 30t-105 60.5t-39.5 94q0 34 16 62.5t45.5 49.5t59.5 36t69 29q-143 44 -143 155q0 61 31.5 109.5t89.5 97.5l26 23q-158 89 -155 254q0 77 35.5 141t92.5 104t125.5 62t137.5 22q97 0 196 -45q49 46 107 77.5t98 31.5q103 0 103 -86
q0 -36 -21 -58t-47 -22q-32 0 -59 18.5t-47.5 37t-36.5 18.5q-30 0 -74 -29q78 -44 125 -113.5t47 -158.5q0 -76 -35.5 -137.5t-93 -99t-125 -57.5t-137.5 -20q-116 0 -203 43l-29 -24q-45 -36 -45 -70q0 -43 82 -53l342 -39q161 -18 239.5 -74.5t78.5 -175.5
q0 -139 -130.5 -221t-342.5 -82zM184 -131q0 -85 72.5 -132.5t196.5 -47.5q173 0 265.5 50.5t92.5 119.5q0 54 -50.5 82t-174.5 41l-275 28l-43 6q-84 -41 -84 -147zM461 385q73 0 115 63t42 218q0 159 -40.5 228t-116.5 69q-77 0 -117.5 -69t-40.5 -228q0 -156 41 -218.5
t117 -62.5z" />
    <glyph glyph-name="h" unicode="h" horiz-adv-x="1122" 
d="M45 0v27q21 7 34 13.5t23 21.5t14.5 27.5t7 46t3 63t0.5 90.5v895v11q0 126 -9 151q-10 28 -48 35q-12 2 -39 5v31l352 185v-850l78 73q90 85 160.5 125.5t156.5 40.5q228 0 228 -268v-434q0 -163 11 -203t70 -59v-27h-428v27q42 14 60 36t24.5 69.5t6.5 156.5v502
q0 108 -86 108q-47 0 -91.5 -27.5t-111.5 -89.5l-78 -73v-420v-70t1.5 -54t3.5 -43.5t7 -30.5t11 -24t16 -16t21.5 -14t29.5 -10v-27h-428z" />
    <glyph glyph-name="i" unicode="i" horiz-adv-x="516" 
d="M258 1118q-60 0 -101.5 43t-41.5 103t41.5 100.5t101.5 40.5t101.5 -39.5t41.5 -99.5t-41.5 -104t-101.5 -44zM43 0v27q23 7 36.5 13.5t24.5 21.5t15.5 27.5t7.5 46.5t3.5 63t0.5 90v289v11v60.5t-1.5 45t-3.5 35t-7.5 23t-11 18t-17 10t-23.5 9t-32 5.5v30l352 183v-719
v-70t1.5 -54t3.5 -43.5t7 -30.5t11 -24t16 -16t21.5 -14t29.5 -10v-27h-434z" />
    <glyph glyph-name="j" unicode="j" horiz-adv-x="512" 
d="M258 1118q-60 0 -101.5 43t-41.5 103t41.5 100.5t101.5 40.5t101.5 -39.5t41.5 -99.5t-41.5 -104t-101.5 -44zM-49 -313q-41 0 -71 26.5t-30 71.5q0 41 23.5 62.5t58.5 21.5q31 0 62 -26.5t53.5 -52.5t34.5 -26q9 0 20 11q17 17 23 49.5t6 99.5v647q0 142 -8 171
q-10 33 -43 43q-14 5 -45 10v30l352 183v-822q0 -133 -47 -232.5t-156 -174.5q-76 -53 -127 -72.5t-106 -19.5z" />
    <glyph glyph-name="k" unicode="k" horiz-adv-x="1062" 
d="M45 0v27q21 7 34 13.5t23 21.5t14.5 27.5t7 46t3 63t0.5 90.5v895v11q0 126 -9 151q-10 28 -48 35q-12 2 -39 5v31l352 185v-1313v-70t1.5 -54t3.5 -43.5t7 -30.5t11 -24t16 -16t21.5 -14t29.5 -10v-27h-428zM643 0v27q33 4 43.5 15t5 29t-27.5 52l-252 391v25l309 266
q38 32 54.5 58t12 42.5t-20.5 26.5t-42 14v27h268v-27q-42 -11 -82.5 -40t-165.5 -132l-139 -117l344 -526q39 -58 61.5 -78.5t43.5 -25.5v-27h-412z" />
    <glyph glyph-name="l" unicode="l" horiz-adv-x="526" 
d="M45 0v27q20 6 32.5 13t23 14.5t16 23t10 30.5t6 45t2 58t0.5 78v895v62.5t-2 45.5t-3.5 35.5t-8 23t-12 17t-19 8.5t-25 7l-34.5 3v31l360 185v-1313q0 -60 0.5 -90t4 -63t9 -46t18 -28t28 -21.5t41.5 -13.5v-27h-447z" />
    <glyph glyph-name="m" unicode="m" horiz-adv-x="1667" 
d="M41 0v27q21 7 34 13.5t23 21.5t14.5 27.5t7 46t3 63t0.5 90.5v289v11v60.5t-1.5 45t-3.5 35t-7.5 23t-11 18t-17 10t-23.5 9t-32 5.5v30l352 183v-222l41 39q91 86 159 126t154 40q98 0 155 -48t68 -159l45 41q91 86 159.5 126t154.5 40q109 0 168 -62.5t59 -205.5v-434
q0 -162 11.5 -202t70.5 -60v-27h-428v27q42 14 59.5 36t24 69.5t6.5 156.5v502q0 108 -86 108q-46 0 -88 -26.5t-111 -90.5l-40 -39v-454q0 -163 11 -203t70 -59v-27h-428v27q42 14 60 36t24.5 69.5t6.5 156.5v502q0 108 -87 108q-46 0 -87.5 -26.5t-110.5 -90.5l-41 -39
v-454v-70t1.5 -54t3.5 -43.5t7 -30.5t11 -24t16 -16t21.5 -14t29.5 -10v-27h-428z" />
    <glyph glyph-name="n" unicode="n" horiz-adv-x="1122" 
d="M45 0v27q21 7 34 13.5t23 21.5t14.5 27.5t7 46t3 63t0.5 90.5v289v11v60.5t-1.5 45t-3.5 35t-7.5 23t-11 18t-17 10t-23.5 9t-32 5.5v30l352 183v-256l78 73q90 85 160.5 125.5t156.5 40.5q228 0 228 -268v-434q0 -163 11 -203t70 -59v-27h-428v27q42 14 60 36t24.5 69.5
t6.5 156.5v502q0 108 -86 108q-47 0 -91.5 -27.5t-111.5 -89.5l-78 -73v-420v-70t1.5 -54t3.5 -43.5t7 -30.5t11 -24t16 -16t21.5 -14t29.5 -10v-27h-428z" />
    <glyph glyph-name="o" unicode="o" horiz-adv-x="1083" 
d="M543 -14q-57 0 -120.5 17t-129 56.5t-118 95.5t-85.5 142.5t-33 189.5t33 189.5t85.5 143.5t118 97.5t129 58t120.5 17.5t119.5 -17.5t128 -58t117.5 -97.5t85 -143.5t33 -189.5t-33 -189.5t-85 -142.5t-117.5 -95.5t-128 -56.5t-119.5 -17zM543 18q217 0 217 469
q0 474 -217 474q-221 0 -221 -474q0 -469 221 -469z" />
    <glyph glyph-name="p" unicode="p" horiz-adv-x="1132" 
d="M45 -328v27q21 7 34 13.5t23 21.5t14.5 27.5t7 46t3 63t0.5 90.5v617v11v60.5t-1.5 45t-3.5 35t-7.5 23t-11 18t-17 10t-23.5 9t-32 5.5v30l352 183v-215l27 28q38 41 59.5 61.5t62.5 51.5t87 45t100 14q64 0 124.5 -27.5t113 -82t84.5 -149.5t32 -218q0 -244 -137 -389
t-354 -145q-116 0 -199 59v-80v-70t1.5 -54t3.5 -43.5t7 -30.5t11 -24t16 -16t21.5 -14t29.5 -10v-27h-428zM410 776l-27 -28v-666q87 -66 190 -66q234 0 234 461q0 125 -13 213.5t-37.5 138.5t-56 72.5t-73.5 22.5q-54 0 -102 -36.5t-115 -111.5z" />
    <glyph glyph-name="q" unicode="q" horiz-adv-x="1114" 
d="M659 -328v27q23 7 37 13.5t25.5 21t16.5 28t8 46.5t3.5 63t0.5 90v205l-21 -23q-33 -36 -58.5 -59t-64 -49.5t-83.5 -39.5t-97 -13q-73 0 -138 27.5t-116.5 81.5t-82 143t-30.5 202q0 258 140.5 405.5t363.5 147.5q81 0 150 -22t116 -44t76 -22q59 0 68 60h33v-1000
q0 -62 0.5 -90.5t3 -62.5t7 -46.5t14 -27.5t22.5 -21.5t34 -13.5v-27h-428zM326 457q0 -410 184 -410q53 0 105.5 36.5t113.5 104.5l21 23v537q0 79 -8.5 109.5t-34.5 53.5q-47 43 -138 43q-116 0 -179.5 -123t-63.5 -374z" />
    <glyph glyph-name="r" unicode="r" horiz-adv-x="829" 
d="M45 0v27q21 7 34 13.5t23 21.5t14.5 27.5t7 46t3 63t0.5 90.5v289v11v60.5t-1.5 45t-3.5 35t-7.5 23t-11 18t-17 10t-23.5 9t-32 5.5v30l352 183v-236l37 39q104 109 157 147.5t117 38.5q52 0 82.5 -25.5t30.5 -74.5q0 -59 -33 -91t-80 -32q-31 0 -55.5 11t-37.5 25
t-29 25t-33 11q-27 0 -50 -14.5t-69 -63.5l-37 -39v-440v-70t1.5 -54t3.5 -43.5t7 -30.5t11 -24t16 -16t21.5 -14t29.5 -10v-27h-428z" />
    <glyph glyph-name="s" unicode="s" horiz-adv-x="802" 
d="M393 18q187 0 187 164q0 70 -46.5 114t-183.5 97q-153 55 -215.5 126t-62.5 202q0 108 85 189t214 81q74 0 145 -23.5t94 -23.5q29 0 35 29h31v-252h-31q-65 237 -274 237q-164 0 -164 -131q0 -38 13.5 -66t47 -50.5t68.5 -38t98 -37.5q179 -67 245 -140t66 -208
q0 -88 -50.5 -158t-130.5 -106.5t-171 -36.5q-54 0 -101 11t-72.5 23.5t-51.5 23.5t-43 11q-29 0 -35 -35h-33v293h31q43 -148 114 -221.5t191 -73.5z" />
    <glyph glyph-name="t" unicode="t" horiz-adv-x="657" 
d="M401 -16q-130 0 -195 61.5t-65 169.5v719h-84v33q99 13 188 116t117 267h31v-377h203v-39h-203v-670q0 -133 18.5 -179t82.5 -46q57 0 104 47l18 -18q-72 -84 -215 -84z" />
    <glyph glyph-name="u" unicode="u" horiz-adv-x="1097" 
d="M346 -18q-227 0 -227 251v345v11v60.5t-1.5 45t-3.5 35t-7.5 23t-11 18t-17 10t-23.5 9t-32 5.5v30l352 183v-826q0 -108 82 -108q44 0 91.5 32.5t119.5 100.5l47 45v326q0 137 -9 166q-10 31 -44 42q-15 4 -44 9v30l353 183v-719q0 -162 12.5 -202t79.5 -60v-27h-348
v209l-47 -45q-52 -49 -81.5 -74t-72 -54.5t-83 -41.5t-85.5 -12z" />
    <glyph glyph-name="v" unicode="v" horiz-adv-x="968" 
d="M457 -14l-305 741q-36 87 -60 132t-41 61.5t-43 25.5v27h426v-27q-38 -5 -53.5 -22.5t-10 -63.5t37.5 -127l186 -467l168 418q32 81 44.5 131.5t4 77t-26 36.5t-53.5 17v27h230v-27q-26 -9 -42.5 -26t-43 -69.5t-72.5 -166.5l-283 -698h-63z" />
    <glyph glyph-name="w" unicode="w" horiz-adv-x="1390" 
d="M422 -14l-287 741q-58 146 -74.5 177t-50.5 42v27h404v-27q-33 -5 -45.5 -22.5t-6.5 -63.5t37 -127l172 -454l127 303l-51 145q-35 93 -54 135t-33.5 58t-37.5 26v27h400v-27q-33 -5 -48 -22t-11.5 -63.5t32.5 -127.5l154 -440l145 395q28 75 36 125t-3 77.5t-30.5 39.5
t-53.5 16v27h237v-27q-26 -9 -42.5 -28t-38 -67t-64.5 -163l-258 -702h-70l-190 542l-228 -542h-67z" />
    <glyph glyph-name="x" unicode="x" horiz-adv-x="976" 
d="M29 0v27q64 27 101 63t112 148l137 202l-174 295q-82 135 -108.5 167t-63.5 44v27h432v-27q-57 -8 -62.5 -38t48.5 -124l112 -192l105 149q34 48 51 84t19.5 57t-7.5 35t-23.5 20t-35.5 9v27h237v-27q-54 -22 -78 -45.5t-92 -119.5q-7 -10 -11 -15.5t-10.5 -15
t-12.5 -17.5l-121 -174l184 -315q39 -68 67 -110.5t49 -63.5t33 -28t31 -15v-27h-434v27q56 8 59.5 38.5t-51.5 129.5l-123 211l-120 -177q-48 -72 -62 -115.5t-0.5 -62.5t51.5 -24v-27h-239z" />
    <glyph glyph-name="y" unicode="y" horiz-adv-x="968" 
d="M217 -338q-137 0 -137 105q0 39 23 61t57 22q27 0 50.5 -11.5t37.5 -25t34.5 -25t43.5 -11.5q35 0 71.5 40t83.5 160l-336 760q-57 129 -79.5 163t-57.5 46v27h422v-27q-25 -4 -38.5 -12.5t-20.5 -29.5t3 -61t36 -102l192 -460l166 411q32 77 43 127.5t1 76t-28.5 36
t-52.5 14.5v27h230v-27q-34 -8 -61 -52t-91 -202l-291 -723q-66 -167 -139 -237t-162 -70z" />
    <glyph glyph-name="z" unicode="z" horiz-adv-x="897" 
d="M856 285l-43 -312q-33 17 -87 22t-226 5h-461l526 940h-159q-81 0 -134 -12t-86.5 -42t-51 -63t-38.5 -94h-30l49 270q28 -17 91.5 -21.5t221.5 -4.5h428l-532 -940h182q64 0 108 8.5t76.5 24.5t56.5 47.5t41 70.5t37 101h31z" />
    <glyph glyph-name="braceleft" unicode="{" horiz-adv-x="620" 
d="M569 -184v-33q-208 0 -318 70t-110 198q0 76 30.5 165t60.5 171.5t30 142.5q0 38 -8 64t-31 49.5t-69 35t-117 11.5v33q71 0 117 11.5t69 35t31 49.5t8 64q0 60 -30 142.5t-60.5 171.5t-30.5 165q0 128 110 198t318 70v-33q-99 0 -141.5 -47t-42.5 -157q0 -63 28.5 -213
t28.5 -222q0 -91 -74 -165.5t-214 -85.5q72 -6 129 -30.5t91 -61t51 -77.5t17 -83q0 -72 -28.5 -222t-28.5 -213q0 -110 42.5 -157t141.5 -47z" />
    <glyph glyph-name="bar" unicode="|" horiz-adv-x="602" 
d="M274 1679h54v-1896h-54v1896z" />
    <glyph glyph-name="braceright" unicode="}" horiz-adv-x="620" 
d="M51 -217v33q99 0 142 47t43 157q0 63 -29 213t-29 222q0 92 74 166.5t215 85.5q-73 6 -130.5 30.5t-91 60.5t-50.5 77t-17 83q0 72 29 222t29 213q0 110 -43 157t-142 47v33q208 0 318 -70t110 -198q0 -76 -30.5 -165t-60.5 -171.5t-30 -142.5q0 -37 8.5 -63.5t31 -50
t69 -35t117.5 -11.5v-33q-71 0 -117.5 -11.5t-69 -35t-31 -50t-8.5 -63.5q0 -60 30 -142.5t60.5 -171.5t30.5 -165q0 -128 -110 -198t-318 -70z" />
    <glyph glyph-name="asciitilde" unicode="~" horiz-adv-x="749" 
d="M254 854q47 0 143.5 -15.5t130.5 -15.5q29 0 54 18t63 77l29 -11q-37 -113 -78.5 -166t-101.5 -53q-42 0 -134 15.5t-137 15.5q-32 0 -57.5 -18.5t-61.5 -75.5l-28 10q78 219 178 219z" />
    <glyph glyph-name="uni00A0" unicode="&#xa0;" horiz-adv-x="366" 
 />
    <glyph glyph-name="exclamdown" unicode="&#xa1;" horiz-adv-x="557" 
d="M258 489h39q13 -180 39 -344.5t49.5 -258t41 -179.5t17.5 -135q0 -90 -43 -136t-122 -46t-122.5 46.5t-43.5 135.5q0 49 17.5 135t40 179.5t48.5 258t39 344.5zM281 973q68 0 110.5 -42.5t42.5 -111.5q0 -68 -43 -111.5t-110 -43.5t-112.5 44t-45.5 111q0 68 45.5 111
t112.5 43z" />
    <glyph glyph-name="cent" unicode="&#xa2;" horiz-adv-x="923" 
d="M522 1176h45v-183q138 -5 224 -48.5t86 -115.5q0 -37 -26.5 -58t-68.5 -21q-64 0 -91.5 31t-49.5 110q-10 35 -26.5 50t-47.5 20v-910q28 -4 47 -4q137 0 244 107l23 -23q-120 -138 -314 -149v-175h-45v175q-129 3 -234.5 63.5t-168 170.5t-62.5 249q0 98 28 183
t74.5 145t107 104.5t125.5 67.5t130 28v183zM324 535q0 -396 198 -472v895q-63 -8 -105.5 -50t-67.5 -135.5t-25 -237.5z" />
    <glyph glyph-name="sterling" unicode="&#xa3;" horiz-adv-x="1095" 
d="M66 0l92 109q47 57 65 80t44 66.5t35 84t9 92.5q0 70 -30 162h-232v37h219q-13 33 -41.5 98t-33.5 78h-144v37h127q-63 158 -63 268q0 104 44.5 189.5t116.5 138.5t158 81.5t174 28.5q188 0 303 -70.5t115 -181.5q0 -56 -31.5 -90t-81.5 -34q-121 0 -143 118
q-4 20 -8.5 54t-7.5 54t-12.5 45t-25 39t-45 24t-71.5 10q-49 0 -84 -17t-57 -46t-34.5 -76t-17 -99t-4.5 -123q0 -117 62 -313h391v-37h-379q36 -99 47 -176h332v-37h-328q2 -10 2 -33q0 -68 -38.5 -134.5t-72 -98.5t-99.5 -86q-9 -7 -13 -11h344q144 0 215 8.5t108.5 32
t59.5 74.5h37l-70 -250q-17 -61 -38 -78.5t-78 -17.5h-817z" />
    <glyph glyph-name="yen" unicode="&#xa5;" horiz-adv-x="1138" 
d="M332 0v27q21 7 33.5 12.5t25 18.5t19 25t13 39.5t8.5 54t4 77.5t2.5 100t0.5 131v103h-350v37h350v176h-350v37h338l-254 440q-34 59 -44.5 77.5t-33 52.5t-35 46t-32.5 27.5t-45 27.5v27h477v-27q-34 -9 -50 -22t-14 -42t29 -75l281 -496l176 375q47 103 57 154
t-8.5 72.5t-75.5 33.5v27h246v-27q-44 -17 -72.5 -61t-107.5 -213l-185 -397h342v-37h-350v-176h350v-37h-350v-103q0 -81 0.5 -131t2.5 -100.5t4.5 -77t8.5 -54t13 -39.5t19.5 -25t25 -18.5t33.5 -12.5v-27h-502z" />
    <glyph glyph-name="brokenbar" unicode="&#xa6;" horiz-adv-x="602" 
d="M274 1679h54v-778h-54v778zM328 561v-778h-54v778h54z" />
    <glyph glyph-name="section" unicode="&#xa7;" horiz-adv-x="1075" 
d="M481 -287q99 0 147 53.5t48 149.5q0 110 -74.5 200.5t-290.5 266.5q-140 111 -195 196.5t-55 200.5q0 107 62 188t158 126q-35 72 -35 153q0 160 100 252t252 92q155 0 252.5 -65.5t97.5 -155.5q0 -37 -21.5 -59.5t-64.5 -22.5q-86 0 -108 103q-4 24 -5.5 29.5t-6 26.5
t-7.5 27.5t-10 22.5t-14 21.5t-18.5 16t-24.5 14t-31 7t-39 3.5q-97 0 -147 -47t-50 -130q0 -82 53 -142t240 -210q5 -4 8 -6q132 -106 198.5 -172t101 -132.5t34.5 -144.5q0 -110 -53.5 -190t-155.5 -154q35 -72 35 -157q0 -169 -108 -281t-273 -112q-109 0 -203.5 36.5
t-151 100.5t-56.5 139q0 42 28 69t72 27q55 0 79.5 -27.5t33.5 -76.5q2 -9 5 -26q8 -41 12.5 -60t14 -49t21.5 -44t31.5 -29.5t47.5 -21.5t66 -6zM494 571q133 -112 202.5 -179t108.5 -124q38 37 55 70.5t17 79.5q0 34 -13.5 68.5t-34 63.5t-63 70.5t-80 74.5t-104.5 90
q-34 29 -52 44q-95 81 -147 131.5t-84 100.5q-80 -46 -80 -148q0 -75 42 -127t180 -170q34 -29 53 -45z" />
    <glyph glyph-name="dieresis" unicode="&#xa8;" horiz-adv-x="913" 
d="M643 1124q-60 0 -97.5 39t-37.5 101q0 55 38 92t97 37q55 0 93 -37.5t38 -91.5q0 -61 -37.5 -100.5t-93.5 -39.5zM270 1124q-56 0 -93.5 39.5t-37.5 100.5q0 54 38 91.5t93 37.5q59 0 97.5 -37t38.5 -92q0 -62 -38 -101t-98 -39z" />
    <glyph glyph-name="copyright" unicode="&#xa9;" horiz-adv-x="1728" 
d="M866 1559q160 0 306.5 -63t253 -169.5t170 -253.5t63.5 -307t-63.5 -306.5t-170 -253t-253 -170t-306.5 -63.5q-161 0 -308.5 63.5t-254 170t-170 253t-63.5 306.5q0 161 63.5 307.5t170 253t254 169.5t308.5 63zM866 8q152 0 291.5 59t241.5 159.5t162.5 241.5t60.5 298
t-60.5 298t-162.5 241.5t-241.5 159.5t-291.5 59t-292 -59t-243 -159.5t-164 -242t-61 -297.5t61 -297.5t164 -242t243 -159.5t292 -59zM897 295q-90 0 -169.5 32t-140.5 91t-96.5 149.5t-35.5 200.5q0 114 39.5 206t104 147.5t140 84.5t154.5 29q69 0 132 -23.5t79 -23.5
q37 0 43 33h22v-230h-22q-71 217 -254 217q-111 0 -173.5 -103.5t-62.5 -318.5q0 -444 275 -444q147 0 239 107l19 -17q-111 -137 -293 -137z" />
    <glyph glyph-name="ordfeminine" unicode="&#xaa;" horiz-adv-x="772" 
d="M252 801q-87 0 -139 44.5t-52 123.5q0 41 16 70.5t49 49.5t65 32.5t83 31t84 33.5l19 8q19 8 30.5 14.5t27.5 20t24 33.5t8 47v112q0 103 -105 103q-44 0 -68.5 -19.5t-39.5 -58.5t-34 -57.5t-54 -18.5q-31 0 -52.5 18.5t-21.5 47.5q0 53 73.5 84.5t188.5 31.5
q308 0 308 -196v-373q0 -84 9 -108.5t38 -24.5q22 0 41 14l10 -18q-53 -41 -150 -41q-55 0 -92 25t-47 71l-18 -16q-84 -84 -201 -84zM260 999q0 -143 80 -143q47 0 113 59l14 13v297q-20 -28 -86 -58l-19 -8q-54 -25 -78 -58.5t-24 -101.5z" />
    <glyph glyph-name="guillemotleft" unicode="&#xab;" horiz-adv-x="860" 
d="M758 129l-346 326v32l344 326l22 -14l-157 -328l159 -328zM420 129l-346 326v32l344 326l22 -14l-157 -328l159 -328z" />
    <glyph glyph-name="registered" unicode="&#xae;" horiz-adv-x="1056" 
d="M530 1556q192 0 327.5 -134.5t135.5 -327.5q0 -194 -135.5 -329.5t-327.5 -135.5q-193 0 -330 135.5t-137 329.5q0 127 63 233.5t170.5 167.5t233.5 61zM530 662q178 0 303 124.5t125 307.5t-124.5 306.5t-303.5 123.5q-180 0 -306 -124t-126 -306q0 -184 126 -308
t306 -124zM334 872v15q23 4 28 26.5t5 110.5v182q0 63 -2 86.5t-8 33.5t-23 15v17h201q102 0 153 -31t51 -88q0 -62 -54 -93.5t-136 -31.5q51 -6 77.5 -30.5t43.5 -84.5q18 -63 30.5 -83.5t34.5 -20.5q17 0 27 10l8 -10q-27 -27 -82 -27q-56 0 -85.5 28.5t-41.5 98.5
q-12 73 -24 95t-39 22h-27v-88q0 -88 5 -110.5t28 -26.5v-15h-170zM522 1339h-51v-211h59q60 0 85.5 26.5t25.5 78.5q0 57 -25 81.5t-94 24.5z" />
    <glyph glyph-name="macron" unicode="&#xaf;" horiz-adv-x="913" 
d="M227 1268h467v-107h-467v107z" />
    <glyph glyph-name="degree" unicode="&#xb0;" horiz-adv-x="561" 
d="M281 1550q86 0 143 -57t57 -145t-57 -146.5t-143 -58.5q-85 0 -143 59t-58 146q0 86 58 144t143 58zM121 1348q0 -72 46.5 -122t113.5 -50q71 0 115 49.5t44 122.5t-44 121.5t-115 48.5q-68 0 -114 -49t-46 -121z" />
    <glyph glyph-name="twosuperior" unicode="&#xb2;" horiz-adv-x="827" 
d="M270 1083h138q110 0 157.5 5t64 15.5t29.5 37.5h23l-37 -156q-5 -20 -9.5 -26.5t-14.5 -6.5h-502l207 232q92 105 126.5 177.5t34.5 166.5q0 166 -120 166q-13 0 -23.5 -3t-18 -6t-13.5 -12t-9 -13t-6 -17t-3.5 -16.5t-2.5 -19t-2 -16.5q-5 -33 -22 -49t-54 -16
q-30 0 -48 17t-18 48q0 45 59.5 86t162.5 41q51 0 97.5 -9.5t91 -30.5t71 -61t26.5 -95q0 -59 -36 -119.5t-84 -105.5t-129 -109z" />
    <glyph glyph-name="threesuperior" unicode="&#xb3;" horiz-adv-x="800" 
d="M164 1526l43 155q1 3 2 8q11 22 16 23h459v-14l-315 -283q47 15 88 15q245 0 245 -232q0 -109 -85 -180.5t-230 -71.5q-103 0 -169 42t-66 91q0 26 18 45t51 19q58 0 68 -56q0 -2 2.5 -24.5t6 -32.5t13 -27t29 -24.5t47.5 -7.5q152 0 152 227q0 98 -22.5 150.5
t-84.5 52.5q-44 0 -75 -14t-68 -44l-17 17l246 221h-135q-84 0 -120.5 -4.5t-50 -14.5t-24.5 -36h-24z" />
    <glyph glyph-name="acute" unicode="&#xb4;" horiz-adv-x="913" 
d="M297 1059l-21 20l168 248q38 58 67 81.5t71 23.5q46 0 71 -26.5t25 -70.5q0 -76 -98 -131z" />
    <glyph glyph-name="paragraph" unicode="&#xb6;" horiz-adv-x="1163" 
d="M606 702h-65q-210 0 -347 113.5t-137 306.5q0 196 135.5 305t350.5 109h569v-27q-21 -6 -33.5 -11t-25 -17.5t-19 -23.5t-13 -39.5t-8.5 -55t-4 -80t-2.5 -105t-0.5 -137.5v-606q0 -627 -521 -627q-112 0 -176.5 38t-64.5 104q0 37 25.5 62.5t66.5 25.5q33 0 63 -18.5
t53 -44.5t45 -52t49.5 -44.5t57.5 -18.5q24 0 46 8t49.5 37t47 77.5t33 138t13.5 208.5v1173h-187v-799z" />
    <glyph glyph-name="periodcentered" unicode="&#xb7;" horiz-adv-x="542" 
d="M272 465q-67 0 -111 42.5t-44 110.5q0 67 44.5 111.5t110.5 44.5q67 0 110.5 -44t43.5 -112q0 -69 -43 -111t-111 -42z" />
    <glyph glyph-name="cedilla" unicode="&#xb8;" horiz-adv-x="913" 
d="M485 0h45l-55 -96q83 -13 131.5 -53.5t48.5 -92.5q0 -88 -86 -128t-266 -46l-4 31q94 15 142 34t48 50q0 62 -124 68l-9 14z" />
    <glyph glyph-name="onesuperior" unicode="&#xb9;" horiz-adv-x="563" 
d="M446 952h-301v25q35 5 49 20.5t19.5 56t5.5 138.5v233q0 82 -13.5 103.5t-68.5 17.5v23l240 160v-537q0 -142 10 -175t59 -40v-25z" />
    <glyph glyph-name="ordmasculine" unicode="&#xba;" horiz-adv-x="817" 
d="M410 793q-44 0 -92 13t-98.5 42t-90 71.5t-65 107.5t-25.5 142t25.5 143t65 109t90 73.5t98.5 44t92 13.5t92 -13.5t97.5 -44t89 -73.5t64.5 -109t25 -143t-25 -142t-64.5 -107.5t-89 -71.5t-97.5 -42t-92 -13zM410 821q159 0 159 348q0 355 -159 355q-164 0 -164 -355
q0 -348 164 -348z" />
    <glyph glyph-name="guillemotright" unicode="&#xbb;" horiz-adv-x="860" 
d="M102 129l-22 14l160 328l-158 328l22 14l345 -326v-32zM440 129l-22 14l160 328l-158 328l22 14l344 -326v-32z" />
    <glyph glyph-name="onequarter" unicode="&#xbc;" horiz-adv-x="1030" 
d="M780 -12h-90q4 -88 15 -110.5t51 -31.5v-24h-289v24q39 9 50 31t15 111h-364v16l467 584h55v-488h137zM283 100h249v314zM123 756v24h784v-24h-784zM670 952h-301v25q35 5 49 21t19 55.5t5 138.5v233q0 82 -13.5 103.5t-68.5 17.5v23l240 160v-537q0 -101 4 -139
t17.5 -54.5t48.5 -21.5v-25z" />
    <glyph glyph-name="onehalf" unicode="&#xbd;" horiz-adv-x="1030" 
d="M123 756v24h784v-24h-784zM670 952h-301v25q35 5 49 21t19 55.5t5 138.5v233q0 82 -13.5 103.5t-68.5 17.5v23l240 160v-537q0 -101 4 -139t17.5 -54.5t48.5 -21.5v-25zM385 -47h137q111 0 158 4.5t64 15t30 37.5h23l-37 -155q-4 -20 -9 -26.5t-16 -6.5h-502l207 231
q93 105 127.5 178t34.5 166q0 166 -121 166q-13 0 -24 -3t-18 -6t-13 -12t-9 -12.5t-6 -17t-3.5 -16.5t-2.5 -18.5t-2 -16.5q-5 -33 -22 -49.5t-53 -16.5q-30 0 -48 17t-18 49q0 45 59 86t162 41q50 0 97 -9.5t91.5 -30.5t71.5 -61.5t27 -95.5q0 -85 -63 -161t-187 -173z
" />
    <glyph glyph-name="threequarters" unicode="&#xbe;" horiz-adv-x="1030" 
d="M780 -12h-90q4 -88 15 -110.5t51 -31.5v-24h-289v24q39 9 50 31t15 111h-364v16l467 584h55v-488h137zM283 100h249v314zM123 756v24h784v-24h-784zM252 1526l43 155q1 3 2 8q11 22 16 23h459v-14l-315 -283q47 15 88 15q246 0 246 -232q0 -109 -85.5 -180.5
t-230.5 -71.5q-103 0 -169 42t-66 91q0 26 18 45t51 19q58 0 68 -56q0 -2 2.5 -24.5t6 -32.5t13 -27t29 -24.5t47.5 -7.5q152 0 152 227q0 98 -22.5 150.5t-84.5 52.5q-44 0 -75 -14t-68 -44l-17 17l246 221h-135q-84 0 -120.5 -4.5t-50 -14.5t-24.5 -36h-24z" />
    <glyph glyph-name="questiondown" unicode="&#xbf;" horiz-adv-x="917" 
d="M543 520h32q11 -107 -7 -207.5t-52 -178.5t-69.5 -150t-62 -152t-26.5 -156q0 -138 41 -198t138 -60q39 0 57 18t29 62q1 5 6 26t7 26.5t7 23t9 23t11.5 18t15.5 17t18.5 11.5t24.5 9t30 2q49 0 81.5 -30.5t32.5 -72.5q0 -72 -88 -118.5t-243 -46.5q-226 0 -344.5 86
t-118.5 231q0 73 27 139t69.5 117t94 100t102 98.5t92 101t65.5 119t21 142.5zM528 973q67 0 111.5 -43t44.5 -111q0 -67 -45 -111t-111 -44q-67 0 -110 43.5t-43 111.5q0 69 42.5 111.5t110.5 42.5z" />
    <glyph glyph-name="Agrave" unicode="&#xc0;" horiz-adv-x="1464" 
d="M31 0v27q33 11 55 31t51.5 76.5t67.5 162.5l366 1016l-26 69q-24 64 -51 89.5t-68 37.5v27h344q22 0 29 -7t18 -38l465 -1231q53 -136 76 -171q31 -47 76 -58v-31h-471v31q38 7 53 26t11 55t-28 95l-98 254h-598l-59 -164q-46 -121 -29.5 -181.5t111.5 -88.5v-27h-295z
M315 494h574l-297 768zM846 1616l-320 41q-143 18 -143 131q0 39 28 68.5t70 29.5q62 0 121 -47l254 -197z" />
    <glyph glyph-name="Aacute" unicode="&#xc1;" horiz-adv-x="1464" 
d="M31 0v27q33 11 55 31t51.5 76.5t67.5 162.5l366 1016l-26 69q-24 64 -51 89.5t-68 37.5v27h344q22 0 29 -7t18 -38l465 -1231q53 -136 76 -171q31 -47 76 -58v-31h-471v31q38 7 53 26t11 55t-28 95l-98 254h-598l-59 -164q-46 -121 -29.5 -181.5t111.5 -88.5v-27h-295z
M315 494h574l-297 768zM436 1616l-10 26l254 197q59 47 121 47q42 0 70 -29.5t28 -68.5q0 -113 -143 -131z" />
    <glyph glyph-name="Acircumflex" unicode="&#xc2;" horiz-adv-x="1464" 
d="M31 0v27q33 11 55 31t51.5 76.5t67.5 162.5l366 1016l-26 69q-24 64 -51 89.5t-68 37.5v27h344q22 0 29 -7t18 -38l465 -1231q53 -136 76 -171q31 -47 76 -58v-31h-471v31q38 7 53 26t11 55t-28 95l-98 254h-598l-59 -164q-46 -121 -29.5 -181.5t111.5 -88.5v-27h-295z
M315 494h574l-297 768zM356 1636l289 273l289 -273l-10 -26l-279 90l-278 -90z" />
    <glyph glyph-name="Atilde" unicode="&#xc3;" horiz-adv-x="1464" 
d="M31 0v27q33 11 55 31t51.5 76.5t67.5 162.5l366 1016l-26 69q-24 64 -51 89.5t-68 37.5v27h344q22 0 29 -7t18 -38l465 -1231q53 -136 76 -171q31 -47 76 -58v-31h-471v31q38 7 53 26t11 55t-28 95l-98 254h-598l-59 -164q-46 -121 -29.5 -181.5t111.5 -88.5v-27h-295z
M315 494h574l-297 768zM555 1837q50 0 123.5 -5t101.5 -5q71 0 127 86l25 -8q-21 -109 -66 -174.5t-108 -65.5q-42 0 -114 5t-112 5q-65 0 -112 -82l-25 9q55 235 160 235z" />
    <glyph glyph-name="Adieresis" unicode="&#xc4;" horiz-adv-x="1464" 
d="M31 0v27q33 11 55 31t51.5 76.5t67.5 162.5l366 1016l-26 69q-24 64 -51 89.5t-68 37.5v27h344q22 0 29 -7t18 -38l465 -1231q53 -136 76 -171q31 -47 76 -58v-31h-471v31q38 7 53 26t11 55t-28 95l-98 254h-598l-59 -164q-46 -121 -29.5 -181.5t111.5 -88.5v-27h-295z
M315 494h574l-297 768zM844 1618q-57 0 -95 38.5t-38 98.5q0 54 38 91.5t95 37.5q55 0 93 -37.5t38 -91.5q0 -60 -37.5 -98.5t-93.5 -38.5zM449 1618q-56 0 -94 39t-38 98q0 54 38.5 91.5t93.5 37.5q57 0 96 -37.5t39 -91.5q0 -59 -39 -98t-96 -39z" />
    <glyph glyph-name="Aring" unicode="&#xc5;" horiz-adv-x="1464" 
d="M31 0v27q33 11 55 31t51.5 76.5t67.5 162.5l366 1016l-26 69q-24 64 -51 89.5t-68 37.5v27h344q22 0 29 -7t18 -38l465 -1231q53 -136 76 -171q31 -47 76 -58v-31h-471v31q38 7 53 26t11 55t-28 95l-98 254h-598l-59 -164q-46 -121 -29.5 -181.5t111.5 -88.5v-27h-295z
M315 494h574l-297 768zM469 1772q0 73 51 118t125 45t125 -45t51 -118t-51 -118.5t-125 -45.5t-125 45.5t-51 118.5zM559 1772q0 -132 86 -132t86 132q0 62 -22.5 96.5t-63.5 34.5t-63.5 -34.5t-22.5 -96.5z" />
    <glyph glyph-name="AE" unicode="&#xc6;" horiz-adv-x="1974" 
d="M1542 674h-31q-21 76 -31 94q-30 55 -120 69q-43 7 -103 7h-47v-811h230q155 0 240 25.5t129 82.5t69 170h37l-27 -248q-2 -24 -5.5 -36.5t-12 -18.5t-16 -7t-27.5 -1h-1018v27q21 7 33.5 12.5t25 18t19 23.5t13 38.5t8.5 53t4 76t2.5 99.5t0.5 131v6h-542l-125 -227
q-57 -104 -51 -156t75 -77v-25h-256v25q33 14 53 29t55.5 64t84.5 140l620 1137q31 57 17.5 80t-76.5 34v27h1012q25 0 34.5 -10t16.5 -51l39 -222h-37q-26 77 -54 122.5t-75 75.5t-111 41t-165 11h-220v-626h47q45 0 79.5 4t58.5 8.5t42.5 17.5t28 20.5t19 29.5t12.5 31.5
t10 38.5q3 10 4 15h31v-368zM389 518h526v963z" />
    <glyph glyph-name="Ccedilla" unicode="&#xc7;" 
d="M821 -33q-118 0 -227.5 34t-202.5 102t-162 163.5t-108 225t-39 278.5q0 155 43.5 288t116 224t166.5 156t195 95t202 30q72 0 134.5 -13t97.5 -28t72 -28t65 -13q58 0 71 55h33v-377h-33q-60 186 -174.5 278.5t-265.5 92.5q-185 0 -292 -178.5t-107 -550.5
q0 -766 485 -766q122 0 224.5 52t170.5 132l25 -22q-28 -39 -68.5 -75.5t-100 -73.5t-143.5 -59t-178 -22zM670 0h45l-56 -96q83 -13 132 -53.5t49 -92.5q0 -88 -86.5 -128t-266.5 -46l-4 31q191 29 191 84q0 62 -125 68l-8 14z" />
    <glyph glyph-name="Egrave" unicode="&#xc8;" horiz-adv-x="1247" 
d="M51 0v27q21 7 33.5 12.5t25 17.5t19 23.5t13 38.5t9 53.5t4.5 76.5t2.5 99.5t0.5 130.5v578q0 81 -0.5 130.5t-2.5 99.5t-4.5 76.5t-9 53.5t-13 38.5t-19 23.5t-25 17.5t-33.5 12.5v27h1004q25 0 34.5 -10t16.5 -51l39 -222h-37q-34 102 -78 153.5t-119 74t-209 22.5
h-249v-626h77q45 0 79.5 4t58.5 8.5t42.5 17.5t28 20.5t19 29.5t12.5 31.5t10 38.5q3 10 4 15h31v-368h-31q-21 76 -31 94q-30 55 -120 69q-43 7 -103 7h-77v-811h260q155 0 240 25.5t129 82.5t69 170h37l-27 -248q-2 -24 -5.5 -36.5t-12 -18.5t-16 -7t-27.5 -1h-1049z
M825 1616l-319 41q-144 18 -144 131q0 39 28.5 68.5t70.5 29.5q62 0 121 -47l254 -197z" />
    <glyph glyph-name="Eacute" unicode="&#xc9;" horiz-adv-x="1247" 
d="M51 0v27q21 7 33.5 12.5t25 17.5t19 23.5t13 38.5t9 53.5t4.5 76.5t2.5 99.5t0.5 130.5v578q0 81 -0.5 130.5t-2.5 99.5t-4.5 76.5t-9 53.5t-13 38.5t-19 23.5t-25 17.5t-33.5 12.5v27h1004q25 0 34.5 -10t16.5 -51l39 -222h-37q-34 102 -78 153.5t-119 74t-209 22.5
h-249v-626h77q45 0 79.5 4t58.5 8.5t42.5 17.5t28 20.5t19 29.5t12.5 31.5t10 38.5q3 10 4 15h31v-368h-31q-21 76 -31 94q-30 55 -120 69q-43 7 -103 7h-77v-811h260q155 0 240 25.5t129 82.5t69 170h37l-27 -248q-2 -24 -5.5 -36.5t-12 -18.5t-16 -7t-27.5 -1h-1049z
M416 1616l-10 26l253 197q59 47 121 47q42 0 70.5 -29.5t28.5 -68.5q0 -113 -144 -131z" />
    <glyph glyph-name="Ecircumflex" unicode="&#xca;" horiz-adv-x="1247" 
d="M51 0v27q21 7 33.5 12.5t25 17.5t19 23.5t13 38.5t9 53.5t4.5 76.5t2.5 99.5t0.5 130.5v578q0 81 -0.5 130.5t-2.5 99.5t-4.5 76.5t-9 53.5t-13 38.5t-19 23.5t-25 17.5t-33.5 12.5v27h1004q25 0 34.5 -10t16.5 -51l39 -222h-37q-34 102 -78 153.5t-119 74t-209 22.5
h-249v-626h77q45 0 79.5 4t58.5 8.5t42.5 17.5t28 20.5t19 29.5t12.5 31.5t10 38.5q3 10 4 15h31v-368h-31q-21 76 -31 94q-30 55 -120 69q-43 7 -103 7h-77v-811h260q155 0 240 25.5t129 82.5t69 170h37l-27 -248q-2 -24 -5.5 -36.5t-12 -18.5t-16 -7t-27.5 -1h-1049z
M336 1636l289 273l288 -273l-10 -26l-278 90l-279 -90z" />
    <glyph glyph-name="Edieresis" unicode="&#xcb;" horiz-adv-x="1247" 
d="M51 0v27q21 7 33.5 12.5t25 17.5t19 23.5t13 38.5t9 53.5t4.5 76.5t2.5 99.5t0.5 130.5v578q0 81 -0.5 130.5t-2.5 99.5t-4.5 76.5t-9 53.5t-13 38.5t-19 23.5t-25 17.5t-33.5 12.5v27h1004q25 0 34.5 -10t16.5 -51l39 -222h-37q-34 102 -78 153.5t-119 74t-209 22.5
h-249v-626h77q45 0 79.5 4t58.5 8.5t42.5 17.5t28 20.5t19 29.5t12.5 31.5t10 38.5q3 10 4 15h31v-368h-31q-21 76 -31 94q-30 55 -120 69q-43 7 -103 7h-77v-811h260q155 0 240 25.5t129 82.5t69 170h37l-27 -248q-2 -24 -5.5 -36.5t-12 -18.5t-16 -7t-27.5 -1h-1049z
M823 1618q-57 0 -95 38.5t-38 98.5q0 54 38 91.5t95 37.5q55 0 93 -37.5t38 -91.5q0 -60 -37.5 -98.5t-93.5 -38.5zM428 1618q-56 0 -93.5 38.5t-37.5 98.5q0 54 38 91.5t93 37.5q57 0 96 -37.5t39 -91.5q0 -59 -38.5 -98t-96.5 -39z" />
    <glyph glyph-name="Igrave" unicode="&#xcc;" horiz-adv-x="604" 
d="M51 0v27q21 7 33.5 12.5t25 17.5t19 23.5t13 38.5t9 53.5t4.5 76.5t2.5 99.5t0.5 130.5v578q0 82 -0.5 132t-2.5 100t-4.5 76.5t-8.5 53.5t-13 38.5t-19.5 23.5t-25 17t-33.5 11v27h502v-27q-21 -6 -33.5 -11t-25 -17t-19.5 -23.5t-13 -38.5t-8.5 -53.5t-4.5 -76.5
t-2.5 -100t-0.5 -132v-578q0 -81 0.5 -130.5t2.5 -99.5t4.5 -76.5t9 -53.5t13 -38.5t19 -23.5t25 -17.5t33.5 -12.5v-27h-502zM502 1616l-320 41q-143 18 -143 131q0 39 28 68.5t70 29.5q62 0 121 -47l254 -197z" />
    <glyph glyph-name="Iacute" unicode="&#xcd;" horiz-adv-x="604" 
d="M51 0v27q21 7 33.5 12.5t25 17.5t19 23.5t13 38.5t9 53.5t4.5 76.5t2.5 99.5t0.5 130.5v578q0 82 -0.5 132t-2.5 100t-4.5 76.5t-8.5 53.5t-13 38.5t-19.5 23.5t-25 17t-33.5 11v27h502v-27q-21 -6 -33.5 -11t-25 -17t-19.5 -23.5t-13 -38.5t-8.5 -53.5t-4.5 -76.5
t-2.5 -100t-0.5 -132v-578q0 -81 0.5 -130.5t2.5 -99.5t4.5 -76.5t9 -53.5t13 -38.5t19 -23.5t25 -17.5t33.5 -12.5v-27h-502zM92 1616l-10 26l254 197q59 47 121 47q42 0 70 -29.5t28 -68.5q0 -113 -143 -131z" />
    <glyph glyph-name="Icircumflex" unicode="&#xce;" horiz-adv-x="604" 
d="M51 0v27q21 7 33.5 12.5t25 17.5t19 23.5t13 38.5t9 53.5t4.5 76.5t2.5 99.5t0.5 130.5v578q0 82 -0.5 132t-2.5 100t-4.5 76.5t-8.5 53.5t-13 38.5t-19.5 23.5t-25 17t-33.5 11v27h502v-27q-21 -6 -33.5 -11t-25 -17t-19.5 -23.5t-13 -38.5t-8.5 -53.5t-4.5 -76.5
t-2.5 -100t-0.5 -132v-578q0 -81 0.5 -130.5t2.5 -99.5t4.5 -76.5t9 -53.5t13 -38.5t19 -23.5t25 -17.5t33.5 -12.5v-27h-502zM12 1636l289 273l289 -273l-10 -26l-279 90l-278 -90z" />
    <glyph glyph-name="Idieresis" unicode="&#xcf;" horiz-adv-x="604" 
d="M479 1618q-57 0 -95 38.5t-38 98.5q0 54 38 91.5t95 37.5q55 0 93 -37.5t38 -91.5q0 -60 -37.5 -98.5t-93.5 -38.5zM125 1618q-56 0 -93.5 38.5t-37.5 98.5q0 54 38 91.5t93 37.5q57 0 96 -37.5t39 -91.5q0 -59 -39 -98t-96 -39zM51 0v27q21 7 33.5 12.5t25 17.5t19 23.5
t13 38.5t9 53.5t4.5 76.5t2.5 99.5t0.5 130.5v578q0 82 -0.5 132t-2.5 100t-4.5 76.5t-8.5 53.5t-13 38.5t-19.5 23.5t-25 17t-33.5 11v27h502v-27q-21 -6 -33.5 -11t-25 -17t-19.5 -23.5t-13 -38.5t-8.5 -53.5t-4.5 -76.5t-2.5 -100t-0.5 -132v-578q0 -81 0.5 -130.5
t2.5 -99.5t4.5 -76.5t9 -53.5t13 -38.5t19 -23.5t25 -17.5t33.5 -12.5v-27h-502z" />
    <glyph glyph-name="Eth" unicode="&#xd0;" horiz-adv-x="1521" 
d="M51 0v27q21 7 33.5 12.5t25 17.5t19 23.5t13 38.5t9 53.5t4.5 76.5t2.5 99.5t0.5 130.5v305h-178v33h178v-33h295v-753h92q205 0 328 72t184 239t61 449q0 172 -27.5 298.5t-75 205.5t-122 126t-157 64.5t-191.5 17.5h-92v-686h270v-33h-270v33h-295v240q0 81 -0.5 130.5
t-2.5 99.5t-4.5 76.5t-9 53.5t-13 38.5t-19 23.5t-25 17.5t-33.5 12.5v27h494q197 0 359.5 -47t282.5 -138.5t186.5 -235t66.5 -327.5q0 -363 -238.5 -575.5t-656.5 -212.5h-494z" />
    <glyph glyph-name="Ntilde" unicode="&#xd1;" horiz-adv-x="1394" 
d="M51 0v27q28 14 43 24.5t29 34.5t19.5 49t10 82t5 116.5t0.5 168.5v555q0 81 -0.5 130.5t-2.5 99.5t-4.5 76.5t-9 53.5t-13 38.5t-19 23.5t-25 17.5t-33.5 12.5v27h395q38 0 53 -11t48 -61l661 -1007v579q0 84 -0.5 131.5t-3 100t-5.5 78t-11 54.5t-17 41.5t-25.5 27.5
t-33.5 22.5t-45 17.5v27h287v-27q-21 -10 -33.5 -18t-25 -22.5t-19.5 -27.5t-13 -41t-8.5 -55t-4.5 -77.5t-2.5 -100.5t-0.5 -131v-1042h-80l-970 1489v-981q0 -86 0.5 -131.5t2.5 -100t5 -78.5t11 -54.5t17 -42.5t25.5 -27.5t34 -23t45.5 -17.5v-27h-287zM690 1837
q50 0 123.5 -5t101.5 -5q71 0 127 86l25 -8q-21 -109 -66 -174.5t-108 -65.5q-43 0 -114 5t-111 5q-66 0 -113 -82l-25 9q55 235 160 235z" />
    <glyph glyph-name="Ograve" unicode="&#xd2;" horiz-adv-x="1593" 
d="M797 -35q-137 0 -266.5 60.5t-228.5 165t-159.5 256.5t-60.5 323q0 137 39 262t107.5 221t158 167t195.5 108t215 37q136 0 265.5 -59t228.5 -161.5t159.5 -253t60.5 -321.5t-60.5 -323t-159.5 -256.5t-228.5 -165t-265.5 -60.5zM797 -2q185 0 289 191.5t104 580.5
q0 156 -20.5 284t-56.5 216t-86 147.5t-107.5 87t-122.5 27.5q-82 0 -152 -45t-125 -134.5t-86 -239t-31 -343.5q0 -389 104.5 -580.5t289.5 -191.5zM997 1616l-319 41q-143 18 -143 131q0 39 28 68.5t70 29.5q62 0 121 -47l254 -197z" />
    <glyph glyph-name="Oacute" unicode="&#xd3;" horiz-adv-x="1593" 
d="M797 -35q-137 0 -266.5 60.5t-228.5 165t-159.5 256.5t-60.5 323q0 137 39 262t107.5 221t158 167t195.5 108t215 37q136 0 265.5 -59t228.5 -161.5t159.5 -253t60.5 -321.5t-60.5 -323t-159.5 -256.5t-228.5 -165t-265.5 -60.5zM797 -2q185 0 289 191.5t104 580.5
q0 156 -20.5 284t-56.5 216t-86 147.5t-107.5 87t-122.5 27.5q-82 0 -152 -45t-125 -134.5t-86 -239t-31 -343.5q0 -389 104.5 -580.5t289.5 -191.5zM588 1616l-10 26l253 197q59 47 121 47q42 0 70.5 -29.5t28.5 -68.5q0 -113 -144 -131z" />
    <glyph glyph-name="Ocircumflex" unicode="&#xd4;" horiz-adv-x="1593" 
d="M797 -35q-137 0 -266.5 60.5t-228.5 165t-159.5 256.5t-60.5 323q0 137 39 262t107.5 221t158 167t195.5 108t215 37q136 0 265.5 -59t228.5 -161.5t159.5 -253t60.5 -321.5t-60.5 -323t-159.5 -256.5t-228.5 -165t-265.5 -60.5zM797 -2q185 0 289 191.5t104 580.5
q0 156 -20.5 284t-56.5 216t-86 147.5t-107.5 87t-122.5 27.5q-82 0 -152 -45t-125 -134.5t-86 -239t-31 -343.5q0 -389 104.5 -580.5t289.5 -191.5zM508 1636l289 273l288 -273l-10 -26l-278 90l-279 -90z" />
    <glyph glyph-name="Otilde" unicode="&#xd5;" horiz-adv-x="1593" 
d="M797 -35q-137 0 -266.5 60.5t-228.5 165t-159.5 256.5t-60.5 323q0 137 39 262t107.5 221t158 167t195.5 108t215 37q136 0 265.5 -59t228.5 -161.5t159.5 -253t60.5 -321.5t-60.5 -323t-159.5 -256.5t-228.5 -165t-265.5 -60.5zM797 -2q185 0 289 191.5t104 580.5
q0 156 -20.5 284t-56.5 216t-86 147.5t-107.5 87t-122.5 27.5q-82 0 -152 -45t-125 -134.5t-86 -239t-31 -343.5q0 -389 104.5 -580.5t289.5 -191.5zM707 1837q50 0 123.5 -5t101.5 -5q71 0 127 86l24 -8q-21 -109 -66 -174.5t-108 -65.5q-43 0 -114 5t-111 5
q-66 0 -113 -82l-24 9q55 235 160 235z" />
    <glyph glyph-name="Odieresis" unicode="&#xd6;" horiz-adv-x="1593" 
d="M797 -35q-137 0 -266.5 60.5t-228.5 165t-159.5 256.5t-60.5 323q0 137 39 262t107.5 221t158 167t195.5 108t215 37q136 0 265.5 -59t228.5 -161.5t159.5 -253t60.5 -321.5t-60.5 -323t-159.5 -256.5t-228.5 -165t-265.5 -60.5zM797 -2q185 0 289 191.5t104 580.5
q0 156 -20.5 284t-56.5 216t-86 147.5t-107.5 87t-122.5 27.5q-82 0 -152 -45t-125 -134.5t-86 -239t-31 -343.5q0 -389 104.5 -580.5t289.5 -191.5zM995 1618q-57 0 -95 38.5t-38 98.5q0 54 38 91.5t95 37.5q55 0 93 -37.5t38 -91.5q0 -60 -37.5 -98.5t-93.5 -38.5z
M600 1618q-56 0 -93.5 38.5t-37.5 98.5q0 54 38 91.5t93 37.5q57 0 96 -37.5t39 -91.5q0 -59 -38.5 -98t-96.5 -39z" />
    <glyph glyph-name="multiply" unicode="&#xd7;" horiz-adv-x="851" 
d="M100 397l297 324l-299 326l29 32l299 -325l299 325l29 -30l-299 -328l299 -326l-31 -30l-297 325l-297 -323z" />
    <glyph glyph-name="Oslash" unicode="&#xd8;" horiz-adv-x="1593" 
d="M797 -35q-197 0 -367 117l-98 -182l-33 16l100 188q-144 106 -230.5 280.5t-86.5 385.5q0 137 39 262t107.5 221t158 167t195.5 108t215 37q180 0 340 -97l86 160l32 -16l-88 -164q156 -108 250 -283.5t94 -394.5q0 -171 -60.5 -323t-159.5 -256.5t-228.5 -165
t-265.5 -60.5zM403 770q0 -332 76 -518l594 1100q-105 180 -276 180q-82 0 -152 -45t-125 -134.5t-86 -239t-31 -343.5zM797 -2q185 0 289 191.5t104 580.5q0 343 -96 543l-596 -1104q105 -211 299 -211z" />
    <glyph glyph-name="Ugrave" unicode="&#xd9;" horiz-adv-x="1402" 
d="M741 -31q-283 0 -440.5 138.5t-157.5 414.5v535q0 82 -0.5 131.5t-2 100.5t-4 77.5t-8 53.5t-12 38.5t-17.5 23.5t-23 16.5t-31 10.5v27h494v-27q-21 -6 -33.5 -11t-25 -17t-19.5 -23.5t-13 -38.5t-8.5 -53.5t-4.5 -76.5t-2.5 -100t-0.5 -132v-590q0 -105 7.5 -175.5
t27.5 -129.5t56 -92t92 -50.5t137 -17.5q234 0 347 115t113 379v538q0 84 -0.5 131.5t-3 100t-5.5 78.5t-11 55.5t-16.5 41.5t-25 27.5t-33.5 23t-44 17.5v27h285v-27q-28 -14 -43 -24.5t-29 -34.5t-19.5 -49t-10 -82t-5 -116.5t-0.5 -168.5v-538q0 -276 -126 -401.5
t-384 -125.5zM997 1616l-319 41q-143 18 -143 131q0 39 28 68.5t70 29.5q62 0 121 -47l254 -197z" />
    <glyph glyph-name="Uacute" unicode="&#xda;" horiz-adv-x="1402" 
d="M741 -31q-283 0 -440.5 138.5t-157.5 414.5v535q0 82 -0.5 131.5t-2 100.5t-4 77.5t-8 53.5t-12 38.5t-17.5 23.5t-23 16.5t-31 10.5v27h494v-27q-21 -6 -33.5 -11t-25 -17t-19.5 -23.5t-13 -38.5t-8.5 -53.5t-4.5 -76.5t-2.5 -100t-0.5 -132v-590q0 -105 7.5 -175.5
t27.5 -129.5t56 -92t92 -50.5t137 -17.5q234 0 347 115t113 379v538q0 84 -0.5 131.5t-3 100t-5.5 78.5t-11 55.5t-16.5 41.5t-25 27.5t-33.5 23t-44 17.5v27h285v-27q-28 -14 -43 -24.5t-29 -34.5t-19.5 -49t-10 -82t-5 -116.5t-0.5 -168.5v-538q0 -276 -126 -401.5
t-384 -125.5zM588 1616l-10 26l253 197q59 47 121 47q42 0 70.5 -29.5t28.5 -68.5q0 -113 -144 -131z" />
    <glyph glyph-name="Ucircumflex" unicode="&#xdb;" horiz-adv-x="1402" 
d="M741 -31q-283 0 -440.5 138.5t-157.5 414.5v535q0 82 -0.5 131.5t-2 100.5t-4 77.5t-8 53.5t-12 38.5t-17.5 23.5t-23 16.5t-31 10.5v27h494v-27q-21 -6 -33.5 -11t-25 -17t-19.5 -23.5t-13 -38.5t-8.5 -53.5t-4.5 -76.5t-2.5 -100t-0.5 -132v-590q0 -105 7.5 -175.5
t27.5 -129.5t56 -92t92 -50.5t137 -17.5q234 0 347 115t113 379v538q0 84 -0.5 131.5t-3 100t-5.5 78.5t-11 55.5t-16.5 41.5t-25 27.5t-33.5 23t-44 17.5v27h285v-27q-28 -14 -43 -24.5t-29 -34.5t-19.5 -49t-10 -82t-5 -116.5t-0.5 -168.5v-538q0 -276 -126 -401.5
t-384 -125.5zM508 1636l289 273l288 -273l-10 -26l-278 90l-279 -90z" />
    <glyph glyph-name="Udieresis" unicode="&#xdc;" horiz-adv-x="1402" 
d="M741 -31q-283 0 -440.5 138.5t-157.5 414.5v535q0 82 -0.5 131.5t-2 100.5t-4 77.5t-8 53.5t-12 38.5t-17.5 23.5t-23 16.5t-31 10.5v27h494v-27q-21 -6 -33.5 -11t-25 -17t-19.5 -23.5t-13 -38.5t-8.5 -53.5t-4.5 -76.5t-2.5 -100t-0.5 -132v-590q0 -105 7.5 -175.5
t27.5 -129.5t56 -92t92 -50.5t137 -17.5q234 0 347 115t113 379v538q0 84 -0.5 131.5t-3 100t-5.5 78.5t-11 55.5t-16.5 41.5t-25 27.5t-33.5 23t-44 17.5v27h285v-27q-28 -14 -43 -24.5t-29 -34.5t-19.5 -49t-10 -82t-5 -116.5t-0.5 -168.5v-538q0 -276 -126 -401.5
t-384 -125.5zM995 1618q-57 0 -95 38.5t-38 98.5q0 54 38 91.5t95 37.5q55 0 93 -37.5t38 -91.5q0 -60 -37.5 -98.5t-93.5 -38.5zM600 1618q-56 0 -93.5 38.5t-37.5 98.5q0 54 38 91.5t93 37.5q57 0 96 -37.5t39 -91.5q0 -59 -38.5 -98t-96.5 -39z" />
    <glyph glyph-name="Yacute" unicode="&#xdd;" horiz-adv-x="1306" 
d="M410 0v27q21 7 33.5 12.5t25 18t19 23.5t13 38.5t8.5 53t4 76t2.5 99.5t0.5 131v262l-297 537q-62 113 -97.5 158.5t-96.5 72.5v27h503v-27q-50 -18 -62 -48t17 -91l303 -557l252 465q61 112 57 163t-81 68v27h268v-27q-28 -11 -44 -20t-40.5 -32.5t-52.5 -66.5t-66 -112
l-274 -508v-291q0 -82 0.5 -131t2.5 -99.5t4 -76t8.5 -53t13 -38.5t19 -23.5t25 -18t33.5 -12.5v-27h-501zM578 1616l-11 26l254 197q59 47 121 47q42 0 70 -29.5t28 -68.5q0 -113 -143 -131z" />
    <glyph glyph-name="Thorn" unicode="&#xde;" horiz-adv-x="1255" 
d="M51 0v27q21 7 33.5 12.5t25 17.5t19 23.5t13 38.5t9 53.5t4.5 76.5t2.5 99.5t0.5 130.5v578q0 82 -0.5 132t-2.5 100t-4.5 76.5t-8.5 53.5t-13 38.5t-19.5 23.5t-25 17t-33.5 11v27h502v-27q-44 -12 -63 -32t-28.5 -71t-12.5 -163h190q133 0 238 -21.5t184.5 -67
t122.5 -121t43 -177.5q0 -144 -79 -245t-209 -148t-298 -47h-195q0 -89 1 -143t6 -98.5t11 -66.5t20 -39.5t28 -25t41 -16.5v-27h-502zM446 449h189q159 0 237 90t78 292q0 201 -79 290t-234 89h-191v-761z" />
    <glyph glyph-name="germandbls" unicode="&#xdf;" horiz-adv-x="1198" 
d="M393 1255v-966q0 -162 10 -202t62 -60v-27h-410v27q21 7 34 13.5t23 21.5t14.5 27.5t7 46t3 63t0.5 90.5v645h-114v29q79 17 98.5 42t19.5 101v22q0 90 29 166t76 127t108.5 87t125.5 52.5t128 16.5q160 0 272.5 -73.5t112.5 -182.5q0 -51 -26.5 -94t-59.5 -68.5
t-83.5 -63t-78.5 -65.5q-35 -35 -52 -62.5t-20 -43t-3 -43.5q0 -66 45.5 -112t163.5 -124q150 -98 211 -183.5t61 -189.5q0 -132 -98.5 -210t-243.5 -78q-52 0 -98 15.5t-76.5 31.5t-44.5 16q-16 0 -21.5 -6t-11.5 -21h-33v275h31q18 -75 48.5 -135t84.5 -102t121 -42
q66 0 104.5 41t38.5 109q0 72 -41.5 127.5t-158.5 136.5q-125 86 -181.5 157.5t-56.5 149.5q0 38 9 71t30 64t36 49t47.5 50.5t43.5 44.5q62 65 85 129t23 145q0 127 -38.5 190.5t-141.5 63.5q-104 0 -159.5 -68.5t-55.5 -220.5z" />
    <glyph glyph-name="agrave" unicode="&#xe0;" horiz-adv-x="983" 
d="M309 -20q-117 0 -186.5 60t-69.5 167q0 46 17 82t42.5 59t68.5 45t80 35t93.5 33.5t94.5 36.5l28 12q59 28 80 48q41 41 41 108v151q0 141 -145 141q-57 0 -89 -28.5t-53 -81.5q-20 -54 -45 -77t-73 -23q-42 0 -70.5 25t-28.5 63q0 69 98 112t250 43q196 0 302 -66
t106 -198v-502q0 -114 12.5 -149t50.5 -35q23 0 58 20l10 -22q-74 -53 -195 -53q-74 0 -121.5 32.5t-60.5 96.5l-24 -21q-35 -32 -66 -53t-87 -41t-118 -20zM309 248q0 -195 119 -195q35 0 70 20t82 60l18 17v407q-27 -38 -117 -80l-28 -12q-75 -32 -109.5 -78.5
t-34.5 -138.5zM604 1059l-282 145q-47 27 -73 57t-26 74t25 70.5t71 26.5q42 0 71 -23.5t67 -81.5l168 -248z" />
    <glyph glyph-name="aacute" unicode="&#xe1;" horiz-adv-x="983" 
d="M309 -20q-117 0 -186.5 60t-69.5 167q0 46 17 82t42.5 59t68.5 45t80 35t93.5 33.5t94.5 36.5l28 12q59 28 80 48q41 41 41 108v151q0 141 -145 141q-57 0 -89 -28.5t-53 -81.5q-20 -54 -45 -77t-73 -23q-42 0 -70.5 25t-28.5 63q0 69 98 112t250 43q196 0 302 -66
t106 -198v-502q0 -114 12.5 -149t50.5 -35q23 0 58 20l10 -22q-74 -53 -195 -53q-74 0 -121.5 32.5t-60.5 96.5l-24 -21q-35 -32 -66 -53t-87 -41t-118 -20zM309 248q0 -195 119 -195q35 0 70 20t82 60l18 17v407q-27 -38 -117 -80l-28 -12q-75 -32 -109.5 -78.5
t-34.5 -138.5zM328 1059l-21 20l168 248q38 58 66.5 81.5t70.5 23.5q46 0 71.5 -26.5t25.5 -70.5t-26 -74t-73 -57z" />
    <glyph glyph-name="acircumflex" unicode="&#xe2;" horiz-adv-x="983" 
d="M309 -20q-117 0 -186.5 60t-69.5 167q0 46 17 82t42.5 59t68.5 45t80 35t93.5 33.5t94.5 36.5l28 12q59 28 80 48q41 41 41 108v151q0 141 -145 141q-57 0 -89 -28.5t-53 -81.5q-20 -54 -45 -77t-73 -23q-42 0 -70.5 25t-28.5 63q0 69 98 112t250 43q196 0 302 -66
t106 -198v-502q0 -114 12.5 -149t50.5 -35q23 0 58 20l10 -22q-74 -53 -195 -53q-74 0 -121.5 32.5t-60.5 96.5l-24 -21q-35 -32 -66 -53t-87 -41t-118 -20zM309 248q0 -195 119 -195q35 0 70 20t82 60l18 17v407q-27 -38 -117 -80l-28 -12q-75 -32 -109.5 -78.5
t-34.5 -138.5zM199 1077l262 363l262 -363l-23 -18l-239 141l-240 -141z" />
    <glyph glyph-name="atilde" unicode="&#xe3;" horiz-adv-x="983" 
d="M309 -20q-117 0 -186.5 60t-69.5 167q0 46 17 82t42.5 59t68.5 45t80 35t93.5 33.5t94.5 36.5l28 12q59 28 80 48q41 41 41 108v151q0 141 -145 141q-57 0 -89 -28.5t-53 -81.5q-20 -54 -45 -77t-73 -23q-42 0 -70.5 25t-28.5 63q0 69 98 112t250 43q196 0 302 -66
t106 -198v-502q0 -114 12.5 -149t50.5 -35q23 0 58 20l10 -22q-74 -53 -195 -53q-74 0 -121.5 32.5t-60.5 96.5l-24 -21q-35 -32 -66 -53t-87 -41t-118 -20zM309 248q0 -195 119 -195q35 0 70 20t82 60l18 17v407q-27 -38 -117 -80l-28 -12q-75 -32 -109.5 -78.5
t-34.5 -138.5zM367 1333q49 0 114 -13t101 -13q31 0 55.5 18t54.5 66l25 -13q-28 -108 -69 -170.5t-103 -62.5q-40 0 -103 13t-108 13q-30 0 -54 -16.5t-55 -62.5l-24 12q40 120 76 174.5t90 54.5z" />
    <glyph glyph-name="adieresis" unicode="&#xe4;" horiz-adv-x="983" 
d="M309 -20q-117 0 -186.5 60t-69.5 167q0 46 17 82t42.5 59t68.5 45t80 35t93.5 33.5t94.5 36.5l28 12q59 28 80 48q41 41 41 108v151q0 141 -145 141q-57 0 -89 -28.5t-53 -81.5q-20 -54 -45 -77t-73 -23q-42 0 -70.5 25t-28.5 63q0 69 98 112t250 43q196 0 302 -66
t106 -198v-502q0 -114 12.5 -149t50.5 -35q23 0 58 20l10 -22q-74 -53 -195 -53q-74 0 -121.5 32.5t-60.5 96.5l-24 -21q-35 -32 -66 -53t-87 -41t-118 -20zM309 248q0 -195 119 -195q35 0 70 20t82 60l18 17v407q-27 -38 -117 -80l-28 -12q-75 -32 -109.5 -78.5
t-34.5 -138.5zM647 1124q-60 0 -97.5 39t-37.5 101q0 55 38 92t97 37q55 0 93 -37.5t38 -91.5q0 -61 -37.5 -100.5t-93.5 -39.5zM274 1124q-56 0 -93.5 39.5t-37.5 100.5q0 54 38 91.5t93 37.5q59 0 97.5 -37t38.5 -92q0 -62 -38 -101t-98 -39z" />
    <glyph glyph-name="aring" unicode="&#xe5;" horiz-adv-x="983" 
d="M309 -20q-117 0 -186.5 60t-69.5 167q0 46 17 82t42.5 59t68.5 45t80 35t93.5 33.5t94.5 36.5l28 12q59 28 80 48q41 41 41 108v151q0 141 -145 141q-57 0 -89 -28.5t-53 -81.5q-20 -54 -45 -77t-73 -23q-42 0 -70.5 25t-28.5 63q0 69 98 112t250 43q196 0 302 -66
t106 -198v-502q0 -114 12.5 -149t50.5 -35q23 0 58 20l10 -22q-74 -53 -195 -53q-74 0 -121.5 32.5t-60.5 96.5l-24 -21q-35 -32 -66 -53t-87 -41t-118 -20zM309 248q0 -195 119 -195q35 0 70 20t82 60l18 17v407q-27 -38 -117 -80l-28 -12q-75 -32 -109.5 -78.5
t-34.5 -138.5zM285 1245q0 73 51 118.5t125 45.5t125 -45.5t51 -118.5t-51 -118.5t-125 -45.5t-125 45.5t-51 118.5zM375 1245q0 -131 86 -131t86 131q0 62 -22.5 96.5t-63.5 34.5t-63.5 -34.5t-22.5 -96.5z" />
    <glyph glyph-name="ae" unicode="&#xe6;" horiz-adv-x="1503" 
d="M317 -20q-123 0 -193.5 59.5t-70.5 167.5q0 46 17 82t42.5 59t68.5 45t80 35t93.5 33.5t94.5 36.5l28 12q59 28 80 48q41 41 41 108v151q0 141 -145 141q-57 0 -89 -28.5t-53 -81.5q-20 -54 -45 -77t-73 -23q-42 0 -70.5 25t-28.5 63q0 69 98 112t250 43q241 0 340 -96
q131 98 271 98q169 0 279 -93t122 -261h-592q-4 -78 -4 -121q0 -243 76 -359t231 -116q78 0 129.5 19.5t112.5 62.5l18 -27q-66 -55 -139 -86.5t-186 -31.5q-126 0 -233 48t-177 144l-86 -78q-32 -28 -40.5 -35.5t-39 -28.5t-54 -28t-64 -14.5t-89.5 -7.5zM1053 961
q-159 0 -189 -287h348q-17 159 -52 223t-107 64zM309 248q0 -195 119 -195q83 0 176 80l70 64q-76 123 -76 297v63q-27 -38 -117 -80l-28 -12q-75 -32 -109.5 -78.5t-34.5 -138.5z" />
    <glyph glyph-name="ccedilla" unicode="&#xe7;" horiz-adv-x="923" 
d="M539 -18q-204 0 -343 134t-139 349q0 101 30 188.5t80 149t114 105t132.5 64.5t135.5 21q146 0 237 -44t91 -120q0 -37 -26.5 -58t-68.5 -21q-64 0 -91.5 31t-49.5 110q-12 40 -32.5 55t-57.5 15q-227 0 -227 -426q0 -249 76 -368.5t214 -119.5q137 0 244 107l23 -23
q-134 -149 -342 -149zM438 0h45l-55 -96q83 -13 131.5 -53.5t48.5 -92.5q0 -88 -86 -128t-266 -46l-4 31q94 15 142 34t48 50q0 62 -125 68l-8 14z" />
    <glyph glyph-name="egrave" unicode="&#xe8;" horiz-adv-x="976" 
d="M565 -20q-99 0 -188 31t-161.5 91t-115.5 161.5t-43 230.5q0 97 30 181t78.5 141t110 98t123.5 60t119 19q169 0 283.5 -93.5t126.5 -260.5h-606q-5 -97 -5 -121q0 -475 314 -475q79 0 135 20t115 62l18 -27q-69 -55 -144.5 -86.5t-189.5 -31.5zM518 961
q-162 0 -192 -287h360q-17 156 -56 221.5t-112 65.5zM666 1059l-283 145q-98 55 -98 131q0 44 25 70.5t71 26.5q42 0 70.5 -23.5t66.5 -81.5l168 -248z" />
    <glyph glyph-name="eacute" unicode="&#xe9;" horiz-adv-x="976" 
d="M565 -20q-99 0 -188 31t-161.5 91t-115.5 161.5t-43 230.5q0 97 30 181t78.5 141t110 98t123.5 60t119 19q169 0 283.5 -93.5t126.5 -260.5h-606q-5 -97 -5 -121q0 -475 314 -475q79 0 135 20t115 62l18 -27q-69 -55 -144.5 -86.5t-189.5 -31.5zM518 961
q-162 0 -192 -287h360q-17 156 -56 221.5t-112 65.5zM389 1059l-20 20l168 248q38 58 66.5 81.5t70.5 23.5q46 0 71 -26.5t25 -70.5q0 -76 -98 -131z" />
    <glyph glyph-name="ecircumflex" unicode="&#xea;" horiz-adv-x="976" 
d="M565 -20q-99 0 -188 31t-161.5 91t-115.5 161.5t-43 230.5q0 97 30 181t78.5 141t110 98t123.5 60t119 19q169 0 283.5 -93.5t126.5 -260.5h-606q-5 -97 -5 -121q0 -475 314 -475q79 0 135 20t115 62l18 -27q-69 -55 -144.5 -86.5t-189.5 -31.5zM518 961
q-162 0 -192 -287h360q-17 156 -56 221.5t-112 65.5zM260 1077l262 363l262 -363l-22 -18l-240 141l-239 -141z" />
    <glyph glyph-name="edieresis" unicode="&#xeb;" horiz-adv-x="976" 
d="M565 -20q-99 0 -188 31t-161.5 91t-115.5 161.5t-43 230.5q0 97 30 181t78.5 141t110 98t123.5 60t119 19q169 0 283.5 -93.5t126.5 -260.5h-606q-5 -97 -5 -121q0 -475 314 -475q79 0 135 20t115 62l18 -27q-69 -55 -144.5 -86.5t-189.5 -31.5zM518 961
q-162 0 -192 -287h360q-17 156 -56 221.5t-112 65.5zM709 1124q-60 0 -98 39t-38 101q0 55 38.5 92t97.5 37q55 0 93 -37.5t38 -91.5q0 -61 -37.5 -100.5t-93.5 -39.5zM336 1124q-56 0 -93.5 39.5t-37.5 100.5q0 54 38 91.5t93 37.5q59 0 97 -37t38 -92q0 -62 -37.5 -101
t-97.5 -39z" />
    <glyph glyph-name="igrave" unicode="&#xec;" horiz-adv-x="507" 
d="M43 0v27q23 7 36.5 13.5t24.5 21.5t15.5 27.5t7.5 46.5t3.5 63t0.5 90v289v11v60.5t-1.5 45t-3.5 35t-7.5 23t-11 18t-17 10t-23.5 9t-32 5.5v30l352 183v-719v-70t1.5 -54t3.5 -43.5t7 -30.5t11 -24t16 -16t21.5 -14t29.5 -10v-27h-434zM399 1059l-282 145
q-47 27 -73 57t-26 74t25.5 70.5t71.5 26.5q42 0 70.5 -23.5t66.5 -81.5l168 -248z" />
    <glyph glyph-name="iacute" unicode="&#xed;" horiz-adv-x="507" 
d="M43 0v27q23 7 36.5 13.5t24.5 21.5t15.5 27.5t7.5 46.5t3.5 63t0.5 90v289v11v60.5t-1.5 45t-3.5 35t-7.5 23t-11 18t-17 10t-23.5 9t-32 5.5v30l352 183v-719v-70t1.5 -54t3.5 -43.5t7 -30.5t11 -24t16 -16t21.5 -14t29.5 -10v-27h-434zM123 1059l-21 20l168 248
q38 58 67 81.5t71 23.5q46 0 71 -26.5t25 -70.5q0 -76 -98 -131z" />
    <glyph glyph-name="icircumflex" unicode="&#xee;" horiz-adv-x="507" 
d="M43 0v27q23 7 36.5 13.5t24.5 21.5t15.5 27.5t7.5 46.5t3.5 63t0.5 90v289v11v60.5t-1.5 45t-3.5 35t-7.5 23t-11 18t-17 10t-23.5 9t-32 5.5v30l352 183v-719v-70t1.5 -54t3.5 -43.5t7 -30.5t11 -24t16 -16t21.5 -14t29.5 -10v-27h-434zM-6 1077l262 363l262 -363
l-22 -18l-240 141l-240 -141z" />
    <glyph glyph-name="idieresis" unicode="&#xef;" horiz-adv-x="507" 
d="M422 1124q-60 0 -97.5 39t-37.5 101q0 55 38 92t97 37q55 0 93 -37.5t38 -91.5q0 -61 -37.5 -100.5t-93.5 -39.5zM90 1124q-56 0 -93.5 39.5t-37.5 100.5q0 54 38 91.5t93 37.5q59 0 97 -37t38 -92q0 -62 -37.5 -101t-97.5 -39zM43 0v27q23 7 36.5 13.5t24.5 21.5
t15.5 27.5t7.5 46.5t3.5 63t0.5 90v289v11v60.5t-1.5 45t-3.5 35t-7.5 23t-11 18t-17 10t-23.5 9t-32 5.5v30l352 183v-719v-70t1.5 -54t3.5 -43.5t7 -30.5t11 -24t16 -16t21.5 -14t29.5 -10v-27h-434z" />
    <glyph glyph-name="eth" unicode="&#xf0;" horiz-adv-x="1083" 
d="M1026 604q0 -139 -32 -249.5t-82 -177.5t-116 -112t-128.5 -62t-124.5 -17q-57 0 -120.5 17t-129 56.5t-118 95.5t-85.5 142.5t-33 189.5t33 189.5t85.5 143.5t118 97.5t129 58t120.5 17.5q105 0 202 -47q-46 192 -196 377l-246 -131l-16 31l239 127q-122 135 -270 213
l27 14q181 -62 342 -176l225 119l16 -29l-213 -113q102 -81 177 -178t116.5 -198t60.5 -199t19 -199zM543 18q217 0 217 469q0 474 -217 474q-221 0 -221 -474q0 -469 221 -469z" />
    <glyph glyph-name="ntilde" unicode="&#xf1;" horiz-adv-x="1122" 
d="M45 0v27q21 7 34 13.5t23 21.5t14.5 27.5t7 46t3 63t0.5 90.5v289v11v60.5t-1.5 45t-3.5 35t-7.5 23t-11 18t-17 10t-23.5 9t-32 5.5v30l352 183v-256l78 73q90 85 160.5 125.5t156.5 40.5q228 0 228 -268v-434q0 -163 11 -203t70 -59v-27h-428v27q42 14 60 36t24.5 69.5
t6.5 156.5v502q0 108 -86 108q-47 0 -91.5 -27.5t-111.5 -89.5l-78 -73v-420v-70t1.5 -54t3.5 -43.5t7 -30.5t11 -24t16 -16t21.5 -14t29.5 -10v-27h-428zM498 1333q49 0 114 -13t101 -13q31 0 55.5 18t54.5 66l25 -13q-28 -108 -69 -170.5t-103 -62.5q-40 0 -103 13
t-108 13q-30 0 -54 -16.5t-55 -62.5l-24 12q40 120 76 174.5t90 54.5z" />
    <glyph glyph-name="ograve" unicode="&#xf2;" horiz-adv-x="1083" 
d="M543 -14q-57 0 -120.5 17t-129 56.5t-118 95.5t-85.5 142.5t-33 189.5t33 189.5t85.5 143.5t118 97.5t129 58t120.5 17.5t119.5 -17.5t128 -58t117.5 -97.5t85 -143.5t33 -189.5t-33 -189.5t-85 -142.5t-117.5 -95.5t-128 -56.5t-119.5 -17zM543 18q217 0 217 469
q0 474 -217 474q-221 0 -221 -474q0 -469 221 -469zM684 1059l-283 145q-98 55 -98 131q0 44 25 70.5t71 26.5q42 0 71 -23.5t67 -81.5l168 -248z" />
    <glyph glyph-name="oacute" unicode="&#xf3;" horiz-adv-x="1083" 
d="M543 -14q-57 0 -120.5 17t-129 56.5t-118 95.5t-85.5 142.5t-33 189.5t33 189.5t85.5 143.5t118 97.5t129 58t120.5 17.5t119.5 -17.5t128 -58t117.5 -97.5t85 -143.5t33 -189.5t-33 -189.5t-85 -142.5t-117.5 -95.5t-128 -56.5t-119.5 -17zM543 18q217 0 217 469
q0 474 -217 474q-221 0 -221 -474q0 -469 221 -469zM408 1059l-21 20l168 248q38 58 66.5 81.5t70.5 23.5q46 0 71 -26.5t25 -70.5q0 -76 -98 -131z" />
    <glyph glyph-name="ocircumflex" unicode="&#xf4;" horiz-adv-x="1083" 
d="M543 -14q-57 0 -120.5 17t-129 56.5t-118 95.5t-85.5 142.5t-33 189.5t33 189.5t85.5 143.5t118 97.5t129 58t120.5 17.5t119.5 -17.5t128 -58t117.5 -97.5t85 -143.5t33 -189.5t-33 -189.5t-85 -142.5t-117.5 -95.5t-128 -56.5t-119.5 -17zM543 18q217 0 217 469
q0 474 -217 474q-221 0 -221 -474q0 -469 221 -469zM279 1077l262 363l262 -363l-23 -18l-239 141l-240 -141z" />
    <glyph glyph-name="otilde" unicode="&#xf5;" horiz-adv-x="1083" 
d="M543 -14q-57 0 -120.5 17t-129 56.5t-118 95.5t-85.5 142.5t-33 189.5t33 189.5t85.5 143.5t118 97.5t129 58t120.5 17.5t119.5 -17.5t128 -58t117.5 -97.5t85 -143.5t33 -189.5t-33 -189.5t-85 -142.5t-117.5 -95.5t-128 -56.5t-119.5 -17zM543 18q217 0 217 469
q0 474 -217 474q-221 0 -221 -474q0 -469 221 -469zM446 1333q49 0 114.5 -13t101.5 -13q31 0 55.5 18t54.5 66l25 -13q-28 -108 -69 -170.5t-103 -62.5q-40 0 -103 13t-108 13q-30 0 -54 -16.5t-55 -62.5l-24 12q40 121 76 175t89 54z" />
    <glyph glyph-name="odieresis" unicode="&#xf6;" horiz-adv-x="1083" 
d="M543 -14q-57 0 -120.5 17t-129 56.5t-118 95.5t-85.5 142.5t-33 189.5t33 189.5t85.5 143.5t118 97.5t129 58t120.5 17.5t119.5 -17.5t128 -58t117.5 -97.5t85 -143.5t33 -189.5t-33 -189.5t-85 -142.5t-117.5 -95.5t-128 -56.5t-119.5 -17zM543 18q217 0 217 469
q0 474 -217 474q-221 0 -221 -474q0 -469 221 -469zM727 1124q-60 0 -97.5 39t-37.5 101q0 55 38 92t97 37q55 0 93 -37.5t38 -91.5q0 -61 -37.5 -100.5t-93.5 -39.5zM354 1124q-56 0 -93.5 39.5t-37.5 100.5q0 54 38 91.5t93 37.5q59 0 97 -37t38 -92q0 -62 -37.5 -101
t-97.5 -39z" />
    <glyph glyph-name="divide" unicode="&#xf7;" horiz-adv-x="989" 
d="M354 1034q0 58 42.5 101t101.5 43t101 -43t42 -101q0 -60 -41.5 -101.5t-101.5 -41.5t-102 41.5t-42 101.5zM96 698v41h801v-41h-801zM354 403q0 60 42 102t102 42t101.5 -42t41.5 -102q0 -58 -42 -100.5t-101 -42.5t-101.5 42.5t-42.5 100.5z" />
    <glyph glyph-name="oslash" unicode="&#xf8;" horiz-adv-x="1083" 
d="M182 -66l82 144q-207 144 -207 409q0 103 33 189.5t85.5 143.5t118 97.5t129 58t120.5 17.5q106 0 217 -57l69 121l31 -19l-69 -118q103 -63 169 -173t66 -260q0 -103 -33 -189.5t-85 -142.5t-117.5 -95.5t-128 -56.5t-119.5 -17q-126 0 -248 71l-82 -141zM348 221
l359 621q-55 119 -164 119q-221 0 -221 -474q0 -171 26 -266zM723 799l-363 -625q54 -156 183 -156q217 0 217 469q0 193 -37 312z" />
    <glyph glyph-name="ugrave" unicode="&#xf9;" horiz-adv-x="1097" 
d="M346 -18q-227 0 -227 251v345v11v60.5t-1.5 45t-3.5 35t-7.5 23t-11 18t-17 10t-23.5 9t-32 5.5v30l352 183v-826q0 -108 82 -108q44 0 91.5 32.5t119.5 100.5l47 45v326q0 137 -9 166q-10 31 -44 42q-15 4 -44 9v30l353 183v-719q0 -162 12.5 -202t79.5 -60v-27h-348
v209l-47 -45q-52 -49 -81.5 -74t-72 -54.5t-83 -41.5t-85.5 -12zM729 1059l-283 145q-98 55 -98 131q0 44 25 70.5t71 26.5q42 0 71 -23.5t67 -81.5l168 -248z" />
    <glyph glyph-name="uacute" unicode="&#xfa;" horiz-adv-x="1097" 
d="M346 -18q-227 0 -227 251v345v11v60.5t-1.5 45t-3.5 35t-7.5 23t-11 18t-17 10t-23.5 9t-32 5.5v30l352 183v-826q0 -108 82 -108q44 0 91.5 32.5t119.5 100.5l47 45v326q0 137 -9 166q-10 31 -44 42q-15 4 -44 9v30l353 183v-719q0 -162 12.5 -202t79.5 -60v-27h-348
v209l-47 -45q-52 -49 -81.5 -74t-72 -54.5t-83 -41.5t-85.5 -12zM453 1059l-21 20l168 248q38 58 66.5 81.5t70.5 23.5q46 0 71.5 -26.5t25.5 -70.5t-26 -74t-73 -57z" />
    <glyph glyph-name="ucircumflex" unicode="&#xfb;" horiz-adv-x="1097" 
d="M346 -18q-227 0 -227 251v345v11v60.5t-1.5 45t-3.5 35t-7.5 23t-11 18t-17 10t-23.5 9t-32 5.5v30l352 183v-826q0 -108 82 -108q44 0 91.5 32.5t119.5 100.5l47 45v326q0 137 -9 166q-10 31 -44 42q-15 4 -44 9v30l353 183v-719q0 -162 12.5 -202t79.5 -60v-27h-348
v209l-47 -45q-52 -49 -81.5 -74t-72 -54.5t-83 -41.5t-85.5 -12zM324 1077l262 363l262 -363l-23 -18l-239 141l-240 -141z" />
    <glyph glyph-name="udieresis" unicode="&#xfc;" horiz-adv-x="1097" 
d="M346 -18q-227 0 -227 251v345v11v60.5t-1.5 45t-3.5 35t-7.5 23t-11 18t-17 10t-23.5 9t-32 5.5v30l352 183v-826q0 -108 82 -108q44 0 91.5 32.5t119.5 100.5l47 45v326q0 137 -9 166q-10 31 -44 42q-15 4 -44 9v30l353 183v-719q0 -162 12.5 -202t79.5 -60v-27h-348
v209l-47 -45q-52 -49 -81.5 -74t-72 -54.5t-83 -41.5t-85.5 -12zM772 1124q-60 0 -97.5 39t-37.5 101q0 55 38 92t97 37q55 0 93 -37.5t38 -91.5q0 -61 -37.5 -100.5t-93.5 -39.5zM399 1124q-56 0 -93.5 39.5t-37.5 100.5q0 54 38 91.5t93 37.5q59 0 97.5 -37t38.5 -92
q0 -62 -38 -101t-98 -39z" />
    <glyph glyph-name="yacute" unicode="&#xfd;" horiz-adv-x="968" 
d="M217 -338q-137 0 -137 105q0 39 23 61t57 22q27 0 50.5 -11.5t37.5 -25t34.5 -25t43.5 -11.5q35 0 71.5 40t83.5 160l-336 760q-57 129 -79.5 163t-57.5 46v27h422v-27q-25 -4 -38.5 -12.5t-20.5 -29.5t3 -61t36 -102l192 -460l166 411q32 77 43 127.5t1 76t-28.5 36
t-52.5 14.5v27h230v-27q-34 -8 -61 -52t-91 -202l-291 -723q-66 -167 -139 -237t-162 -70zM453 1059l-21 20l168 248q38 58 66.5 81.5t70.5 23.5q46 0 71.5 -26.5t25.5 -70.5t-26 -74t-73 -57z" />
    <glyph glyph-name="thorn" unicode="&#xfe;" horiz-adv-x="1132" 
d="M45 -328v27q21 7 34 13.5t23 21.5t14.5 27.5t7 46t3 63t0.5 90.5v1225q0 133 -8 160q-9 29 -44 37q-14 3 -44 6v30l352 185v-811l27 28q38 41 59.5 61.5t62.5 51.5t87 45t100 14q64 0 124.5 -27.5t113 -82t84.5 -149.5t32 -218q0 -244 -137 -389t-354 -145
q-116 0 -199 59v-80v-70t1.5 -54t3.5 -43.5t7 -30.5t11 -24t16 -16t21.5 -14t29.5 -10v-27h-428zM410 776l-27 -28v-666q87 -66 190 -66q234 0 234 461q0 125 -13 213.5t-37.5 138.5t-56 72.5t-73.5 22.5q-54 0 -102 -36.5t-115 -111.5z" />
    <glyph glyph-name="ydieresis" unicode="&#xff;" horiz-adv-x="968" 
d="M217 -338q-137 0 -137 105q0 39 23 61t57 22q27 0 50.5 -11.5t37.5 -25t34.5 -25t43.5 -11.5q35 0 71.5 40t83.5 160l-336 760q-57 129 -79.5 163t-57.5 46v27h422v-27q-25 -4 -38.5 -12.5t-20.5 -29.5t3 -61t36 -102l192 -460l166 411q32 77 43 127.5t1 76t-28.5 36
t-52.5 14.5v27h230v-27q-34 -8 -61 -52t-91 -202l-291 -723q-66 -167 -139 -237t-162 -70zM733 1124q-60 0 -97.5 39t-37.5 101q0 55 38 92t97 37q55 0 93 -37.5t38 -91.5q0 -61 -37.5 -100.5t-93.5 -39.5zM360 1124q-56 0 -93.5 39.5t-37.5 100.5q0 54 38 91.5t93 37.5
q59 0 97.5 -37t38.5 -92q0 -62 -38 -101t-98 -39z" />
    <glyph glyph-name="Amacron" unicode="&#x100;" horiz-adv-x="1464" 
d="M31 0v27q33 11 55 31t51.5 76.5t67.5 162.5l366 1016l-26 69q-24 64 -51 89.5t-68 37.5v27h344q22 0 29 -7t18 -38l465 -1231q53 -136 76 -171q31 -47 76 -58v-31h-471v31q38 7 53 26t11 55t-28 95l-98 254h-598l-59 -164q-46 -121 -29.5 -181.5t111.5 -88.5v-27h-295z
M315 494h574l-297 768zM893 1780v-111h-494v111h494z" />
    <glyph glyph-name="amacron" unicode="&#x101;" horiz-adv-x="983" 
d="M309 -20q-117 0 -186.5 60t-69.5 167q0 46 17 82t42.5 59t68.5 45t80 35t93.5 33.5t94.5 36.5l28 12q59 28 80 48q41 41 41 108v151q0 141 -145 141q-57 0 -89 -28.5t-53 -81.5q-20 -54 -45 -77t-73 -23q-42 0 -70.5 25t-28.5 63q0 69 98 112t250 43q196 0 302 -66
t106 -198v-502q0 -114 12.5 -149t50.5 -35q23 0 58 20l10 -22q-74 -53 -195 -53q-74 0 -121.5 32.5t-60.5 96.5l-24 -21q-35 -32 -66 -53t-87 -41t-118 -20zM309 248q0 -195 119 -195q35 0 70 20t82 60l18 17v407q-27 -38 -117 -80l-28 -12q-75 -32 -109.5 -78.5
t-34.5 -138.5zM227 1268h467v-107h-467v107z" />
    <glyph glyph-name="Abreve" unicode="&#x102;" horiz-adv-x="1464" 
d="M31 0v27q33 11 55 31t51.5 76.5t67.5 162.5l366 1016l-26 69q-24 64 -51 89.5t-68 37.5v27h344q22 0 29 -7t18 -38l465 -1231q53 -136 76 -171q31 -47 76 -58v-31h-471v31q38 7 53 26t11 55t-28 95l-98 254h-598l-59 -164q-46 -121 -29.5 -181.5t111.5 -88.5v-27h-295z
M315 494h574l-297 768zM647 1812q85 0 127.5 23.5t69.5 79.5h33q-2 -115 -62.5 -189.5t-167.5 -74.5q-108 0 -168.5 73t-62.5 193h33q24 -56 68.5 -80.5t129.5 -24.5z" />
    <glyph glyph-name="abreve" unicode="&#x103;" horiz-adv-x="983" 
d="M309 -20q-117 0 -186.5 60t-69.5 167q0 46 17 82t42.5 59t68.5 45t80 35t93.5 33.5t94.5 36.5l28 12q59 28 80 48q41 41 41 108v151q0 141 -145 141q-57 0 -89 -28.5t-53 -81.5q-20 -54 -45 -77t-73 -23q-42 0 -70.5 25t-28.5 63q0 69 98 112t250 43q196 0 302 -66
t106 -198v-502q0 -114 12.5 -149t50.5 -35q23 0 58 20l10 -22q-74 -53 -195 -53q-74 0 -121.5 32.5t-60.5 96.5l-24 -21q-35 -32 -66 -53t-87 -41t-118 -20zM309 248q0 -195 119 -195q35 0 70 20t82 60l18 17v407q-27 -38 -117 -80l-28 -12q-75 -32 -109.5 -78.5
t-34.5 -138.5zM463 1249q130 0 180 119h33q5 -104 -54 -188t-159 -84q-103 0 -161.5 82t-53.5 192h33q14 -49 59 -85t123 -36z" />
    <glyph glyph-name="Aogonek" unicode="&#x104;" horiz-adv-x="1464" 
d="M31 0v27q33 11 55 31t51.5 76.5t67.5 162.5l366 1016l-26 69q-24 64 -51 89.5t-68 37.5v27h344q22 0 29 -7t18 -38l465 -1231q53 -136 76 -171q31 -47 76 -58v-31h-242q-92 0 -139 -48.5t-47 -125.5q0 -49 24 -75.5t62 -26.5q7 0 13 0.5t12.5 3t10 3.5t11 6t9 5.5t10 7
t9.5 6.5l17 -22l-18 -18t-25.5 -19t-39 -21t-51.5 -13.5t-71 -6.5q-94 0 -151.5 38t-57.5 99q0 57 47.5 103.5t113 72.5t144.5 41l-174 451h-598l-59 -164q-46 -121 -29.5 -181.5t111.5 -88.5v-27h-295zM315 494h574l-297 768z" />
    <glyph glyph-name="aogonek" unicode="&#x105;" horiz-adv-x="983" 
d="M309 -20q-117 0 -186.5 60t-69.5 167q0 46 17 82t42.5 59t68.5 45t80 35t93.5 33.5t94.5 36.5l28 12q59 28 80 48q41 41 41 108v151q0 141 -145 141q-57 0 -89 -28.5t-53 -81.5q-20 -54 -45 -77t-73 -23q-42 0 -70.5 25t-28.5 63q0 69 98 112t250 43q196 0 302 -66
t106 -198v-502q0 -114 12.5 -149t50.5 -35q23 0 58 20l10 -22q-4 -2 -14 -8.5t-20 -12.5t-21 -10q-44 -16 -87.5 -65t-43.5 -117q0 -52 23.5 -77t62.5 -25q7 0 13 0.5t12.5 3t10 3.5t11 6t9 5.5t10 7t9.5 6.5l17 -22l-18 -18t-25.5 -19t-39 -21t-51.5 -13.5t-71 -6.5
q-85 0 -147 38.5t-62 98.5q0 70 72.5 119.5t171.5 73.5h-17q-74 0 -121.5 32.5t-60.5 96.5l-24 -21q-35 -32 -66 -53t-87 -41t-118 -20zM309 248q0 -195 119 -195q35 0 70 20t82 60l18 17v407q-27 -38 -117 -80l-28 -12q-75 -32 -109.5 -78.5t-34.5 -138.5z" />
    <glyph glyph-name="Cacute" unicode="&#x106;" 
d="M821 -33q-118 0 -227.5 34t-202.5 102t-162 163.5t-108 225t-39 278.5q0 155 43.5 288t116 224t166.5 156t195 95t202 30q72 0 134.5 -13t97.5 -28t72 -28t65 -13q58 0 71 55h33v-377h-33q-60 186 -174.5 278.5t-265.5 92.5q-185 0 -292 -178.5t-107 -550.5
q0 -766 485 -766q122 0 224.5 52t170.5 132l25 -22q-28 -39 -68.5 -75.5t-100 -73.5t-143.5 -59t-178 -22zM594 1616l-10 26l254 197q59 47 120 47q42 0 70.5 -29.5t28.5 -68.5q0 -113 -144 -131z" />
    <glyph glyph-name="cacute" unicode="&#x107;" horiz-adv-x="923" 
d="M539 -18q-204 0 -343 134t-139 349q0 101 30 188.5t80 149t114 105t132.5 64.5t135.5 21q146 0 237 -44t91 -120q0 -37 -26.5 -58t-68.5 -21q-64 0 -91.5 31t-49.5 110q-12 40 -32.5 55t-57.5 15q-227 0 -227 -426q0 -249 76 -368.5t214 -119.5q137 0 244 107l23 -23
q-134 -149 -342 -149zM401 1059l-20 20l168 248q38 58 66.5 81.5t70.5 23.5q46 0 71 -26.5t25 -70.5q0 -76 -98 -131z" />
    <glyph glyph-name="Ccircumflex" unicode="&#x108;" 
d="M821 -33q-118 0 -227.5 34t-202.5 102t-162 163.5t-108 225t-39 278.5q0 155 43.5 288t116 224t166.5 156t195 95t202 30q72 0 134.5 -13t97.5 -28t72 -28t65 -13q58 0 71 55h33v-377h-33q-60 186 -174.5 278.5t-265.5 92.5q-185 0 -292 -178.5t-107 -550.5
q0 -766 485 -766q122 0 224.5 52t170.5 132l25 -22q-28 -39 -68.5 -75.5t-100 -73.5t-143.5 -59t-178 -22zM514 1636l289 273l289 -273l-11 -26l-278 90l-279 -90z" />
    <glyph glyph-name="ccircumflex" unicode="&#x109;" horiz-adv-x="923" 
d="M539 -18q-204 0 -343 134t-139 349q0 101 30 188.5t80 149t114 105t132.5 64.5t135.5 21q146 0 237 -44t91 -120q0 -37 -26.5 -58t-68.5 -21q-64 0 -91.5 31t-49.5 110q-12 40 -32.5 55t-57.5 15q-227 0 -227 -426q0 -249 76 -368.5t214 -119.5q137 0 244 107l23 -23
q-134 -149 -342 -149zM272 1077l263 363l262 -363l-23 -18l-239 141l-240 -141z" />
    <glyph glyph-name="Cdotaccent" unicode="&#x10a;" 
d="M821 -33q-118 0 -227.5 34t-202.5 102t-162 163.5t-108 225t-39 278.5q0 155 43.5 288t116 224t166.5 156t195 95t202 30q72 0 134.5 -13t97.5 -28t72 -28t65 -13q58 0 71 55h33v-377h-33q-60 186 -174.5 278.5t-265.5 92.5q-185 0 -292 -178.5t-107 -550.5
q0 -766 485 -766q122 0 224.5 52t170.5 132l25 -22q-28 -39 -68.5 -75.5t-100 -73.5t-143.5 -59t-178 -22zM803 1616q-60 0 -102 42.5t-42 102.5t42 101t102 41t101.5 -40t41.5 -100t-41.5 -103.5t-101.5 -43.5z" />
    <glyph glyph-name="cdotaccent" unicode="&#x10b;" horiz-adv-x="923" 
d="M539 -18q-204 0 -343 134t-139 349q0 101 30 188.5t80 149t114 105t132.5 64.5t135.5 21q146 0 237 -44t91 -120q0 -37 -26.5 -58t-68.5 -21q-64 0 -91.5 31t-49.5 110q-12 40 -32.5 55t-57.5 15q-227 0 -227 -426q0 -249 76 -368.5t214 -119.5q137 0 244 107l23 -23
q-134 -149 -342 -149zM535 1118q-60 0 -102 43t-42 103t42 100.5t102 40.5t101.5 -39.5t41.5 -99.5t-41.5 -104t-101.5 -44z" />
    <glyph glyph-name="Ccaron" unicode="&#x10c;" 
d="M821 -33q-118 0 -227.5 34t-202.5 102t-162 163.5t-108 225t-39 278.5q0 155 43.5 288t116 224t166.5 156t195 95t202 30q72 0 134.5 -13t97.5 -28t72 -28t65 -13q58 0 71 55h33v-377h-33q-60 186 -174.5 278.5t-265.5 92.5q-185 0 -292 -178.5t-107 -550.5
q0 -766 485 -766q122 0 224.5 52t170.5 132l25 -22q-28 -39 -68.5 -75.5t-100 -73.5t-143.5 -59t-178 -22zM514 1898l10 27l279 -90l278 90l11 -27l-289 -272z" />
    <glyph glyph-name="ccaron" unicode="&#x10d;" horiz-adv-x="923" 
d="M539 -18q-204 0 -343 134t-139 349q0 101 30 188.5t80 149t114 105t132.5 64.5t135.5 21q146 0 237 -44t91 -120q0 -37 -26.5 -58t-68.5 -21q-64 0 -91.5 31t-49.5 110q-12 40 -32.5 55t-57.5 15q-227 0 -227 -426q0 -249 76 -368.5t214 -119.5q137 0 244 107l23 -23
q-134 -149 -342 -149zM272 1442l23 18l240 -141l239 141l23 -18l-262 -363z" />
    <glyph glyph-name="Dcaron" unicode="&#x10e;" horiz-adv-x="1521" 
d="M51 0v27q21 7 33.5 12.5t25 17.5t19 23.5t13 38.5t9 53.5t4.5 76.5t2.5 99.5t0.5 130.5v578q0 81 -0.5 130.5t-2.5 99.5t-4.5 76.5t-9 53.5t-13 38.5t-19 23.5t-25 17.5t-33.5 12.5v27h494q197 0 359.5 -47t282.5 -138.5t186.5 -235t66.5 -327.5q0 -363 -238.5 -575.5
t-656.5 -212.5h-494zM545 1503h-92v-1472h92q205 0 328 72t184 239t61 449q0 172 -27.5 298.5t-75 205.5t-122 126t-157 64.5t-191.5 17.5zM358 1898l11 27l278 -90l279 90l10 -27l-289 -272z" />
    <glyph glyph-name="dcaron" unicode="&#x10f;" horiz-adv-x="1130" 
d="M426 -18q-73 0 -138 28t-116.5 82.5t-82 143.5t-30.5 202q0 257 137.5 404t356.5 147q112 0 197 -65v260q0 133 -9 160q-9 28 -44 36q-14 3 -44 6v31l353 185v-1313v-70t1.5 -54t3.5 -43.5t7 -30.5t11 -24t16 -16t21.5 -14t29.5 -10v-27h-346v166l-21 -23
q-33 -36 -58.5 -59t-64 -49.5t-83.5 -39.5t-97 -13zM326 459q0 -412 184 -412q53 0 105.5 36.5t113.5 104.5l21 23v672q-91 71 -191 71q-110 0 -171.5 -122.5t-61.5 -372.5zM1120 1130l-24 7l8 282q4 89 28 125.5t74 36.5q41 0 64.5 -26t23.5 -70q0 -47 -34 -105z" />
    <glyph glyph-name="Dcroat" unicode="&#x110;" horiz-adv-x="1521" 
d="M51 0v27q21 7 33.5 12.5t25 17.5t19 23.5t13 38.5t9 53.5t4.5 76.5t2.5 99.5t0.5 130.5v305h-178v33h178v-33h295v-753h92q205 0 328 72t184 239t61 449q0 172 -27.5 298.5t-75 205.5t-122 126t-157 64.5t-191.5 17.5h-92v-686h270v-33h-270v33h-295v240q0 81 -0.5 130.5
t-2.5 99.5t-4.5 76.5t-9 53.5t-13 38.5t-19 23.5t-25 17.5t-33.5 12.5v27h494q197 0 359.5 -47t282.5 -138.5t186.5 -235t66.5 -327.5q0 -363 -238.5 -575.5t-656.5 -212.5h-494z" />
    <glyph glyph-name="dcroat" unicode="&#x111;" horiz-adv-x="1130" 
d="M500 1149v33h653v-33h-653zM426 -18q-73 0 -138 28t-116.5 82.5t-82 143.5t-30.5 202q0 257 137.5 404t356.5 147q112 0 197 -65v260q0 133 -9 160q-9 28 -44 36q-14 3 -44 6v31l353 185v-1313v-70t1.5 -54t3.5 -43.5t7 -30.5t11 -24t16 -16t21.5 -14t29.5 -10v-27h-346
v166l-21 -23q-33 -36 -58.5 -59t-64 -49.5t-83.5 -39.5t-97 -13zM326 459q0 -412 184 -412q53 0 105.5 36.5t113.5 104.5l21 23v672q-91 71 -191 71q-110 0 -171.5 -122.5t-61.5 -372.5z" />
    <glyph glyph-name="Emacron" unicode="&#x112;" horiz-adv-x="1247" 
d="M51 0v27q21 7 33.5 12.5t25 17.5t19 23.5t13 38.5t9 53.5t4.5 76.5t2.5 99.5t0.5 130.5v578q0 81 -0.5 130.5t-2.5 99.5t-4.5 76.5t-9 53.5t-13 38.5t-19 23.5t-25 17.5t-33.5 12.5v27h1004q25 0 34.5 -10t16.5 -51l39 -222h-37q-34 102 -78 153.5t-119 74t-209 22.5
h-249v-626h77q45 0 79.5 4t58.5 8.5t42.5 17.5t28 20.5t19 29.5t12.5 31.5t10 38.5q3 10 4 15h31v-368h-31q-21 76 -31 94q-30 55 -120 69q-43 7 -103 7h-77v-811h260q155 0 240 25.5t129 82.5t69 170h37l-27 -248q-2 -24 -5.5 -36.5t-12 -18.5t-16 -7t-27.5 -1h-1049z
M872 1780v-111h-493v111h493z" />
    <glyph glyph-name="emacron" unicode="&#x113;" horiz-adv-x="976" 
d="M565 -20q-99 0 -188 31t-161.5 91t-115.5 161.5t-43 230.5q0 97 30 181t78.5 141t110 98t123.5 60t119 19q169 0 283.5 -93.5t126.5 -260.5h-606q-5 -97 -5 -121q0 -475 314 -475q79 0 135 20t115 62l18 -27q-69 -55 -144.5 -86.5t-189.5 -31.5zM518 961
q-162 0 -192 -287h360q-17 156 -56 221.5t-112 65.5zM289 1268h467v-107h-467v107z" />
    <glyph glyph-name="Ebreve" unicode="&#x114;" horiz-adv-x="1247" 
d="M51 0v27q21 7 33.5 12.5t25 17.5t19 23.5t13 38.5t9 53.5t4.5 76.5t2.5 99.5t0.5 130.5v578q0 81 -0.5 130.5t-2.5 99.5t-4.5 76.5t-9 53.5t-13 38.5t-19 23.5t-25 17.5t-33.5 12.5v27h1004q25 0 34.5 -10t16.5 -51l39 -222h-37q-34 102 -78 153.5t-119 74t-209 22.5
h-249v-626h77q45 0 79.5 4t58.5 8.5t42.5 17.5t28 20.5t19 29.5t12.5 31.5t10 38.5q3 10 4 15h31v-368h-31q-21 76 -31 94q-30 55 -120 69q-43 7 -103 7h-77v-811h260q155 0 240 25.5t129 82.5t69 170h37l-27 -248q-2 -24 -5.5 -36.5t-12 -18.5t-16 -7t-27.5 -1h-1049z
M627 1812q85 0 127 23.5t69 79.5h33q-2 -115 -62 -189.5t-167 -74.5q-108 0 -169 73t-63 193h33q24 -56 68.5 -80.5t130.5 -24.5z" />
    <glyph glyph-name="ebreve" unicode="&#x115;" horiz-adv-x="976" 
d="M565 -20q-99 0 -188 31t-161.5 91t-115.5 161.5t-43 230.5q0 97 30 181t78.5 141t110 98t123.5 60t119 19q169 0 283.5 -93.5t126.5 -260.5h-606q-5 -97 -5 -121q0 -475 314 -475q79 0 135 20t115 62l18 -27q-69 -55 -144.5 -86.5t-189.5 -31.5zM518 961
q-162 0 -192 -287h360q-17 156 -56 221.5t-112 65.5zM524 1249q131 0 181 119h32q5 -104 -54 -188t-159 -84q-69 0 -120.5 40.5t-74.5 102t-20 131.5h33q14 -49 59 -85t123 -36z" />
    <glyph glyph-name="Edotaccent" unicode="&#x116;" horiz-adv-x="1247" 
d="M51 0v27q21 7 33.5 12.5t25 17.5t19 23.5t13 38.5t9 53.5t4.5 76.5t2.5 99.5t0.5 130.5v578q0 81 -0.5 130.5t-2.5 99.5t-4.5 76.5t-9 53.5t-13 38.5t-19 23.5t-25 17.5t-33.5 12.5v27h1004q25 0 34.5 -10t16.5 -51l39 -222h-37q-34 102 -78 153.5t-119 74t-209 22.5
h-249v-626h77q45 0 79.5 4t58.5 8.5t42.5 17.5t28 20.5t19 29.5t12.5 31.5t10 38.5q3 10 4 15h31v-368h-31q-21 76 -31 94q-30 55 -120 69q-43 7 -103 7h-77v-811h260q155 0 240 25.5t129 82.5t69 170h37l-27 -248q-2 -24 -5.5 -36.5t-12 -18.5t-16 -7t-27.5 -1h-1049z
M625 1616q-60 0 -102 42.5t-42 102.5t42 101t102 41t101.5 -40t41.5 -100t-41.5 -103.5t-101.5 -43.5z" />
    <glyph glyph-name="edotaccent" unicode="&#x117;" horiz-adv-x="976" 
d="M565 -20q-99 0 -188 31t-161.5 91t-115.5 161.5t-43 230.5q0 97 30 181t78.5 141t110 98t123.5 60t119 19q169 0 283.5 -93.5t126.5 -260.5h-606q-5 -97 -5 -121q0 -475 314 -475q79 0 135 20t115 62l18 -27q-69 -55 -144.5 -86.5t-189.5 -31.5zM518 961
q-162 0 -192 -287h360q-17 156 -56 221.5t-112 65.5zM522 1118q-60 0 -101.5 43t-41.5 103t41.5 100.5t101.5 40.5q61 0 102.5 -39.5t41.5 -99.5t-42 -104t-102 -44z" />
    <glyph glyph-name="Eogonek" unicode="&#x118;" horiz-adv-x="1247" 
d="M51 0v27q21 7 33.5 12.5t25 17.5t19 23.5t13 38.5t9 53.5t4.5 76.5t2.5 99.5t0.5 130.5v578q0 81 -0.5 130.5t-2.5 99.5t-4.5 76.5t-9 53.5t-13 38.5t-19 23.5t-25 17.5t-33.5 12.5v27h1004q25 0 34.5 -10t16.5 -51l39 -222h-37q-34 102 -78 153.5t-119 74t-209 22.5
h-249v-626h77q45 0 79.5 4t58.5 8.5t42.5 17.5t28 20.5t19 29.5t12.5 31.5t10 38.5q3 10 4 15h31v-368h-31q-21 76 -31 94q-30 55 -120 69q-43 7 -103 7h-77v-811h260q155 0 240 25.5t129 82.5t69 170h37l-27 -248q-2 -24 -5.5 -36.5t-12 -18.5t-16 -7t-27.5 -1h-1049z
M836 -344q-85 0 -147 38.5t-62 98.5q0 43 29.5 80.5t76.5 62t90.5 40t85.5 24.5h45q-21 -18 -30.5 -28t-27.5 -33t-26 -51t-8 -62q0 -49 24 -75.5t62 -26.5q5 0 10 0.5t10.5 2t8.5 2t8.5 3.5t8 4t8.5 5t7 4.5t7.5 5.5t7.5 5l16 -22l-17.5 -17.5t-25 -19t-39 -21.5
t-51.5 -13.5t-71 -6.5z" />
    <glyph glyph-name="eogonek" unicode="&#x119;" horiz-adv-x="976" 
d="M797 -244l16 -22l-18 -18t-25.5 -19t-39 -21t-51.5 -13.5t-71 -6.5q-85 0 -147 38.5t-62 98.5q0 120 222 189q-18 -2 -56 -2q-99 0 -188 31t-161.5 91t-115.5 161.5t-43 230.5q0 97 30 181t78.5 141t110 98t123.5 60t119 19q169 0 283.5 -93.5t126.5 -260.5h-606
q-5 -97 -5 -121q0 -475 314 -475q79 0 135 20t115 62l18 -27q-6 -4 -18 -13.5t-19 -14.5t-18 -12.5t-21.5 -13.5t-21.5 -11q-28 -15 -41 -23t-41.5 -29.5t-43 -41t-27.5 -50t-13 -63.5q0 -49 24 -75.5t62 -26.5q5 0 10 0.5t10.5 2t8.5 2t8.5 3.5t8 4t8.5 5t7 4.5t7.5 5.5
t7.5 5zM518 961q-162 0 -192 -287h360q-17 156 -56 221.5t-112 65.5z" />
    <glyph glyph-name="Ecaron" unicode="&#x11a;" horiz-adv-x="1247" 
d="M51 0v27q21 7 33.5 12.5t25 17.5t19 23.5t13 38.5t9 53.5t4.5 76.5t2.5 99.5t0.5 130.5v578q0 81 -0.5 130.5t-2.5 99.5t-4.5 76.5t-9 53.5t-13 38.5t-19 23.5t-25 17.5t-33.5 12.5v27h1004q25 0 34.5 -10t16.5 -51l39 -222h-37q-34 102 -78 153.5t-119 74t-209 22.5
h-249v-626h77q45 0 79.5 4t58.5 8.5t42.5 17.5t28 20.5t19 29.5t12.5 31.5t10 38.5q3 10 4 15h31v-368h-31q-21 76 -31 94q-30 55 -120 69q-43 7 -103 7h-77v-811h260q155 0 240 25.5t129 82.5t69 170h37l-27 -248q-2 -24 -5.5 -36.5t-12 -18.5t-16 -7t-27.5 -1h-1049z
M336 1898l10 27l279 -90l278 90l10 -27l-288 -272z" />
    <glyph glyph-name="ecaron" unicode="&#x11b;" horiz-adv-x="976" 
d="M565 -20q-99 0 -188 31t-161.5 91t-115.5 161.5t-43 230.5q0 97 30 181t78.5 141t110 98t123.5 60t119 19q169 0 283.5 -93.5t126.5 -260.5h-606q-5 -97 -5 -121q0 -475 314 -475q79 0 135 20t115 62l18 -27q-69 -55 -144.5 -86.5t-189.5 -31.5zM518 961
q-162 0 -192 -287h360q-17 156 -56 221.5t-112 65.5zM260 1442l23 18l239 -141l240 141l22 -18l-262 -363z" />
    <glyph glyph-name="Gcircumflex" unicode="&#x11c;" horiz-adv-x="1552" 
d="M829 -33q-156 0 -294.5 61.5t-238 168t-157 258t-57.5 325.5q0 129 33 242.5t90 197.5t130.5 150.5t157.5 108t168.5 63t165.5 21.5q91 0 166 -19t131 -38t99 -19q49 0 61 49h33v-373h-33q-49 170 -166.5 268.5t-290.5 98.5q-426 0 -426 -729q0 -418 105.5 -609.5
t322.5 -191.5q151 0 220 80.5t69 271.5v39q0 115 -13.5 178.5t-39.5 88.5t-74 34v27h520v-27q-52 -8 -75 -41.5t-32 -117.5t-9 -267v-59q-91 -98 -258 -169t-308 -71zM545 1636l289 273l288 -273l-10 -26l-278 90l-279 -90z" />
    <glyph glyph-name="gcircumflex" unicode="&#x11d;" horiz-adv-x="983" 
d="M453 -344q-74 0 -143 9.5t-134.5 30t-105 60.5t-39.5 94q0 34 16 62.5t45.5 49.5t59.5 36t69 29q-143 44 -143 155q0 61 31.5 109.5t89.5 97.5l26 23q-158 89 -155 254q0 77 35.5 141t92.5 104t125.5 62t137.5 22q97 0 196 -45q49 46 107 77.5t98 31.5q103 0 103 -86
q0 -36 -21 -58t-47 -22q-32 0 -59 18.5t-47.5 37t-36.5 18.5q-30 0 -74 -29q78 -44 125 -113.5t47 -158.5q0 -76 -35.5 -137.5t-93 -99t-125 -57.5t-137.5 -20q-116 0 -203 43l-29 -24q-45 -36 -45 -70q0 -43 82 -53l342 -39q161 -18 239.5 -74.5t78.5 -175.5
q0 -139 -130.5 -221t-342.5 -82zM184 -131q0 -85 72.5 -132.5t196.5 -47.5q173 0 265.5 50.5t92.5 119.5q0 54 -50.5 82t-174.5 41l-275 28l-43 6q-84 -41 -84 -147zM461 385q73 0 115 63t42 218q0 159 -40.5 228t-116.5 69q-77 0 -117.5 -69t-40.5 -228q0 -156 41 -218.5
t117 -62.5zM219 1077l262 363l262 -363l-22 -18l-240 141l-239 -141z" />
    <glyph glyph-name="Gbreve" unicode="&#x11e;" horiz-adv-x="1552" 
d="M829 -33q-156 0 -294.5 61.5t-238 168t-157 258t-57.5 325.5q0 129 33 242.5t90 197.5t130.5 150.5t157.5 108t168.5 63t165.5 21.5q91 0 166 -19t131 -38t99 -19q49 0 61 49h33v-373h-33q-49 170 -166.5 268.5t-290.5 98.5q-426 0 -426 -729q0 -418 105.5 -609.5
t322.5 -191.5q151 0 220 80.5t69 271.5v39q0 115 -13.5 178.5t-39.5 88.5t-74 34v27h520v-27q-52 -8 -75 -41.5t-32 -117.5t-9 -267v-59q-91 -98 -258 -169t-308 -71zM836 1812q85 0 127 23.5t69 79.5h33q-2 -115 -62 -189.5t-167 -74.5q-108 0 -169 73t-63 193h33
q24 -56 68.5 -80.5t130.5 -24.5z" />
    <glyph glyph-name="gbreve" unicode="&#x11f;" horiz-adv-x="983" 
d="M453 -344q-74 0 -143 9.5t-134.5 30t-105 60.5t-39.5 94q0 34 16 62.5t45.5 49.5t59.5 36t69 29q-143 44 -143 155q0 61 31.5 109.5t89.5 97.5l26 23q-158 89 -155 254q0 77 35.5 141t92.5 104t125.5 62t137.5 22q97 0 196 -45q49 46 107 77.5t98 31.5q103 0 103 -86
q0 -36 -21 -58t-47 -22q-32 0 -59 18.5t-47.5 37t-36.5 18.5q-30 0 -74 -29q78 -44 125 -113.5t47 -158.5q0 -76 -35.5 -137.5t-93 -99t-125 -57.5t-137.5 -20q-116 0 -203 43l-29 -24q-45 -36 -45 -70q0 -43 82 -53l342 -39q161 -18 239.5 -74.5t78.5 -175.5
q0 -139 -130.5 -221t-342.5 -82zM184 -131q0 -85 72.5 -132.5t196.5 -47.5q173 0 265.5 50.5t92.5 119.5q0 54 -50.5 82t-174.5 41l-275 28l-43 6q-84 -41 -84 -147zM461 385q73 0 115 63t42 218q0 159 -40.5 228t-116.5 69q-77 0 -117.5 -69t-40.5 -228q0 -156 41 -218.5
t117 -62.5zM483 1249q131 0 181 119h32q5 -104 -54 -188t-159 -84q-103 0 -161.5 82t-53.5 192h33q14 -49 59 -85t123 -36z" />
    <glyph glyph-name="Gdotaccent" unicode="&#x120;" horiz-adv-x="1552" 
d="M829 -33q-156 0 -294.5 61.5t-238 168t-157 258t-57.5 325.5q0 129 33 242.5t90 197.5t130.5 150.5t157.5 108t168.5 63t165.5 21.5q91 0 166 -19t131 -38t99 -19q49 0 61 49h33v-373h-33q-49 170 -166.5 268.5t-290.5 98.5q-426 0 -426 -729q0 -418 105.5 -609.5
t322.5 -191.5q151 0 220 80.5t69 271.5v39q0 115 -13.5 178.5t-39.5 88.5t-74 34v27h520v-27q-52 -8 -75 -41.5t-32 -117.5t-9 -267v-59q-91 -98 -258 -169t-308 -71zM834 1616q-60 0 -102 42.5t-42 102.5t42 101t102 41t101.5 -40t41.5 -100t-41.5 -103.5t-101.5 -43.5z
" />
    <glyph glyph-name="gdotaccent" unicode="&#x121;" horiz-adv-x="983" 
d="M453 -344q-74 0 -143 9.5t-134.5 30t-105 60.5t-39.5 94q0 34 16 62.5t45.5 49.5t59.5 36t69 29q-143 44 -143 155q0 61 31.5 109.5t89.5 97.5l26 23q-158 89 -155 254q0 77 35.5 141t92.5 104t125.5 62t137.5 22q97 0 196 -45q49 46 107 77.5t98 31.5q103 0 103 -86
q0 -36 -21 -58t-47 -22q-32 0 -59 18.5t-47.5 37t-36.5 18.5q-30 0 -74 -29q78 -44 125 -113.5t47 -158.5q0 -76 -35.5 -137.5t-93 -99t-125 -57.5t-137.5 -20q-116 0 -203 43l-29 -24q-45 -36 -45 -70q0 -43 82 -53l342 -39q161 -18 239.5 -74.5t78.5 -175.5
q0 -139 -130.5 -221t-342.5 -82zM184 -131q0 -85 72.5 -132.5t196.5 -47.5q173 0 265.5 50.5t92.5 119.5q0 54 -50.5 82t-174.5 41l-275 28l-43 6q-84 -41 -84 -147zM461 385q73 0 115 63t42 218q0 159 -40.5 228t-116.5 69q-77 0 -117.5 -69t-40.5 -228q0 -156 41 -218.5
t117 -62.5zM481 1118q-60 0 -101.5 43t-41.5 103t41.5 100.5t101.5 40.5q61 0 102.5 -39.5t41.5 -99.5t-42 -104t-102 -44z" />
    <glyph glyph-name="uni0122" unicode="&#x122;" horiz-adv-x="1552" 
d="M829 -33q-156 0 -294.5 61.5t-238 168t-157 258t-57.5 325.5q0 129 33 242.5t90 197.5t130.5 150.5t157.5 108t168.5 63t165.5 21.5q91 0 166 -19t131 -38t99 -19q49 0 61 49h33v-373h-33q-49 170 -166.5 268.5t-290.5 98.5q-426 0 -426 -729q0 -418 105.5 -609.5
t322.5 -191.5q151 0 220 80.5t69 271.5v39q0 115 -13.5 178.5t-39.5 88.5t-74 34v27h520v-27q-52 -8 -75 -41.5t-32 -117.5t-9 -267v-59q-91 -98 -258 -169t-308 -71zM889 -250q-6 -16 -26 -30.5t-54 -14.5q-46 0 -77.5 29.5t-31.5 77.5q0 50 36 82t87 32q59 0 102.5 -39.5
t43.5 -119.5q0 -87 -53.5 -140t-153.5 -67l-10 24q79 18 114 55.5t35 75.5q0 32 -12 35z" />
    <glyph glyph-name="uni0123" unicode="&#x123;" horiz-adv-x="983" 
d="M453 -344q-74 0 -143 9.5t-134.5 30t-105 60.5t-39.5 94q0 34 16 62.5t45.5 49.5t59.5 36t69 29q-143 44 -143 155q0 61 31.5 109.5t89.5 97.5l26 23q-158 89 -155 254q0 77 35.5 141t92.5 104t125.5 62t137.5 22q97 0 196 -45q49 46 107 77.5t98 31.5q103 0 103 -86
q0 -36 -21 -58t-47 -22q-32 0 -59 18.5t-47.5 37t-36.5 18.5q-30 0 -74 -29q78 -44 125 -113.5t47 -158.5q0 -76 -35.5 -137.5t-93 -99t-125 -57.5t-137.5 -20q-116 0 -203 43l-29 -24q-45 -36 -45 -70q0 -43 82 -53l342 -39q161 -18 239.5 -74.5t78.5 -175.5
q0 -139 -130.5 -221t-342.5 -82zM184 -131q0 -85 72.5 -132.5t196.5 -47.5q173 0 265.5 50.5t92.5 119.5q0 54 -50.5 82t-174.5 41l-275 28l-43 6q-84 -41 -84 -147zM461 385q73 0 115 63t42 218q0 159 -40.5 228t-116.5 69q-77 0 -117.5 -69t-40.5 -228q0 -156 41 -218.5
t117 -62.5zM414 1278q6 16 26 30.5t54 14.5q46 0 77 -29t31 -77q0 -50 -36 -82.5t-87 -32.5q-59 0 -102 40t-43 120q0 87 53.5 139.5t153.5 66.5l10 -24q-79 -18 -114.5 -55.5t-35.5 -75.5q0 -32 13 -35z" />
    <glyph glyph-name="Hcircumflex" unicode="&#x124;" horiz-adv-x="1525" 
d="M51 0v27q21 6 33.5 11t25 17t19.5 23.5t13 38.5t8.5 53.5t4.5 76.5t2.5 100t0.5 132v578q0 82 -0.5 132t-2.5 100t-4.5 76.5t-8.5 53.5t-13 38.5t-19.5 23.5t-25 17t-33.5 11v27h502v-27q-21 -6 -33.5 -11t-25 -17t-19.5 -23.5t-13 -38.5t-8.5 -53.5t-4.5 -76.5
t-2.5 -100t-0.5 -132v-199h633v199q0 83 -0.5 132t-2.5 100t-4 77t-8.5 53t-13 38.5t-19 23.5t-25 17t-33.5 11v27h502v-27q-21 -6 -33.5 -11t-25 -17t-19.5 -23.5t-13 -38.5t-8.5 -53.5t-4.5 -76.5t-2.5 -100t-0.5 -132v-578q0 -82 0.5 -132t2.5 -100t4.5 -76.5t8.5 -53.5
t13 -38.5t19.5 -23.5t25 -17t33.5 -11v-27h-502v27q21 6 33.5 11t25 17t19 23.5t13 38.5t8.5 53t4 77t2.5 100t0.5 132v346h-633v-346q0 -82 0.5 -132t2.5 -100t4.5 -76.5t8.5 -53.5t13 -38.5t19.5 -23.5t25 -17t33.5 -11v-27h-502zM473 1636l289 273l289 -273l-11 -26
l-278 90l-279 -90z" />
    <glyph glyph-name="hcircumflex" unicode="&#x125;" horiz-adv-x="1122" 
d="M45 0v27q21 7 34 13.5t23 21.5t14.5 27.5t7 46t3 63t0.5 90.5v895v11q0 126 -9 151q-10 28 -48 35q-12 2 -39 5v31l352 185v-850l78 73q90 85 160.5 125.5t156.5 40.5q228 0 228 -268v-434q0 -163 11 -203t70 -59v-27h-428v27q42 14 60 36t24.5 69.5t6.5 156.5v502
q0 108 -86 108q-47 0 -91.5 -27.5t-111.5 -89.5l-78 -73v-420v-70t1.5 -54t3.5 -43.5t7 -30.5t11 -24t16 -16t21.5 -14t29.5 -10v-27h-428zM309 1688l289 272l289 -272l-10 -27l-279 90l-279 -90z" />
    <glyph glyph-name="Hbar" unicode="&#x126;" horiz-adv-x="1525" 
d="M-20 1157v33h1566v-33h-1566zM51 0v27q21 6 33.5 11t25 17t19.5 23.5t13 38.5t8.5 53.5t4.5 76.5t2.5 100t0.5 132v578q0 82 -0.5 132t-2.5 100t-4.5 76.5t-8.5 53.5t-13 38.5t-19.5 23.5t-25 17t-33.5 11v27h502v-27q-21 -6 -33.5 -11t-25 -17t-19.5 -23.5t-13 -38.5
t-8.5 -53.5t-4.5 -76.5t-2.5 -100t-0.5 -132v-199h633v199q0 83 -0.5 132t-2.5 100t-4 77t-8.5 53t-13 38.5t-19 23.5t-25 17t-33.5 11v27h502v-27q-21 -6 -33.5 -11t-25 -17t-19.5 -23.5t-13 -38.5t-8.5 -53.5t-4.5 -76.5t-2.5 -100t-0.5 -132v-578q0 -82 0.5 -132
t2.5 -100t4.5 -76.5t8.5 -53.5t13 -38.5t19.5 -23.5t25 -17t33.5 -11v-27h-502v27q21 6 33.5 11t25 17t19 23.5t13 38.5t8.5 53t4 77t2.5 100t0.5 132v346h-633v-346q0 -82 0.5 -132t2.5 -100t4.5 -76.5t8.5 -53.5t13 -38.5t19.5 -23.5t25 -17t33.5 -11v-27h-502z" />
    <glyph glyph-name="hbar" unicode="&#x127;" horiz-adv-x="1122" 
d="M633 1149h-653v33h653v-33zM45 0v27q21 7 34 13.5t23 21.5t14.5 27.5t7 46t3 63t0.5 90.5v895v11q0 126 -9 151q-10 28 -48 35q-12 2 -39 5v31l352 185v-850l78 73q90 85 160.5 125.5t156.5 40.5q228 0 228 -268v-434q0 -163 11 -203t70 -59v-27h-428v27q42 14 60 36
t24.5 69.5t6.5 156.5v502q0 108 -86 108q-47 0 -91.5 -27.5t-111.5 -89.5l-78 -73v-420v-70t1.5 -54t3.5 -43.5t7 -30.5t11 -24t16 -16t21.5 -14t29.5 -10v-27h-428z" />
    <glyph glyph-name="Itilde" unicode="&#x128;" horiz-adv-x="604" 
d="M51 0v27q21 7 33.5 12.5t25 17.5t19 23.5t13 38.5t9 53.5t4.5 76.5t2.5 99.5t0.5 130.5v578q0 82 -0.5 132t-2.5 100t-4.5 76.5t-8.5 53.5t-13 38.5t-19.5 23.5t-25 17t-33.5 11v27h502v-27q-21 -6 -33.5 -11t-25 -17t-19.5 -23.5t-13 -38.5t-8.5 -53.5t-4.5 -76.5
t-2.5 -100t-0.5 -132v-578q0 -81 0.5 -130.5t2.5 -99.5t4.5 -76.5t9 -53.5t13 -38.5t19 -23.5t25 -17.5t33.5 -12.5v-27h-502zM211 1837q50 0 123.5 -5t101.5 -5q71 0 127 86l25 -8q-21 -109 -66 -174.5t-108 -65.5q-42 0 -114.5 5t-111.5 5q-65 0 -112 -82l-25 9
q55 235 160 235z" />
    <glyph glyph-name="itilde" unicode="&#x129;" horiz-adv-x="507" 
d="M43 0v27q23 7 36.5 13.5t24.5 21.5t15.5 27.5t7.5 46.5t3.5 63t0.5 90v289v11v60.5t-1.5 45t-3.5 35t-7.5 23t-11 18t-17 10t-23.5 9t-32 5.5v30l352 183v-719v-70t1.5 -54t3.5 -43.5t7 -30.5t11 -24t16 -16t21.5 -14t29.5 -10v-27h-434zM162 1333q49 0 114 -13t101 -13
q31 0 55.5 18t54.5 66l25 -13q-28 -108 -69 -170.5t-103 -62.5q-40 0 -103 13t-108 13q-30 0 -54 -16.5t-55 -62.5l-24 12q40 120 76 174.5t90 54.5z" />
    <glyph glyph-name="Imacron" unicode="&#x12a;" horiz-adv-x="604" 
d="M51 0v27q21 7 33.5 12.5t25 17.5t19 23.5t13 38.5t9 53.5t4.5 76.5t2.5 99.5t0.5 130.5v578q0 82 -0.5 132t-2.5 100t-4.5 76.5t-8.5 53.5t-13 38.5t-19.5 23.5t-25 17t-33.5 11v27h502v-27q-21 -6 -33.5 -11t-25 -17t-19.5 -23.5t-13 -38.5t-8.5 -53.5t-4.5 -76.5
t-2.5 -100t-0.5 -132v-578q0 -81 0.5 -130.5t2.5 -99.5t4.5 -76.5t9 -53.5t13 -38.5t19 -23.5t25 -17.5t33.5 -12.5v-27h-502zM549 1780v-111h-494v111h494z" />
    <glyph glyph-name="imacron" unicode="&#x12b;" horiz-adv-x="507" 
d="M43 0v27q23 7 36.5 13.5t24.5 21.5t15.5 27.5t7.5 46.5t3.5 63t0.5 90v289v11v60.5t-1.5 45t-3.5 35t-7.5 23t-11 18t-17 10t-23.5 9t-32 5.5v30l352 183v-719v-70t1.5 -54t3.5 -43.5t7 -30.5t11 -24t16 -16t21.5 -14t29.5 -10v-27h-434zM23 1268h466v-107h-466v107z" />
    <glyph glyph-name="Ibreve" unicode="&#x12c;" horiz-adv-x="604" 
d="M51 0v27q21 7 33.5 12.5t25 17.5t19 23.5t13 38.5t9 53.5t4.5 76.5t2.5 99.5t0.5 130.5v578q0 82 -0.5 132t-2.5 100t-4.5 76.5t-8.5 53.5t-13 38.5t-19.5 23.5t-25 17t-33.5 11v27h502v-27q-21 -6 -33.5 -11t-25 -17t-19.5 -23.5t-13 -38.5t-8.5 -53.5t-4.5 -76.5
t-2.5 -100t-0.5 -132v-578q0 -81 0.5 -130.5t2.5 -99.5t4.5 -76.5t9 -53.5t13 -38.5t19 -23.5t25 -17.5t33.5 -12.5v-27h-502zM303 1812q85 0 127.5 23.5t69.5 79.5h32q-2 -115 -62 -189.5t-167 -74.5q-108 0 -168.5 73t-62.5 193h32q24 -56 68.5 -80.5t130.5 -24.5z" />
    <glyph glyph-name="ibreve" unicode="&#x12d;" horiz-adv-x="507" 
d="M43 0v27q23 7 36.5 13.5t24.5 21.5t15.5 27.5t7.5 46.5t3.5 63t0.5 90v289v11v60.5t-1.5 45t-3.5 35t-7.5 23t-11 18t-17 10t-23.5 9t-32 5.5v30l352 183v-719v-70t1.5 -54t3.5 -43.5t7 -30.5t11 -24t16 -16t21.5 -14t29.5 -10v-27h-434zM258 1249q130 0 180 119h33
q5 -104 -54 -188t-159 -84q-69 0 -120.5 40.5t-74.5 102t-20 131.5h33q14 -49 59 -85t123 -36z" />
    <glyph glyph-name="Iogonek" unicode="&#x12e;" horiz-adv-x="604" 
d="M51 0v27q21 7 33.5 12.5t25 17.5t19 23.5t13 38.5t9 53.5t4.5 76.5t2.5 99.5t0.5 130.5v578q0 82 -0.5 132t-2.5 100t-4.5 76.5t-8.5 53.5t-13 38.5t-19.5 23.5t-25 17t-33.5 11v27h502v-27q-21 -6 -33.5 -11t-25 -17t-19.5 -23.5t-13 -38.5t-8.5 -53.5t-4.5 -76.5
t-2.5 -100t-0.5 -132v-578q0 -81 0.5 -130.5t2.5 -99.5t4.5 -76.5t9 -53.5t13 -38.5t19 -23.5t25 -17.5t33.5 -12.5v-27h-502zM311 -344q-85 0 -147 38.5t-62 98.5q0 43 29.5 80.5t77 62t91 40t85.5 24.5h45q-21 -18 -30.5 -28t-27.5 -33t-26 -51t-8 -62q0 -49 24 -75.5
t62 -26.5q5 0 10 0.5t10.5 2t8.5 2t8.5 3.5t8 4t8.5 5t7 4.5t7.5 5.5t7.5 5l16 -22l-18 -18t-25.5 -19t-39 -21t-51.5 -13.5t-71 -6.5z" />
    <glyph glyph-name="iogonek" unicode="&#x12f;" horiz-adv-x="516" 
d="M258 1118q-60 0 -101.5 43t-41.5 103t41.5 100.5t101.5 40.5t101.5 -39.5t41.5 -99.5t-41.5 -104t-101.5 -44zM43 0v27q23 7 36.5 13.5t24.5 21.5t15.5 27.5t7.5 46.5t3.5 63t0.5 90v289v11v60.5t-1.5 45t-3.5 35t-7.5 23t-11 18t-17 10t-23.5 9t-32 5.5v30l352 183v-719
v-70t1.5 -54t3.5 -43.5t7 -30.5t11 -24t16 -16t21.5 -14t29.5 -10v-27h-434zM268 -344q-85 0 -147 38.5t-62 98.5q0 43 29.5 80.5t77 62t91 40t85.5 24.5h45q-21 -18 -30.5 -28t-27.5 -33t-26 -51t-8 -62q0 -49 24 -75.5t62 -26.5q5 0 10 0.5t10.5 2t8.5 2t8.5 3.5t8 4
t8.5 5t7 4.5t7.5 5.5t7.5 5l16 -22l-18 -18t-25.5 -19t-39 -21t-51.5 -13.5t-71 -6.5z" />
    <glyph glyph-name="Idotaccent" unicode="&#x130;" horiz-adv-x="604" 
d="M51 0v27q21 7 33.5 12.5t25 17.5t19 23.5t13 38.5t9 53.5t4.5 76.5t2.5 99.5t0.5 130.5v578q0 82 -0.5 132t-2.5 100t-4.5 76.5t-8.5 53.5t-13 38.5t-19.5 23.5t-25 17t-33.5 11v27h502v-27q-21 -6 -33.5 -11t-25 -17t-19.5 -23.5t-13 -38.5t-8.5 -53.5t-4.5 -76.5
t-2.5 -100t-0.5 -132v-578q0 -81 0.5 -130.5t2.5 -99.5t4.5 -76.5t9 -53.5t13 -38.5t19 -23.5t25 -17.5t33.5 -12.5v-27h-502zM301 1616q-60 0 -101.5 42.5t-41.5 102.5t41.5 101t101.5 41t101.5 -40t41.5 -100t-41.5 -103.5t-101.5 -43.5z" />
    <glyph glyph-name="dotlessi" unicode="&#x131;" horiz-adv-x="516" 
d="M43 0v27q23 7 36.5 13.5t24.5 21.5t15.5 27.5t7.5 46.5t3.5 63t0.5 90v289v11v60.5t-1.5 45t-3.5 35t-7.5 23t-11 18t-17 10t-23.5 9t-32 5.5v30l352 183v-719v-70t1.5 -54t3.5 -43.5t7 -30.5t11 -24t16 -16t21.5 -14t29.5 -10v-27h-434z" />
    <glyph glyph-name="IJ" unicode="&#x132;" horiz-adv-x="1576" 
d="M51 0v27q21 7 33.5 12.5t25 17.5t19 23.5t13 38.5t9 53.5t4.5 76.5t2.5 99.5t0.5 130.5v578q0 82 -0.5 132t-2.5 100t-4.5 76.5t-8.5 53.5t-13 38.5t-19.5 23.5t-25 17t-33.5 11v27h502v-27q-21 -6 -33.5 -11t-25 -17t-19.5 -23.5t-13 -38.5t-8.5 -53.5t-4.5 -76.5
t-2.5 -100t-0.5 -132v-578q0 -81 0.5 -130.5t2.5 -99.5t4.5 -76.5t9 -53.5t13 -38.5t19 -23.5t25 -17.5t33.5 -12.5v-27h-502zM1014 -20q-164 0 -275.5 57.5t-111.5 157.5q0 53 35.5 84.5t85.5 31.5q51 0 85.5 -29.5t53.5 -103.5q12 -52 19.5 -76t23 -48.5t38 -33t58.5 -8.5
q52 0 82.5 32.5t30.5 98.5v914q0 110 -0.5 170t-5 116t-10 79t-19.5 44t-29 28t-43 15v27h502v-27q-28 -8 -43 -15t-29 -28t-19.5 -44t-10 -79t-5 -116t-0.5 -170v-676q0 -185 -117.5 -293t-295.5 -108z" />
    <glyph glyph-name="ij" unicode="&#x133;" horiz-adv-x="1007" 
d="M258 1118q-60 0 -101.5 43t-41.5 103t41.5 100.5t101.5 40.5t101.5 -39.5t41.5 -99.5t-41.5 -104t-101.5 -44zM43 0v27q23 7 36.5 13.5t24.5 21.5t15.5 27.5t7.5 46.5t3.5 63t0.5 90v289v11v60.5t-1.5 45t-3.5 35t-7.5 23t-11 18t-17 10t-23.5 9t-32 5.5v30l352 183v-719
v-70t1.5 -54t3.5 -43.5t7 -30.5t11 -24t16 -16t21.5 -14t29.5 -10v-27h-434zM754 1118q-60 0 -102 43t-42 103t42 100.5t102 40.5t101.5 -39.5t41.5 -99.5t-41.5 -104t-101.5 -44zM446 -313q-41 0 -70.5 26.5t-29.5 71.5q0 41 23.5 62.5t58.5 21.5q31 0 62 -26.5t53.5 -52.5
t34.5 -26q9 0 20 11q17 17 23 49.5t6 99.5v647v6q0 139 -10 168q-10 31 -46 42q-14 4 -41 8v30l353 183v-822q0 -133 -47 -232.5t-156 -174.5q-76 -53 -127.5 -72.5t-106.5 -19.5z" />
    <glyph glyph-name="Jcircumflex" unicode="&#x134;" horiz-adv-x="972" 
d="M410 -20q-164 0 -275.5 57.5t-111.5 157.5q0 53 35 84.5t85 31.5q51 0 86 -29.5t54 -103.5q12 -52 19.5 -76t23 -48.5t38 -33t58.5 -8.5q52 0 82.5 32.5t30.5 98.5v914q0 110 -0.5 170t-5 116t-10 79t-19.5 44t-29 28t-43 15v27h502v-27q-28 -8 -43 -15t-29 -28
t-19.5 -44t-10 -79t-5 -116t-0.5 -170v-676q0 -185 -117.5 -293t-295.5 -108zM391 1636l289 273l289 -273l-11 -26l-278 90l-279 -90z" />
    <glyph glyph-name="jcircumflex" unicode="&#x135;" horiz-adv-x="512" 
d="M-49 -313q-41 0 -71 26.5t-30 71.5q0 41 23.5 62.5t58.5 21.5q31 0 62 -26.5t53.5 -52.5t34.5 -26q9 0 20 11q17 17 23 49.5t6 99.5v647q0 142 -8 171q-10 33 -43 43q-14 5 -45 10v30l352 183v-822q0 -133 -47 -232.5t-156 -174.5q-76 -53 -127 -72.5t-106 -19.5z
M-6 1077l262 363l262 -363l-22 -18l-240 141l-240 -141z" />
    <glyph glyph-name="uni0136" unicode="&#x136;" horiz-adv-x="1380" 
d="M887 0v27q24 4 37 11t18 16.5t-1 27t-16.5 37t-31.5 51.5l-434 664l575 503q47 41 67 71.5t13.5 50t-26 31t-54.5 19.5v27h291v-27q-47 -11 -101 -50.5t-151 -127.5l-383 -334l547 -835q46 -73 73.5 -97.5t67.5 -37.5v-27h-491zM51 0v27q21 6 33.5 11t25 17t19.5 23.5
t13 38.5t8.5 53.5t4.5 76.5t2.5 100t0.5 132v578q0 82 -0.5 132t-2.5 100t-4.5 76.5t-8.5 53.5t-13 38.5t-19.5 23.5t-25 17t-33.5 11v27h502v-27q-21 -6 -33.5 -11t-25 -17t-19.5 -23.5t-13 -38.5t-8.5 -53.5t-4.5 -76.5t-2.5 -100t-0.5 -132v-578q0 -82 0.5 -132t2.5 -100
t4.5 -76.5t8.5 -53.5t13 -38.5t19.5 -23.5t25 -17t33.5 -11v-27h-502zM754 -250q-6 -16 -26 -30.5t-54 -14.5q-46 0 -77.5 29.5t-31.5 77.5q0 50 36 82t87 32q59 0 102.5 -39.5t43.5 -119.5q0 -87 -53.5 -140t-153.5 -67l-11 24q79 18 114.5 55.5t35.5 75.5q0 32 -12 35z
" />
    <glyph glyph-name="uni0137" unicode="&#x137;" horiz-adv-x="1062" 
d="M45 0v27q21 7 34 13.5t23 21.5t14.5 27.5t7 46t3 63t0.5 90.5v895v11q0 126 -9 151q-10 28 -48 35q-12 2 -39 5v31l352 185v-1313v-70t1.5 -54t3.5 -43.5t7 -30.5t11 -24t16 -16t21.5 -14t29.5 -10v-27h-428zM643 0v27q33 4 43.5 15t5 29t-27.5 52l-252 391v25l309 266
q38 32 54.5 58t12 42.5t-20.5 26.5t-42 14v27h268v-27q-42 -11 -82.5 -40t-165.5 -132l-139 -117l344 -526q39 -58 61.5 -78.5t43.5 -25.5v-27h-412zM614 -250q-6 -16 -25.5 -30.5t-53.5 -14.5q-46 0 -77.5 29.5t-31.5 77.5q0 50 36 82t87 32q59 0 102 -39.5t43 -119.5
q0 -87 -53.5 -140t-153.5 -67l-10 24q79 18 114.5 55.5t35.5 75.5q0 32 -13 35z" />
    <glyph glyph-name="Lacute" unicode="&#x139;" horiz-adv-x="1200" 
d="M51 0v27q21 6 33.5 11t25 17t19.5 23.5t13 38.5t8.5 53.5t4.5 76.5t2.5 100t0.5 132v578q0 82 -0.5 132t-2.5 100t-4.5 76.5t-8.5 53.5t-13 38.5t-19.5 23.5t-25 17t-33.5 11v27h520v-27q-19 -4 -31 -8t-24.5 -12t-20 -14.5t-15 -23.5t-11 -30.5t-7.5 -43t-5 -54.5
t-2.5 -71t-1.5 -87v-108v-1024h215q122 0 196 12.5t127.5 49.5t83.5 92t60 153h36l-53 -277q-10 -46 -19 -54.5t-42 -8.5h-1006zM102 1616l-10 26l254 197q59 47 121 47q42 0 70 -29.5t28 -68.5q0 -113 -143 -131z" />
    <glyph glyph-name="lacute" unicode="&#x13a;" horiz-adv-x="526" 
d="M45 0v27q20 6 32.5 13t23 14.5t16 23t10 30.5t6 45t2 58t0.5 78v895v62.5t-2 45.5t-3.5 35.5t-8 23t-12 17t-19 8.5t-25 7l-34.5 3v31l360 185v-1313q0 -60 0.5 -90t4 -63t9 -46t18 -28t28 -21.5t41.5 -13.5v-27h-447zM51 1616l-10 26l254 197q59 47 121 47
q42 0 70 -29.5t28 -68.5q0 -113 -143 -131z" />
    <glyph glyph-name="uni013B" unicode="&#x13b;" horiz-adv-x="1200" 
d="M51 0v27q21 6 33.5 11t25 17t19.5 23.5t13 38.5t8.5 53.5t4.5 76.5t2.5 100t0.5 132v578q0 82 -0.5 132t-2.5 100t-4.5 76.5t-8.5 53.5t-13 38.5t-19.5 23.5t-25 17t-33.5 11v27h520v-27q-19 -4 -31 -8t-24.5 -12t-20 -14.5t-15 -23.5t-11 -30.5t-7.5 -43t-5 -54.5
t-2.5 -71t-1.5 -87v-108v-1024h215q122 0 196 12.5t127.5 49.5t83.5 92t60 153h36l-53 -277q-10 -46 -19 -54.5t-42 -8.5h-1006zM684 -250q-6 -16 -26 -30.5t-54 -14.5q-46 0 -77 29.5t-31 77.5q0 50 35.5 82t86.5 32q59 0 102.5 -39.5t43.5 -119.5q0 -87 -53.5 -140
t-153.5 -67l-10 24q79 18 114 55.5t35 75.5q0 32 -12 35z" />
    <glyph glyph-name="uni013C" unicode="&#x13c;" horiz-adv-x="526" 
d="M45 0v27q20 6 32.5 13t23 14.5t16 23t10 30.5t6 45t2 58t0.5 78v895v62.5t-2 45.5t-3.5 35.5t-8 23t-12 17t-19 8.5t-25 7l-34.5 3v31l360 185v-1313q0 -60 0.5 -90t4 -63t9 -46t18 -28t28 -21.5t41.5 -13.5v-27h-447zM328 -250q-6 -16 -26 -30.5t-54 -14.5
q-46 0 -77.5 29.5t-31.5 77.5q0 50 36 82t87 32q59 0 102.5 -39.5t43.5 -119.5q0 -87 -53.5 -140t-153.5 -67l-11 24q79 18 114.5 55.5t35.5 75.5q0 32 -12 35z" />
    <glyph glyph-name="Lcaron" unicode="&#x13d;" horiz-adv-x="1200" 
d="M51 0v27q21 6 33.5 11t25 17t19.5 23.5t13 38.5t8.5 53.5t4.5 76.5t2.5 100t0.5 132v578q0 82 -0.5 132t-2.5 100t-4.5 76.5t-8.5 53.5t-13 38.5t-19.5 23.5t-25 17t-33.5 11v27h520v-27q-19 -4 -31 -8t-24.5 -12t-20 -14.5t-15 -23.5t-11 -30.5t-7.5 -43t-5 -54.5
t-2.5 -71t-1.5 -87v-108v-1024h215q122 0 196 12.5t127.5 49.5t83.5 92t60 153h36l-53 -277q-10 -46 -19 -54.5t-42 -8.5h-1006zM672 1110l-25 6l8 283q4 89 28.5 125.5t74.5 36.5q41 0 64.5 -26t23.5 -71t-35 -104z" />
    <glyph glyph-name="lcaron" unicode="&#x13e;" horiz-adv-x="526" 
d="M45 0v27q20 6 32.5 13t23 14.5t16 23t10 30.5t6 45t2 58t0.5 78v895v62.5t-2 45.5t-3.5 35.5t-8 23t-12 17t-19 8.5t-25 7l-34.5 3v31l360 185v-1313q0 -60 0.5 -90t4 -63t9 -46t18 -28t28 -21.5t41.5 -13.5v-27h-447zM512 1130l-25 7l9 282q4 89 28 125.5t74 36.5
q41 0 64.5 -26t23.5 -70q0 -46 -35 -105z" />
    <glyph glyph-name="Ldot" unicode="&#x13f;" horiz-adv-x="1200" 
d="M907 637q-67 0 -111 43t-44 111q0 67 44.5 111t110.5 44q67 0 110.5 -43.5t43.5 -111.5q0 -69 -43 -111.5t-111 -42.5zM51 0v27q21 6 33.5 11t25 17t19.5 23.5t13 38.5t8.5 53.5t4.5 76.5t2.5 100t0.5 132v578q0 82 -0.5 132t-2.5 100t-4.5 76.5t-8.5 53.5t-13 38.5
t-19.5 23.5t-25 17t-33.5 11v27h520v-27q-19 -4 -31 -8t-24.5 -12t-20 -14.5t-15 -23.5t-11 -30.5t-7.5 -43t-5 -54.5t-2.5 -71t-1.5 -87v-108v-1024h215q122 0 196 12.5t127.5 49.5t83.5 92t60 153h36l-53 -277q-10 -46 -19 -54.5t-42 -8.5h-1006z" />
    <glyph glyph-name="ldot" unicode="&#x140;" horiz-adv-x="698" 
d="M608 598q-67 0 -111 43t-44 111q0 67 44.5 111t110.5 44q67 0 110.5 -43.5t43.5 -111.5q0 -69 -43 -111.5t-111 -42.5zM45 0v27q20 6 32.5 13t23 14.5t16 23t10 30.5t6 45t2 58t0.5 78v895v62.5t-2 45.5t-3.5 35.5t-8 23t-12 17t-19 8.5t-25 7l-34.5 3v31l360 185v-1313
q0 -60 0.5 -90t4 -63t9 -46t18 -28t28 -21.5t41.5 -13.5v-27h-447z" />
    <glyph glyph-name="Lslash" unicode="&#x141;" horiz-adv-x="1105" 
d="M819 963l-833 -459l-17 28l834 459zM51 0v27q21 6 33.5 11t25 17t19.5 23.5t13 38.5t8.5 53.5t4.5 76.5t2.5 100t0.5 132v578q0 82 -0.5 132t-2.5 100t-4.5 76.5t-8.5 53.5t-13 38.5t-19.5 23.5t-25 17t-33.5 11v27h520v-27q-19 -4 -31 -8t-24.5 -12t-20 -14.5t-15 -23.5
t-11 -30.5t-7.5 -43t-5 -54.5t-2.5 -71t-1.5 -87v-108v-1024h215q122 0 196 12.5t127.5 49.5t83.5 92t60 153h36l-53 -277q-10 -46 -19 -54.5t-42 -8.5h-1006z" />
    <glyph glyph-name="lslash" unicode="&#x142;" horiz-adv-x="526" 
d="M569 991l-592 -362l-16 28l592 363zM45 0v27q20 6 32.5 13t23 14.5t16 23t10 30.5t6 45t2 58t0.5 78v895v62.5t-2 45.5t-3.5 35.5t-8 23t-12 17t-19 8.5t-25 7l-34.5 3v31l360 185v-1313q0 -60 0.5 -90t4 -63t9 -46t18 -28t28 -21.5t41.5 -13.5v-27h-447z" />
    <glyph glyph-name="Nacute" unicode="&#x143;" horiz-adv-x="1394" 
d="M51 0v27q28 14 43 24.5t29 34.5t19.5 49t10 82t5 116.5t0.5 168.5v555q0 81 -0.5 130.5t-2.5 99.5t-4.5 76.5t-9 53.5t-13 38.5t-19 23.5t-25 17.5t-33.5 12.5v27h395q38 0 53 -11t48 -61l661 -1007v579q0 84 -0.5 131.5t-3 100t-5.5 78t-11 54.5t-17 41.5t-25.5 27.5
t-33.5 22.5t-45 17.5v27h287v-27q-21 -10 -33.5 -18t-25 -22.5t-19.5 -27.5t-13 -41t-8.5 -55t-4.5 -77.5t-2.5 -100.5t-0.5 -131v-1042h-80l-970 1489v-981q0 -86 0.5 -131.5t2.5 -100t5 -78.5t11 -54.5t17 -42.5t25.5 -27.5t34 -23t45.5 -17.5v-27h-287zM571 1616l-10 26
l254 197q59 47 121 47q42 0 70 -29.5t28 -68.5q0 -113 -143 -131z" />
    <glyph glyph-name="nacute" unicode="&#x144;" horiz-adv-x="1122" 
d="M45 0v27q21 7 34 13.5t23 21.5t14.5 27.5t7 46t3 63t0.5 90.5v289v11v60.5t-1.5 45t-3.5 35t-7.5 23t-11 18t-17 10t-23.5 9t-32 5.5v30l352 183v-256l78 73q90 85 160.5 125.5t156.5 40.5q228 0 228 -268v-434q0 -163 11 -203t70 -59v-27h-428v27q42 14 60 36t24.5 69.5
t6.5 156.5v502q0 108 -86 108q-47 0 -91.5 -27.5t-111.5 -89.5l-78 -73v-420v-70t1.5 -54t3.5 -43.5t7 -30.5t11 -24t16 -16t21.5 -14t29.5 -10v-27h-428zM459 1059l-21 20l168 248q38 58 66.5 81.5t70.5 23.5q46 0 71.5 -26.5t25.5 -70.5t-26 -74t-73 -57z" />
    <glyph glyph-name="uni0145" unicode="&#x145;" horiz-adv-x="1394" 
d="M51 0v27q28 14 43 24.5t29 34.5t19.5 49t10 82t5 116.5t0.5 168.5v555q0 81 -0.5 130.5t-2.5 99.5t-4.5 76.5t-9 53.5t-13 38.5t-19 23.5t-25 17.5t-33.5 12.5v27h395q38 0 53 -11t48 -61l661 -1007v579q0 84 -0.5 131.5t-3 100t-5.5 78t-11 54.5t-17 41.5t-25.5 27.5
t-33.5 22.5t-45 17.5v27h287v-27q-21 -10 -33.5 -18t-25 -22.5t-19.5 -27.5t-13 -41t-8.5 -55t-4.5 -77.5t-2.5 -100.5t-0.5 -131v-1042h-80l-970 1489v-981q0 -86 0.5 -131.5t2.5 -100t5 -78.5t11 -54.5t17 -42.5t25.5 -27.5t34 -23t45.5 -17.5v-27h-287zM766 -250
q-6 -16 -26 -30.5t-54 -14.5q-46 0 -77 29.5t-31 77.5q0 50 35.5 82t86.5 32q59 0 102.5 -39.5t43.5 -119.5q0 -87 -53.5 -140t-153.5 -67l-10 24q79 18 114 55.5t35 75.5q0 32 -12 35z" />
    <glyph glyph-name="uni0146" unicode="&#x146;" horiz-adv-x="1122" 
d="M45 0v27q21 7 34 13.5t23 21.5t14.5 27.5t7 46t3 63t0.5 90.5v289v11v60.5t-1.5 45t-3.5 35t-7.5 23t-11 18t-17 10t-23.5 9t-32 5.5v30l352 183v-256l78 73q90 85 160.5 125.5t156.5 40.5q228 0 228 -268v-434q0 -163 11 -203t70 -59v-27h-428v27q42 14 60 36t24.5 69.5
t6.5 156.5v502q0 108 -86 108q-47 0 -91.5 -27.5t-111.5 -89.5l-78 -73v-420v-70t1.5 -54t3.5 -43.5t7 -30.5t11 -24t16 -16t21.5 -14t29.5 -10v-27h-428zM623 -250q-6 -16 -26 -30.5t-54 -14.5q-46 0 -77.5 29.5t-31.5 77.5q0 50 36 82t87 32q59 0 102 -39.5t43 -119.5
q0 -87 -53 -140t-153 -67l-11 24q79 18 114.5 55.5t35.5 75.5q0 32 -12 35z" />
    <glyph glyph-name="Ncaron" unicode="&#x147;" horiz-adv-x="1394" 
d="M51 0v27q28 14 43 24.5t29 34.5t19.5 49t10 82t5 116.5t0.5 168.5v555q0 81 -0.5 130.5t-2.5 99.5t-4.5 76.5t-9 53.5t-13 38.5t-19 23.5t-25 17.5t-33.5 12.5v27h395q38 0 53 -11t48 -61l661 -1007v579q0 84 -0.5 131.5t-3 100t-5.5 78t-11 54.5t-17 41.5t-25.5 27.5
t-33.5 22.5t-45 17.5v27h287v-27q-21 -10 -33.5 -18t-25 -22.5t-19.5 -27.5t-13 -41t-8.5 -55t-4.5 -77.5t-2.5 -100.5t-0.5 -131v-1042h-80l-970 1489v-981q0 -86 0.5 -131.5t2.5 -100t5 -78.5t11 -54.5t17 -42.5t25.5 -27.5t34 -23t45.5 -17.5v-27h-287zM492 1898l10 27
l278 -90l279 90l10 -27l-289 -272z" />
    <glyph glyph-name="ncaron" unicode="&#x148;" horiz-adv-x="1122" 
d="M45 0v27q21 7 34 13.5t23 21.5t14.5 27.5t7 46t3 63t0.5 90.5v289v11v60.5t-1.5 45t-3.5 35t-7.5 23t-11 18t-17 10t-23.5 9t-32 5.5v30l352 183v-256l78 73q90 85 160.5 125.5t156.5 40.5q228 0 228 -268v-434q0 -163 11 -203t70 -59v-27h-428v27q42 14 60 36t24.5 69.5
t6.5 156.5v502q0 108 -86 108q-47 0 -91.5 -27.5t-111.5 -89.5l-78 -73v-420v-70t1.5 -54t3.5 -43.5t7 -30.5t11 -24t16 -16t21.5 -14t29.5 -10v-27h-428zM330 1442l22 18l240 -141l239 141l23 -18l-262 -363z" />
    <glyph glyph-name="napostrophe" unicode="&#x149;" horiz-adv-x="1122" 
d="M45 0v27q21 7 34 13.5t23 21.5t14.5 27.5t7 46t3 63t0.5 90.5v289v11v60.5t-1.5 45t-3.5 35t-7.5 23t-11 18t-17 10t-23.5 9t-32 5.5v30l352 183v-256l78 73q90 85 160.5 125.5t156.5 40.5q228 0 228 -268v-434q0 -163 11 -203t70 -59v-27h-428v27q42 14 60 36t24.5 69.5
t6.5 156.5v502q0 108 -86 108q-47 0 -91.5 -27.5t-111.5 -89.5l-78 -73v-420v-70t1.5 -54t3.5 -43.5t7 -30.5t11 -24t16 -16t21.5 -14t29.5 -10v-27h-428zM61 1362q-29 -45 -88 -45q-51 0 -85.5 35.5t-34.5 89.5q0 64 41.5 101.5t103.5 37.5q64 0 112 -49t48 -141
q0 -114 -64.5 -194.5t-179.5 -139.5l-12 22q95 56 139.5 109t44.5 117q0 41 -25 57z" />
    <glyph glyph-name="Eng" unicode="&#x14a;" horiz-adv-x="1394" 
d="M51 0v27q28 14 43 24.5t29 34.5t19.5 49t10 82t5 116.5t0.5 168.5v555q0 81 -0.5 130.5t-2.5 99.5t-4.5 76.5t-9 53.5t-13 38.5t-19 23.5t-25 17.5t-33.5 12.5v27h395q38 0 49.5 -9t51.5 -63l661 -950v522q0 100 -0.5 148t-2.5 106.5t-8 82t-13 51.5t-22.5 39.5
t-32.5 22.5t-46 23v27h271v-27q-21 -10 -33.5 -18t-25 -22.5t-19.5 -27.5t-13 -41t-8.5 -55t-4.5 -77.5t-2.5 -100.5t-0.5 -131v-1067q0 -113 -69.5 -186.5t-190.5 -73.5q-84 0 -161.5 22t-131 69.5t-53.5 109.5q0 53 31.5 80.5t81.5 27.5q53 0 81 -31t52 -110
q29 -87 42 -105q22 -30 62 -30q102 0 159.5 64t57.5 169v17l-1011 1493v-983q0 -86 0.5 -131.5t2.5 -100t5 -78.5t11 -54.5t17 -42.5t25.5 -27.5t34 -23t45.5 -17.5v-27h-287z" />
    <glyph glyph-name="eng" unicode="&#x14b;" horiz-adv-x="1122" 
d="M45 0v27q21 7 34 13.5t23 21.5t14.5 27.5t7 46t3 63t0.5 90.5v289v11v60.5t-1.5 45t-3.5 35t-7.5 23t-11 18t-17 10t-23.5 9t-32 5.5v30l352 183v-256l78 73q90 85 160.5 125.5t156.5 40.5q228 0 228 -268v-537q0 -133 -47 -232.5t-156 -174.5q-76 -53 -127.5 -72.5
t-106.5 -19.5q-41 0 -70.5 26.5t-29.5 71.5q0 41 23.5 62.5t58.5 21.5q24 0 49 -16.5t41 -36t32.5 -36t26.5 -16.5t21 11q17 17 23 49.5t6 99.5v867q0 108 -86 108q-47 0 -91.5 -27.5t-111.5 -89.5l-78 -73v-420v-70t1.5 -54t3.5 -43.5t7 -30.5t11 -24t16 -16t21.5 -14
t29.5 -10v-27h-428z" />
    <glyph glyph-name="Omacron" unicode="&#x14c;" horiz-adv-x="1593" 
d="M797 -35q-137 0 -266.5 60.5t-228.5 165t-159.5 256.5t-60.5 323q0 137 39 262t107.5 221t158 167t195.5 108t215 37q136 0 265.5 -59t228.5 -161.5t159.5 -253t60.5 -321.5t-60.5 -323t-159.5 -256.5t-228.5 -165t-265.5 -60.5zM797 -2q185 0 289 191.5t104 580.5
q0 156 -20.5 284t-56.5 216t-86 147.5t-107.5 87t-122.5 27.5q-82 0 -152 -45t-125 -134.5t-86 -239t-31 -343.5q0 -389 104.5 -580.5t289.5 -191.5zM1044 1780v-111h-493v111h493z" />
    <glyph glyph-name="omacron" unicode="&#x14d;" horiz-adv-x="1083" 
d="M543 -14q-57 0 -120.5 17t-129 56.5t-118 95.5t-85.5 142.5t-33 189.5t33 189.5t85.5 143.5t118 97.5t129 58t120.5 17.5t119.5 -17.5t128 -58t117.5 -97.5t85 -143.5t33 -189.5t-33 -189.5t-85 -142.5t-117.5 -95.5t-128 -56.5t-119.5 -17zM543 18q217 0 217 469
q0 474 -217 474q-221 0 -221 -474q0 -469 221 -469zM307 1268h467v-107h-467v107z" />
    <glyph glyph-name="Obreve" unicode="&#x14e;" horiz-adv-x="1593" 
d="M797 -35q-137 0 -266.5 60.5t-228.5 165t-159.5 256.5t-60.5 323q0 137 39 262t107.5 221t158 167t195.5 108t215 37q136 0 265.5 -59t228.5 -161.5t159.5 -253t60.5 -321.5t-60.5 -323t-159.5 -256.5t-228.5 -165t-265.5 -60.5zM797 -2q185 0 289 191.5t104 580.5
q0 156 -20.5 284t-56.5 216t-86 147.5t-107.5 87t-122.5 27.5q-82 0 -152 -45t-125 -134.5t-86 -239t-31 -343.5q0 -389 104.5 -580.5t289.5 -191.5zM799 1812q85 0 127 23.5t69 79.5h33q-2 -115 -62 -189.5t-167 -74.5q-108 0 -169 73t-63 193h33q24 -56 68.5 -80.5
t130.5 -24.5z" />
    <glyph glyph-name="obreve" unicode="&#x14f;" horiz-adv-x="1083" 
d="M543 -14q-57 0 -120.5 17t-129 56.5t-118 95.5t-85.5 142.5t-33 189.5t33 189.5t85.5 143.5t118 97.5t129 58t120.5 17.5t119.5 -17.5t128 -58t117.5 -97.5t85 -143.5t33 -189.5t-33 -189.5t-85 -142.5t-117.5 -95.5t-128 -56.5t-119.5 -17zM543 18q217 0 217 469
q0 474 -217 474q-221 0 -221 -474q0 -469 221 -469zM543 1249q130 0 180 119h33q5 -104 -54 -188t-159 -84q-103 0 -161.5 82t-53.5 192h32q14 -49 59 -85t124 -36z" />
    <glyph glyph-name="Ohungarumlaut" unicode="&#x150;" horiz-adv-x="1593" 
d="M797 -35q-137 0 -266.5 60.5t-228.5 165t-159.5 256.5t-60.5 323q0 137 39 262t107.5 221t158 167t195.5 108t215 37q136 0 265.5 -59t228.5 -161.5t159.5 -253t60.5 -321.5t-60.5 -323t-159.5 -256.5t-228.5 -165t-265.5 -60.5zM797 -2q185 0 289 191.5t104 580.5
q0 156 -20.5 284t-56.5 216t-86 147.5t-107.5 87t-122.5 27.5q-82 0 -152 -45t-125 -134.5t-86 -239t-31 -343.5q0 -389 104.5 -580.5t289.5 -191.5zM903 1655l-16 22l114 166q25 37 39 54.5t38 34t50 16.5q40 0 62 -28t22 -58q0 -34 -26 -59.5t-78 -51.5zM604 1655l-16 22
l114 166q25 37 39 54.5t38 34t50 16.5q40 0 62 -28t22 -58q0 -34 -26 -59.5t-78 -51.5z" />
    <glyph glyph-name="ohungarumlaut" unicode="&#x151;" horiz-adv-x="1083" 
d="M543 -14q-57 0 -120.5 17t-129 56.5t-118 95.5t-85.5 142.5t-33 189.5t33 189.5t85.5 143.5t118 97.5t129 58t120.5 17.5t119.5 -17.5t128 -58t117.5 -97.5t85 -143.5t33 -189.5t-33 -189.5t-85 -142.5t-117.5 -95.5t-128 -56.5t-119.5 -17zM543 18q217 0 217 469
q0 474 -217 474q-221 0 -221 -474q0 -469 221 -469zM657 1092l-20 10l68 268q15 60 37.5 88.5t66.5 28.5q43 0 65.5 -25t22.5 -65q0 -51 -49 -103zM379 1092l-21 10l68 268q15 60 37.5 88.5t66.5 28.5q43 0 65.5 -25t22.5 -65q0 -51 -49 -103z" />
    <glyph glyph-name="OE" unicode="&#x152;" horiz-adv-x="2095" 
d="M854 1536h1049q25 0 34.5 -10t16.5 -51l39 -222h-37q-34 102 -78 153.5t-119 74t-209 22.5h-219v-626h47q45 0 79.5 4t58.5 8.5t42.5 17.5t28 20.5t19 29.5t12.5 31.5t10 38.5q3 10 4 15h31v-368h-31q-21 76 -31 94q-30 55 -120 69q-43 7 -103 7h-47v-811h230
q155 0 240 25.5t129 82.5t69 170h37l-27 -248q-2 -24 -5.5 -36.5t-12 -18.5t-16 -7t-27.5 -1h-1092q-134 0 -252 32.5t-213.5 97t-164.5 156.5t-106.5 215.5t-37.5 268.5q0 225 98.5 400t274 270.5t399.5 95.5zM856 1503q-238 0 -347.5 -175.5t-109.5 -557.5
q0 -193 33.5 -336.5t95 -230t143.5 -128.5t185 -42q130 0 155 71.5t25 395.5v518q0 92 -0.5 147t-4 112t-7.5 86.5t-14 59.5t-22 42t-32.5 23t-43 13t-56.5 2z" />
    <glyph glyph-name="oe" unicode="&#x153;" horiz-adv-x="1671" 
d="M539 -14q-57 0 -119.5 17t-128 56.5t-117 95.5t-84.5 142.5t-33 189.5t33 189.5t85 143.5t117 97.5t127.5 58t119.5 17.5q86 0 179 -42.5t161 -125.5q66 82 156 125t177 43q169 0 283.5 -93.5t126.5 -260.5h-606q-4 -78 -4 -121q0 -475 313 -475q79 0 135 20t115 62
l18 -27q-69 -55 -144 -86.5t-189 -31.5q-117 0 -216.5 41.5t-166.5 125.5q-68 -80 -160 -120.5t-178 -40.5zM1212 961q-162 0 -192 -287h360q-17 156 -56 221.5t-112 65.5zM539 18q213 0 213 469q0 474 -213 474q-217 0 -217 -474q0 -469 217 -469z" />
    <glyph glyph-name="Racute" unicode="&#x154;" horiz-adv-x="1376" 
d="M51 0v27q21 6 33.5 11t25 17t19.5 23.5t13 38.5t8.5 53.5t4.5 76.5t2.5 100t0.5 132v578q0 82 -0.5 132t-2.5 100t-4.5 76.5t-8.5 53.5t-13 38.5t-19.5 23.5t-25 17t-33.5 11v27h574q321 0 483 -93t162 -269q0 -103 -45.5 -182.5t-127.5 -129t-190.5 -75t-238.5 -25.5
h-13q165 -21 257.5 -99.5t140.5 -256.5q57 -206 98.5 -280.5t112.5 -74.5q32 0 50 8.5t38 28.5l18 -18q-73 -84 -227 -84q-165 0 -255 91t-126 314q-24 161 -53.5 241t-67 105t-104.5 25h-84v-283q0 -83 0.5 -132t2.5 -100t4 -77t8.5 -53t13 -38.5t19 -23.5t25 -17t33.5 -11
v-27h-508zM616 1503h-163v-708h188q189 0 263.5 77.5t74.5 264.5q0 189 -80 277.5t-283 88.5zM473 1616l-10 26l254 197q59 47 121 47q42 0 70 -29.5t28 -68.5q0 -113 -143 -131z" />
    <glyph glyph-name="racute" unicode="&#x155;" horiz-adv-x="829" 
d="M45 0v27q21 7 34 13.5t23 21.5t14.5 27.5t7 46t3 63t0.5 90.5v289v11v60.5t-1.5 45t-3.5 35t-7.5 23t-11 18t-17 10t-23.5 9t-32 5.5v30l352 183v-236l37 39q104 109 157 147.5t117 38.5q52 0 82.5 -25.5t30.5 -74.5q0 -59 -33 -91t-80 -32q-31 0 -55.5 11t-37.5 25
t-29 25t-33 11q-27 0 -50 -14.5t-69 -63.5l-37 -39v-440v-70t1.5 -54t3.5 -43.5t7 -30.5t11 -24t16 -16t21.5 -14t29.5 -10v-27h-428zM328 1059l-21 20l168 248q38 58 66.5 81.5t70.5 23.5q46 0 71.5 -26.5t25.5 -70.5t-26 -74t-73 -57z" />
    <glyph glyph-name="uni0156" unicode="&#x156;" horiz-adv-x="1376" 
d="M51 0v27q21 6 33.5 11t25 17t19.5 23.5t13 38.5t8.5 53.5t4.5 76.5t2.5 100t0.5 132v578q0 82 -0.5 132t-2.5 100t-4.5 76.5t-8.5 53.5t-13 38.5t-19.5 23.5t-25 17t-33.5 11v27h574q321 0 483 -93t162 -269q0 -103 -45.5 -182.5t-127.5 -129t-190.5 -75t-238.5 -25.5
h-13q165 -21 257.5 -99.5t140.5 -256.5q57 -206 98.5 -280.5t112.5 -74.5q32 0 50 8.5t38 28.5l18 -18q-73 -84 -227 -84q-165 0 -255 91t-126 314q-24 161 -53.5 241t-67 105t-104.5 25h-84v-283q0 -83 0.5 -132t2.5 -100t4 -77t8.5 -53t13 -38.5t19 -23.5t25 -17t33.5 -11
v-27h-508zM616 1503h-163v-708h188q189 0 263.5 77.5t74.5 264.5q0 189 -80 277.5t-283 88.5zM756 -250q-6 -16 -26 -30.5t-54 -14.5q-46 0 -77.5 29.5t-31.5 77.5q0 50 36 82t87 32q59 0 102.5 -39.5t43.5 -119.5q0 -87 -53.5 -140t-153.5 -67l-11 24q79 18 114.5 55.5
t35.5 75.5q0 32 -12 35z" />
    <glyph glyph-name="uni0157" unicode="&#x157;" horiz-adv-x="829" 
d="M45 0v27q21 7 34 13.5t23 21.5t14.5 27.5t7 46t3 63t0.5 90.5v289v11v60.5t-1.5 45t-3.5 35t-7.5 23t-11 18t-17 10t-23.5 9t-32 5.5v30l352 183v-236l37 39q104 109 157 147.5t117 38.5q52 0 82.5 -25.5t30.5 -74.5q0 -59 -33 -91t-80 -32q-31 0 -55.5 11t-37.5 25
t-29 25t-33 11q-27 0 -50 -14.5t-69 -63.5l-37 -39v-440v-70t1.5 -54t3.5 -43.5t7 -30.5t11 -24t16 -16t21.5 -14t29.5 -10v-27h-428zM315 -250q-6 -16 -25.5 -30.5t-53.5 -14.5q-46 0 -77.5 29.5t-31.5 77.5q0 50 36 82t87 32q59 0 102 -39.5t43 -119.5q0 -87 -53.5 -140
t-153.5 -67l-10 24q79 18 114.5 55.5t35.5 75.5q0 32 -13 35z" />
    <glyph glyph-name="Rcaron" unicode="&#x158;" horiz-adv-x="1376" 
d="M51 0v27q21 6 33.5 11t25 17t19.5 23.5t13 38.5t8.5 53.5t4.5 76.5t2.5 100t0.5 132v578q0 82 -0.5 132t-2.5 100t-4.5 76.5t-8.5 53.5t-13 38.5t-19.5 23.5t-25 17t-33.5 11v27h574q321 0 483 -93t162 -269q0 -103 -45.5 -182.5t-127.5 -129t-190.5 -75t-238.5 -25.5
h-13q165 -21 257.5 -99.5t140.5 -256.5q57 -206 98.5 -280.5t112.5 -74.5q32 0 50 8.5t38 28.5l18 -18q-73 -84 -227 -84q-165 0 -255 91t-126 314q-24 161 -53.5 241t-67 105t-104.5 25h-84v-283q0 -83 0.5 -132t2.5 -100t4 -77t8.5 -53t13 -38.5t19 -23.5t25 -17t33.5 -11
v-27h-508zM616 1503h-163v-708h188q189 0 263.5 77.5t74.5 264.5q0 189 -80 277.5t-283 88.5zM393 1898l10 27l279 -90l279 90l10 -27l-289 -272z" />
    <glyph glyph-name="rcaron" unicode="&#x159;" horiz-adv-x="829" 
d="M45 0v27q21 7 34 13.5t23 21.5t14.5 27.5t7 46t3 63t0.5 90.5v289v11v60.5t-1.5 45t-3.5 35t-7.5 23t-11 18t-17 10t-23.5 9t-32 5.5v30l352 183v-236l37 39q104 109 157 147.5t117 38.5q52 0 82.5 -25.5t30.5 -74.5q0 -59 -33 -91t-80 -32q-31 0 -55.5 11t-37.5 25
t-29 25t-33 11q-27 0 -50 -14.5t-69 -63.5l-37 -39v-440v-70t1.5 -54t3.5 -43.5t7 -30.5t11 -24t16 -16t21.5 -14t29.5 -10v-27h-428zM199 1442l22 18l240 -141l239 141l23 -18l-262 -363z" />
    <glyph glyph-name="Sacute" unicode="&#x15a;" horiz-adv-x="1173" 
d="M559 -23q-78 0 -146 17t-107 37.5t-82.5 37.5t-76.5 17q-17 0 -29.5 -12t-17.5 -31h-30v424h36q30 -215 143.5 -336t309.5 -121q171 0 252.5 69t81.5 210q0 139 -89.5 221t-326.5 180q-94 39 -160 79.5t-118 94.5t-77.5 123t-25.5 156q0 188 121.5 303t331.5 115
q83 0 156 -19t124 -38t82 -19q24 0 35.5 9.5t16.5 33.5h30v-328h-37q-30 158 -137 243t-270 85q-275 0 -275 -223q0 -97 77.5 -171.5t252.5 -148.5q94 -39 163 -75.5t134 -85t106 -101.5t65 -122.5t24 -151.5q0 -95 -31.5 -174.5t-84 -133.5t-122.5 -92t-145.5 -55
t-153.5 -17zM352 1616l-10 26l254 197q59 47 121 47q42 0 70 -29.5t28 -68.5q0 -113 -143 -131z" />
    <glyph glyph-name="sacute" unicode="&#x15b;" horiz-adv-x="802" 
d="M393 18q187 0 187 164q0 70 -46.5 114t-183.5 97q-153 55 -215.5 126t-62.5 202q0 108 85 189t214 81q74 0 145 -23.5t94 -23.5q29 0 35 29h31v-252h-31q-65 237 -274 237q-164 0 -164 -131q0 -38 13.5 -66t47 -50.5t68.5 -38t98 -37.5q179 -67 245 -140t66 -208
q0 -88 -50.5 -158t-130.5 -106.5t-171 -36.5q-54 0 -101 11t-72.5 23.5t-51.5 23.5t-43 11q-29 0 -35 -35h-33v293h31q43 -148 114 -221.5t191 -73.5zM246 1059l-21 20l168 248q38 58 66.5 81.5t70.5 23.5q46 0 71.5 -26.5t25.5 -70.5t-26 -74t-73 -57z" />
    <glyph glyph-name="Scircumflex" unicode="&#x15c;" horiz-adv-x="1173" 
d="M559 -23q-78 0 -146 17t-107 37.5t-82.5 37.5t-76.5 17q-17 0 -29.5 -12t-17.5 -31h-30v424h36q30 -215 143.5 -336t309.5 -121q171 0 252.5 69t81.5 210q0 139 -89.5 221t-326.5 180q-94 39 -160 79.5t-118 94.5t-77.5 123t-25.5 156q0 188 121.5 303t331.5 115
q83 0 156 -19t124 -38t82 -19q24 0 35.5 9.5t16.5 33.5h30v-328h-37q-30 158 -137 243t-270 85q-275 0 -275 -223q0 -97 77.5 -171.5t252.5 -148.5q94 -39 163 -75.5t134 -85t106 -101.5t65 -122.5t24 -151.5q0 -95 -31.5 -174.5t-84 -133.5t-122.5 -92t-145.5 -55
t-153.5 -17zM272 1636l289 273l289 -273l-10 -26l-279 90l-278 -90z" />
    <glyph glyph-name="scircumflex" unicode="&#x15d;" horiz-adv-x="802" 
d="M393 18q187 0 187 164q0 70 -46.5 114t-183.5 97q-153 55 -215.5 126t-62.5 202q0 108 85 189t214 81q74 0 145 -23.5t94 -23.5q29 0 35 29h31v-252h-31q-65 237 -274 237q-164 0 -164 -131q0 -38 13.5 -66t47 -50.5t68.5 -38t98 -37.5q179 -67 245 -140t66 -208
q0 -88 -50.5 -158t-130.5 -106.5t-171 -36.5q-54 0 -101 11t-72.5 23.5t-51.5 23.5t-43 11q-29 0 -35 -35h-33v293h31q43 -148 114 -221.5t191 -73.5zM117 1077l262 363l262 -363l-23 -18l-239 141l-240 -141z" />
    <glyph glyph-name="uni015E" unicode="&#x15e;" horiz-adv-x="1173" 
d="M537 0h45l-56 -96q83 -13 132 -53.5t49 -92.5q0 -88 -86.5 -128t-266.5 -46l-4 31q191 29 191 84q0 62 -125 68l-8 14zM559 -23q-78 0 -146 17t-107 37.5t-82.5 37.5t-76.5 17q-17 0 -29.5 -12t-17.5 -31h-30v424h36q30 -215 143.5 -336t309.5 -121q171 0 252.5 69
t81.5 210q0 139 -89.5 221t-326.5 180q-94 39 -160 79.5t-118 94.5t-77.5 123t-25.5 156q0 188 121.5 303t331.5 115q83 0 156 -19t124 -38t82 -19q24 0 35.5 9.5t16.5 33.5h30v-328h-37q-30 158 -137 243t-270 85q-275 0 -275 -223q0 -97 77.5 -171.5t252.5 -148.5
q94 -39 163 -75.5t134 -85t106 -101.5t65 -122.5t24 -151.5q0 -95 -31.5 -174.5t-84 -133.5t-122.5 -92t-145.5 -55t-153.5 -17z" />
    <glyph glyph-name="uni015F" unicode="&#x15f;" horiz-adv-x="802" 
d="M348 0h45l-55 -96q83 -13 131.5 -53.5t48.5 -92.5q0 -88 -86 -128t-266 -46l-4 31q94 15 142 34t48 50q0 62 -125 68l-8 14zM393 18q187 0 187 164q0 70 -46.5 114t-183.5 97q-153 55 -215.5 126t-62.5 202q0 108 85 189t214 81q74 0 145 -23.5t94 -23.5q29 0 35 29h31
v-252h-31q-65 237 -274 237q-164 0 -164 -131q0 -38 13.5 -66t47 -50.5t68.5 -38t98 -37.5q179 -67 245 -140t66 -208q0 -88 -50.5 -158t-130.5 -106.5t-171 -36.5q-54 0 -101 11t-72.5 23.5t-51.5 23.5t-43 11q-29 0 -35 -35h-33v293h31q43 -148 114 -221.5t191 -73.5z" />
    <glyph glyph-name="Scaron" unicode="&#x160;" horiz-adv-x="1173" 
d="M559 -23q-78 0 -146 17t-107 37.5t-82.5 37.5t-76.5 17q-17 0 -29.5 -12t-17.5 -31h-30v424h36q30 -215 143.5 -336t309.5 -121q171 0 252.5 69t81.5 210q0 139 -89.5 221t-326.5 180q-94 39 -160 79.5t-118 94.5t-77.5 123t-25.5 156q0 188 121.5 303t331.5 115
q83 0 156 -19t124 -38t82 -19q24 0 35.5 9.5t16.5 33.5h30v-328h-37q-30 158 -137 243t-270 85q-275 0 -275 -223q0 -97 77.5 -171.5t252.5 -148.5q94 -39 163 -75.5t134 -85t106 -101.5t65 -122.5t24 -151.5q0 -95 -31.5 -174.5t-84 -133.5t-122.5 -92t-145.5 -55
t-153.5 -17zM272 1898l11 27l278 -90l279 90l10 -27l-289 -272z" />
    <glyph glyph-name="scaron" unicode="&#x161;" horiz-adv-x="802" 
d="M393 18q187 0 187 164q0 70 -46.5 114t-183.5 97q-153 55 -215.5 126t-62.5 202q0 108 85 189t214 81q74 0 145 -23.5t94 -23.5q29 0 35 29h31v-252h-31q-65 237 -274 237q-164 0 -164 -131q0 -38 13.5 -66t47 -50.5t68.5 -38t98 -37.5q179 -67 245 -140t66 -208
q0 -88 -50.5 -158t-130.5 -106.5t-171 -36.5q-54 0 -101 11t-72.5 23.5t-51.5 23.5t-43 11q-29 0 -35 -35h-33v293h31q43 -148 114 -221.5t191 -73.5zM117 1442l22 18l240 -141l239 141l23 -18l-262 -363z" />
    <glyph glyph-name="Tcommaaccent" unicode="&#x162;" horiz-adv-x="1331" 
d="M410 0v27q21 7 33.5 12.5t25 18t19 23.5t13 38.5t8.5 53t4 76t2.5 99.5t0.5 131v1024h-92q-70 0 -119 -7t-94 -26t-74 -52.5t-49.5 -87.5t-30.5 -130h-37l23 275q4 43 12.5 52t38.5 9h1139q30 0 38.5 -9t12.5 -52l27 -275h-37q-14 95 -42.5 155t-76.5 92.5t-106 44
t-146 11.5h-92v-1024q0 -81 0.5 -130.5t2.5 -99.5t4.5 -76.5t9 -53.5t13 -38.5t19 -23.5t25 -17.5t33.5 -12.5v-27h-508zM733 -250q-6 -16 -26 -30.5t-54 -14.5q-46 0 -77 29.5t-31 77.5q0 50 36 82t87 32q59 0 102 -39.5t43 -119.5q0 -87 -53.5 -140t-153.5 -67l-10 24
q79 18 114 55.5t35 75.5q0 32 -12 35z" />
    <glyph glyph-name="tcommaaccent" unicode="&#x163;" horiz-adv-x="657" 
d="M401 -16q-130 0 -195 61.5t-65 169.5v719h-84v33q99 13 188 116t117 267h31v-377h203v-39h-203v-670q0 -133 18.5 -179t82.5 -46q57 0 104 47l18 -18q-72 -84 -215 -84zM401 -250q-6 -16 -25.5 -30.5t-53.5 -14.5q-46 0 -77.5 29.5t-31.5 77.5q0 50 36 82t87 32
q59 0 102 -39.5t43 -119.5q0 -87 -53.5 -140t-153.5 -67l-10 24q79 18 114.5 55.5t35.5 75.5q0 32 -13 35z" />
    <glyph glyph-name="Tcaron" unicode="&#x164;" horiz-adv-x="1331" 
d="M410 0v27q21 7 33.5 12.5t25 18t19 23.5t13 38.5t8.5 53t4 76t2.5 99.5t0.5 131v1024h-92q-70 0 -119 -7t-94 -26t-74 -52.5t-49.5 -87.5t-30.5 -130h-37l23 275q4 43 12.5 52t38.5 9h1139q30 0 38.5 -9t12.5 -52l27 -275h-37q-14 95 -42.5 155t-76.5 92.5t-106 44
t-146 11.5h-92v-1024q0 -81 0.5 -130.5t2.5 -99.5t4.5 -76.5t9 -53.5t13 -38.5t19 -23.5t25 -17.5t33.5 -12.5v-27h-508zM377 1898l10 27l279 -90l278 90l10 -27l-288 -272z" />
    <glyph glyph-name="tcaron" unicode="&#x165;" horiz-adv-x="657" 
d="M401 -16q-130 0 -195 61.5t-65 169.5v719h-84v33q99 13 188 116t117 267h31v-377h203v-39h-203v-670q0 -133 18.5 -179t82.5 -46q57 0 104 47l18 -18q-72 -84 -215 -84zM524 1087l-24 7l8 282q4 89 28 125.5t74 36.5q41 0 64.5 -26t23.5 -70q0 -47 -34 -105z" />
    <glyph glyph-name="Tbar" unicode="&#x166;" horiz-adv-x="1331" 
d="M229 850v33h869v-33h-869zM410 0v27q21 7 33.5 12.5t25 18t19 23.5t13 38.5t8.5 53t4 76t2.5 99.5t0.5 131v1024h-92q-70 0 -119 -7t-94 -26t-74 -52.5t-49.5 -87.5t-30.5 -130h-37l23 275q4 43 12.5 52t38.5 9h1139q30 0 38.5 -9t12.5 -52l27 -275h-37q-14 95 -42.5 155
t-76.5 92.5t-106 44t-146 11.5h-92v-1024q0 -81 0.5 -130.5t2.5 -99.5t4.5 -76.5t9 -53.5t13 -38.5t19 -23.5t25 -17.5t33.5 -12.5v-27h-508z" />
    <glyph glyph-name="tbar" unicode="&#x167;" horiz-adv-x="657" 
d="M57 608v35h539v-35h-539zM401 -16q-130 0 -195 61.5t-65 169.5v719h-84v33q99 13 188 116t117 267h31v-377h203v-39h-203v-670q0 -133 18.5 -179t82.5 -46q57 0 104 47l18 -18q-72 -84 -215 -84z" />
    <glyph glyph-name="Utilde" unicode="&#x168;" horiz-adv-x="1402" 
d="M741 -31q-283 0 -440.5 138.5t-157.5 414.5v535q0 82 -0.5 131.5t-2 100.5t-4 77.5t-8 53.5t-12 38.5t-17.5 23.5t-23 16.5t-31 10.5v27h494v-27q-21 -6 -33.5 -11t-25 -17t-19.5 -23.5t-13 -38.5t-8.5 -53.5t-4.5 -76.5t-2.5 -100t-0.5 -132v-590q0 -105 7.5 -175.5
t27.5 -129.5t56 -92t92 -50.5t137 -17.5q234 0 347 115t113 379v538q0 84 -0.5 131.5t-3 100t-5.5 78.5t-11 55.5t-16.5 41.5t-25 27.5t-33.5 23t-44 17.5v27h285v-27q-28 -14 -43 -24.5t-29 -34.5t-19.5 -49t-10 -82t-5 -116.5t-0.5 -168.5v-538q0 -276 -126 -401.5
t-384 -125.5zM707 1837q50 0 123.5 -5t101.5 -5q71 0 127 86l24 -8q-21 -109 -66 -174.5t-108 -65.5q-43 0 -114 5t-111 5q-66 0 -113 -82l-24 9q55 235 160 235z" />
    <glyph glyph-name="utilde" unicode="&#x169;" horiz-adv-x="1097" 
d="M346 -18q-227 0 -227 251v345v11v60.5t-1.5 45t-3.5 35t-7.5 23t-11 18t-17 10t-23.5 9t-32 5.5v30l352 183v-826q0 -108 82 -108q44 0 91.5 32.5t119.5 100.5l47 45v326q0 137 -9 166q-10 31 -44 42q-15 4 -44 9v30l353 183v-719q0 -162 12.5 -202t79.5 -60v-27h-348
v209l-47 -45q-52 -49 -81.5 -74t-72 -54.5t-83 -41.5t-85.5 -12zM492 1333q49 0 114 -13t101 -13q31 0 55.5 18t54.5 66l25 -13q-28 -108 -69 -170.5t-103 -62.5q-40 0 -103 13t-108 13q-30 0 -54 -16.5t-55 -62.5l-24 12q40 120 76 174.5t90 54.5z" />
    <glyph glyph-name="Umacron" unicode="&#x16a;" horiz-adv-x="1402" 
d="M741 -31q-283 0 -440.5 138.5t-157.5 414.5v535q0 82 -0.5 131.5t-2 100.5t-4 77.5t-8 53.5t-12 38.5t-17.5 23.5t-23 16.5t-31 10.5v27h494v-27q-21 -6 -33.5 -11t-25 -17t-19.5 -23.5t-13 -38.5t-8.5 -53.5t-4.5 -76.5t-2.5 -100t-0.5 -132v-590q0 -105 7.5 -175.5
t27.5 -129.5t56 -92t92 -50.5t137 -17.5q234 0 347 115t113 379v538q0 84 -0.5 131.5t-3 100t-5.5 78.5t-11 55.5t-16.5 41.5t-25 27.5t-33.5 23t-44 17.5v27h285v-27q-28 -14 -43 -24.5t-29 -34.5t-19.5 -49t-10 -82t-5 -116.5t-0.5 -168.5v-538q0 -276 -126 -401.5
t-384 -125.5zM1044 1780v-111h-493v111h493z" />
    <glyph glyph-name="umacron" unicode="&#x16b;" horiz-adv-x="1097" 
d="M346 -18q-227 0 -227 251v345v11v60.5t-1.5 45t-3.5 35t-7.5 23t-11 18t-17 10t-23.5 9t-32 5.5v30l352 183v-826q0 -108 82 -108q44 0 91.5 32.5t119.5 100.5l47 45v326q0 137 -9 166q-10 31 -44 42q-15 4 -44 9v30l353 183v-719q0 -162 12.5 -202t79.5 -60v-27h-348
v209l-47 -45q-52 -49 -81.5 -74t-72 -54.5t-83 -41.5t-85.5 -12zM352 1268h467v-107h-467v107z" />
    <glyph glyph-name="Ubreve" unicode="&#x16c;" horiz-adv-x="1402" 
d="M741 -31q-283 0 -440.5 138.5t-157.5 414.5v535q0 82 -0.5 131.5t-2 100.5t-4 77.5t-8 53.5t-12 38.5t-17.5 23.5t-23 16.5t-31 10.5v27h494v-27q-21 -6 -33.5 -11t-25 -17t-19.5 -23.5t-13 -38.5t-8.5 -53.5t-4.5 -76.5t-2.5 -100t-0.5 -132v-590q0 -105 7.5 -175.5
t27.5 -129.5t56 -92t92 -50.5t137 -17.5q234 0 347 115t113 379v538q0 84 -0.5 131.5t-3 100t-5.5 78.5t-11 55.5t-16.5 41.5t-25 27.5t-33.5 23t-44 17.5v27h285v-27q-28 -14 -43 -24.5t-29 -34.5t-19.5 -49t-10 -82t-5 -116.5t-0.5 -168.5v-538q0 -276 -126 -401.5
t-384 -125.5zM799 1812q85 0 127 23.5t69 79.5h33q-2 -115 -62 -189.5t-167 -74.5q-108 0 -169 73t-63 193h33q24 -56 68.5 -80.5t130.5 -24.5z" />
    <glyph glyph-name="ubreve" unicode="&#x16d;" horiz-adv-x="1097" 
d="M346 -18q-227 0 -227 251v345v11v60.5t-1.5 45t-3.5 35t-7.5 23t-11 18t-17 10t-23.5 9t-32 5.5v30l352 183v-826q0 -108 82 -108q44 0 91.5 32.5t119.5 100.5l47 45v326q0 137 -9 166q-10 31 -44 42q-15 4 -44 9v30l353 183v-719q0 -162 12.5 -202t79.5 -60v-27h-348
v209l-47 -45q-52 -49 -81.5 -74t-72 -54.5t-83 -41.5t-85.5 -12zM588 1249q130 0 180 119h33q5 -104 -54 -188t-159 -84q-69 0 -120.5 40.5t-74.5 102t-20 131.5h33q14 -49 59 -85t123 -36z" />
    <glyph glyph-name="Uring" unicode="&#x16e;" horiz-adv-x="1402" 
d="M741 -31q-283 0 -440.5 138.5t-157.5 414.5v535q0 82 -0.5 131.5t-2 100.5t-4 77.5t-8 53.5t-12 38.5t-17.5 23.5t-23 16.5t-31 10.5v27h494v-27q-21 -6 -33.5 -11t-25 -17t-19.5 -23.5t-13 -38.5t-8.5 -53.5t-4.5 -76.5t-2.5 -100t-0.5 -132v-590q0 -105 7.5 -175.5
t27.5 -129.5t56 -92t92 -50.5t137 -17.5q234 0 347 115t113 379v538q0 84 -0.5 131.5t-3 100t-5.5 78.5t-11 55.5t-16.5 41.5t-25 27.5t-33.5 23t-44 17.5v27h285v-27q-28 -14 -43 -24.5t-29 -34.5t-19.5 -49t-10 -82t-5 -116.5t-0.5 -168.5v-538q0 -276 -126 -401.5
t-384 -125.5zM635 1710q0 73 51 118.5t125 45.5t125 -45.5t51 -118.5t-51 -118.5t-125 -45.5t-125 45.5t-51 118.5zM725 1710q0 -131 86 -131t86 131q0 62 -22.5 96.5t-63.5 34.5t-63.5 -34.5t-22.5 -96.5z" />
    <glyph glyph-name="uring" unicode="&#x16f;" horiz-adv-x="1097" 
d="M346 -18q-227 0 -227 251v345v11v60.5t-1.5 45t-3.5 35t-7.5 23t-11 18t-17 10t-23.5 9t-32 5.5v30l352 183v-826q0 -108 82 -108q44 0 91.5 32.5t119.5 100.5l47 45v326q0 137 -9 166q-10 31 -44 42q-15 4 -44 9v30l353 183v-719q0 -162 12.5 -202t79.5 -60v-27h-348
v209l-47 -45q-52 -49 -81.5 -74t-72 -54.5t-83 -41.5t-85.5 -12zM410 1245q0 73 51 118.5t125 45.5t125 -45.5t51 -118.5t-51 -118.5t-125 -45.5t-125 45.5t-51 118.5zM500 1245q0 -131 86 -131t86 131q0 62 -22.5 96.5t-63.5 34.5t-63.5 -34.5t-22.5 -96.5z" />
    <glyph glyph-name="Uhungarumlaut" unicode="&#x170;" horiz-adv-x="1402" 
d="M741 -31q-283 0 -440.5 138.5t-157.5 414.5v535q0 82 -0.5 131.5t-2 100.5t-4 77.5t-8 53.5t-12 38.5t-17.5 23.5t-23 16.5t-31 10.5v27h494v-27q-21 -6 -33.5 -11t-25 -17t-19.5 -23.5t-13 -38.5t-8.5 -53.5t-4.5 -76.5t-2.5 -100t-0.5 -132v-590q0 -105 7.5 -175.5
t27.5 -129.5t56 -92t92 -50.5t137 -17.5q234 0 347 115t113 379v538q0 84 -0.5 131.5t-3 100t-5.5 78.5t-11 55.5t-16.5 41.5t-25 27.5t-33.5 23t-44 17.5v27h285v-27q-28 -14 -43 -24.5t-29 -34.5t-19.5 -49t-10 -82t-5 -116.5t-0.5 -168.5v-538q0 -276 -126 -401.5
t-384 -125.5zM903 1655l-16 22l114 166q25 37 39 54.5t38 34t50 16.5q40 0 62 -28t22 -58q0 -34 -26 -59.5t-78 -51.5zM604 1655l-16 22l114 166q25 37 39 54.5t38 34t50 16.5q40 0 62 -28t22 -58q0 -34 -26 -59.5t-78 -51.5z" />
    <glyph glyph-name="uhungarumlaut" unicode="&#x171;" horiz-adv-x="1097" 
d="M346 -18q-227 0 -227 251v345v11v60.5t-1.5 45t-3.5 35t-7.5 23t-11 18t-17 10t-23.5 9t-32 5.5v30l352 183v-826q0 -108 82 -108q44 0 91.5 32.5t119.5 100.5l47 45v326q0 137 -9 166q-10 31 -44 42q-15 4 -44 9v30l353 183v-719q0 -162 12.5 -202t79.5 -60v-27h-348
v209l-47 -45q-52 -49 -81.5 -74t-72 -54.5t-83 -41.5t-85.5 -12zM702 1092l-20 10l68 268q15 60 37.5 88.5t66.5 28.5q43 0 65.5 -25t22.5 -65q0 -51 -49 -103zM424 1092l-21 10l68 268q15 60 37.5 88.5t66.5 28.5q43 0 66 -25t23 -65q0 -50 -50 -103z" />
    <glyph glyph-name="Uogonek" unicode="&#x172;" horiz-adv-x="1402" 
d="M848 -344q-85 0 -147 38.5t-62 98.5q0 44 35.5 82.5t84 62.5t111.5 42q-65 -11 -129 -11q-283 0 -440.5 138.5t-157.5 414.5v535q0 82 -0.5 131.5t-2 100.5t-4 77.5t-8 53.5t-12 38.5t-17.5 23.5t-23 16.5t-31 10.5v27h494v-27q-21 -6 -33.5 -11t-25 -17t-19.5 -23.5
t-13 -38.5t-8.5 -53.5t-4.5 -76.5t-2.5 -100t-0.5 -132v-590q0 -105 7.5 -175.5t27.5 -129.5t56 -92t92 -50.5t137 -17.5q234 0 347 115t113 379v538q0 84 -0.5 131.5t-3 100t-5.5 78.5t-11 55.5t-16.5 41.5t-25 27.5t-33.5 23t-44 17.5v27h285v-27q-28 -14 -43 -24.5
t-29 -34.5t-19.5 -49t-10 -82t-5 -116.5t-0.5 -168.5v-538q0 -188 -56.5 -303.5t-172.5 -169.5q-148 -76 -148 -197q0 -48 24.5 -75t62.5 -27q7 0 13 0.5t12.5 3t10 3.5t11 6t9 5.5t10 7t9.5 6.5l17 -22l-18 -18t-25.5 -19t-39 -21t-51.5 -13.5t-71 -6.5z" />
    <glyph glyph-name="uogonek" unicode="&#x173;" horiz-adv-x="1097" 
d="M346 -18q-227 0 -227 251v345v11v60.5t-1.5 45t-3.5 35t-7.5 23t-11 18t-17 10t-23.5 9t-32 5.5v30l352 183v-826q0 -108 82 -108q44 0 91.5 32.5t119.5 100.5l47 45v326q0 137 -9 166q-10 31 -44 42q-15 4 -44 9v30l353 183v-719q0 -162 12.5 -202t79.5 -60v-27h-305
q-53 -61 -53 -174q0 -49 24 -75.5t62 -26.5q7 0 13 0.5t12.5 3t10 3.5t11 6t9 5.5t10 7t9.5 6.5l17 -22l-18 -18t-25.5 -19t-39 -21t-51.5 -13.5t-71 -6.5q-94 0 -151.5 38t-57.5 99q0 44 25.5 81t68 61.5t78 39t74.5 25.5v209l-47 -45q-52 -49 -81.5 -74t-72 -54.5
t-83 -41.5t-85.5 -12z" />
    <glyph glyph-name="Wcircumflex" unicode="&#x174;" horiz-adv-x="1916" 
d="M637 -14l-465 1290q-6 18 -18 51t-16.5 44t-13.5 34t-14 30.5t-14 22t-17.5 20.5t-20 14t-25.5 15v29h444v-29q-48 -13 -54.5 -45t28.5 -129l350 -983l151 422l-182 504q-51 138 -69 167q-26 45 -70 64v29h440v-29q-32 -7 -44 -22.5t-7.5 -51t29.5 -104.5l90 -262l75 211
q14 40 21.5 65t12 54.5t-0.5 48t-20 35t-41 26.5v29h205v-29q-45 -21 -67.5 -57.5t-70.5 -171.5l-96 -266l227 -672l312 936q12 37 17.5 58.5t9.5 48.5t0 43t-15 33t-32.5 28.5t-53.5 19.5v29h262v-29q-34 -16 -52.5 -32.5t-42.5 -63t-54 -135.5l-428 -1290h-72l-264 731
l-262 -731h-72zM715 1636l289 273l288 -273l-10 -26l-278 90l-279 -90z" />
    <glyph glyph-name="wcircumflex" unicode="&#x175;" horiz-adv-x="1390" 
d="M422 -14l-287 741q-58 146 -74.5 177t-50.5 42v27h404v-27q-33 -5 -45.5 -22.5t-6.5 -63.5t37 -127l172 -454l127 303l-51 145q-35 93 -54 135t-33.5 58t-37.5 26v27h400v-27q-33 -5 -48 -22t-11.5 -63.5t32.5 -127.5l154 -440l145 395q28 75 36 125t-3 77.5t-30.5 39.5
t-53.5 16v27h237v-27q-26 -9 -42.5 -28t-38 -67t-64.5 -163l-258 -702h-70l-190 542l-228 -542h-67zM467 1077l262 363l262 -363l-22 -18l-240 141l-240 -141z" />
    <glyph glyph-name="Ycircumflex" unicode="&#x176;" horiz-adv-x="1306" 
d="M410 0v27q21 7 33.5 12.5t25 18t19 23.5t13 38.5t8.5 53t4 76t2.5 99.5t0.5 131v262l-297 537q-62 113 -97.5 158.5t-96.5 72.5v27h503v-27q-50 -18 -62 -48t17 -91l303 -557l252 465q61 112 57 163t-81 68v27h268v-27q-28 -11 -44 -20t-40.5 -32.5t-52.5 -66.5t-66 -112
l-274 -508v-291q0 -82 0.5 -131t2.5 -99.5t4 -76t8.5 -53t13 -38.5t19 -23.5t25 -18t33.5 -12.5v-27h-501zM475 1636l289 273l289 -273l-11 -26l-278 90l-279 -90z" />
    <glyph glyph-name="ycircumflex" unicode="&#x177;" horiz-adv-x="968" 
d="M217 -338q-137 0 -137 105q0 39 23 61t57 22q27 0 50.5 -11.5t37.5 -25t34.5 -25t43.5 -11.5q35 0 71.5 40t83.5 160l-336 760q-57 129 -79.5 163t-57.5 46v27h422v-27q-25 -4 -38.5 -12.5t-20.5 -29.5t3 -61t36 -102l192 -460l166 411q32 77 43 127.5t1 76t-28.5 36
t-52.5 14.5v27h230v-27q-34 -8 -61 -52t-91 -202l-291 -723q-66 -167 -139 -237t-162 -70zM285 1077l262 363l262 -363l-23 -18l-239 141l-240 -141z" />
    <glyph glyph-name="Ydieresis" unicode="&#x178;" horiz-adv-x="1306" 
d="M410 0v27q21 7 33.5 12.5t25 18t19 23.5t13 38.5t8.5 53t4 76t2.5 99.5t0.5 131v262l-297 537q-62 113 -97.5 158.5t-96.5 72.5v27h503v-27q-50 -18 -62 -48t17 -91l303 -557l252 465q61 112 57 163t-81 68v27h268v-27q-28 -11 -44 -20t-40.5 -32.5t-52.5 -66.5t-66 -112
l-274 -508v-291q0 -82 0.5 -131t2.5 -99.5t4 -76t8.5 -53t13 -38.5t19 -23.5t25 -18t33.5 -12.5v-27h-501zM963 1618q-57 0 -95.5 38.5t-38.5 98.5q0 54 38.5 91.5t95.5 37.5q55 0 93 -37.5t38 -91.5q0 -60 -37.5 -98.5t-93.5 -38.5zM567 1618q-56 0 -93.5 38.5t-37.5 98.5
q0 54 38 91.5t93 37.5q57 0 96 -37.5t39 -91.5q0 -59 -39 -98t-96 -39z" />
    <glyph glyph-name="Zacute" unicode="&#x179;" horiz-adv-x="1277" 
d="M41 0l793 1503h-289q-118 0 -194 -14.5t-123 -50t-71.5 -79t-47.5 -118.5h-37l57 295h1051l-803 -1503h317q113 0 188.5 9.5t131 29.5t91.5 59.5t59 90t44 130.5h37l-57 -352h-1147zM461 1616l-10 26l254 197q59 47 120 47q42 0 70.5 -29.5t28.5 -68.5q0 -113 -144 -131z
" />
    <glyph glyph-name="zacute" unicode="&#x17a;" horiz-adv-x="897" 
d="M856 285l-43 -312q-33 17 -87 22t-226 5h-461l526 940h-159q-81 0 -134 -12t-86.5 -42t-51 -63t-38.5 -94h-30l49 270q28 -17 91.5 -21.5t221.5 -4.5h428l-532 -940h182q64 0 108 8.5t76.5 24.5t56.5 47.5t41 70.5t37 101h31zM336 1059l-21 20l168 248q38 58 67 81.5
t71 23.5q46 0 71 -26.5t25 -70.5t-26 -74t-73 -57z" />
    <glyph glyph-name="Zdotaccent" unicode="&#x17b;" horiz-adv-x="1277" 
d="M41 0l793 1503h-289q-118 0 -194 -14.5t-123 -50t-71.5 -79t-47.5 -118.5h-37l57 295h1051l-803 -1503h317q113 0 188.5 9.5t131 29.5t91.5 59.5t59 90t44 130.5h37l-57 -352h-1147zM633 1616q-60 0 -102 42.5t-42 102.5t42 101t102 41t101.5 -40t41.5 -100t-41.5 -103.5
t-101.5 -43.5z" />
    <glyph glyph-name="zdotaccent" unicode="&#x17c;" horiz-adv-x="897" 
d="M856 285l-43 -312q-33 17 -87 22t-226 5h-461l526 940h-159q-81 0 -134 -12t-86.5 -42t-51 -63t-38.5 -94h-30l49 270q28 -17 91.5 -21.5t221.5 -4.5h428l-532 -940h182q64 0 108 8.5t76.5 24.5t56.5 47.5t41 70.5t37 101h31zM469 1118q-60 0 -101.5 43t-41.5 103
t41.5 100.5t101.5 40.5t101.5 -39.5t41.5 -99.5t-41.5 -104t-101.5 -44z" />
    <glyph glyph-name="Zcaron" unicode="&#x17d;" horiz-adv-x="1277" 
d="M41 0l793 1503h-289q-118 0 -194 -14.5t-123 -50t-71.5 -79t-47.5 -118.5h-37l57 295h1051l-803 -1503h317q113 0 188.5 9.5t131 29.5t91.5 59.5t59 90t44 130.5h37l-57 -352h-1147zM344 1898l10 27l279 -90l278 90l11 -27l-289 -272z" />
    <glyph glyph-name="zcaron" unicode="&#x17e;" horiz-adv-x="897" 
d="M856 285l-43 -312q-33 17 -87 22t-226 5h-461l526 940h-159q-81 0 -134 -12t-86.5 -42t-51 -63t-38.5 -94h-30l49 270q28 -17 91.5 -21.5t221.5 -4.5h428l-532 -940h182q64 0 108 8.5t76.5 24.5t56.5 47.5t41 70.5t37 101h31zM207 1442l22 18l240 -141l240 141l22 -18
l-262 -363z" />
    <glyph glyph-name="uni0192" unicode="&#x192;" horiz-adv-x="907" 
d="M170 934v39h135l25 184q14 112 54.5 196t97 131.5t117.5 70t126 22.5q102 0 163.5 -37.5t61.5 -105.5q0 -29 -22.5 -53.5t-65.5 -24.5q-53 0 -73.5 19.5t-28.5 74.5q-13 71 -23 83q-9 11 -32 11q-45 0 -73.5 -56.5t-45.5 -184.5l-43 -330h188v-39h-192l-86 -651
q-35 -269 -140 -396t-264 -127q-96 0 -169 37t-73 105q0 33 22.5 56.5t66.5 23.5q50 0 67 -21.5t29 -81.5q8 -49 21.5 -67.5t47.5 -18.5q38 0 61.5 39.5t45 145.5t49.5 323l84 633h-131z" />
    <glyph glyph-name="Aringacute" unicode="&#x1fa;" horiz-adv-x="1464" 
d="M31 0v27q33 11 55 31t51.5 76.5t67.5 162.5l366 1016l-26 69q-24 64 -51 89.5t-68 37.5v27h344q22 0 29 -7t18 -38l465 -1231q53 -136 76 -171q31 -47 76 -58v-31h-471v31q38 7 53 26t11 55t-28 95l-98 254h-598l-59 -164q-46 -121 -29.5 -181.5t111.5 -88.5v-27h-295z
M315 494h574l-297 768zM469 1772q0 73 51 118t125 45t125 -45t51 -118t-51 -118.5t-125 -45.5t-125 45.5t-51 118.5zM559 1772q0 -132 86 -132t86 132q0 62 -22.5 96.5t-63.5 34.5t-63.5 -34.5t-22.5 -96.5zM436 1964l-10 27l254 196q59 47 121 47q42 0 70 -29.5t28 -68.5
q0 -113 -143 -131z" />
    <glyph glyph-name="aringacute" unicode="&#x1fb;" horiz-adv-x="983" 
d="M309 -20q-117 0 -186.5 60t-69.5 167q0 46 17 82t42.5 59t68.5 45t80 35t93.5 33.5t94.5 36.5l28 12q59 28 80 48q41 41 41 108v151q0 141 -145 141q-57 0 -89 -28.5t-53 -81.5q-20 -54 -45 -77t-73 -23q-42 0 -70.5 25t-28.5 63q0 69 98 112t250 43q196 0 302 -66
t106 -198v-502q0 -114 12.5 -149t50.5 -35q23 0 58 20l10 -22q-74 -53 -195 -53q-74 0 -121.5 32.5t-60.5 96.5l-24 -21q-35 -32 -66 -53t-87 -41t-118 -20zM309 248q0 -195 119 -195q35 0 70 20t82 60l18 17v407q-27 -38 -117 -80l-28 -12q-75 -32 -109.5 -78.5
t-34.5 -138.5zM285 1245q0 73 51 118.5t125 45.5t125 -45.5t51 -118.5t-51 -118.5t-125 -45.5t-125 45.5t-51 118.5zM375 1245q0 -131 86 -131t86 131q0 62 -22.5 96.5t-63.5 34.5t-63.5 -34.5t-22.5 -96.5zM252 1454l-10 27l254 196q59 47 120 47q42 0 70.5 -29.5
t28.5 -68.5q0 -113 -144 -131z" />
    <glyph glyph-name="AEacute" unicode="&#x1fc;" horiz-adv-x="1974" 
d="M1542 674h-31q-21 76 -31 94q-30 55 -120 69q-43 7 -103 7h-47v-811h230q155 0 240 25.5t129 82.5t69 170h37l-27 -248q-2 -24 -5.5 -36.5t-12 -18.5t-16 -7t-27.5 -1h-1018v27q21 7 33.5 12.5t25 18t19 23.5t13 38.5t8.5 53t4 76t2.5 99.5t0.5 131v6h-542l-125 -227
q-57 -104 -51 -156t75 -77v-25h-256v25q33 14 53 29t55.5 64t84.5 140l620 1137q31 57 17.5 80t-76.5 34v27h1012q25 0 34.5 -10t16.5 -51l39 -222h-37q-26 77 -54 122.5t-75 75.5t-111 41t-165 11h-220v-626h47q45 0 79.5 4t58.5 8.5t42.5 17.5t28 20.5t19 29.5t12.5 31.5
t10 38.5q3 10 4 15h31v-368zM389 518h526v963zM1128 1616l-10 26l254 197q59 47 121 47q42 0 70 -29.5t28 -68.5q0 -113 -143 -131z" />
    <glyph glyph-name="aeacute" unicode="&#x1fd;" horiz-adv-x="1503" 
d="M317 -20q-123 0 -193.5 59.5t-70.5 167.5q0 46 17 82t42.5 59t68.5 45t80 35t93.5 33.5t94.5 36.5l28 12q59 28 80 48q41 41 41 108v151q0 141 -145 141q-57 0 -89 -28.5t-53 -81.5q-20 -54 -45 -77t-73 -23q-42 0 -70.5 25t-28.5 63q0 69 98 112t250 43q241 0 340 -96
q131 98 271 98q169 0 279 -93t122 -261h-592q-4 -78 -4 -121q0 -243 76 -359t231 -116q78 0 129.5 19.5t112.5 62.5l18 -27q-66 -55 -139 -86.5t-186 -31.5q-126 0 -233 48t-177 144l-86 -78q-32 -28 -40.5 -35.5t-39 -28.5t-54 -28t-64 -14.5t-89.5 -7.5zM1053 961
q-159 0 -189 -287h348q-17 159 -52 223t-107 64zM309 248q0 -195 119 -195q83 0 176 80l70 64q-76 123 -76 297v63q-27 -38 -117 -80l-28 -12q-75 -32 -109.5 -78.5t-34.5 -138.5zM643 1059l-20 20l168 248q38 58 66.5 81.5t70.5 23.5q46 0 71 -26.5t25 -70.5
q0 -76 -98 -131z" />
    <glyph glyph-name="Oslashacute" unicode="&#x1fe;" horiz-adv-x="1593" 
d="M797 -35q-197 0 -367 117l-98 -182l-33 16l100 188q-144 106 -230.5 280.5t-86.5 385.5q0 137 39 262t107.5 221t158 167t195.5 108t215 37q180 0 340 -97l86 160l32 -16l-88 -164q156 -108 250 -283.5t94 -394.5q0 -171 -60.5 -323t-159.5 -256.5t-228.5 -165
t-265.5 -60.5zM403 770q0 -332 76 -518l594 1100q-105 180 -276 180q-82 0 -152 -45t-125 -134.5t-86 -239t-31 -343.5zM797 -2q185 0 289 191.5t104 580.5q0 343 -96 543l-596 -1104q105 -211 299 -211zM588 1616l-10 26l253 197q59 47 121 47q42 0 70.5 -29.5t28.5 -68.5
q0 -113 -144 -131z" />
    <glyph glyph-name="oslashacute" unicode="&#x1ff;" horiz-adv-x="1083" 
d="M182 -66l82 144q-207 144 -207 409q0 103 33 189.5t85.5 143.5t118 97.5t129 58t120.5 17.5q106 0 217 -57l69 121l31 -19l-69 -118q103 -63 169 -173t66 -260q0 -103 -33 -189.5t-85 -142.5t-117.5 -95.5t-128 -56.5t-119.5 -17q-126 0 -248 71l-82 -141zM348 221
l359 621q-55 119 -164 119q-221 0 -221 -474q0 -171 26 -266zM723 799l-363 -625q54 -156 183 -156q217 0 217 469q0 193 -37 312zM408 1059l-21 20l168 248q38 58 66.5 81.5t70.5 23.5q46 0 71 -26.5t25 -70.5q0 -76 -98 -131z" />
    <glyph glyph-name="uni0218" unicode="&#x218;" horiz-adv-x="1173" 
d="M559 -23q-78 0 -146 17t-107 37.5t-82.5 37.5t-76.5 17q-17 0 -29.5 -12t-17.5 -31h-30v424h36q30 -215 143.5 -336t309.5 -121q171 0 252.5 69t81.5 210q0 139 -89.5 221t-326.5 180q-94 39 -160 79.5t-118 94.5t-77.5 123t-25.5 156q0 188 121.5 303t331.5 115
q83 0 156 -19t124 -38t82 -19q24 0 35.5 9.5t16.5 33.5h30v-328h-37q-30 158 -137 243t-270 85q-275 0 -275 -223q0 -97 77.5 -171.5t252.5 -148.5q94 -39 163 -75.5t134 -85t106 -101.5t65 -122.5t24 -151.5q0 -95 -31.5 -174.5t-84 -133.5t-122.5 -92t-145.5 -55
t-153.5 -17zM629 -250q-6 -16 -26 -30.5t-54 -14.5q-46 0 -77.5 29.5t-31.5 77.5q0 50 36 82t87 32q59 0 102.5 -39.5t43.5 -119.5q0 -87 -53.5 -140t-153.5 -67l-10 24q79 18 114 55.5t35 75.5q0 32 -12 35z" />
    <glyph glyph-name="uni0219" unicode="&#x219;" horiz-adv-x="802" 
d="M393 18q187 0 187 164q0 70 -46.5 114t-183.5 97q-153 55 -215.5 126t-62.5 202q0 108 85 189t214 81q74 0 145 -23.5t94 -23.5q29 0 35 29h31v-252h-31q-65 237 -274 237q-164 0 -164 -131q0 -38 13.5 -66t47 -50.5t68.5 -38t98 -37.5q179 -67 245 -140t66 -208
q0 -88 -50.5 -158t-130.5 -106.5t-171 -36.5q-54 0 -101 11t-72.5 23.5t-51.5 23.5t-43 11q-29 0 -35 -35h-33v293h31q43 -148 114 -221.5t191 -73.5zM436 -250q-6 -16 -26 -30.5t-54 -14.5q-46 0 -77 29.5t-31 77.5q0 50 36 82t87 32q59 0 102 -39.5t43 -119.5
q0 -87 -53.5 -140t-153.5 -67l-10 24q79 18 114.5 55.5t35.5 75.5q0 32 -13 35z" />
    <glyph glyph-name="uni021A" unicode="&#x21a;" horiz-adv-x="1331" 
d="M410 0v27q21 7 33.5 12.5t25 18t19 23.5t13 38.5t8.5 53t4 76t2.5 99.5t0.5 131v1024h-92q-70 0 -119 -7t-94 -26t-74 -52.5t-49.5 -87.5t-30.5 -130h-37l23 275q4 43 12.5 52t38.5 9h1139q30 0 38.5 -9t12.5 -52l27 -275h-37q-14 95 -42.5 155t-76.5 92.5t-106 44
t-146 11.5h-92v-1024q0 -81 0.5 -130.5t2.5 -99.5t4.5 -76.5t9 -53.5t13 -38.5t19 -23.5t25 -17.5t33.5 -12.5v-27h-508zM733 -250q-6 -16 -26 -30.5t-54 -14.5q-46 0 -77 29.5t-31 77.5q0 50 36 82t87 32q59 0 102 -39.5t43 -119.5q0 -87 -53.5 -140t-153.5 -67l-10 24
q79 18 114 55.5t35 75.5q0 32 -12 35z" />
    <glyph glyph-name="uni021B" unicode="&#x21b;" horiz-adv-x="657" 
d="M401 -16q-130 0 -195 61.5t-65 169.5v719h-84v33q99 13 188 116t117 267h31v-377h203v-39h-203v-670q0 -133 18.5 -179t82.5 -46q57 0 104 47l18 -18q-72 -84 -215 -84zM401 -250q-6 -16 -25.5 -30.5t-53.5 -14.5q-46 0 -77.5 29.5t-31.5 77.5q0 50 36 82t87 32
q59 0 102 -39.5t43 -119.5q0 -87 -53.5 -140t-153.5 -67l-10 24q79 18 114.5 55.5t35.5 75.5q0 32 -13 35z" />
    <glyph glyph-name="uni0237" unicode="&#x237;" horiz-adv-x="512" 
d="M-49 -313q-41 0 -71 26.5t-30 71.5q0 41 23.5 62.5t58.5 21.5q31 0 62 -26.5t53.5 -52.5t34.5 -26q9 0 20 11q17 17 23 49.5t6 99.5v647q0 142 -8 171q-10 33 -43 43q-14 5 -45 10v30l352 183v-822q0 -133 -47 -232.5t-156 -174.5q-76 -53 -127 -72.5t-106 -19.5z" />
    <glyph glyph-name="circumflex" unicode="&#x2c6;" horiz-adv-x="913" 
d="M205 1077l262 363l262 -363l-22 -18l-240 141l-240 -141z" />
    <glyph glyph-name="caron" unicode="&#x2c7;" horiz-adv-x="913" 
d="M205 1442l22 18l240 -141l240 141l22 -18l-262 -363z" />
    <glyph glyph-name="breve" unicode="&#x2d8;" horiz-adv-x="913" 
d="M457 1249q130 0 180 119h33q5 -104 -54 -188t-159 -84q-103 0 -161.5 82t-53.5 192h32q14 -49 59 -85t124 -36z" />
    <glyph glyph-name="dotaccent" unicode="&#x2d9;" horiz-adv-x="913" 
d="M457 1118q-60 0 -102 43t-42 103t42 100.5t102 40.5t101.5 -39.5t41.5 -99.5t-41.5 -104t-101.5 -44z" />
    <glyph glyph-name="ring" unicode="&#x2da;" horiz-adv-x="913" 
d="M297 1245q0 73 51 118.5t125 45.5t125 -45.5t51 -118.5t-51 -118.5t-125 -45.5t-125 45.5t-51 118.5zM387 1245q0 -131 86 -131t86 131q0 62 -22.5 96.5t-63.5 34.5t-63.5 -34.5t-22.5 -96.5z" />
    <glyph glyph-name="ogonek" unicode="&#x2db;" horiz-adv-x="913" 
d="M465 -344q-85 0 -147 38.5t-62 98.5q0 43 29.5 80.5t77 62t91 40t85.5 24.5h45q-21 -18 -30.5 -28t-27.5 -33t-26 -51t-8 -62q0 -49 24 -75.5t62 -26.5q7 0 13 0.5t12.5 3t10 3.5t11 6t9 5.5t10 7t9.5 6.5l17 -22l-18 -18t-25.5 -19t-39 -21t-51.5 -13.5t-71 -6.5z" />
    <glyph glyph-name="tilde" unicode="&#x2dc;" horiz-adv-x="913" 
d="M354 1333q49 0 114 -13t101 -13q31 0 56 18t55 66l25 -13q-61 -233 -173 -233q-40 0 -102.5 13t-107.5 13q-30 0 -54 -16.5t-55 -62.5l-25 12q40 120 76 174.5t90 54.5z" />
    <glyph glyph-name="hungarumlaut" unicode="&#x2dd;" horiz-adv-x="913" 
d="M510 1092l-21 10l68 268q15 59 38 88t67 29q43 0 65.5 -25t22.5 -65q0 -50 -50 -103zM231 1092l-20 10l68 268q15 60 37.5 88.5t66.5 28.5q43 0 65.5 -25t22.5 -65q0 -51 -49 -103z" />
    <glyph glyph-name="Wgrave" unicode="&#x1e80;" horiz-adv-x="1916" 
d="M637 -14l-465 1290q-6 18 -18 51t-16.5 44t-13.5 34t-14 30.5t-14 22t-17.5 20.5t-20 14t-25.5 15v29h444v-29q-48 -13 -54.5 -45t28.5 -129l350 -983l151 422l-182 504q-51 138 -69 167q-26 45 -70 64v29h440v-29q-32 -7 -44 -22.5t-7.5 -51t29.5 -104.5l90 -262l75 211
q14 40 21.5 65t12 54.5t-0.5 48t-20 35t-41 26.5v29h205v-29q-45 -21 -67.5 -57.5t-70.5 -171.5l-96 -266l227 -672l312 936q12 37 17.5 58.5t9.5 48.5t0 43t-15 33t-32.5 28.5t-53.5 19.5v29h262v-29q-34 -16 -52.5 -32.5t-42.5 -63t-54 -135.5l-428 -1290h-72l-264 731
l-262 -731h-72zM1204 1616l-319 41q-144 18 -144 131q0 39 28.5 68.5t70.5 29.5q62 0 121 -47l253 -197z" />
    <glyph glyph-name="wgrave" unicode="&#x1e81;" horiz-adv-x="1390" 
d="M422 -14l-287 741q-58 146 -74.5 177t-50.5 42v27h404v-27q-33 -5 -45.5 -22.5t-6.5 -63.5t37 -127l172 -454l127 303l-51 145q-35 93 -54 135t-33.5 58t-37.5 26v27h400v-27q-33 -5 -48 -22t-11.5 -63.5t32.5 -127.5l154 -440l145 395q28 75 36 125t-3 77.5t-30.5 39.5
t-53.5 16v27h237v-27q-26 -9 -42.5 -28t-38 -67t-64.5 -163l-258 -702h-70l-190 542l-228 -542h-67zM872 1059l-282 145q-98 55 -98 131q0 44 25 70.5t71 26.5q42 0 70.5 -23.5t66.5 -81.5l168 -248z" />
    <glyph glyph-name="Wacute" unicode="&#x1e82;" horiz-adv-x="1916" 
d="M637 -14l-465 1290q-6 18 -18 51t-16.5 44t-13.5 34t-14 30.5t-14 22t-17.5 20.5t-20 14t-25.5 15v29h444v-29q-48 -13 -54.5 -45t28.5 -129l350 -983l151 422l-182 504q-51 138 -69 167q-26 45 -70 64v29h440v-29q-32 -7 -44 -22.5t-7.5 -51t29.5 -104.5l90 -262l75 211
q14 40 21.5 65t12 54.5t-0.5 48t-20 35t-41 26.5v29h205v-29q-45 -21 -67.5 -57.5t-70.5 -171.5l-96 -266l227 -672l312 936q12 37 17.5 58.5t9.5 48.5t0 43t-15 33t-32.5 28.5t-53.5 19.5v29h262v-29q-34 -16 -52.5 -32.5t-42.5 -63t-54 -135.5l-428 -1290h-72l-264 731
l-262 -731h-72zM795 1616l-11 26l254 197q59 47 121 47q42 0 70 -29.5t28 -68.5q0 -113 -143 -131z" />
    <glyph glyph-name="wacute" unicode="&#x1e83;" horiz-adv-x="1390" 
d="M422 -14l-287 741q-58 146 -74.5 177t-50.5 42v27h404v-27q-33 -5 -45.5 -22.5t-6.5 -63.5t37 -127l172 -454l127 303l-51 145q-35 93 -54 135t-33.5 58t-37.5 26v27h400v-27q-33 -5 -48 -22t-11.5 -63.5t32.5 -127.5l154 -440l145 395q28 75 36 125t-3 77.5t-30.5 39.5
t-53.5 16v27h237v-27q-26 -9 -42.5 -28t-38 -67t-64.5 -163l-258 -702h-70l-190 542l-228 -542h-67zM596 1059l-21 20l168 248q38 58 67 81.5t71 23.5q46 0 71 -26.5t25 -70.5q0 -76 -98 -131z" />
    <glyph glyph-name="Wdieresis" unicode="&#x1e84;" horiz-adv-x="1916" 
d="M637 -14l-465 1290q-6 18 -18 51t-16.5 44t-13.5 34t-14 30.5t-14 22t-17.5 20.5t-20 14t-25.5 15v29h444v-29q-48 -13 -54.5 -45t28.5 -129l350 -983l151 422l-182 504q-51 138 -69 167q-26 45 -70 64v29h440v-29q-32 -7 -44 -22.5t-7.5 -51t29.5 -104.5l90 -262l75 211
q14 40 21.5 65t12 54.5t-0.5 48t-20 35t-41 26.5v29h205v-29q-45 -21 -67.5 -57.5t-70.5 -171.5l-96 -266l227 -672l312 936q12 37 17.5 58.5t9.5 48.5t0 43t-15 33t-32.5 28.5t-53.5 19.5v29h262v-29q-34 -16 -52.5 -32.5t-42.5 -63t-54 -135.5l-428 -1290h-72l-264 731
l-262 -731h-72zM1202 1618q-57 0 -95 38.5t-38 98.5q0 54 38 91.5t95 37.5q55 0 93 -37.5t38 -91.5q0 -60 -37.5 -98.5t-93.5 -38.5zM807 1618q-56 0 -93.5 38.5t-37.5 98.5q0 54 38 91.5t93 37.5q57 0 96 -37.5t39 -91.5q0 -59 -39 -98t-96 -39z" />
    <glyph glyph-name="wdieresis" unicode="&#x1e85;" horiz-adv-x="1390" 
d="M422 -14l-287 741q-58 146 -74.5 177t-50.5 42v27h404v-27q-33 -5 -45.5 -22.5t-6.5 -63.5t37 -127l172 -454l127 303l-51 145q-35 93 -54 135t-33.5 58t-37.5 26v27h400v-27q-33 -5 -48 -22t-11.5 -63.5t32.5 -127.5l154 -440l145 395q28 75 36 125t-3 77.5t-30.5 39.5
t-53.5 16v27h237v-27q-26 -9 -42.5 -28t-38 -67t-64.5 -163l-258 -702h-70l-190 542l-228 -542h-67zM915 1124q-60 0 -97.5 39t-37.5 101q0 55 38 92t97 37q55 0 93.5 -37.5t38.5 -91.5q0 -61 -38 -100.5t-94 -39.5zM543 1124q-56 0 -93.5 39.5t-37.5 100.5q0 54 38 91.5
t93 37.5q59 0 97 -37t38 -92q0 -62 -37.5 -101t-97.5 -39z" />
    <glyph glyph-name="Ygrave" unicode="&#x1ef2;" horiz-adv-x="1306" 
d="M410 0v27q21 7 33.5 12.5t25 18t19 23.5t13 38.5t8.5 53t4 76t2.5 99.5t0.5 131v262l-297 537q-62 113 -97.5 158.5t-96.5 72.5v27h503v-27q-50 -18 -62 -48t17 -91l303 -557l252 465q61 112 57 163t-81 68v27h268v-27q-28 -11 -44 -20t-40.5 -32.5t-52.5 -66.5t-66 -112
l-274 -508v-291q0 -82 0.5 -131t2.5 -99.5t4 -76t8.5 -53t13 -38.5t19 -23.5t25 -18t33.5 -12.5v-27h-501zM956 1616l-319 41q-143 18 -143 131q0 39 28 68.5t70 29.5q62 0 121 -47l254 -197z" />
    <glyph glyph-name="ygrave" unicode="&#x1ef3;" horiz-adv-x="968" 
d="M217 -338q-137 0 -137 105q0 39 23 61t57 22q27 0 50.5 -11.5t37.5 -25t34.5 -25t43.5 -11.5q35 0 71.5 40t83.5 160l-336 760q-57 129 -79.5 163t-57.5 46v27h422v-27q-25 -4 -38.5 -12.5t-20.5 -29.5t3 -61t36 -102l192 -460l166 411q32 77 43 127.5t1 76t-28.5 36
t-52.5 14.5v27h230v-27q-34 -8 -61 -52t-91 -202l-291 -723q-66 -167 -139 -237t-162 -70zM690 1059l-282 145q-47 27 -73 57t-26 74t25.5 70.5t71.5 26.5q42 0 70.5 -23.5t66.5 -81.5l168 -248z" />
    <glyph glyph-name="uni2009" unicode="&#x2009;" horiz-adv-x="184" 
 />
    <glyph glyph-name="endash" unicode="&#x2013;" horiz-adv-x="1062" 
d="M90 555v41h883v-41h-883z" />
    <glyph glyph-name="emdash" unicode="&#x2014;" horiz-adv-x="1855" 
d="M90 555v41h1675v-41h-1675z" />
    <glyph glyph-name="quoteleft" unicode="&#x2018;" horiz-adv-x="538" 
d="M215 1317q29 45 88 45q51 0 86 -35.5t35 -89.5q0 -64 -41.5 -101.5t-103.5 -37.5q-64 0 -112 49t-48 141q0 210 243 334l13 -23q-96 -56 -140.5 -108.5t-44.5 -116.5q0 -41 25 -57z" />
    <glyph glyph-name="quoteright" unicode="&#x2019;" horiz-adv-x="538" 
d="M324 1362q-29 -45 -88 -45q-51 0 -86 35.5t-35 89.5q0 64 41.5 101.5t103.5 37.5q64 0 112 -49t48 -141q0 -114 -64.5 -194.5t-179.5 -139.5l-12 22q95 56 139.5 109t44.5 117q0 42 -24 57z" />
    <glyph glyph-name="quotesinglbase" unicode="&#x201a;" horiz-adv-x="546" 
d="M326 100q-29 -45 -88 -45q-51 0 -86 35.5t-35 89.5q0 64 41.5 101.5t103.5 37.5q64 0 112 -49t48 -141q0 -114 -64.5 -194.5t-179.5 -139.5l-12 23q95 56 139.5 108.5t44.5 116.5q0 42 -24 57z" />
    <glyph glyph-name="quotedblleft" unicode="&#x201c;" horiz-adv-x="909" 
d="M215 1317q29 45 88 45q51 0 86 -35.5t35 -89.5q0 -64 -41.5 -101.5t-103.5 -37.5q-64 0 -112 49t-48 141q0 210 243 334l13 -23q-96 -56 -140.5 -108.5t-44.5 -116.5q0 -41 25 -57zM586 1317q29 45 88 45q51 0 86 -35.5t35 -89.5q0 -64 -42 -101.5t-104 -37.5
q-64 0 -112 49t-48 141q0 114 64.5 194.5t179.5 139.5l12 -23q-95 -56 -139.5 -108.5t-44.5 -116.5q0 -41 25 -57z" />
    <glyph glyph-name="quotedblright" unicode="&#x201d;" horiz-adv-x="909" 
d="M694 1362q-29 -45 -88 -45q-51 0 -86 35.5t-35 89.5q0 64 42 101.5t104 37.5q64 0 112 -49t48 -141q0 -114 -64.5 -194.5t-179.5 -139.5l-12 22q95 56 139.5 109t44.5 117q0 41 -25 57zM324 1362q-29 -45 -88 -45q-51 0 -86 35.5t-35 89.5q0 64 41.5 101.5t103.5 37.5
q64 0 112 -49t48 -141q0 -114 -64.5 -194.5t-179.5 -139.5l-12 22q95 56 139.5 109t44.5 117q0 42 -24 57z" />
    <glyph glyph-name="quotedblbase" unicode="&#x201e;" horiz-adv-x="917" 
d="M696 100q-29 -45 -88 -45q-51 0 -86 35.5t-35 89.5q0 64 42 101.5t104 37.5q64 0 112 -49t48 -141q0 -114 -64.5 -194.5t-179.5 -139.5l-12 23q95 56 139.5 108.5t44.5 116.5q0 41 -25 57zM326 100q-29 -45 -88 -45q-51 0 -86 35.5t-35 89.5q0 64 41.5 101.5t103.5 37.5
q64 0 112 -49t48 -141q0 -114 -64.5 -194.5t-179.5 -139.5l-12 23q95 56 139.5 108.5t44.5 116.5q0 42 -24 57z" />
    <glyph glyph-name="dagger" unicode="&#x2020;" horiz-adv-x="897" 
d="M467 -4h-33q-11 271 -53.5 507t-77.5 337q54 44 90.5 113t36.5 141q-31 0 -64 -17t-57.5 -37.5t-59 -37.5t-67.5 -17q-63 0 -98 37t-35 90q0 54 35 90.5t98 36.5q33 0 68.5 -17.5t60.5 -39t57.5 -39t61.5 -17.5q0 37 -17.5 76t-39 67t-39 68t-17.5 78q0 56 36.5 94.5
t95.5 38.5q56 0 93.5 -39t37.5 -94q0 -38 -17.5 -78t-39 -68t-39 -67t-17.5 -76q29 0 61.5 17.5t57 39t60 39t69.5 17.5q61 0 97 -37t36 -90q0 -52 -36.5 -89.5t-96.5 -37.5q-35 0 -70.5 17t-60 37.5t-56.5 37.5t-61 17q0 -71 37 -140.5t90 -113.5q-34 -95 -75 -333
t-52 -511z" />
    <glyph glyph-name="daggerdbl" unicode="&#x2021;" horiz-adv-x="897" 
d="M449 -16q-59 0 -95.5 38.5t-36.5 94.5q0 38 17.5 78t39 68t39 67t17.5 76q-31 0 -64 -17.5t-57.5 -39t-59 -39t-67.5 -17.5q-63 0 -98 36.5t-35 90.5q0 53 35 90t98 37q33 0 67 -17t58.5 -37.5t57.5 -37.5t65 -17q0 90 -38.5 175t-106.5 153q67 68 106 155.5t39 172.5
q-32 0 -65 -17t-57.5 -37.5t-58.5 -37.5t-67 -17q-63 0 -98 37t-35 90q0 54 35 90.5t98 36.5q33 0 67.5 -17.5t59 -39t57.5 -39t64 -17.5q0 37 -17.5 76t-39 67t-39 68t-17.5 78q0 56 36.5 94.5t95.5 38.5q56 0 93.5 -39t37.5 -94q0 -38 -17.5 -78t-39 -68t-39 -67
t-17.5 -76q32 0 64.5 17.5t56 39t58 39t69.5 17.5q61 0 97 -37t36 -90q0 -52 -36.5 -89.5t-96.5 -37.5q-35 0 -69.5 17t-58.5 37.5t-56.5 37.5t-63.5 17q0 -84 39 -171t104 -157q-66 -71 -104.5 -155.5t-38.5 -172.5q31 0 63.5 17t56.5 37.5t58.5 37.5t69.5 17
q60 0 96.5 -37.5t36.5 -89.5q0 -53 -36 -90t-97 -37q-35 0 -69.5 17.5t-58 39t-56 39t-64.5 17.5q0 -37 17.5 -76t39 -67t39 -68t17.5 -78q0 -55 -37.5 -94t-93.5 -39z" />
    <glyph glyph-name="bullet" unicode="&#x2022;" horiz-adv-x="823" 
d="M414 870q124 0 203 -79.5t79 -202.5q0 -124 -79 -205.5t-203 -81.5t-205.5 82t-81.5 205t81 202.5t206 79.5z" />
    <glyph glyph-name="ellipsis" unicode="&#x2026;" horiz-adv-x="1638" 
d="M1350 -29q-67 0 -111.5 43t-44.5 111q0 67 45 111.5t111 44.5q67 0 110 -44t43 -112q0 -69 -42.5 -111.5t-110.5 -42.5zM821 -31q-67 0 -111 43t-44 111q0 67 44.5 111.5t110.5 44.5q67 0 110.5 -44t43.5 -112q0 -69 -43 -111.5t-111 -42.5zM291 -31q-67 0 -111.5 43
t-44.5 111q0 67 45 111.5t111 44.5q67 0 110 -44t43 -112q0 -69 -42.5 -111.5t-110.5 -42.5z" />
    <glyph glyph-name="perthousand" unicode="&#x2030;" horiz-adv-x="2361" 
d="M412 776q-66 0 -128 27.5t-111.5 76.5t-79.5 123t-30 160t30 160t79.5 122.5t111.5 75.5t128 27t128.5 -27t112.5 -75.5t80.5 -122.5t30.5 -160t-30.5 -160.5t-80.5 -123t-112.5 -76t-128.5 -27.5zM293 -4l-41 27l1020 1523l41 -26zM412 809q68 0 110.5 83t42.5 271
q0 189 -42 271t-111 82q-67 0 -108.5 -82t-41.5 -271q0 -187 41.5 -270.5t108.5 -83.5zM1151 -12q-66 0 -128 27.5t-111 76.5t-79 123t-30 160t30 160t79 122.5t111 75.5t128 27t128.5 -27t112.5 -75.5t80.5 -122.5t30.5 -160t-30.5 -160.5t-80.5 -123t-112.5 -76
t-128.5 -27.5zM1946 -12q-66 0 -128 27.5t-111.5 76.5t-79.5 123t-30 160t30 160t79.5 122.5t111.5 75.5t128 27t128.5 -27t112.5 -75.5t80.5 -122.5t30.5 -160t-30.5 -160.5t-80.5 -123t-112.5 -76t-128.5 -27.5zM1151 20q68 0 111 83.5t43 271.5t-42.5 270t-111.5 82
q-32 0 -57.5 -17.5t-47 -56.5t-33.5 -109.5t-12 -168.5q0 -188 41.5 -271.5t108.5 -83.5zM1946 20q68 0 110.5 83.5t42.5 271.5q0 352 -153 352q-32 0 -57.5 -17.5t-47 -56.5t-33.5 -109.5t-12 -168.5q0 -188 41.5 -271.5t108.5 -83.5z" />
    <glyph glyph-name="uni2032" unicode="&#x2032;" horiz-adv-x="378" 
d="M111 1110l-27 8q14 104 14 293q0 141 109 141q47 0 74.5 -28.5t27.5 -75.5q0 -57 -82 -162q-6 -9 -28 -39.5t-32.5 -45.5t-27 -41t-28.5 -50z" />
    <glyph glyph-name="uni2033" unicode="&#x2033;" horiz-adv-x="661" 
d="M393 1110l-26 8q14 104 14 293q0 141 108 141q47 0 75 -28.5t28 -75.5q0 -57 -82 -162q-8 -12 -28.5 -40t-32 -44.5t-28 -42t-28.5 -49.5zM111 1110l-27 8q14 104 14 293q0 141 109 141q47 0 74.5 -28.5t27.5 -75.5q0 -57 -82 -162q-6 -9 -28 -39.5t-32.5 -45.5t-27 -41
t-28.5 -50z" />
    <glyph glyph-name="guilsinglleft" unicode="&#x2039;" horiz-adv-x="536" 
d="M434 129l-360 326v32l358 326l23 -14l-162 -328l164 -328z" />
    <glyph glyph-name="guilsinglright" unicode="&#x203a;" horiz-adv-x="536" 
d="M102 129l-22 14l164 328l-162 328l22 14l359 -326v-32z" />
    <glyph glyph-name="fraction" unicode="&#x2044;" horiz-adv-x="1030" 
d="M123 756v24h784v-24h-784z" />
    <glyph glyph-name="Euro" unicode="&#x20ac;" horiz-adv-x="1298" 
d="M39 653v37h137q-2 27 -2 80q0 34 4 96h-139v37h143q20 152 82.5 276.5t151 204.5t193.5 123t214 43q185 0 304.5 -65t119.5 -178q0 -47 -28 -81t-84 -34q-123 0 -142 139q-4 35 -7 53t-8.5 42t-12.5 35t-19 24.5t-28.5 19t-40 9.5t-54.5 4q-154 0 -236.5 -152t-94.5 -463
h399v-37h-402v-65q0 -59 3 -111h399v-37h-399q17 -328 100.5 -473t255.5 -145q70 0 125.5 15.5t96 46t67.5 63t55 78.5l27 -19q-20 -37 -36 -62.5t-52.5 -64t-77.5 -63t-107 -42.5t-145 -18q-187 0 -323.5 88t-209.5 239.5t-90 356.5h-139z" />
    <glyph glyph-name="trademark" unicode="&#x2122;" horiz-adv-x="1468" 
d="M244 913v17q22 9 29.5 21t10.5 45t3 118v402h-37q-70 0 -103 -23.5t-43 -93.5h-18l10 112q1 18 4.5 21.5t16.5 3.5h467q12 0 15.5 -3.5t4.5 -21.5l10 -112h-18q-10 70 -42.5 93.5t-102.5 23.5h-39v-402q0 -85 3.5 -118t11 -45t30.5 -21v-17h-213zM684 913v17
q22 13 29.5 26t10.5 45.5t3 114.5v225q0 52 -0.5 77t-2.5 47t-7.5 30.5t-12 14t-20.5 10.5v16h176q8 0 12 -4.5t11 -24.5l145 -413l152 442h184v-16q-29 -7 -36 -36t-7 -143v-233q0 -82 3 -114.5t11 -45.5t29 -18v-17h-211v17q22 6 30 19.5t10.5 44t2.5 114.5v403l-205 -600
h-24l-217 596v-391v-67t2.5 -45t5 -31.5t10.5 -18.5t15.5 -13.5t23.5 -10.5v-17h-123z" />
    <glyph glyph-name="onethird" unicode="&#x2153;" horiz-adv-x="1030" 
d="M123 756v24h784v-24h-784zM670 952h-301v25q35 5 49 21t19 55.5t5 138.5v233q0 82 -13.5 103.5t-68.5 17.5v23l240 160v-537q0 -101 4 -139t17.5 -54.5t48.5 -21.5v-25zM252 397l43 156q1 3 2 8q11 22 16 23h459v-15l-315 -282q44 14 88 14q246 0 246 -231
q0 -109 -85.5 -180.5t-230.5 -71.5q-103 0 -169 42t-66 91q0 26 18 44.5t51 18.5q58 0 68 -55q1 -4 2.5 -20t3.5 -26t8 -25t15.5 -24t27 -15.5t41.5 -6.5q152 0 152 228q0 98 -22.5 150t-84.5 52q-44 0 -75.5 -14t-67.5 -43l-17 16l246 222h-135q-84 0 -120.5 -5t-50 -15
t-24.5 -36h-24z" />
    <glyph glyph-name="twothirds" unicode="&#x2154;" horiz-adv-x="1030" 
d="M123 756v24h784v-24h-784zM377 1083h137q110 0 157.5 5t64.5 15.5t30 37.5h22l-36 -156q-4 -20 -9 -26.5t-16 -6.5h-502l207 232q93 105 127.5 178t34.5 166q0 166 -121 166q-13 0 -23.5 -3t-18 -6t-13.5 -12t-9 -13t-6 -17t-3.5 -16.5t-2.5 -19t-2 -16.5q-5 -33 -22 -49
t-54 -16q-30 0 -47.5 16.5t-17.5 48.5q0 45 59 86t162 41q51 0 97.5 -9.5t91 -30.5t71.5 -61t27 -95q0 -85 -63 -161t-187 -173zM252 397l43 156q1 3 2 8q11 22 16 23h459v-15l-315 -282q44 14 88 14q246 0 246 -231q0 -109 -85.5 -180.5t-230.5 -71.5q-103 0 -169 42
t-66 91q0 26 18 44.5t51 18.5q58 0 68 -55q1 -4 2.5 -20t3.5 -26t8 -25t15.5 -24t27 -15.5t41.5 -6.5q152 0 152 228q0 98 -22.5 150t-84.5 52q-44 0 -75.5 -14t-67.5 -43l-17 16l246 222h-135q-84 0 -120.5 -5t-50 -15t-24.5 -36h-24z" />
    <glyph glyph-name="oneeighth" unicode="&#x215b;" horiz-adv-x="1030" 
d="M786 39q0 -93 -76.5 -157t-191.5 -64q-121 0 -197.5 58t-76.5 138q0 67 41 110.5t131 80.5q-80 50 -111 92.5t-31 103.5q0 88 71.5 137.5t170.5 49.5q113 0 178.5 -47t65.5 -111q0 -101 -146 -162q95 -55 133.5 -105.5t38.5 -123.5zM518 -158q74 0 109 36.5t35 94.5
q0 63 -38.5 100.5t-136.5 90.5l-43 24q-82 -58 -82 -180q0 -166 156 -166zM547 305l41 -22q65 47 65 137q0 143 -137 143q-65 0 -101 -25.5t-36 -70.5q0 -50 35.5 -81t132.5 -81zM123 756v24h784v-24h-784zM670 952h-301v25q35 5 49 21t19 55.5t5 138.5v233
q0 82 -13.5 103.5t-68.5 17.5v23l240 160v-537q0 -101 4 -139t17.5 -54.5t48.5 -21.5v-25z" />
    <glyph glyph-name="threeeighths" unicode="&#x215c;" horiz-adv-x="1030" 
d="M786 39q0 -93 -76.5 -157t-191.5 -64q-121 0 -197.5 58t-76.5 138q0 67 41 110.5t131 80.5q-80 50 -111 92.5t-31 103.5q0 88 71.5 137.5t170.5 49.5q113 0 178.5 -47t65.5 -111q0 -101 -146 -162q95 -55 133.5 -105.5t38.5 -123.5zM518 -158q74 0 109 36.5t35 94.5
q0 63 -38.5 100.5t-136.5 90.5l-43 24q-82 -58 -82 -180q0 -166 156 -166zM547 305l41 -22q65 47 65 137q0 143 -137 143q-65 0 -101 -25.5t-36 -70.5q0 -50 35.5 -81t132.5 -81zM123 756v24h784v-24h-784zM252 1526l43 155q1 3 2 8q11 22 16 23h459v-14l-315 -283
q47 15 88 15q246 0 246 -232q0 -109 -85.5 -180.5t-230.5 -71.5q-103 0 -169 42t-66 91q0 26 18 45t51 19q58 0 68 -56q0 -2 2.5 -24.5t6 -32.5t13 -27t29 -24.5t47.5 -7.5q152 0 152 227q0 98 -22.5 150.5t-84.5 52.5q-44 0 -75 -14t-68 -44l-17 17l246 221h-135
q-84 0 -120.5 -4.5t-50 -14.5t-24.5 -36h-24z" />
    <glyph glyph-name="fiveeighths" unicode="&#x215d;" horiz-adv-x="1030" 
d="M786 39q0 -93 -76.5 -157t-191.5 -64q-121 0 -197.5 58t-76.5 138q0 67 41 110.5t131 80.5q-80 50 -111 92.5t-31 103.5q0 88 71.5 137.5t170.5 49.5q113 0 178.5 -47t65.5 -111q0 -101 -146 -162q95 -55 133.5 -105.5t38.5 -123.5zM711 1583h-334l-49 -188q60 45 157 45
q82 0 146.5 -22t106.5 -73.5t42 -127.5q0 -114 -91 -191.5t-234 -77.5q-95 0 -157 39t-62 94q0 30 17.5 47t47.5 17q64 0 70 -64q1 -4 2.5 -26t4.5 -31t11 -24t24.5 -21t41.5 -6q78 0 119.5 69.5t41.5 174.5q0 196 -135 196q-106 0 -172 -59l-16 10l90 348h385l-37 -108
q0 -1 -1 -3q-4 -12 -7 -15t-12 -3zM518 -158q74 0 109 36.5t35 94.5q0 63 -38.5 100.5t-136.5 90.5l-43 24q-82 -58 -82 -180q0 -166 156 -166zM547 305l41 -22q65 47 65 137q0 143 -137 143q-65 0 -101 -25.5t-36 -70.5q0 -50 35.5 -81t132.5 -81zM123 756v24h784v-24h-784
z" />
    <glyph glyph-name="seveneighths" unicode="&#x215e;" horiz-adv-x="1030" 
d="M786 39q0 -93 -76.5 -157t-191.5 -64q-121 0 -197.5 58t-76.5 138q0 67 41 110.5t131 80.5q-80 50 -111 92.5t-31 103.5q0 88 71.5 137.5t170.5 49.5q113 0 178.5 -47t65.5 -111q0 -101 -146 -162q95 -55 133.5 -105.5t38.5 -123.5zM778 1696l-305 -744h-29l261 631h-224
q-76 0 -107.5 -4.5t-45.5 -15t-29 -39.5h-25l48 162q4 11 5.5 15t6 7.5t12.5 3.5h432v-16zM518 -158q74 0 109 36.5t35 94.5q0 63 -38.5 100.5t-136.5 90.5l-43 24q-82 -58 -82 -180q0 -166 156 -166zM547 305l41 -22q65 47 65 137q0 143 -137 143q-65 0 -101 -25.5
t-36 -70.5q0 -50 35.5 -81t132.5 -81zM123 756v24h784v-24h-784z" />
    <glyph glyph-name="arrowleft" unicode="&#x2190;" horiz-adv-x="1650" 
d="M90 715v28q151 31 344.5 164t278.5 283l24 -10q-38 -306 -227 -435h1034v-32h-1034q189 -129 227 -434l-24 -11q-58 103 -172.5 200.5t-233.5 160.5t-217 86z" />
    <glyph glyph-name="arrowright" unicode="&#x2192;" horiz-adv-x="1650" 
d="M106 713v32h1035q-190 130 -228 435l25 10q57 -101 171 -200t235.5 -163.5t216.5 -83.5v-28q-98 -22 -217 -85t-233.5 -161t-172.5 -201l-25 11q38 304 228 434h-1035z" />
    <glyph glyph-name="minus" unicode="&#x2212;" horiz-adv-x="993" 
d="M96 698v41h801v-41h-801z" />
    <glyph glyph-name="uni24C5" unicode="&#x24c5;" horiz-adv-x="1728" 
d="M866 1559q160 0 306.5 -63t253 -169.5t170 -253.5t63.5 -307t-63.5 -306.5t-170 -253t-253 -170t-306.5 -63.5q-161 0 -308.5 63.5t-254 170t-170 253t-63.5 306.5q0 161 63.5 307.5t170 253t254 169.5t308.5 63zM866 8q152 0 291.5 59t241.5 159.5t162.5 241.5t60.5 298
t-60.5 298t-162.5 241.5t-241.5 159.5t-291.5 59t-292 -59t-243 -159.5t-164 -242t-61 -297.5t61 -297.5t164 -242t243 -159.5t292 -59zM553 303v23q23 7 34 15.5t18.5 38.5t9 74t1.5 136v348q0 62 -0.5 98.5t-3.5 68t-6 46t-11.5 26.5t-17 16.5t-24.5 8.5v23h369
q168 0 265 -57t97 -175q0 -128 -100 -196t-260 -68h-113v-139q0 -176 10 -214t64 -50v-23h-332zM922 1200h-111v-446h109q93 0 137.5 52.5t44.5 172.5q0 119 -45 170t-135 51z" />
    <glyph glyph-name="space_uni0326" horiz-adv-x="1024" 
d="M569 -250q-6 -16 -26 -30.5t-54 -14.5q-46 0 -77 29.5t-31 77.5q0 50 36 82t87 32q59 0 102 -39.5t43 -119.5q0 -87 -53.5 -140t-153.5 -67l-10 24q79 18 114.5 55.5t35.5 75.5q0 32 -13 35z" />
    <glyph glyph-name="A.alt" 
d="M719 1552l463 -1239q63 -171 93.5 -222.5t72.5 -63.5v-27h-484v27q41 9 57 22.5t14.5 52.5t-28.5 115l-90 244h-514l-63 -174q-42 -122 -22.5 -181t106.5 -79v-27h-293v27q48 13 83.5 66.5t78.5 170.5l464 1288h62zM313 494h492l-248 675z" />
    <glyph glyph-name="G.alt" horiz-adv-x="1536" 
d="M836 -33q-213 0 -385.5 104.5t-270.5 290.5t-98 418q0 154 45.5 285t120.5 220.5t173.5 153t203 93t209.5 29.5q78 0 141.5 -11.5t97.5 -24.5t73.5 -24.5t74.5 -11.5q38 0 53 47h33v-367h-35q-36 171 -146.5 265t-291.5 94q-99 0 -175.5 -37.5t-135.5 -120t-90.5 -226
t-31.5 -343.5q0 -801 435 -801q69 0 120 14.5t82 38t50 59t25.5 72.5t6.5 84v97q0 113 -3.5 180.5t-11 114t-25 68.5t-37.5 31.5t-58 14.5v27h414v-744h-31q-14 70 -65 70q-23 0 -67.5 -25t-92 -55t-131 -55t-176.5 -25z" />
    <glyph glyph-name="J.alt" horiz-adv-x="595" 
d="M-84 -305q-73 0 -109 35t-36 84q0 43 28.5 71.5t67.5 28.5q29 0 54.5 -14.5t43 -35t33 -40.5t32 -34.5t31.5 -14.5q17 0 24 2.5t19 13.5q16 16 25 31t19 69.5t10 141.5v1024q0 110 -0.5 170t-5 116t-10 79t-19.5 44t-29 28t-43 15v27h502v-27q-28 -8 -43 -15t-29 -28
t-19.5 -44t-10 -79t-5 -116t-0.5 -170v-703q0 -327 -316 -576q-8 -7 -11 -9q-95 -74 -203 -74z" />
    <glyph glyph-name="J.alt1" horiz-adv-x="1148" 
d="M700 412v645q0 104 -1.5 170t-7.5 117t-12.5 77.5t-22 45.5t-31 26.5t-43.5 15.5v27h514v-27q-28 -8 -43 -15t-29 -28t-19.5 -44t-10 -79t-5 -116t-0.5 -170v-592q0 -103 -35.5 -188t-91 -139t-127.5 -90.5t-142 -52t-138 -15.5q-81 0 -154 16.5t-133.5 49t-96.5 88
t-36 126.5q0 53 33 84t88 31q64 0 99.5 -31t39.5 -102q7 -127 43.5 -178.5t116.5 -51.5q47 0 82 9.5t67 35.5t52.5 70t32 115.5t11.5 169.5z" />
    <glyph glyph-name="K.alt" horiz-adv-x="1372" 
d="M51 0v27q21 6 33.5 11t25 17t19.5 23.5t13 38.5t8.5 53.5t4.5 76.5t2.5 100t0.5 132v578q0 82 -0.5 132t-2.5 100t-4.5 76.5t-8.5 53.5t-13 38.5t-19.5 23.5t-25 17t-33.5 11v27h502v-27q-21 -6 -33.5 -11t-25 -17t-19.5 -23.5t-13 -38.5t-8.5 -53.5t-4.5 -76.5
t-2.5 -100t-0.5 -132v-234l519 512q40 40 56.5 72.5t11 53t-24.5 32.5t-50 16v27h297v-27q-72 -8 -245 -174l-488 -483q50 20 121 20q188 0 300.5 -103t168.5 -335q21 -86 33 -134t27 -98t26 -73.5t26.5 -44t31.5 -27t38 -6.5q41 0 86 45l19 -18q-81 -92 -225 -92
q-77 0 -135 24t-106.5 79t-83 150t-56.5 232q-15 96 -28 155t-28 103.5t-35 66t-44 31t-60 9.5q-75 0 -152 -54v-303q0 -82 0.5 -132t2.5 -100t4.5 -76.5t8.5 -53.5t13 -38.5t19.5 -23.5t25 -17t33.5 -11v-27h-502z" />
    </font>
</defs>
</svg>
