<svg version="1.1" baseProfile="tiny" xmlns="http://www.w3.org/2000/svg" xmlns:xlink="http://www.w3.org/1999/xlink" x="0px" y="0px" viewBox="0 0 133 132" overflow="visible" xml:space="preserve" width="133" height="132"><g><path fill="#FEF7EC" d="M66.5,1C30.6,1,1.4,30.2,1.4,66c0,35.8,29.2,65,65.1,65c35.9,0,65.1-29.2,65.1-65C131.6,30.2,102.4,1,66.5,1z M66.5,130c-35.4,0-64.1-28.7-64.1-64c0-35.3,28.8-64,64.1-64c35.4,0,64.1,28.7,64.1,64C130.6,101.3,101.9,130,66.5,130z"/><path fill="#FEF7EC" d="M72.9,36.7h-1c0,13.6,9.3,25,21.8,28.4h-62v1H99c-15.2,1.2-27.1,13.8-27.1,29.3h1c0-15.6,12.8-28.4,28.4-28.4V66V66V65C85.6,65,72.9,52.3,72.9,36.7z"/></g></svg>